<svg width="16" height="16" viewBox="0 0 16 16" fill="none" xmlns="http://www.w3.org/2000/svg">
<path d="M12.3269 15.0208C11.6171 14.948 10.9951 14.78 10.3869 14.5542C8.8757 13.9887 7.54011 13.1296 6.30234 12.1088C4.58551 10.6917 3.14458 9.03882 2.05102 7.09375C1.50174 6.11808 1.08539 5.08974 0.880973 3.98114C0.818269 3.64254 0.838335 3.34407 1.04526 3.0481C1.72497 2.07369 2.46612 1.1557 3.33771 0.346827C3.44681 0.245246 3.57347 0.158715 3.69637 0.0734382C3.84811 -0.0331581 4.00738 -0.0206174 4.14658 0.0909953C4.2582 0.181289 4.3673 0.282869 4.45007 0.399498C5.13856 1.3689 5.7681 2.37467 6.28478 3.44815C6.31613 3.51337 6.33369 3.58485 6.36755 3.64881C6.52055 3.9385 6.43778 4.17426 6.20703 4.37742C5.88097 4.66461 5.56243 4.96308 5.22258 5.23521C5.00437 5.40953 4.98556 5.58259 5.07585 5.83591C5.93615 8.2312 7.55892 9.86651 9.94417 10.7444C10.348 10.8936 10.358 10.8861 10.649 10.5713C10.8872 10.313 11.1105 10.0408 11.34 9.77496C11.3876 9.71978 11.439 9.66962 11.4879 9.61569C11.6836 9.4025 11.9005 9.34983 12.1789 9.46771C12.9427 9.79001 13.6449 10.2214 14.3447 10.6578C14.7084 10.8848 15.0683 11.1218 15.4144 11.3739C15.9499 11.7639 15.9775 11.9771 15.5311 12.4662C14.6796 13.398 13.7139 14.1956 12.6517 14.8778C12.5376 14.9505 12.4034 14.9882 12.3269 15.0208Z" fill="#667085"/>
<path d="M8.87695 1.07098C8.87695 0.708552 8.87695 0.368698 8.87695 0C10.5637 0.017557 12.061 0.545523 13.3427 1.63281C14.9793 3.01981 15.7894 4.80687 15.8496 6.95886C15.4809 6.95886 15.1323 6.95886 14.7711 6.95886C14.7322 5.34738 14.1767 3.95034 13.0367 2.80913C11.8955 1.66792 10.4997 1.1086 8.87695 1.07098Z" fill="#667085"/>
<path d="M8.88281 3.75173C8.88281 3.38679 8.88281 3.04318 8.88281 2.70081C11.164 2.61554 13.2269 4.66469 13.1442 6.96341C12.8005 6.96341 12.4569 6.96341 12.0945 6.96341C12.0644 6.09058 11.7672 5.32434 11.1439 4.70232C10.5244 4.08155 9.76443 3.78057 8.88281 3.75173Z" fill="#667085"/>
</svg>
