<svg width="20" height="21" viewBox="0 0 20 21" fill="none" xmlns="http://www.w3.org/2000/svg">
<path d="M10 1C15.2467 1 19.5 5.2533 19.5 10.5C19.5 15.7467 15.2467 20 10 20C4.7533 20 0.5 15.7467 0.5 10.5C0.5 5.2533 4.7533 1 10 1Z" fill="#7856FC"/>
<path d="M10 1C15.2467 1 19.5 5.2533 19.5 10.5C19.5 15.7467 15.2467 20 10 20C4.7533 20 0.5 15.7467 0.5 10.5C0.5 5.2533 4.7533 1 10 1Z" stroke="#7856FC"/>
<path d="M14.6663 7L8.24967 13.4167L5.33301 10.5" stroke="white" stroke-width="2" stroke-linecap="round" stroke-linejoin="round"/>
</svg>
