<svg width="22" height="22" viewBox="0 0 22 22" fill="none" xmlns="http://www.w3.org/2000/svg">
<path d="M11 1C5.47715 1 1 5.47715 1 11C1 16.5228 5.47715 21 11 21C16.5228 21 21 16.5228 21 11C20.9936 5.47982 16.5202 1.00643 11 1Z" stroke="#BAB2FF"/>
<path d="M16.7724 7.83337L11.0683 15.5742C10.9322 15.7547 10.7294 15.873 10.5053 15.9024C10.2812 15.9319 10.0547 15.8701 9.87659 15.7309L5.80325 12.4742C5.44381 12.1866 5.3856 11.662 5.67325 11.3025C5.9609 10.9431 6.48547 10.8849 6.84492 11.1725L10.2416 13.89L15.4308 6.84754C15.6009 6.5922 15.8976 6.45103 16.2031 6.48007C16.5086 6.50912 16.7734 6.70368 16.8923 6.98652C17.0113 7.26935 16.9653 7.59469 16.7724 7.83337Z" fill="#BAB2FF"/>
</svg>
