<svg width="48" height="48" viewBox="0 0 48 48" fill="none" xmlns="http://www.w3.org/2000/svg">
<rect x="0.0644531" width="47.3565" height="48" rx="23.6783" fill="#FF9C66"/>
<path fill-rule="evenodd" clip-rule="evenodd" d="M27.013 12C27.212 12.003 27.408 12.064 27.575 12.181C27.842 12.368 28.001 12.674 28.001 13V35C28.001 35.548 27.56 35.993 27.014 36H27.001H16.001C15.449 36 15.001 35.552 15.001 35C15.001 35 15.001 22.633 15.001 18.401C15.001 17.139 15.79 16.013 16.976 15.581C19.896 14.52 26.659 12.06 26.659 12.06C26.765 12.022 26.874 12.002 26.983 12H26.998H27.013ZM30.001 20.198L33.183 21.561C34.286 22.034 35.001 23.119 35.001 24.319V35C35.001 35.552 34.553 36 34.001 36H29.83C29.941 35.687 30.001 35.351 30.001 35V20.198ZM23.014 29C23.56 28.993 24.001 28.548 24.001 28C24.001 27.448 23.553 27 23.001 27H20.001C19.449 27 19.001 27.448 19.001 28C19.001 28.552 19.449 29 20.001 29H23.001H23.014ZM23.014 25C23.56 24.993 24.001 24.548 24.001 24C24.001 23.448 23.553 23 23.001 23H20.001C19.449 23 19.001 23.448 19.001 24C19.001 24.552 19.449 25 20.001 25H23.001H23.014ZM23.014 21C23.56 20.993 24.001 20.548 24.001 20C24.001 19.448 23.553 19 23.001 19H20.001C19.449 19 19.001 19.448 19.001 20C19.001 20.552 19.449 21 20.001 21H23.001H23.014Z" fill="white"/>
</svg>
