<svg width="56" height="56" viewBox="0 0 56 56" fill="none" xmlns="http://www.w3.org/2000/svg">
<path fill-rule="evenodd" clip-rule="evenodd" d="M45.4239 25.2836C45.4449 25.2836 45.4659 25.2845 45.4956 25.2845H45.5009C46.9499 25.2845 48.125 24.1093 48.125 22.6603V19.7965C48.125 19.527 48.0559 19.2618 47.9246 19.0265L41.5301 7.58496H14.4699L8.07538 19.0265C7.94413 19.2618 7.875 19.527 7.875 19.7965V22.6603C7.875 24.1067 9.04488 25.2792 10.4974 25.2845H10.5026C10.5271 25.2845 10.5516 25.2845 10.5761 25.2836C11.9674 25.246 13.0883 24.1251 13.1259 22.7338C13.139 22.2605 13.5266 21.8833 14.0009 21.8833C14.4751 21.8833 14.8628 22.2605 14.8759 22.7338C14.9144 24.1461 16.0685 25.2792 17.4974 25.2845H17.5026C18.9271 25.2845 20.0874 24.1496 20.1259 22.7338C20.139 22.2605 20.5266 21.8833 21.0009 21.8833C21.4743 21.8833 21.8619 22.2605 21.875 22.7338C21.9135 24.1461 23.0685 25.2792 24.4965 25.2845H24.5018C25.9263 25.2845 27.0865 24.1496 27.125 22.7338C27.1381 22.2605 27.5257 21.8833 28 21.8833C28.4743 21.8833 28.8619 22.2605 28.875 22.7338C28.9135 24.1461 30.0676 25.2792 31.4965 25.2845H31.5018C32.9263 25.2845 34.0865 24.1496 34.125 22.7338C34.1381 22.2605 34.5257 21.8833 34.9991 21.8833C35.4734 21.8833 35.861 22.2605 35.8741 22.7338C35.9126 24.1461 37.0676 25.2792 38.4956 25.2845H38.5009C39.9254 25.2845 41.0856 24.1496 41.1241 22.7338C41.1372 22.2605 41.5249 21.8833 41.9991 21.8833C42.4734 21.8833 42.861 22.2605 42.8741 22.7338C42.9117 24.1251 44.0326 25.246 45.4239 25.2836ZM44.5252 30.9632V26.926C43.4997 26.6932 42.6107 26.1008 41.9991 25.2871C41.2011 26.3485 39.9315 27.0345 38.5018 27.0345H38.4974C37.0676 27.0345 35.798 26.3485 34.9991 25.2871C34.2011 26.3485 32.9315 27.0345 31.5018 27.0345H31.4974C30.0676 27.0345 28.798 26.3485 28 25.2871C27.202 26.3485 25.9324 27.0345 24.5026 27.0345H24.4982C23.0685 27.0345 21.7989 26.3485 21 25.2871C20.202 26.3485 18.9324 27.0345 17.5026 27.0345H17.4982C16.0685 27.0345 14.7989 26.3485 14.0009 25.2871C13.3893 26.1 12.5003 26.6932 11.4748 26.926V40.2198C11.4748 40.639 11.641 41.0397 11.9367 41.3355C12.2325 41.6321 12.6341 41.7983 13.0524 41.7983H15.5155V32.9547C15.5155 31.8505 15.9539 30.7917 16.7344 30.0121C17.5149 29.2316 18.5728 28.7932 19.677 28.7932H19.6787C20.783 28.7932 21.8417 29.2316 22.6214 30.0121C23.4019 30.7917 23.8403 31.8505 23.8403 32.9547V41.7983C26.9911 41.7983 29.6056 41.7975 29.6056 41.7975C29.4954 41.1981 29.4376 40.5795 29.4376 39.9477C29.4376 34.3075 34.0165 29.7286 39.6567 29.7286C41.419 29.7286 43.0771 30.1757 44.5252 30.9632ZM31.5543 42.4178C32.6121 45.8881 35.8417 48.416 39.6567 48.416C44.3301 48.416 48.125 44.6211 48.125 39.9477C48.125 37.2352 46.8475 34.8202 44.8621 33.2697C43.4254 32.148 41.6185 31.4786 39.6567 31.4786C34.9825 31.4786 31.1876 35.2735 31.1876 39.9477C31.1876 40.807 31.3163 41.6365 31.5543 42.4178ZM17.2655 41.7983H22.0903V32.9547C22.0903 32.3151 21.8365 31.7017 21.3841 31.2493C20.9317 30.797 20.3184 30.5432 19.6787 30.5432H19.677C19.0374 30.5432 18.424 30.797 17.9716 31.2493C17.5193 31.7017 17.2655 32.3151 17.2655 32.9547V41.7983ZM35.5784 40.303C35.2065 39.9941 35.1557 39.442 35.4637 39.0701C35.7726 38.6991 36.3247 38.6475 36.6966 38.9563L38.7389 40.653L42.6169 37.4321C42.9879 37.1232 43.54 37.174 43.8489 37.5458C44.1578 37.9177 44.1061 38.4698 43.7351 38.7778L39.298 42.4633C38.9734 42.7328 38.5035 42.7328 38.1798 42.4633L35.5784 40.303Z" fill="#7856FC"/>
</svg>
