<svg width="56" height="56" viewBox="0 0 56 56" fill="none" xmlns="http://www.w3.org/2000/svg">
<path d="M25.0833 29.7967C25.0833 27.79 26.1799 25.9933 27.9533 25.1067L32.6199 22.7267C33.3666 22.3533 34.1833 22.1667 34.9999 22.1667H41.4166V11.6667C41.4166 8.12 38.5466 5.25 34.9999 5.25H13.9999C10.4533 5.25 7.58325 8.12 7.58325 11.6667V42C7.58325 45.5467 10.4533 48.4167 13.9999 48.4167H30.0066C26.9033 45.08 25.0833 40.6233 25.0833 35.8867V29.7967ZM13.9999 12.25H30.3333C31.2993 12.25 32.0833 13.034 32.0833 14C32.0833 14.966 31.2993 15.75 30.3333 15.75H13.9999C13.0339 15.75 12.2499 14.966 12.2499 14C12.2499 13.034 13.0339 12.25 13.9999 12.25ZM20.9999 29.75H13.9999C13.0339 29.75 12.2499 28.966 12.2499 28C12.2499 27.034 13.0339 26.25 13.9999 26.25H20.9999C21.9659 26.25 22.7499 27.034 22.7499 28C22.7499 28.966 21.9659 29.75 20.9999 29.75ZM23.3333 22.75H13.9999C13.0339 22.75 12.2499 21.966 12.2499 21C12.2499 20.034 13.0339 19.25 13.9999 19.25H23.3333C24.2993 19.25 25.0833 20.034 25.0833 21C25.0833 21.966 24.2993 22.75 23.3333 22.75ZM49.7933 28.224L45.1266 25.8557C44.8816 25.732 44.6086 25.6667 44.3333 25.6667H34.9999C34.7246 25.6667 34.4539 25.732 34.2066 25.8557L29.5399 28.224C28.9519 28.5227 28.5833 29.127 28.5833 29.785V35.8937C28.5833 42.0933 32.4566 47.7237 38.2293 49.9053C38.6913 50.0803 39.1766 50.1667 39.6643 50.1667C40.1519 50.1667 40.6419 50.078 41.1109 49.903C46.8766 47.7237 50.7499 42.0933 50.7499 35.8937V29.785C50.7499 29.127 50.3813 28.5227 49.7933 28.224ZM44.4733 35.5553L40.2733 40.257C39.9396 40.628 39.4659 40.8403 38.9666 40.8403C38.4673 40.8403 37.9936 40.628 37.6599 40.257L34.8599 37.121C34.2183 36.4 34.2789 35.294 34.9999 34.65C35.7233 34.0083 36.8246 34.0667 37.4733 34.79L38.9689 36.463L41.8623 33.222C42.5039 32.501 43.6099 32.4403 44.3356 33.082C45.0566 33.726 45.1173 34.832 44.4756 35.553L44.4733 35.5553Z" fill="#16B364"/>
</svg>
