<svg width="76" height="76" viewBox="0 0 76 76" fill="none" xmlns="http://www.w3.org/2000/svg">
<path d="M72.2929 29.0406C71.1022 27.8498 70.1734 26.4565 69.54 24.9365C68.9067 23.4164 68.5774 21.7698 68.5774 20.0894C68.5774 16.585 67.1587 13.4266 64.8702 11.1297C62.5734 8.84131 59.4151 7.4227 55.9107 7.4227C52.5498 7.4227 49.3325 6.08841 46.9595 3.70723C44.4853 1.23286 41.2427 0 38 0C34.7574 0 31.5147 1.23286 29.0405 3.70723C27.8498 4.89782 26.4565 5.82658 24.9365 6.45992C23.4165 7.09325 21.7698 7.4227 20.0894 7.4227C16.5849 7.4227 13.4267 8.84131 11.1298 11.1297C8.84136 13.4266 7.4227 16.585 7.4227 20.0894C7.4227 21.7698 7.09335 23.4164 6.46002 24.9365C5.82669 26.4565 4.89777 27.8498 3.70712 29.0406C1.23291 31.5147 0 34.7573 0 38C0 41.2425 1.23291 44.4853 3.70712 46.9594C4.89777 48.1502 5.82669 49.5435 6.46002 51.0635C7.09335 52.5836 7.4227 54.2302 7.4227 55.9106C7.4227 59.415 8.84136 62.5734 11.1298 64.8703C13.4267 67.1587 16.5849 68.5773 20.0894 68.5773C21.7698 68.5773 23.4165 68.9068 24.9365 69.5401C26.4565 70.1734 27.8498 71.1022 29.0405 72.2928C31.5147 74.7671 34.7574 76 38 76C41.2427 76 44.4853 74.7671 46.9595 72.2928C48.1502 71.1022 49.5436 70.1734 51.0636 69.5401C52.5836 68.9068 54.2303 68.5773 55.9107 68.5773C59.4151 68.5773 62.5734 67.1587 64.8702 64.8703C67.1587 62.5734 68.5774 59.415 68.5774 55.9106C68.5774 54.2302 68.9067 52.5836 69.54 51.0635C70.1734 49.5435 71.1022 48.1502 72.2929 46.9594C74.7671 44.4853 76 41.2425 76 38C76 34.7573 74.7671 31.5147 72.2929 29.0406ZM56.4005 29.1587L33.9467 51.6125C33.3133 52.2459 32.452 52.6005 31.5569 52.6005C30.6618 52.6005 29.8005 52.2459 29.1671 51.6125L19.5996 42.0449C18.2822 40.7275 18.2822 38.5911 19.5996 37.2652C20.9169 35.9481 23.0618 35.9481 24.3791 37.2652L31.5569 44.4517L51.6209 24.3875C52.9382 23.0703 55.0831 23.0703 56.4005 24.3875C57.7178 25.7048 57.7178 27.8413 56.4005 29.1587Z" fill="#3E1999"/>
</svg>
