<svg width="56" height="56" viewBox="0 0 56 56" fill="none" xmlns="http://www.w3.org/2000/svg">
<circle cx="28" cy="28" r="28" fill="#22CCEE"/>
<path d="M38.7693 20.6985L32.4616 14.2387C31.6922 13.4697 30.6154 13.0083 29.3847 13.0083H20.3077C18 12.8545 16 14.854 16 17.161V38.6935C16 41.0005 17.8462 43 20.3077 43H35.6923C38.0001 43 40 41.1544 40 38.6935V23.6208C40 22.5441 39.5385 21.4675 38.7693 20.6985ZM23.3846 25.1589H28C28.6154 25.1589 29.2308 25.6203 29.2308 26.3893C29.2308 27.1582 28.7692 27.6196 28 27.6196H23.3846C22.7692 27.6196 22.1538 27.1582 22.1538 26.3893C22.1538 25.6203 22.7692 25.1589 23.3846 25.1589ZM32.6153 33.7719H23.3846C22.7692 33.7719 22.1538 33.3105 22.1538 32.5414C22.1538 31.7724 22.6154 31.311 23.3846 31.311H32.6153C33.2308 31.311 33.8461 31.7724 33.8461 32.5414C33.8461 33.3105 33.2308 33.7719 32.6153 33.7719Z" fill="white"/>
</svg>
