<svg width="56" height="56" viewBox="0 0 56 56" fill="none" xmlns="http://www.w3.org/2000/svg">
<path d="M33.8333 23.5665L50.1666 7.2332C49.2332 6.76654 48.2999 6.5332 47.3666 6.5332H17.2666C16.3333 6.5332 15.3999 6.76654 14.4666 7.2332L30.7999 23.5665C31.7332 24.2665 32.8999 24.2665 33.8333 23.5665ZM52.9666 10.2665L36.6333 26.5999C34.0666 29.1665 30.0999 29.1665 27.7666 26.5999L11.4333 10.2665C11.1999 11.1999 10.9666 12.1332 10.9666 13.0665V34.5332C10.9666 38.2665 13.7666 41.0665 17.4999 41.0665H47.3666C51.0999 41.0665 53.8999 38.2665 53.8999 34.5332V13.0665C53.6666 12.1332 53.4333 11.1999 52.9666 10.2665ZM38.7333 45.0332H13.0666C9.33325 45.0332 6.53325 42.2332 6.53325 38.4999V21.6999C6.53325 20.2999 5.59992 19.5999 4.43325 19.5999C3.26659 19.5999 2.33325 20.2999 2.33325 21.6999V38.7332C2.33325 44.7999 6.99992 49.4665 13.0666 49.4665H38.7333C39.8999 49.4665 40.8333 48.5332 40.8333 47.3665C40.8333 46.1999 39.8999 45.0332 38.7333 45.0332Z" fill="#EAAA08"/>
</svg>
