<svg width="30" height="31" viewBox="0 0 30 31" fill="none" xmlns="http://www.w3.org/2000/svg">
<circle cx="15" cy="15.666" r="15" fill="white"/>
<path d="M13.8093 16.4432C13.5355 16.4432 13.2816 16.4432 13.0281 16.4432C12.8131 16.4432 12.598 16.4435 12.3829 16.4432C12.0758 16.4424 12.0014 16.3691 12.0006 16.0632C11.9998 15.4963 11.9998 14.9294 12.0006 14.3626C12.001 14.0609 12.0738 13.9881 12.3704 13.9877C12.7907 13.9873 13.2111 13.9877 13.631 13.9877C13.6839 13.9877 13.7368 13.9877 13.8089 13.9877C13.8089 13.9234 13.8089 13.8713 13.8089 13.8196C13.8108 13.3409 13.7905 12.8606 13.8191 12.3831C13.8818 11.3383 14.2903 10.4859 15.2623 9.98482C15.6995 9.75996 16.1715 9.66712 16.662 9.66672C17.1556 9.66633 17.6492 9.66516 18.1428 9.66712C18.4049 9.66829 18.4758 9.73881 18.4766 9.99579C18.4781 10.5431 18.4777 11.0903 18.4766 11.638C18.4758 11.9036 18.4025 11.98 18.1393 11.9835C17.7777 11.9886 17.4161 11.987 17.0545 11.9921C16.9574 11.9933 16.859 12.0015 16.7634 12.0188C16.5421 12.0587 16.3752 12.2092 16.3686 12.4293C16.3533 12.9311 16.3639 13.4338 16.3639 13.9575C16.412 13.9575 16.4634 13.9575 16.5147 13.9575C17.0326 13.9575 17.5509 13.9567 18.0687 13.9579C18.3355 13.9587 18.4166 14.041 18.417 14.3101C18.4182 14.9063 18.4182 15.5026 18.417 16.0988C18.4166 16.3519 18.3531 16.4185 18.095 16.42C17.572 16.4236 17.049 16.4216 16.5264 16.422C16.4739 16.422 16.4214 16.422 16.3509 16.422C16.3509 16.5011 16.3509 16.563 16.3509 16.6253C16.3509 18.1453 16.3509 19.6649 16.3509 21.1849C16.3509 21.6177 16.3031 21.6659 15.8754 21.6659C15.3085 21.6659 14.7416 21.6663 14.1748 21.6655C13.8861 21.6651 13.8108 21.5915 13.8105 21.3012C13.8097 19.7471 13.8101 18.1931 13.8101 16.639C13.8093 16.5818 13.8093 16.5239 13.8093 16.4432Z" fill="black"/>
</svg>
