<svg width="56" height="56" viewBox="0 0 56 56" fill="none" xmlns="http://www.w3.org/2000/svg">
<circle cx="28" cy="28" r="28" fill="#9886FE"/>
<path d="M16.0912 24.1606C17.9375 24.8406 20.25 25.28 22.75 25.4375C24.74 21.4062 28.8937 18.625 33.6875 18.625C34.9625 18.6243 36.2297 18.8242 37.4425 19.2175C37.0675 18.2456 36.0275 17.1331 33.5338 16.2175C31.1875 15.3506 28.0925 14.875 24.8125 14.875C21.5325 14.875 18.4375 15.3506 16.0912 16.2144C12.71 17.46 12 19.0625 12 20.1875C12 21.3125 12.71 22.915 16.0912 24.1606Z" fill="white"/>
<path d="M16.0912 31.9731C17.6831 32.5594 19.6219 32.9669 21.7294 33.1681C21.3434 31.2051 21.4458 29.1773 22.0275 27.2631C19.5756 27.0625 17.3012 26.605 15.4431 25.92C14.0131 25.3931 12.8606 24.75 12 23.995V28C12 29.125 12.71 30.7275 16.0912 31.9731Z" fill="white"/>
<path d="M22.2775 35.095C19.7306 34.9075 17.3644 34.4406 15.4431 33.7325C14.0131 33.2056 12.8606 32.5625 12 31.8075V35.8125C12 36.9375 12.71 38.54 16.0912 39.7856C18.4375 40.6494 21.5325 41.125 24.8125 41.125C25.58 41.125 26.3375 41.0987 27.0781 41.0475C24.8837 39.6264 23.2015 37.5406 22.2775 35.095Z" fill="white"/>
<path d="M33.6875 20.5C28 20.5 23.375 25.125 23.375 30.8125C23.375 36.5 28 41.125 33.6875 41.125C39.375 41.125 44 36.5 44 30.8125C44 25.125 39.375 20.5 33.6875 20.5ZM32.925 29.875H34.45C35.2336 29.8841 35.9833 30.196 36.5422 30.7453C37.1011 31.2947 37.4258 32.0389 37.4484 32.8222C37.471 33.6056 37.1898 34.3673 36.6635 34.9479C36.1373 35.5286 35.4068 35.8832 34.625 35.9375V36.4375C34.625 36.6861 34.5262 36.9246 34.3504 37.1004C34.1746 37.2762 33.9361 37.375 33.6875 37.375C33.4389 37.375 33.2004 37.2762 33.0246 37.1004C32.8488 36.9246 32.75 36.6861 32.75 36.4375V35.945H30.8275C30.5789 35.945 30.3404 35.8462 30.1646 35.6704C29.9888 35.4946 29.89 35.2561 29.89 35.0075C29.89 34.7589 29.9888 34.5204 30.1646 34.3446C30.3404 34.1688 30.5789 34.07 30.8275 34.07H34.4525C34.7602 34.07 35.0552 33.9478 35.2727 33.7302C35.4903 33.5127 35.6125 33.2177 35.6125 32.91C35.6125 32.6023 35.4903 32.3073 35.2727 32.0898C35.0552 31.8722 34.7602 31.75 34.4525 31.75H32.925C32.1414 31.7409 31.3917 31.429 30.8328 30.8797C30.2739 30.3303 29.9492 29.5861 29.9266 28.8028C29.904 28.0194 30.1852 27.2577 30.7115 26.6771C31.2377 26.0964 31.9682 25.7418 32.75 25.6875V25.1875C32.75 24.9389 32.8488 24.7004 33.0246 24.5246C33.2004 24.3488 33.4389 24.25 33.6875 24.25C33.9361 24.25 34.1746 24.3488 34.3504 24.5246C34.5262 24.7004 34.625 24.9389 34.625 25.1875V25.68H36.5475C36.7961 25.68 37.0346 25.7788 37.2104 25.9546C37.3862 26.1304 37.485 26.3689 37.485 26.6175C37.485 26.8661 37.3862 27.1046 37.2104 27.2804C37.0346 27.4562 36.7961 27.555 36.5475 27.555H32.9225C32.6148 27.555 32.3198 27.6772 32.1023 27.8948C31.8847 28.1123 31.7625 28.4073 31.7625 28.715C31.7625 29.0227 31.8847 29.3177 32.1023 29.5352C32.3198 29.7528 32.6148 29.875 32.9225 29.875H32.925Z" fill="white"/>
</svg>
