<svg width="56" height="56" viewBox="0 0 56 56" fill="none" xmlns="http://www.w3.org/2000/svg">
<circle cx="28" cy="28" r="28" fill="#9886FE"/>
<path d="M41.6035 27.9846C41.6035 29.1236 39.7753 30.0072 39.4946 31.0577C39.2041 32.1446 40.3369 33.8221 39.7864 34.7738C39.2278 35.7391 37.2035 35.593 36.4201 36.3764C35.6367 37.1598 35.7828 39.1842 34.8174 39.7427C33.8658 40.2933 32.1883 39.1604 31.1013 39.4509C30.0509 39.7316 29.1673 41.5598 28.0283 41.5598C26.8893 41.5598 26.0058 39.7316 24.9553 39.4509C23.8684 39.1604 22.1908 40.2932 21.2392 39.7427C20.2739 39.1841 20.42 37.1598 19.6365 36.3764C18.8531 35.593 16.8288 35.739 16.2703 34.7737C15.7197 33.8221 16.8526 32.1446 16.5621 31.0576C16.2813 30.0072 14.4531 29.1236 14.4531 27.9846C14.4531 26.8456 16.2813 25.9621 16.5621 24.9116C16.8526 23.8247 15.7197 22.1471 16.2703 21.1955C16.8288 20.2302 18.8532 20.3763 19.6366 19.5928C20.42 18.8094 20.2739 16.7851 21.2392 16.2266C22.1908 15.676 23.8684 16.8089 24.9553 16.5184C26.0058 16.2376 26.8893 14.4094 28.0283 14.4094C29.1673 14.4094 30.0509 16.2376 31.1014 16.5184C32.1883 16.8089 33.8658 15.676 34.8175 16.2266C35.7828 16.7851 35.6367 18.8095 36.4201 19.5929C37.2035 20.3763 39.2279 20.2302 39.7864 21.1955C40.337 22.1471 39.2041 23.8247 39.4946 24.9116C39.7753 25.9621 41.6035 26.8456 41.6035 27.9846Z" fill="white"/>
<path d="M20.7416 30.7919H19.6785C19.5139 30.7919 19.4316 30.7097 19.4316 30.5451V26.1009C19.4316 25.9363 19.5139 25.854 19.6785 25.854H22.7373C22.9019 25.854 22.9842 25.9363 22.9842 26.1009V26.917C22.9842 27.0816 22.9019 27.1639 22.7373 27.1639H20.9884V27.8772H22.1818C22.3464 27.8772 22.4287 27.9595 22.4287 28.1241V28.9471C22.4287 29.1117 22.3464 29.194 22.1818 29.194H20.9884V30.5451C20.9884 30.7096 20.9062 30.7919 20.7416 30.7919Z" fill="#9886FE"/>
<path d="M24.973 30.7919H23.9168C23.7522 30.7919 23.6699 30.7097 23.6699 30.5451V26.1009C23.6699 25.9363 23.7522 25.854 23.9168 25.854H26.2006C26.5435 25.854 26.8132 25.902 27.0099 25.998C27.2064 26.094 27.346 26.2278 27.4282 26.3992C27.5105 26.5707 27.5517 26.7708 27.5517 26.9993V27.3148C27.5517 27.5068 27.5243 27.6692 27.4694 27.8017C27.4145 27.9344 27.3139 28.0327 27.1676 28.0967C27.419 28.1241 27.6203 28.2247 27.7711 28.3984C27.922 28.5722 27.9975 28.803 27.9975 29.0911V30.5451C27.9975 30.7096 27.9152 30.7919 27.7506 30.7919H26.6875C26.5229 30.7919 26.4407 30.7096 26.4407 30.5451V29.4957C26.4407 29.3906 26.4211 29.3152 26.3824 29.2694C26.3435 29.2238 26.2761 29.2008 26.18 29.2008H25.2199V30.5451C25.2199 30.7096 25.1376 30.7919 24.973 30.7919ZM25.2199 27.0885V27.9663H25.7343C25.8531 27.9663 25.9331 27.9355 25.9743 27.8737C26.0154 27.812 26.036 27.7355 26.036 27.644V27.4108C26.036 27.3194 26.0154 27.2428 25.9743 27.1811C25.9331 27.1194 25.8531 27.0885 25.7343 27.0885L25.2199 27.0885Z" fill="#9886FE"/>
<path d="M32.1947 30.7919H29.0125C28.8479 30.7919 28.7656 30.7097 28.7656 30.5451V26.1009C28.7656 25.9363 28.8479 25.854 29.0125 25.854H32.1947C32.3593 25.854 32.4417 25.9363 32.4417 26.1009V26.9033C32.4417 27.0679 32.3593 27.1502 32.1947 27.1502H30.3019V27.6783H31.6392C31.8038 27.6783 31.8861 27.7606 31.8861 27.9252V28.659C31.8861 28.8236 31.8038 28.9059 31.6392 28.9059H30.3019V29.4957H32.1947C32.3593 29.4957 32.4417 29.578 32.4417 29.7426V30.5451C32.4417 30.7097 32.3593 30.7919 32.1947 30.7919Z" fill="#9886FE"/>
<path d="M36.6791 30.7919H33.4969C33.3323 30.7919 33.25 30.7097 33.25 30.5451V26.1009C33.25 25.9363 33.3323 25.854 33.4969 25.854H36.6791C36.8437 25.854 36.926 25.9363 36.926 26.1009V26.9033C36.926 27.0679 36.8437 27.1502 36.6791 27.1502H34.7862V27.6783H36.1236C36.2882 27.6783 36.3705 27.7606 36.3705 27.9252V28.659C36.3705 28.8236 36.2882 28.9059 36.1236 28.9059H34.7862V29.4957H36.6791C36.8437 29.4957 36.926 29.578 36.926 29.7426V30.5451C36.926 30.7097 36.8437 30.7919 36.6791 30.7919Z" fill="#9886FE"/>
</svg>
