<svg width="56" height="56" viewBox="0 0 56 56" fill="none" xmlns="http://www.w3.org/2000/svg">
<circle cx="28" cy="28" r="28" fill="#528BFF"/>
<path d="M33.386 22C32.331 17.1 30.081 14 28 14C25.919 14 23.669 17.1 22.614 22H33.386Z" fill="white"/>
<path d="M22 28C21.9998 29.3378 22.089 30.6741 22.267 32H33.733C33.911 30.6741 34.0002 29.3378 34 28C34.0002 26.6622 33.911 25.3259 33.733 24H22.267C22.089 25.3259 21.9998 26.6622 22 28Z" fill="white"/>
<path d="M22.614 34C23.669 38.9 25.919 42 28 42C30.081 42 32.331 38.9 33.386 34H22.614Z" fill="white"/>
<path d="M35.4339 22H41.7339C40.7873 19.8458 39.349 17.9434 37.5344 16.4454C35.7199 14.9474 33.5794 13.8954 31.2849 13.374C33.1819 15.043 34.6699 18.129 35.4339 22Z" fill="white"/>
<path d="M42.453 24H35.753C35.9179 25.3269 36.0004 26.6628 36 28C36.0001 29.3372 35.9173 30.6731 35.752 32H42.452C43.1812 29.3832 43.1822 26.6168 42.453 24Z" fill="white"/>
<path d="M31.2849 42.626C33.5798 42.1049 35.7206 41.0531 37.5356 39.5551C39.3505 38.057 40.7891 36.1545 41.7359 34H35.4359C34.6699 37.871 33.1819 40.957 31.2849 42.626Z" fill="white"/>
<path d="M20.5661 34H14.2661C15.2129 36.1545 16.6515 38.057 18.4664 39.5551C20.2814 41.0531 22.4222 42.1049 24.7171 42.626C22.8181 40.957 21.3301 37.871 20.5661 34Z" fill="white"/>
<path d="M24.7149 13.374C22.42 13.8952 20.2792 14.9469 18.4643 16.445C16.6493 17.943 15.2107 19.8456 14.2639 22H20.5639C21.3299 18.129 22.8179 15.043 24.7149 13.374Z" fill="white"/>
<path d="M19.9999 28C19.9998 26.6628 20.0826 25.3269 20.2479 24H13.5479C12.8187 26.6168 12.8187 29.3832 13.5479 32H20.2479C20.0826 30.6731 19.9998 29.3372 19.9999 28Z" fill="white"/>
</svg>
