<svg width="100" height="32" viewBox="0 0 100 32" fill="none" xmlns="http://www.w3.org/2000/svg">
<g clip-path="url(#clip0_8519_10843)">
<path d="M12.3159 0.00292969H13.2052C16.2924 0.0687278 19.3293 1.28599 21.5106 3.44088C20.7052 4.24691 19.883 5.02004 19.0944 5.82606C17.8696 4.7404 16.3931 3.90147 14.7824 3.60538C12.3998 3.11189 9.8327 3.55603 7.83606 4.88844C5.65485 6.28665 4.17834 8.65538 3.85955 11.1886C3.5072 13.6889 4.22868 16.3209 5.88975 18.2619C7.48371 20.1536 9.9166 21.338 12.4334 21.4202C14.7824 21.5518 17.232 20.8445 18.9434 19.2324C20.2857 18.0974 20.9065 16.3702 21.1079 14.6924C18.3226 14.6924 15.5374 14.7088 12.7522 14.6924V11.3038H24.4804C25.0844 14.9391 24.2119 19.035 21.3931 21.6341C19.5139 23.4764 16.9132 24.5621 14.2622 24.7759C11.6951 25.0227 9.04411 24.5456 6.76223 23.3284C4.02733 21.8973 1.84613 19.4792 0.7723 16.6334C-0.234411 14.0179 -0.25119 11.057 0.688408 8.42509C1.54411 6.02346 3.18841 3.90147 5.3025 2.42101C7.3327 0.957003 9.79915 0.150975 12.3159 0.00292969Z" fill="#3780FF"/>
<path d="M79.5977 0.858398H83.1883V24.3483C81.997 24.3483 80.7889 24.3648 79.5977 24.3319C79.6144 16.5184 79.5977 8.68838 79.5977 0.858398Z" fill="#38B137"/>
<path d="M32.4667 9.00041C34.6815 8.58917 37.0808 9.04976 38.9096 10.3493C40.5707 11.5007 41.7284 13.3102 42.0808 15.2841C42.5338 17.5706 41.9633 20.0709 40.4533 21.8804C38.8258 23.9037 36.158 24.9894 33.5573 24.8249C31.1747 24.6933 28.8593 23.5253 27.4499 21.6172C25.856 19.5117 25.47 16.6165 26.3425 14.1491C27.215 11.5007 29.6815 9.47745 32.4667 9.00041ZM32.97 12.1258C32.064 12.3561 31.2251 12.8661 30.6211 13.5898C28.9935 15.498 29.0942 18.6069 30.8895 20.3835C31.913 21.4034 33.4566 21.8804 34.8828 21.6008C36.2083 21.3705 37.366 20.4986 38.0036 19.3472C39.111 17.3897 38.7922 14.692 37.0976 13.1621C36.007 12.1752 34.413 11.7639 32.97 12.1258Z" fill="#FA3913"/>
<path d="M50.2524 9.00065C52.786 8.52361 55.5544 9.21449 57.4504 10.9581C60.5377 13.6723 60.8732 18.7552 58.239 21.8806C56.6451 23.8546 54.0612 24.9402 51.5108 24.8251C49.0779 24.7593 46.6786 23.5749 45.2357 21.6174C43.6081 19.4625 43.2558 16.5016 44.1786 13.9849C45.1014 11.4187 47.5175 9.46123 50.2524 9.00065ZM50.7558 12.1261C49.8497 12.3564 49.0108 12.8663 48.4068 13.5736C46.7961 15.4489 46.8632 18.5085 48.5914 20.3015C49.6148 21.3707 51.2088 21.8971 52.6853 21.601C53.994 21.3542 55.1685 20.4989 55.8061 19.3474C56.8967 17.3735 56.5779 14.6757 54.8665 13.1459C53.7759 12.159 52.182 11.7642 50.7558 12.1261Z" fill="#FCBD06"/>
<path d="M65.335 9.95523C67.2646 8.77086 69.8317 8.44187 71.9122 9.46174C72.5666 9.74139 73.1035 10.2184 73.6236 10.6955C73.6404 10.2513 73.6236 9.79074 73.6404 9.33015C74.7646 9.3466 75.8887 9.33015 77.0297 9.3466V23.8551C77.0129 26.0429 76.4424 28.3623 74.8317 29.9579C73.0699 31.718 70.3686 32.2608 67.9357 31.8989C65.335 31.5206 63.0699 29.6618 62.0632 27.3095C63.0699 26.8325 64.127 26.4541 65.1672 26.01C65.7545 27.3588 66.9458 28.5103 68.4391 28.7735C69.9323 29.0367 71.6605 28.6748 72.6337 27.4575C73.674 26.2074 73.674 24.4966 73.6236 22.9668C72.8518 23.707 71.9625 24.365 70.8887 24.6118C68.5565 25.2533 65.9894 24.4637 64.1941 22.9175C62.382 21.3712 61.3082 18.986 61.4089 16.6173C61.4592 13.936 63.0028 11.3534 65.335 9.95523ZM68.8082 12.0608C67.7847 12.2253 66.8283 12.7846 66.174 13.5577C64.5968 15.4 64.5968 18.3445 66.1907 20.1539C67.0968 21.2232 68.5565 21.8153 69.9659 21.6673C71.2914 21.5357 72.5162 20.7132 73.1706 19.5782C74.278 17.6536 74.0934 15.0381 72.6001 13.3603C71.6773 12.324 70.2008 11.814 68.8082 12.0608Z" fill="#3780FF"/>
<path d="M87.499 10.7937C89.5125 8.95133 92.6165 8.32625 95.2004 9.29677C97.6501 10.2015 99.2105 12.488 99.999 14.8403C96.3581 16.3207 92.7339 17.7847 89.093 19.2652C89.5964 20.2028 90.3682 21.0582 91.4084 21.4036C92.8682 21.9136 94.6131 21.7326 95.838 20.7785C96.3246 20.4167 96.7105 19.9396 97.0796 19.479C98.0024 20.0877 98.9252 20.6799 99.848 21.2885C98.5393 23.2131 96.3413 24.5619 93.9756 24.7758C91.3581 25.0883 88.5729 24.1014 86.8782 22.0945C84.093 18.9362 84.3615 13.6395 87.499 10.7937ZM89.2944 13.8368C88.7239 14.6429 88.489 15.6298 88.5058 16.6004C90.9386 15.6134 93.3715 14.6264 95.8044 13.623C95.4017 12.7018 94.4286 12.1425 93.4386 11.9945C91.8447 11.7149 90.1836 12.5538 89.2944 13.8368Z" fill="#FA3913"/>
</g>
<defs>
<clipPath id="clip0_8519_10843">
<rect width="100" height="32" fill="white"/>
</clipPath>
</defs>
</svg>
