<svg width="120" height="24" viewBox="0 0 120 24" fill="none" xmlns="http://www.w3.org/2000/svg">
<path d="M11.1044 1.80245C11.4721 1.06239 12.5279 1.06239 12.8956 1.80245L15.3084 6.65871C15.454 6.95177 15.7338 7.15505 16.0575 7.20297L21.4217 7.99706C22.2392 8.11808 22.5654 9.12211 21.9752 9.7005L18.1022 13.4959C17.8685 13.725 17.7616 14.0539 17.8161 14.3766L18.7185 19.7236C18.856 20.5384 18.0019 21.159 17.2695 20.7764L12.463 18.2658C12.1729 18.1143 11.8271 18.1143 11.537 18.2658L6.73055 20.7764C5.99808 21.159 5.14399 20.5385 5.28151 19.7236L6.18391 14.3766C6.23837 14.0539 6.1315 13.725 5.89778 13.4959L2.02481 9.7005C1.4346 9.12211 1.76083 8.11808 2.57829 7.99706L7.94248 7.20297C8.2662 7.15505 8.54599 6.95177 8.6916 6.65871L11.1044 1.80245Z" fill="#FDC500"/>
<path d="M35.1044 1.80245C35.4721 1.06239 36.5279 1.06239 36.8956 1.80245L39.3084 6.65871C39.454 6.95177 39.7338 7.15505 40.0575 7.20297L45.4217 7.99706C46.2392 8.11808 46.5654 9.12211 45.9752 9.7005L42.1022 13.4959C41.8685 13.725 41.7616 14.0539 41.8161 14.3766L42.7185 19.7236C42.856 20.5384 42.0019 21.159 41.2695 20.7764L36.463 18.2658C36.1729 18.1143 35.8271 18.1143 35.537 18.2658L30.7305 20.7764C29.9981 21.159 29.144 20.5385 29.2815 19.7236L30.1839 14.3766C30.2384 14.0539 30.1315 13.725 29.8978 13.4959L26.0248 9.7005C25.4346 9.12211 25.7608 8.11808 26.5783 7.99706L31.9425 7.20297C32.2662 7.15505 32.546 6.95177 32.6916 6.65871L35.1044 1.80245Z" fill="#FDC500"/>
<path d="M59.1044 1.80245C59.4721 1.06239 60.5279 1.06239 60.8956 1.80245L63.3084 6.65871C63.454 6.95177 63.7338 7.15505 64.0575 7.20297L69.4217 7.99706C70.2392 8.11808 70.5654 9.12211 69.9752 9.7005L66.1022 13.4959C65.8685 13.725 65.7616 14.0539 65.8161 14.3766L66.7185 19.7236C66.856 20.5384 66.0019 21.159 65.2695 20.7764L60.463 18.2658C60.1729 18.1143 59.8271 18.1143 59.537 18.2658L54.7305 20.7764C53.9981 21.159 53.144 20.5385 53.2815 19.7236L54.1839 14.3766C54.2384 14.0539 54.1315 13.725 53.8978 13.4959L50.0248 9.7005C49.4346 9.12211 49.7608 8.11808 50.5783 7.99706L55.9425 7.20297C56.2662 7.15505 56.546 6.95177 56.6916 6.65871L59.1044 1.80245Z" fill="#FDC500"/>
<path d="M83.1044 1.80245C83.4721 1.06239 84.5279 1.06239 84.8956 1.80245L87.3084 6.65871C87.454 6.95177 87.7338 7.15505 88.0575 7.20297L93.4217 7.99706C94.2392 8.11808 94.5654 9.12211 93.9752 9.7005L90.1022 13.4959C89.8685 13.725 89.7616 14.0539 89.8161 14.3766L90.7185 19.7236C90.856 20.5384 90.0019 21.159 89.2695 20.7764L84.463 18.2658C84.1729 18.1143 83.8271 18.1143 83.537 18.2658L78.7305 20.7764C77.9981 21.159 77.144 20.5385 77.2815 19.7236L78.1839 14.3766C78.2384 14.0539 78.1315 13.725 77.8978 13.4959L74.0248 9.7005C73.4346 9.12211 73.7608 8.11808 74.5783 7.99706L79.9425 7.20297C80.2662 7.15505 80.546 6.95177 80.6916 6.65871L83.1044 1.80245Z" fill="#FDC500"/>
<path d="M107.104 1.80245C107.472 1.06239 108.528 1.06239 108.896 1.80245L111.308 6.65871C111.454 6.95177 111.734 7.15505 112.058 7.20297L117.422 7.99706C118.239 8.11808 118.565 9.12211 117.975 9.7005L114.102 13.4959C113.868 13.725 113.762 14.0539 113.816 14.3766L114.718 19.7236C114.856 20.5384 114.002 21.159 113.269 20.7764L108.463 18.2658C108.173 18.1143 107.827 18.1143 107.537 18.2658L102.731 20.7764C101.998 21.159 101.144 20.5385 101.282 19.7236L102.184 14.3766C102.238 14.0539 102.132 13.725 101.898 13.4959L98.0248 9.7005C97.4346 9.12211 97.7608 8.11808 98.5783 7.99706L103.942 7.20297C104.266 7.15505 104.546 6.95177 104.692 6.65871L107.104 1.80245Z" fill="#FDC500"/>
</svg>
