<svg width="56" height="56" viewBox="0 0 56 56" fill="none" xmlns="http://www.w3.org/2000/svg">
<circle cx="28" cy="28" r="28" fill="#22CCEE"/>
<path fill-rule="evenodd" clip-rule="evenodd" d="M29.8951 13.8214L31.8005 15.2477C32.3216 15.6377 32.8701 15.8374 33.52 15.8735L35.8963 16.0057C37.3193 16.0849 38.475 17.0545 38.8 18.4422L39.3428 20.7595C39.4913 21.3932 39.7831 21.8987 40.2578 22.3442L41.9932 23.973C43.0323 24.9482 43.2943 26.4339 42.6514 27.7058L41.5777 29.8299C41.2841 30.4108 41.1827 30.9856 41.26 31.6319L41.5425 33.9952C41.7116 35.4102 40.9573 36.7167 39.6473 37.2777L37.4594 38.2147C36.861 38.471 36.4139 38.8462 36.0576 39.3909L34.755 41.3828C33.975 42.5755 32.5573 43.0914 31.1932 42.6792L28.915 41.9907C28.2919 41.8024 27.7082 41.8024 27.0851 41.9907L24.8068 42.6792C23.4427 43.0914 22.0251 42.5755 21.2451 41.3828L19.9424 39.3909C19.5861 38.8462 19.139 38.471 18.5406 38.2147L16.3526 37.2776C15.0426 36.7165 14.2883 35.4101 14.4575 33.995L14.74 31.6318C14.8172 30.9855 14.7158 30.4107 14.4222 29.8297L13.3485 27.7057C12.7056 26.4339 12.9676 24.9482 14.0067 23.9729L15.7421 22.344C16.2168 21.8986 16.5086 21.3931 16.657 20.7594L17.1999 18.442C17.5249 17.0545 18.6806 16.0848 20.1035 16.0056L22.4798 15.8734C23.1298 15.8373 23.6783 15.6376 24.1994 15.2475L26.1048 13.8213C27.2456 12.9674 28.7542 12.9674 29.8951 13.8214ZM26.7845 28.8164L24.7167 26.7486C24.1808 26.2127 23.3115 26.2127 22.7756 26.7486C22.2396 27.2845 22.2396 28.1538 22.7756 28.6897L25.8169 31.731C26.3528 32.2669 27.2221 32.2669 27.758 31.731C29.5911 29.8978 31.4035 28.044 33.2282 26.2025C33.7603 25.6655 33.7586 24.799 33.2223 24.2657C32.6859 23.7322 31.8169 23.7337 31.2843 24.2717L26.7845 28.8164ZM27.9999 17.7785C25.1773 17.7785 22.6219 18.9226 20.7721 20.7724C18.9224 22.6222 17.7783 25.1775 17.7783 28.0001C17.7783 30.8227 18.9224 33.3781 20.7721 35.2279C22.6219 37.0776 25.1773 38.2217 27.9999 38.2217C30.8225 38.2217 33.3779 37.0776 35.2276 35.2279C37.0774 33.3781 38.2215 30.8227 38.2215 28.0001C38.2215 25.1775 37.0774 22.6221 35.2276 20.7724C33.3779 18.9226 30.8225 17.7785 27.9999 17.7785ZM34.5206 21.4794C32.8518 19.8107 30.5464 18.7785 27.9999 18.7785C25.4534 18.7785 23.148 19.8107 21.4792 21.4794C19.8105 23.1482 18.7783 25.4536 18.7783 28.0001C18.7783 30.5466 19.8105 32.852 21.4792 34.5208C23.148 36.1895 25.4534 37.2217 27.9999 37.2217C30.5464 37.2217 32.8518 36.1895 34.5206 34.5209C36.1893 32.8521 37.2215 30.5467 37.2215 28.0002C37.2215 25.4536 36.1893 23.1482 34.5206 21.4794Z" fill="white"/>
</svg>
