<svg width="56" height="56" viewBox="0 0 56 56" fill="none" xmlns="http://www.w3.org/2000/svg">
<circle cx="28" cy="28" r="28" fill="#FF9C66"/>
<path d="M28.0013 33.3335C27.2013 33.3335 26.5346 33.0668 25.868 32.8002L14.668 25.8668V34.6668C14.668 36.9335 16.4013 38.6668 18.668 38.6668H37.3346C39.6013 38.6668 41.3346 36.9335 41.3346 34.6668V25.8668L30.1346 32.8002C29.468 33.0668 28.8013 33.3335 28.0013 33.3335ZM37.3346 17.3335H18.668C16.4013 17.3335 14.668 19.0668 14.668 21.3335V22.8002L27.3346 30.5335C27.7346 30.8002 28.268 30.8002 28.668 30.5335L41.3346 22.8002V21.3335C41.3346 19.0668 39.6013 17.3335 37.3346 17.3335Z" fill="white"/>
</svg>
