<svg width="36" height="81" viewBox="0 0 36 81" fill="none" xmlns="http://www.w3.org/2000/svg">
<path d="M12.6 59.7041C10.4 59.7041 7.59995 59.3041 5.19995 57.6041C0.899952 54.5041 -4.95911e-05 48.4041 -4.95911e-05 48.1041C-4.95911e-05 47.8041 0.199951 47.5041 0.49995 47.4041C0.79995 47.4041 6.79995 46.1041 11.2 49.2041C12.2 49.9041 13 50.7041 13.6 51.7041C13.4 50.2041 13.2 48.7041 13.2 47.2041C13.2 46.6041 13.2 45.9041 13.2 45.3041C12 45.1041 6.79995 43.8041 4.19995 39.7041C1.29995 35.2041 2.89995 29.2041 2.89995 29.0041C2.99995 28.7041 3.29996 28.5041 3.59995 28.5041C3.79996 28.6041 9.89995 29.7041 12.8 34.1041C13.4 35.1041 13.9 36.2041 14.1 37.2041C14.6 35.1041 15.3 33.104 16.1 31.2041C15.1 30.504 10.7999 27.4041 9.89995 22.6041C8.89995 17.4041 12.6 12.4041 12.7 12.2041C12.9 11.9041 13.3 11.8041 13.6 12.0041C13.8 12.1041 19 15.4041 20 20.7041C20.2 21.9041 20.2 23.0041 20.1 24.1041C21.4 22.2041 22.9 20.5041 24.6 18.8041C23.9 17.7041 21.3 13.2041 22.3 8.60405C23.4 3.40405 28.8 0.304052 29 0.104052C29.3 -0.0959481 29.7 0.00405169 29.9 0.304052C30 0.504052 33.6 5.60405 32.4 10.8041C31.7 13.8041 29.7 16.1041 28 17.6041C27.8 17.8041 27.6 18.0041 27.4 18.1041H27.3C18.7 25.5041 14 36.0041 14.3 47.0041C14.9 60.4041 22.6 72.5041 34.8 78.9041C35.1 79.104 35.2 79.504 35.1 79.804C35 80.004 34.8 80.204 34.5 80.204C34.4 80.204 34.3 80.204 34.2 80.104C30.2 78.0041 26.6 75.304 23.6 72.104C22.7 72.704 19.3 74.704 15.5 74.704C14.8 74.704 14.1 74.604 13.3 74.5041C8.09995 73.4041 4.99995 68.004 4.79995 67.804C4.59995 67.504 4.69995 67.104 4.99995 66.9041C5.19995 66.7041 10.3 63.2041 15.5 64.4041C16.7 64.7041 17.8 65.104 18.8 65.804C17.6 63.804 16.5 61.7041 15.7 59.5041C15.2 59.5041 14.1 59.7041 12.6 59.7041Z" fill="#BAB2FF"/>
</svg>
