<svg width="36" height="81" viewBox="0 0 36 81" fill="none" xmlns="http://www.w3.org/2000/svg">
<path d="M22.5375 59.7041C24.7375 59.7041 27.5375 59.3041 29.9375 57.6041C34.2375 54.5041 35.1375 48.4041 35.1375 48.1041C35.1375 47.8041 34.9375 47.5041 34.6375 47.4041C34.3375 47.4041 28.3375 46.1041 23.9375 49.2041C22.9375 49.9041 22.1375 50.7041 21.5375 51.7041C21.7375 50.2041 21.9375 48.7041 21.9375 47.2041C21.9375 46.6041 21.9375 45.9041 21.9375 45.3041C23.1375 45.1041 28.3375 43.8041 30.9375 39.7041C33.8375 35.2041 32.2375 29.2041 32.2375 29.0041C32.1375 28.7041 31.8375 28.5041 31.5375 28.5041C31.3375 28.6041 25.2375 29.7041 22.3375 34.1041C21.7375 35.1041 21.2375 36.2041 21.0375 37.2041C20.5375 35.1041 19.8375 33.104 19.0375 31.2041C20.0375 30.504 24.3375 27.4041 25.2375 22.6041C26.2375 17.4041 22.5375 12.4041 22.4375 12.2041C22.2375 11.9041 21.8375 11.8041 21.5375 12.0041C21.3375 12.1041 16.1375 15.4041 15.1375 20.7041C14.9375 21.9041 14.9375 23.0041 15.0375 24.1041C13.7375 22.2041 12.2375 20.5041 10.5375 18.8041C11.2375 17.7041 13.8375 13.2041 12.8375 8.60405C11.7375 3.40405 6.3375 0.304052 6.1375 0.104052C5.8375 -0.0959481 5.4375 0.00405169 5.2375 0.304052C5.1375 0.504052 1.5375 5.60405 2.7375 10.8041C3.4375 13.8041 5.4375 16.1041 7.1375 17.6041C7.3375 17.8041 7.5375 18.0041 7.7375 18.1041H7.8375C16.4375 25.5041 21.1375 36.0041 20.8375 47.0041C20.2375 60.4041 12.5375 72.5041 0.337499 78.9041C0.0374993 79.104 -0.0624999 79.504 0.0375001 79.804C0.1375 80.004 0.337499 80.204 0.637499 80.204C0.737499 80.204 0.837498 80.204 0.937498 80.104C4.9375 78.0041 8.5375 75.304 11.5375 72.104C12.4375 72.704 15.8375 74.704 19.6375 74.704C20.3375 74.704 21.0375 74.604 21.8375 74.5041C27.0375 73.4041 30.1375 68.004 30.3375 67.804C30.5375 67.504 30.4375 67.104 30.1375 66.9041C29.9375 66.7041 24.8375 63.2041 19.6375 64.4041C18.4375 64.7041 17.3375 65.104 16.3375 65.804C17.5375 63.804 18.6375 61.7041 19.4375 59.5041C19.9375 59.5041 21.0375 59.7041 22.5375 59.7041Z" fill="#BAB2FF"/>
</svg>
