<svg width="30" height="31" viewBox="0 0 30 31" fill="none" xmlns="http://www.w3.org/2000/svg">
<circle cx="15" cy="15.666" r="15" fill="white"/>
<path d="M19.9951 20.6481C19.3028 20.6481 18.6213 20.6481 17.9234 20.6481C17.9234 20.5956 17.9234 20.5483 17.9234 20.501C17.9234 19.4842 17.93 18.4671 17.9195 17.4502C17.916 17.1105 17.899 16.7653 17.8352 16.4331C17.7176 15.8218 17.2885 15.5913 16.693 15.6533C16.0714 15.7181 15.7365 16.0709 15.6593 16.7203C15.6309 16.958 15.6149 17.1982 15.6136 17.4375C15.6088 18.4625 15.6117 19.4878 15.6117 20.5128C15.6117 20.5607 15.6117 20.6086 15.6117 20.6627C14.9184 20.6627 14.2372 20.6627 13.5469 20.6627C13.5469 18.4436 13.5469 16.2251 13.5469 13.9975C14.2014 13.9975 14.8572 13.9975 15.526 13.9975C15.526 14.2918 15.526 14.5826 15.526 14.906C15.5612 14.865 15.5768 14.8506 15.5876 14.8333C15.9759 14.2221 16.549 13.912 17.253 13.8446C17.7459 13.7973 18.2352 13.8416 18.7001 14.0353C19.3168 14.2922 19.6514 14.7825 19.8263 15.4035C19.9462 15.829 19.9912 16.2665 19.9941 16.7053C20.0029 17.9947 19.9984 19.2844 19.999 20.5737C19.9993 20.5933 19.9971 20.6132 19.9951 20.6481Z" fill="black"/>
<path d="M12.2334 20.6656C11.5421 20.6656 10.8638 20.6656 10.1758 20.6656C10.1758 18.4435 10.1758 16.2254 10.1758 13.9971C10.8576 13.9971 11.5418 13.9971 12.2334 13.9971C12.2334 16.2182 12.2334 18.4367 12.2334 20.6656Z" fill="black"/>
<path d="M11.2028 13.0798C10.5405 13.0798 9.9987 12.5324 10 11.8641C10.0013 11.2052 10.5467 10.6637 11.2067 10.666C11.8651 10.668 12.4121 11.2196 12.4049 11.8742C12.3978 12.5399 11.8596 13.0798 11.2028 13.0798Z" fill="black"/>
</svg>
