<svg width="16" height="12" viewBox="0 0 16 12" fill="none" xmlns="http://www.w3.org/2000/svg">
<path d="M15.8496 3.16037C15.8496 5.46406 15.8496 7.76815 15.8496 10.0718C15.8406 10.0887 15.8281 10.1043 15.8238 10.1219C15.6587 10.8199 15.1324 11.2397 14.4125 11.2397C10.3709 11.2405 6.32966 11.2409 2.28802 11.2397C1.448 11.2393 0.855643 10.6407 0.855643 9.79797C0.855251 7.6406 0.855643 5.48323 0.855643 3.32587C0.855643 3.27422 0.855643 3.22258 0.855643 3.14941C0.911592 3.18424 0.947978 3.20497 0.982408 3.22806C2.99462 4.56966 5.00644 5.91205 7.01904 7.25326C7.8888 7.8331 8.80785 7.83779 9.67408 7.26148C11.6839 5.92418 13.6915 4.58375 15.7005 3.24527C15.7475 3.21397 15.7995 3.18854 15.8496 3.16037Z" fill="#667085"/>
<path d="M15.8483 1.60805C15.8401 1.61939 15.8264 1.62996 15.8237 1.64248C15.745 2.04038 15.5111 2.32287 15.1793 2.54314C13.3036 3.79006 11.4307 5.0409 9.5566 6.28977C9.3821 6.40598 9.21308 6.53235 9.02919 6.63212C8.519 6.90874 8.01976 6.87157 7.53852 6.55074C6.31742 5.73615 5.09593 4.92196 3.87484 4.10776C3.08411 3.58035 2.29261 3.05294 1.5015 2.52514C0.951005 2.15815 0.733078 1.59318 0.909533 0.994564C1.0852 0.399469 1.61848 0.00156501 2.25818 0.00117376C6.31899 -0.000391252 10.3798 -0.000391252 14.4406 0.00117376C15.1276 0.00156501 15.6672 0.438594 15.8202 1.10411C15.8253 1.12681 15.8389 1.14715 15.8483 1.16867C15.8483 1.315 15.8483 1.46172 15.8483 1.60805Z" fill="#667085"/>
</svg>
