<svg width="16" height="20" viewBox="0 0 16 20" fill="none" xmlns="http://www.w3.org/2000/svg">
<path d="M8.92486 0C9.13958 0.0339547 9.35429 0.0679095 9.56413 0.106715C11.9553 0.523873 13.7462 1.80445 14.9271 3.89509C15.7225 5.30664 15.9909 6.8346 15.7811 8.44503C15.6103 9.73531 15.1223 10.8946 14.3464 11.9327C12.536 14.3629 10.7207 16.7882 8.91022 19.2184C8.77847 19.3979 8.63695 19.5579 8.39296 19.5725C8.11481 19.587 7.94401 19.4221 7.79274 19.2184C6.81188 17.9038 5.83103 16.5942 4.85018 15.2748C3.93765 14.0476 2.99096 12.8397 2.12234 11.5834C1.01461 9.97784 0.643744 8.18309 0.956055 6.25737C1.25373 4.42382 2.14186 2.91041 3.56678 1.72199C4.65011 0.819764 5.89935 0.266787 7.30475 0.0776108C7.46091 0.0582081 7.61706 0.0242534 7.77322 0C8.15385 0 8.53935 0 8.92486 0ZM12.3847 7.46034C12.3896 5.25328 10.5791 3.44398 8.3588 3.43913C6.13358 3.43428 4.30364 5.23873 4.30364 7.45064C4.29876 9.6577 6.10918 11.467 8.32952 11.4718C10.5547 11.4767 12.3847 9.67225 12.3847 7.46034Z" fill="#667085"/>
</svg>
