<svg width="41" height="24" viewBox="0 0 41 24" fill="none" xmlns="http://www.w3.org/2000/svg">
<path fill-rule="evenodd" clip-rule="evenodd" d="M20.2208 20.8893C22.3392 22.8255 25.1841 24 28.2786 24C34.9244 24 40.3033 18.6232 40.3033 12.0102C40.3033 5.377 34.9244 0 28.2786 0C25.1841 0 22.3392 1.17423 20.2208 3.11074C17.7909 5.31493 16.2539 8.4875 16.2539 12.0102C16.2542 15.5329 17.7909 18.7057 20.2208 20.8893Z" fill="#E9B040"/>
<path fill-rule="evenodd" clip-rule="evenodd" d="M24.1043 10.7332C24.0627 10.3006 23.9796 9.88867 23.8965 9.45588H16.5446C16.6277 9.02334 16.7523 8.6114 16.8768 8.19922H23.5436C23.3989 7.76554 23.2325 7.33926 23.0452 6.92195H17.3962C17.604 6.48559 17.8327 6.05934 18.0815 5.64468H22.3393C22.0653 5.20471 21.76 4.78475 21.4256 4.38801H18.9955C19.3714 3.93266 19.7809 3.50572 20.2208 3.11074C18.0818 1.19484 15.2572 0 12.1419 0C5.51688 0 0.117188 5.377 0.117188 12.0102C0.117188 18.6232 5.51688 24 12.1419 24C15.2572 24 18.0815 22.8255 20.2208 20.8893C20.6539 20.5012 21.0567 20.081 21.4256 19.6324H18.9955C18.663 19.2204 18.3724 18.8085 18.0815 18.3551H22.3393C22.607 17.9477 22.8431 17.5207 23.0454 17.0778H17.3962C17.2092 16.6659 17.0224 16.2539 16.8768 15.8209H23.5436C23.6888 15.409 23.7929 14.9767 23.8963 14.5436C23.9794 14.1317 24.0625 13.6994 24.1041 13.2664C24.1462 12.8487 24.167 12.4292 24.1666 12.0095C24.1666 11.5776 24.1458 11.1451 24.1043 10.7332Z" fill="#CC2131"/>
<path fill-rule="evenodd" clip-rule="evenodd" d="M16.1306 15.4714C15.7361 15.5742 15.4452 15.6363 15.1546 15.6363C14.5315 15.6363 14.1575 15.2447 14.1575 14.5443C14.1575 14.4002 14.1783 14.256 14.1991 14.0911L14.2822 13.6176L14.3445 13.226L14.9053 9.8476H16.1514L16.0059 10.5893H16.7952L16.6082 11.8253H15.8189L15.4867 13.844C15.466 13.9473 15.466 14.0089 15.466 14.0501C15.466 14.318 15.5906 14.4209 15.902 14.4209C16.0475 14.4209 16.1719 14.4005 16.2965 14.3796L16.1306 15.4714ZM20.1598 15.4302C19.7029 15.5539 19.2876 15.6154 18.8305 15.6154C17.4182 15.6154 16.6082 14.8738 16.6082 13.4115C16.6082 11.7014 17.5637 10.4654 18.8926 10.4654C19.9517 10.4654 20.6371 11.1658 20.6371 12.2574C20.6371 12.6286 20.5956 12.9787 20.4919 13.4731H17.8958C17.8751 13.5555 17.8751 13.5967 17.8751 13.638C17.8751 14.2148 18.2696 14.503 19.0173 14.503C19.4949 14.503 19.9102 14.4002 20.3673 14.1944L20.1598 15.4302ZM19.3913 12.4843V12.237C19.3913 11.8251 19.1627 11.5984 18.7682 11.5984C18.3527 11.5984 18.0621 11.9073 17.9374 12.4841L19.3913 12.4843ZM6.16176 15.533H4.8741L5.62181 10.857L3.93965 15.533H3.04674L2.94286 10.8776L2.1536 15.533H0.886719L1.90428 9.45603H3.79421L3.83576 13.2056L5.10264 9.45603H7.17956L6.16176 15.533ZM9.29803 13.3291C9.17338 13.3082 9.13182 13.3082 9.04872 13.3082C8.301 13.3082 7.92727 13.5965 7.92727 14.0499C7.92727 14.359 8.11426 14.5651 8.40489 14.5651C9.02794 14.5651 9.27701 14.0499 9.29803 13.3291ZM10.3364 15.533H9.21493L9.2357 15.0183C8.94483 15.4094 8.55032 15.6154 7.86494 15.6154C7.24189 15.6154 6.70195 15.0595 6.70195 14.256C6.70195 14.0295 6.7435 13.8237 6.80583 13.6176C7.01335 12.8551 7.78184 12.3815 8.96561 12.3607C9.11105 12.3607 9.33934 12.3607 9.54711 12.3815C9.58842 12.2167 9.58842 12.1546 9.58842 12.0518C9.58842 11.722 9.31857 11.619 8.71629 11.619C8.34256 11.619 7.92703 11.6808 7.6364 11.7839L7.44941 11.8251L7.36631 11.8455L7.55329 10.7331C8.15557 10.5476 8.59163 10.4654 9.06949 10.4654C10.1909 10.4654 10.7932 10.9804 10.7932 11.9279C10.7932 12.1752 10.814 12.3607 10.7309 12.8963L10.4403 14.6679L10.3987 14.9771L10.3779 15.2244L10.3571 15.3892L10.3364 15.533ZM26.4318 10.6303C26.8056 10.6303 27.138 10.7333 27.5948 10.9598L27.8231 9.64127C27.6985 9.57944 27.6569 9.57944 27.4909 9.51761L26.972 9.37335C26.8058 9.33213 26.5983 9.31152 26.3695 9.31152C25.7254 9.31152 25.3517 9.33213 24.9574 9.55883C24.7497 9.70309 24.4796 9.88857 24.1887 10.2181L24.0225 10.1769L22.6933 11.1038L22.7558 10.5888H21.3848L20.5753 15.5328H21.884L22.3613 12.8757C22.3613 12.8757 22.5486 12.5045 22.6314 12.3813C22.8807 12.0722 23.0883 12.0722 23.3581 12.0722H23.4622C23.4187 12.3861 23.3977 12.7028 23.3997 13.0197C23.3997 14.6265 24.3133 15.6361 25.7257 15.6361C26.0789 15.6361 26.3908 15.5948 26.8681 15.4712L27.0969 14.0705C26.6816 14.297 26.3077 14.4 25.996 14.4C25.2278 14.4 24.7704 13.8232 24.7704 12.9169C24.7699 11.5778 25.4556 10.6303 26.4318 10.6303ZM37.4593 9.45603L37.1689 11.1865C36.8572 10.7127 36.4833 10.486 35.9849 10.486C35.2992 10.486 34.6557 10.8773 34.2609 11.619V11.5986L33.4303 11.104L33.5134 10.589H32.1219L31.3326 15.533H32.6203L33.0566 12.8759C33.0566 12.8759 33.3888 12.5047 33.4719 12.3815C33.6797 12.1342 33.8872 12.0928 34.0534 12.0724C33.9082 12.4843 33.8251 12.9787 33.8251 13.5352C33.8251 14.7712 34.4687 15.5951 35.4239 15.5951C35.9018 15.5951 36.2755 15.4302 36.6285 15.0386L36.5664 15.533H37.7919L38.7887 9.45603H37.4593ZM35.8605 14.359C35.4241 14.359 35.1959 14.0295 35.1959 13.3906C35.1959 12.4223 35.6111 11.722 36.2132 11.722C36.67 11.722 36.8988 12.0724 36.8988 12.6904C36.8988 13.6792 36.4835 14.359 35.8605 14.359ZM29.8587 13.3291C29.7341 13.3082 29.6925 13.3082 29.6094 13.3082C28.8612 13.3082 28.4875 13.5965 28.4875 14.0499C28.4875 14.359 28.6747 14.5651 28.9653 14.5651C29.5884 14.5651 29.8377 14.0499 29.8587 13.3291ZM30.8971 15.533H29.7546L29.7962 15.0183C29.5055 15.4094 29.1105 15.6154 28.4256 15.6154C27.7816 15.6154 27.2211 15.0799 27.2211 14.256C27.2211 13.082 28.1137 12.3609 29.5261 12.3609C29.6717 12.3609 29.8998 12.3609 30.087 12.3818C30.1286 12.2169 30.1496 12.1548 30.1496 12.052C30.1496 11.7223 29.8795 11.6192 29.2565 11.6192C28.9033 11.6192 28.4672 11.6811 28.1766 11.7841L28.0103 11.8253L27.9272 11.8457L28.114 10.7333C28.7165 10.5478 29.1528 10.4656 29.6302 10.4656C30.7516 10.4656 31.3331 10.9806 31.3331 11.9281C31.3331 12.1754 31.3747 12.3609 31.271 12.8965L31.0009 14.6682L30.9594 14.9773L30.9178 15.2246L30.8973 15.3895V15.533H30.8971ZM13.0569 11.6396C13.3062 11.6396 13.6591 11.6602 14.0331 11.722L14.2201 10.5684C13.8461 10.5272 13.3477 10.4654 13.0569 10.4654C11.6033 10.4654 11.1256 11.2483 11.1256 12.1546C11.1256 12.7523 11.3955 13.1846 12.1016 13.5141C12.6208 13.7614 12.7039 13.8023 12.7039 14.0293C12.7039 14.3379 12.4341 14.5237 11.9354 14.5237C11.5409 14.5237 11.1669 14.4616 10.7517 14.3176L10.6062 15.4503L10.6268 15.4712L10.8761 15.5124C10.9592 15.5328 11.0631 15.5536 11.2085 15.574C11.5199 15.5948 11.79 15.6152 11.9562 15.6152C13.4101 15.6152 14.0123 15.0592 14.0123 13.9672C14.0123 13.2876 13.6799 12.8757 13.0361 12.5874C12.4754 12.3398 12.413 12.2991 12.413 12.0722C12.413 11.8457 12.6624 11.6396 13.0569 11.6396Z" fill="#1B3771"/>
<path fill-rule="evenodd" clip-rule="evenodd" d="M28.1761 9.24932L27.9473 10.5678C27.4905 10.3411 27.158 10.2383 26.7843 10.2383C25.8081 10.2383 25.1229 11.1858 25.1229 12.5249C25.1229 13.4521 25.5798 14.0081 26.3485 14.0081C26.6597 14.0081 27.0336 13.9053 27.4489 13.6994L27.2206 15.0792C26.7428 15.2029 26.4314 15.265 26.0782 15.265C24.6661 15.265 23.7937 14.2554 23.7937 12.6282C23.7937 10.465 24.9983 8.94043 26.722 8.94043C26.9503 8.94043 27.1578 8.96104 27.324 9.00226L27.8434 9.12591C28.0099 9.18774 28.0514 9.20835 28.1761 9.24932ZM23.9807 10.1559H23.856C23.4202 10.1559 23.1709 10.362 22.7762 10.9591L22.9008 10.1968H21.7168L20.9072 15.1411H22.2159C22.6933 12.1128 22.818 11.5978 23.441 11.5978H23.5241C23.6488 11.0004 23.8147 10.5676 24.0225 10.1762L23.9807 10.1559ZM16.4628 15.0792C16.1098 15.2029 15.819 15.2441 15.5283 15.2441C14.8637 15.2441 14.4897 14.8734 14.4897 14.1526C14.4897 14.0289 14.5105 13.8643 14.5313 13.7198L14.6144 13.2254L14.6767 12.8343L15.2375 9.45541H16.5251L16.3797 10.1971H17.0443L16.8781 11.4125H16.2135L15.8605 13.4727C15.8397 13.5551 15.8397 13.6172 15.8397 13.6788C15.8397 13.9261 15.9644 14.0291 16.2758 14.0291C16.4212 14.0291 16.5456 14.0291 16.6287 13.9879L16.4628 15.0792ZM11.4576 11.7626C11.4576 12.3809 11.7482 12.8132 12.4336 13.143C12.9735 13.3903 13.0567 13.4725 13.0567 13.6786C13.0567 13.9877 12.8281 14.1317 12.3089 14.1317C11.9144 14.1317 11.5612 14.0701 11.1459 13.9465L10.959 15.0792L11.0213 15.1001L11.2498 15.1413C11.3327 15.1617 11.4368 15.1825 11.6028 15.1825C11.8934 15.2237 12.1427 15.2237 12.3089 15.2237C13.6795 15.2237 14.3235 14.7085 14.3235 13.5758C14.3235 12.8957 14.0537 12.5041 13.4099 12.1954C12.8491 11.9481 12.7868 11.8865 12.7868 11.6598C12.7868 11.3922 13.0153 11.2685 13.4306 11.2685C13.6799 11.2685 14.0329 11.2891 14.3653 11.3303L14.5521 10.1973C14.2199 10.1355 13.7007 10.0943 13.4099 10.0943C11.956 10.094 11.4368 10.8563 11.4576 11.7626ZM38.1241 15.1413H36.8986L36.9611 14.6673C36.6079 15.038 36.234 15.2029 35.7561 15.2029C34.8009 15.2029 34.1778 14.3999 34.1778 13.1638C34.1778 11.5156 35.1541 10.1147 36.2961 10.1147C36.8155 10.1147 37.1892 10.3414 37.5426 10.7945L37.8333 9.06408H39.1209L38.1241 15.1413ZM36.2132 13.9877C36.8157 13.9877 37.231 13.2872 37.231 12.3188C37.231 11.6802 37.0022 11.3505 36.5454 11.3505C35.9639 11.3505 35.5281 12.0303 35.5281 12.9987C35.5281 13.6582 35.7563 13.9877 36.2132 13.9877ZM20.4502 15.038C19.9931 15.1825 19.5778 15.2441 19.1002 15.2441C17.6463 15.2441 16.8986 14.4821 16.8986 13.0193C16.8986 11.3301 17.8541 10.0734 19.1625 10.0734C20.2424 10.0734 20.9275 10.7739 20.9275 11.8657C20.9275 12.2367 20.886 12.587 20.7613 13.1017H18.1865C18.1657 13.1638 18.1657 13.205 18.1657 13.2462C18.1657 13.8231 18.5605 14.1113 19.3079 14.1113C19.7856 14.1113 20.2008 14.0289 20.6579 13.8022L20.4502 15.038ZM19.7232 12.0921V11.8451C19.7232 11.4331 19.4947 11.2064 19.1002 11.2064C18.6849 11.2064 18.394 11.5156 18.2694 12.0921H19.7232ZM6.49396 15.1413H5.2063L5.95401 10.4648L4.27185 15.1413H3.3787L3.27482 10.506L2.4858 15.1413H1.28125L2.29881 9.06408H4.16797L4.23029 12.8341L5.47615 9.06408H7.51152L6.49396 15.1413ZM9.7131 12.9369C9.58844 12.9369 9.52611 12.9165 9.42223 12.9165C8.69529 12.9165 8.32156 13.1842 8.32156 13.6786C8.32156 13.9877 8.48777 14.1729 8.7784 14.1729C9.31834 14.1729 9.69232 13.6786 9.7131 12.9369ZM10.6683 15.1413H9.58819L9.60897 14.6261C9.27655 15.038 8.84048 15.2237 8.23821 15.2237C7.53205 15.2237 7.05444 14.6882 7.05444 13.8846C7.05444 12.6694 7.88501 11.969 9.33888 11.969C9.48431 11.969 9.6713 11.9896 9.87882 12.01C9.92037 11.8453 9.92037 11.7835 9.92037 11.7011C9.92037 11.3716 9.69183 11.2479 9.08956 11.2479C8.71582 11.2479 8.30029 11.2891 8.00967 11.3716L7.82268 11.4334L7.69802 11.454L7.88501 10.3416C8.52884 10.1561 8.9649 10.0943 9.44276 10.0943C10.5642 10.0943 11.1665 10.5887 11.1665 11.5362C11.1665 11.7835 11.1457 11.969 11.0626 12.5252L10.7717 14.2765L10.7302 14.5851L10.7094 14.8324L10.6886 15.0181L10.6683 15.1413ZM30.2738 12.9369C30.1281 12.9369 30.066 12.9165 29.9832 12.9165C29.2355 12.9165 28.8612 13.1842 28.8612 13.6786C28.8612 13.9877 29.0485 14.1729 29.3391 14.1729C29.8585 14.1729 30.2528 13.6786 30.2738 12.9369ZM31.229 15.1413H30.1491L30.1697 14.6261C29.8375 15.038 29.4014 15.2237 28.7991 15.2237C28.093 15.2237 27.6151 14.6882 27.6151 13.8846C27.6151 12.6694 28.4457 11.969 29.8996 11.969C30.0453 11.969 30.2322 11.9896 30.419 12.01C30.4605 11.8453 30.4816 11.7835 30.4816 11.7011C30.4816 11.3716 30.2528 11.2479 29.651 11.2479C29.2768 11.2479 28.8409 11.2891 28.5501 11.3716L28.3839 11.4334L28.2592 11.454L28.4459 10.3416C29.09 10.1561 29.5258 10.0943 30.0037 10.0943C31.1251 10.0943 31.7066 10.5887 31.7066 11.5362C31.7066 11.7835 31.7066 11.969 31.603 12.5252L31.3329 14.2765L31.2914 14.5851L31.2498 14.8324L31.2293 15.0181L31.229 15.1413ZM34.718 10.1559H34.5934C34.1575 10.1559 33.9082 10.362 33.5135 10.9591L33.6381 10.1968H32.4541L31.6648 15.1411H32.9525C33.4304 12.1128 33.555 11.5978 34.1781 11.5978H34.2612C34.3858 11.0004 34.5518 10.5676 34.7596 10.1762L34.718 10.1559Z" fill="white"/>
</svg>
