<svg width="56" height="56" viewBox="0 0 56 56" fill="none" xmlns="http://www.w3.org/2000/svg">
<circle cx="28" cy="28" r="28" fill="#FAC515"/>
<g clip-path="url(#clip0_8334_6936)">
<path d="M38.6509 18.8925C36.3426 16.5048 33.3551 14.9865 30.1129 14.5246L31.037 13.6005C31.4031 13.2344 31.4031 12.6408 31.037 12.2747C30.6709 11.9086 30.0773 11.9086 29.7112 12.2747L27.337 14.6488C26.9709 15.0149 26.9709 15.6085 27.337 15.9746L29.7111 18.3487C29.8942 18.5318 30.1341 18.6234 30.374 18.6234C30.6139 18.6234 30.8539 18.5318 31.0369 18.3487C31.403 17.9827 31.403 17.389 31.0369 17.0229L30.5059 16.492C33.0818 16.996 35.4442 18.2732 37.3028 20.1957C39.6468 22.6204 40.9378 25.8137 40.9378 29.1871C40.9379 36.3211 35.1339 42.125 27.9999 42.125C20.866 42.125 15.062 36.3211 15.062 29.1872C15.062 26.465 15.8974 23.861 17.4781 21.6567C19.0259 19.4982 21.1596 17.8875 23.6488 16.9989C24.1364 16.8247 24.3906 16.2884 24.2165 15.8007C24.0424 15.313 23.5059 15.0589 23.0183 15.233C20.1681 16.2505 17.7254 18.094 15.9543 20.5641C14.1439 23.0889 13.187 26.0707 13.187 29.1872C13.187 33.1439 14.7278 36.8637 17.5256 39.6615C20.3234 42.4592 24.0433 44 27.9999 44C31.9566 44 35.6764 42.4592 38.4743 39.6615C41.2721 36.8637 42.8129 33.1439 42.8129 29.1872C42.8129 25.3248 41.3348 21.6687 38.6509 18.8925Z" fill="white"/>
<path d="M18.3677 29.1871C18.3677 34.4983 22.6887 38.8193 27.9999 38.8193C33.3111 38.8193 37.6321 34.4983 37.6321 29.1871C37.6321 23.8759 33.3111 19.5548 27.9999 19.5548C22.6886 19.5548 18.3677 23.8759 18.3677 29.1871ZM28.5754 30.0216C27.2259 29.5445 26.4441 29.1685 25.8768 28.7236C25.1787 28.176 24.8591 27.2303 25.0427 26.2556C25.242 25.1982 25.9794 24.3565 26.9672 24.0589C26.9809 24.0548 26.9943 24.0515 27.0079 24.0475V23.67C27.0079 23.1522 27.4277 22.7325 27.9454 22.7325C28.4632 22.7325 28.8829 23.1522 28.8829 23.67V23.9878C29.5375 24.1411 29.9944 24.4403 30.1791 24.5784C30.5937 24.8884 30.6786 25.4759 30.3686 25.8906C30.0585 26.3054 29.4712 26.3901 29.0564 26.0802C28.8579 25.9318 28.31 25.6126 27.508 25.8542C27.0342 25.9969 26.9116 26.4632 26.8853 26.6028C26.8334 26.8784 26.8931 27.1379 27.0339 27.2482C27.5243 27.6328 28.4042 27.9724 29.2002 28.2537C30.6565 28.7685 31.4662 30.1176 31.2152 31.6106C31.092 32.3437 30.7232 33.0239 30.1767 33.526C29.8009 33.8712 29.363 34.1167 28.8829 34.2552V34.7041C28.8829 35.2219 28.4632 35.6416 27.9454 35.6416C27.4277 35.6416 27.0079 35.2219 27.0079 34.7041V34.3474C26.3842 34.2741 25.8638 34.0821 25.1639 33.6242C24.7306 33.3407 24.6091 32.7597 24.8926 32.3264C25.176 31.893 25.7571 31.7716 26.1904 32.0551C26.8393 32.4796 27.0847 32.5186 27.9392 32.5127C28.7805 32.5071 29.2686 31.88 29.3662 31.2997C29.4139 31.0164 29.4322 30.3244 28.5754 30.0216Z" fill="white"/>
</g>
<defs>
<clipPath id="clip0_8334_6936">
<rect width="32" height="32" fill="white" transform="translate(12 12)"/>
</clipPath>
</defs>
</svg>
