<svg width="20" height="20" viewBox="0 0 20 20" fill="none" xmlns="http://www.w3.org/2000/svg">
<g clip-path="url(#clip0_9872_21308)">
<path d="M9.58668 13.5776L9.52692 13.5277C9.35251 13.382 9.12747 13.3113 8.90105 13.3311C8.67463 13.3508 8.46527 13.4595 8.31878 13.6333L8.60526 13.2899C8.75098 13.1155 8.82168 12.8905 8.8019 12.6641C8.78211 12.4377 8.67344 12.2284 8.49967 12.0819L8.43992 12.032C8.2655 11.8863 8.04046 11.8156 7.81404 11.8353C7.58763 11.8551 7.37827 11.9638 7.23177 12.1375C7.25305 12.1122 7.27474 12.0905 7.29603 12.0647L7.51907 11.7946C7.59154 11.7087 7.64628 11.6093 7.68013 11.5021C7.71399 11.3949 7.72628 11.2821 7.71631 11.1701C7.70635 11.0582 7.67431 10.9493 7.62206 10.8498C7.5698 10.7502 7.49836 10.662 7.41185 10.5903L7.35169 10.5387C7.26575 10.4662 7.16632 10.4115 7.05912 10.3777C6.95193 10.3438 6.83909 10.3315 6.72712 10.3415C6.61515 10.3515 6.50626 10.3835 6.40673 10.4357C6.3072 10.488 6.219 10.5594 6.14722 10.6459L5.85542 10.9888C6.00173 10.8148 6.07307 10.5898 6.05382 10.3632C6.03456 10.1366 5.92628 9.92691 5.75269 9.78L5.69253 9.72844C5.60618 9.65595 5.50637 9.60122 5.39882 9.56737C5.29127 9.53352 5.1781 9.52122 5.06579 9.53118C4.95349 9.54114 4.84425 9.57316 4.74434 9.62541C4.64443 9.67766 4.55581 9.74911 4.48356 9.83566L3.43585 11.0854C3.41871 11.1057 3.40299 11.1272 3.38878 11.1497C3.26634 11.325 3.21385 11.5397 3.24165 11.7517C3.26944 11.9637 3.37549 12.1577 3.53898 12.2955L3.59874 12.3471C3.77343 12.493 3.99887 12.5636 4.2256 12.5435C4.45232 12.5234 4.66181 12.4142 4.80811 12.2398C4.6624 12.4144 4.59183 12.6396 4.61185 12.8661C4.63188 13.0926 4.74086 13.302 4.91493 13.4483L4.97509 13.4953C5.14856 13.6413 5.37288 13.7125 5.59878 13.6932C5.82468 13.674 6.0337 13.5658 6.17996 13.3926L6.18242 13.3898C6.11002 13.476 6.05532 13.5756 6.02144 13.683C5.98756 13.7903 5.97517 13.9033 5.98498 14.0155C5.99478 14.1276 6.02659 14.2367 6.07859 14.3366C6.13058 14.4364 6.20175 14.525 6.28801 14.5974L6.34776 14.6477C6.52223 14.7934 6.7473 14.864 6.97372 14.8441C7.20014 14.8243 7.40947 14.7155 7.55591 14.5417C7.41019 14.7161 7.33948 14.9411 7.35927 15.1675C7.37906 15.3939 7.48773 15.6033 7.6615 15.7498L7.72125 15.8001C7.89567 15.9458 8.12071 16.0165 8.34712 15.9967C8.57354 15.9769 8.7829 15.8683 8.9294 15.6945L9.69268 14.7848C9.83809 14.6104 9.90857 14.3855 9.88871 14.1593C9.86885 13.9331 9.76026 13.724 9.58668 13.5776Z" fill="#475467"/>
<path d="M14.2318 5.44664C14.1601 5.31811 14.1061 5.18045 14.0714 5.03742C13.7331 4.91684 13.3767 4.85498 13.0175 4.85449H11.6031C11.0056 4.85426 10.4201 5.02278 9.91409 5.34065L7.99915 6.54295C7.82665 6.65064 7.70084 6.81912 7.6466 7.01509C7.59236 7.21106 7.61364 7.42025 7.70623 7.60129C7.79881 7.78233 7.95597 7.92204 8.14662 7.9928C8.33726 8.06356 8.54752 8.06021 8.73582 7.98342L12.438 6.51021L16.2851 9.79628C16.367 9.73367 16.4758 9.64241 16.5945 9.53724L14.2318 5.44664Z" fill="#475467"/>
<path d="M16.1198 3.40905L15.2362 3.91915C14.8447 4.14515 14.7106 4.6457 14.9366 5.03714L17.5295 9.52759C17.7555 9.91904 18.2561 10.0531 18.6476 9.82714L19.5312 9.31704C19.9227 9.09104 20.0568 8.59049 19.8308 8.19905L17.2379 3.7086C17.0118 3.31715 16.5112 3.18304 16.1198 3.40905Z" fill="#475467"/>
<path d="M3.00216 3.70923L0.409264 8.19967C0.183234 8.59112 0.31736 9.09166 0.708845 9.31767L1.59242 9.82777C1.9839 10.0538 2.4845 9.91966 2.71053 9.52822L5.30342 5.03777C5.52945 4.64632 5.39532 4.14578 5.00384 3.91977L4.12026 3.40967C3.72878 3.18367 3.22819 3.31778 3.00216 3.70923Z" fill="#475467"/>
<path d="M15.0007 12.1771L15.2119 12.3736C15.3769 12.5156 15.5875 12.5937 15.8053 12.5937C16.0231 12.5937 16.2336 12.5156 16.3987 12.3736C16.4979 12.2882 16.5775 12.1824 16.632 12.0635C16.6866 11.9446 16.7148 11.8153 16.7148 11.6844C16.7148 11.5536 16.6866 11.4243 16.632 11.3053C16.5775 11.1864 16.4979 11.0807 16.3987 10.9953L12.5852 7.71168L12.2815 7.45264L9.04057 8.7421C8.66271 8.89442 8.24152 8.89982 7.85989 8.75723C7.47825 8.61464 7.16381 8.3344 6.97844 7.97164C6.79306 7.60888 6.75019 7.18989 6.85824 6.79711C6.9663 6.40434 7.21746 6.06622 7.56231 5.8493L9.25911 4.78532L7.36463 4.5492C6.98513 4.50349 6.60076 4.51868 6.22606 4.59421C6.23468 4.89309 6.16046 5.18853 6.0116 5.44785L3.62109 9.58756L3.85601 9.30724C4.14166 8.9669 4.55067 8.75374 4.99329 8.71454C5.43592 8.67534 5.87602 8.81329 6.21706 9.09813L6.28417 9.15542C6.41144 9.26267 6.52182 9.38849 6.61159 9.52863C6.83798 9.50246 7.06734 9.52291 7.28553 9.58871C7.50372 9.65451 7.70614 9.76428 7.8803 9.91125L7.94579 9.96732C8.1135 10.1079 8.25165 10.2804 8.35225 10.4748C8.45285 10.6691 8.5139 10.8815 8.53185 11.0996C8.53185 11.1144 8.53431 11.1287 8.53513 11.143C8.69087 11.2082 8.83588 11.2965 8.96526 11.4049L9.0242 11.4548C9.19886 11.6011 9.34176 11.7815 9.4441 11.9851C9.54643 12.1886 9.60605 12.4109 9.61927 12.6383C9.77545 12.7033 9.92078 12.7917 10.0502 12.9006L10.1112 12.9518C10.4394 13.226 10.6493 13.616 10.6975 14.0409C10.7456 14.4658 10.6283 14.8929 10.3699 15.2336L10.5548 15.4022C10.6418 15.4822 10.7437 15.5442 10.8547 15.5845C10.9657 15.6249 11.0837 15.6428 11.2017 15.6372C11.3197 15.6317 11.4354 15.6027 11.5422 15.5521C11.6489 15.5016 11.7446 15.4303 11.8236 15.3425C11.9821 15.1662 12.0648 14.9345 12.0535 14.6977C12.0422 14.4608 11.938 14.238 11.7634 14.0776L12.0499 14.3395C12.1368 14.4189 12.2385 14.4804 12.3492 14.5205C12.4598 14.5606 12.5773 14.5785 12.6949 14.5732C12.8125 14.5679 12.928 14.5395 13.0346 14.4896C13.1412 14.4397 13.2369 14.3693 13.3164 14.2824C13.3958 14.1955 13.4573 14.0938 13.4974 13.9831C13.5375 13.8725 13.5554 13.755 13.5501 13.6374C13.5448 13.5198 13.5164 13.4044 13.4665 13.2978C13.4166 13.1912 13.3462 13.0954 13.2593 13.016L13.7913 13.501C13.9676 13.657 14.1981 13.7374 14.4332 13.725C14.6682 13.7125 14.889 13.6081 15.0477 13.4343C15.2065 13.2605 15.2905 13.0313 15.2817 12.7961C15.2729 12.5609 15.172 12.3386 15.0007 12.1771Z" fill="#475467"/>
</g>
<defs>
<clipPath id="clip0_9872_21308">
<rect width="20" height="20" fill="white"/>
</clipPath>
</defs>
</svg>
