<svg width="21" height="20" viewBox="0 0 21 20" fill="none" xmlns="http://www.w3.org/2000/svg">
<path d="M17.0964 4H4.76302C3.75169 4 2.92969 4.822 2.92969 5.83333V14.1667C2.92969 15.178 3.75169 16 4.76302 16H17.0964C18.1077 16 18.9297 15.178 18.9297 14.1667V5.83333C18.9297 4.822 18.1077 4 17.0964 4ZM7.92969 6.66667C8.84835 6.66667 9.59635 7.41467 9.59635 8.33333C9.59635 9.252 8.84835 10 7.92969 10C7.01102 10 6.26302 9.252 6.26302 8.33333C6.26302 7.41467 7.01102 6.66667 7.92969 6.66667ZM10.9297 12.8333C10.9297 13.1093 10.7057 13.3333 10.4297 13.3333H5.42969C5.15369 13.3333 4.92969 13.1093 4.92969 12.8333V12.5C4.92969 11.4887 5.75169 10.6667 6.76302 10.6667H9.09635C10.1077 10.6667 10.9297 11.4887 10.9297 12.5V12.8333ZM16.4297 13.3333H12.763C12.487 13.3333 12.263 13.1093 12.263 12.8333C12.263 12.5573 12.487 12.3333 12.763 12.3333H16.4297C16.7057 12.3333 16.9297 12.5573 16.9297 12.8333C16.9297 13.1093 16.7057 13.3333 16.4297 13.3333ZM16.4297 10.6667H12.763C12.487 10.6667 12.263 10.4427 12.263 10.1667C12.263 9.89067 12.487 9.66667 12.763 9.66667H16.4297C16.7057 9.66667 16.9297 9.89067 16.9297 10.1667C16.9297 10.4427 16.7057 10.6667 16.4297 10.6667ZM16.4297 8H12.763C12.487 8 12.263 7.776 12.263 7.5C12.263 7.224 12.487 7 12.763 7H16.4297C16.7057 7 16.9297 7.224 16.9297 7.5C16.9297 7.776 16.7057 8 16.4297 8Z" fill="#475467"/>
</svg>
