<svg width="20" height="20" viewBox="0 0 20 20" fill="none" xmlns="http://www.w3.org/2000/svg">
<path d="M10.4258 3.73578C10.4258 3.95431 10.5952 4.13414 10.8117 4.16409C13.385 4.52013 15.4274 6.53789 15.8207 9.09912C15.8534 9.31262 16.032 9.47829 16.248 9.47829H17.8716C18.1119 9.47829 18.3033 9.27529 18.2758 9.03662C17.8306 5.1718 14.7414 2.1118 10.8631 1.71159C10.6259 1.68712 10.4259 1.87788 10.4259 2.11627L10.4258 3.73578Z" fill="#475467"/>
<path d="M15.7881 11.0925C15.8268 10.8857 16.0027 10.7282 16.2131 10.7282H17.8452C18.0894 10.7282 18.2822 10.9379 18.2479 11.1797C17.6751 15.2236 14.1995 18.3338 9.9974 18.3338C5.39502 18.3338 1.66406 14.6028 1.66406 10.0004C1.66406 5.83251 4.72385 2.37925 8.71965 1.76442C8.96299 1.72698 9.17574 1.92038 9.17574 2.16654L9.17557 3.80221C9.17557 4.01009 9.02174 4.18459 8.81799 4.22594C6.12828 4.77189 4.10384 7.14986 4.10384 10.0007C4.10384 13.255 6.74204 15.8933 9.9964 15.8933C12.8777 15.8933 15.2761 13.8253 15.7881 11.0925Z" fill="#475467"/>
<path fill-rule="evenodd" clip-rule="evenodd" d="M5.94531 7.76501C5.94531 6.78267 6.74165 5.98633 7.724 5.98633C8.7063 5.98633 9.50272 6.78267 9.50272 7.76501C9.50272 8.74734 8.7063 9.54368 7.724 9.54368C6.74165 9.54368 5.94531 8.74734 5.94531 7.76501ZM7.724 7.23633C7.43201 7.23633 7.19531 7.47303 7.19531 7.76501C7.19531 8.05699 7.43201 8.29369 7.724 8.29369C8.01599 8.29369 8.25269 8.05699 8.25269 7.76501C8.25269 7.47303 8.01599 7.23633 7.724 7.23633Z" fill="#475467"/>
<path d="M13.0307 7.84453C13.2748 7.60045 13.2748 7.20473 13.0307 6.96065C12.7866 6.71657 12.3909 6.71657 12.1469 6.96065L6.95259 12.1549C6.70851 12.3989 6.70851 12.7947 6.95259 13.0388C7.19667 13.2828 7.5924 13.2828 7.83647 13.0388L13.0307 7.84453Z" fill="#475467"/>
<path fill-rule="evenodd" clip-rule="evenodd" d="M12.2669 10.4565C11.2846 10.4565 10.4883 11.253 10.4883 12.2353C10.4883 13.2176 11.2846 14.014 12.2669 14.014C13.2493 14.014 14.0456 13.2176 14.0456 12.2353C14.0456 11.253 13.2493 10.4565 12.2669 10.4565ZM11.7383 12.2353C11.7383 11.9433 11.9749 11.7065 12.2669 11.7065C12.5589 11.7065 12.7956 11.9433 12.7956 12.2353C12.7956 12.5272 12.5589 12.764 12.2669 12.764C11.9749 12.764 11.7383 12.5272 11.7383 12.2353Z" fill="#475467"/>
</svg>
