<svg width="21" height="20" viewBox="0 0 21 20" fill="none" xmlns="http://www.w3.org/2000/svg">
<path fill-rule="evenodd" clip-rule="evenodd" d="M12.7736 2C12.9063 2.002 13.037 2.04267 13.1483 2.12067C13.3263 2.24533 13.4323 2.44933 13.4323 2.66667V17.3333C13.4323 17.6987 13.1383 17.9953 12.7743 18H12.7656H5.43229C5.06429 18 4.76562 17.7013 4.76562 17.3333C4.76562 17.3333 4.76562 9.08867 4.76562 6.26733C4.76562 5.426 5.29162 4.67533 6.08229 4.38733C8.02896 3.68 12.5376 2.04 12.5376 2.04C12.6083 2.01467 12.681 2.00133 12.7536 2H12.7636H12.7736ZM14.7656 7.46533L16.887 8.374C17.6223 8.68933 18.099 9.41267 18.099 10.2127V17.3333C18.099 17.7013 17.8003 18 17.4323 18H14.6516C14.7256 17.7913 14.7656 17.5673 14.7656 17.3333V7.46533ZM10.1076 13.3333C10.4716 13.3287 10.7656 13.032 10.7656 12.6667C10.7656 12.2987 10.467 12 10.099 12H8.09896C7.73096 12 7.43229 12.2987 7.43229 12.6667C7.43229 13.0347 7.73096 13.3333 8.09896 13.3333H10.099H10.1076ZM10.1076 10.6667C10.4716 10.662 10.7656 10.3653 10.7656 10C10.7656 9.632 10.467 9.33333 10.099 9.33333H8.09896C7.73096 9.33333 7.43229 9.632 7.43229 10C7.43229 10.368 7.73096 10.6667 8.09896 10.6667H10.099H10.1076ZM10.1076 8C10.4716 7.99533 10.7656 7.69867 10.7656 7.33333C10.7656 6.96533 10.467 6.66667 10.099 6.66667H8.09896C7.73096 6.66667 7.43229 6.96533 7.43229 7.33333C7.43229 7.70133 7.73096 8 8.09896 8H10.099H10.1076Z" fill="#475467"/>
</svg>
