<svg width="17" height="16" viewBox="0 0 17 16" fill="none" xmlns="http://www.w3.org/2000/svg">
<path fill-rule="evenodd" clip-rule="evenodd" d="M16.4288 13.4087C16.4292 14.8906 15.1882 16.0753 13.7084 15.9963C10.6932 15.8352 7.40261 14.3585 4.7379 11.6937C2.07126 9.02862 0.594157 5.73651 0.433409 2.72031C0.354564 1.24089 1.53864 0 3.02016 0H4.69629C5.10333 0 5.34517 0.344451 5.43739 0.741106L6.16614 3.90699C6.25919 4.31126 6.13533 4.73483 5.83912 5.02526L5.07201 5.77741C4.52336 6.31536 4.43585 7.1681 4.86435 7.8059C5.34399 8.51984 5.91148 9.21262 6.56297 9.86528C7.21463 10.5169 7.90792 11.0846 8.62245 11.5643C9.26027 11.9926 10.1128 11.905 10.6506 11.3565L11.403 10.5891C11.6934 10.2929 12.117 10.1691 12.5213 10.2621L15.6871 10.9909C16.0838 11.0831 16.4282 11.3248 16.4282 11.732L16.4288 13.4087Z" fill="#475467"/>
</svg>
