<svg width="20" height="20" viewBox="0 0 20 20" fill="none" xmlns="http://www.w3.org/2000/svg">
<path d="M13.4407 2H5.84743C4.27547 2.0015 3.0015 3.27547 3 4.84746V15.1525C3.0015 16.7245 4.27547 17.9985 5.84746 18H13.4407C15.0127 17.9985 16.2866 16.7245 16.2881 15.1525V4.84746C16.2866 3.27547 15.0126 2.0015 13.4407 2ZM9.64405 14.1573H6.38981C6.01537 14.1573 5.71184 13.8537 5.71184 13.4793C5.71184 13.1049 6.01537 12.8013 6.38981 12.8013H9.64405C10.0185 12.8013 10.322 13.1049 10.322 13.4793C10.322 13.8537 10.0185 14.1573 9.64405 14.1573ZM12.8983 10.724H6.38981C6.01537 10.724 5.71184 10.4205 5.71184 10.0461C5.71184 9.67164 6.01537 9.36811 6.38981 9.36811H12.8983C13.2727 9.36811 13.5762 9.67164 13.5762 10.0461C13.5762 10.4205 13.2727 10.724 12.8983 10.724ZM12.8983 7.19865H6.38981C6.01537 7.19865 5.71184 6.89512 5.71184 6.52068C5.71184 6.14624 6.01537 5.84271 6.38981 5.84271H12.8983C13.2727 5.84271 13.5762 6.14624 13.5762 6.52068C13.5763 6.89508 13.2727 7.19865 12.8983 7.19865Z" fill="#475467"/>
</svg>
