<svg width="20" height="20" viewBox="0 0 20 20" fill="none" xmlns="http://www.w3.org/2000/svg">
<path d="M10.1875 2.5H9.3625C9.115 1.6375 8.32 1 7.375 1C6.43 1 5.635 1.6375 5.3875 2.5H4.5625C4.255 2.5 4 2.755 4 3.0625V4.1875C4 4.9075 4.5925 5.5 5.3125 5.5H9.4375C10.1575 5.5 10.75 4.9075 10.75 4.1875V3.0625C10.75 2.755 10.495 2.5 10.1875 2.5Z" fill="#475467"/>
<path d="M11.6875 3.25H11.5V4.1875C11.5 5.3275 10.5775 6.25 9.4375 6.25H5.3125C4.1725 6.25 3.25 5.3275 3.25 4.1875V3.25H3.0625C1.9225 3.25 1 4.1725 1 5.3125V14.6875C1 15.8275 1.9225 16.75 3.0625 16.75H8.005C7.63 15.9475 7.405 15.0625 7.3825 14.125H3.8125C3.505 14.125 3.25 13.87 3.25 13.5625C3.25 13.255 3.505 13 3.8125 13H7.4425C7.51 12.5425 7.6225 12.1075 7.7725 11.6875H3.8125C3.505 11.6875 3.25 11.4325 3.25 11.125C3.25 10.8175 3.505 10.5625 3.8125 10.5625H8.3125C8.605 10.0825 8.95 9.64 9.355 9.25H3.8125C3.505 9.25 3.25 8.995 3.25 8.6875C3.25 8.38 3.505 8.125 3.8125 8.125H10.8925C11.755 7.675 12.7225 7.405 13.75 7.3825V5.3125C13.75 4.1725 12.8275 3.25 11.6875 3.25Z" fill="#475467"/>
<path d="M13.9375 8.875C11.146 8.875 8.875 11.146 8.875 13.9375C8.875 16.729 11.146 19 13.9375 19C16.729 19 19 16.729 19 13.9375C19 11.146 16.729 8.875 13.9375 8.875ZM16.3765 12.9318L13.7515 15.9318C13.615 16.0878 13.42 16.1807 13.2123 16.1875C13.204 16.1875 13.1958 16.1875 13.1875 16.1875C12.9887 16.1875 12.7983 16.1088 12.6573 15.9678L11.1573 14.4678C10.864 14.1745 10.864 13.7005 11.1573 13.4072C11.4505 13.114 11.9245 13.114 12.2177 13.4072L13.1508 14.3403L15.2477 11.9432C15.5207 11.6327 15.994 11.5997 16.306 11.8727C16.618 12.1457 16.6495 12.6198 16.3765 12.9318Z" fill="#475467"/>
</svg>
