<svg width="20" height="20" viewBox="0 0 20 20" fill="none" xmlns="http://www.w3.org/2000/svg">
<g clip-path="url(#clip0_9872_21322)">
<path d="M9.71934 11.8278C9.57157 11.6116 9.50397 11.3505 9.52822 11.0896C9.55246 10.8288 9.66704 10.5846 9.85216 10.3993L10.4423 9.80928C10.6276 9.62406 10.8718 9.50942 11.1326 9.48519C11.3935 9.46096 11.6546 9.52867 11.8708 9.6766L12.4755 10.0902C12.4824 10.0596 12.4919 10.0296 12.5039 10.0006C12.5845 9.83181 12.9643 8.98541 13.0307 8.87713C13.1308 8.71353 13.2713 8.57835 13.4386 8.48454C13.6059 8.39072 13.7945 8.3414 13.9863 8.34128H14.8207C14.8809 8.34174 14.941 8.34707 15.0004 8.35722C15.0081 8.31798 15.0122 8.27809 15.0123 8.2381V7.0815C15.0123 6.93449 14.9609 6.79213 14.867 6.67901C14.7731 6.56589 14.6426 6.48913 14.4981 6.462L13.1578 6.21053C13.0592 6.19291 12.967 6.14976 12.8904 6.08539C12.8137 6.02101 12.7553 5.93767 12.7209 5.84366C12.6576 5.66517 12.5852 5.49007 12.5039 5.31903C12.4621 5.22819 12.4448 5.128 12.4536 5.02838C12.4624 4.92877 12.4971 4.8332 12.5543 4.75113L13.3236 3.62613C13.4065 3.50473 13.4444 3.35822 13.4308 3.21187C13.4172 3.06552 13.353 2.9285 13.2492 2.82444L12.4313 2.00672C12.3273 1.90282 12.1903 1.8385 12.0439 1.82487C11.8975 1.81125 11.751 1.84917 11.6296 1.9321L10.5046 2.70175C10.4225 2.75895 10.3269 2.79366 10.2273 2.80244C10.1276 2.81121 10.0274 2.79373 9.93666 2.75175C9.76554 2.67045 9.5903 2.59813 9.41166 2.53506C9.31769 2.50049 9.23441 2.44192 9.1701 2.36519C9.10579 2.28845 9.06268 2.19622 9.04506 2.09766L8.79359 0.757627C8.76661 0.613128 8.68994 0.482618 8.57686 0.388705C8.46377 0.294791 8.3214 0.243391 8.17441 0.243408H7.01778C6.87079 0.243476 6.72845 0.294884 6.61533 0.388751C6.50222 0.482618 6.42545 0.613047 6.39828 0.757502L6.14681 2.09766C6.12916 2.19622 6.08602 2.28844 6.02168 2.36516C5.95734 2.44188 5.87404 2.50042 5.78006 2.53497C5.60152 2.59795 5.42641 2.67028 5.25547 2.75166C5.16461 2.79357 5.06438 2.811 4.96471 2.80223C4.86504 2.79346 4.76939 2.75879 4.68725 2.70166L3.56225 1.932C3.44083 1.84915 3.29431 1.81127 3.14795 1.82489C3.00159 1.83852 2.86457 1.90279 2.76053 2.00663L1.943 2.82444C1.83915 2.92846 1.77486 3.06547 1.76122 3.21182C1.74757 3.35817 1.78542 3.5047 1.86825 3.62613L2.63791 4.75113C2.69506 4.83323 2.72974 4.92885 2.73852 5.0285C2.74729 5.12815 2.72984 5.22837 2.68791 5.31919C2.60648 5.4902 2.53406 5.66536 2.47094 5.84394C2.43648 5.9379 2.378 6.02119 2.30132 6.08551C2.22465 6.14983 2.13246 6.19294 2.03394 6.21053L0.693938 6.462C0.54944 6.48911 0.418958 6.56586 0.325055 6.67898C0.231152 6.7921 0.179732 6.93448 0.179688 7.0815V8.2381C0.179731 8.38512 0.231149 8.5275 0.325052 8.64063C0.418954 8.75376 0.549437 8.83051 0.693938 8.85763L2.03366 9.10894C2.13229 9.12655 2.22458 9.16972 2.30131 9.23414C2.37805 9.29856 2.43654 9.38197 2.47097 9.47606C2.53414 9.65452 2.60656 9.82957 2.68794 10.0005C2.72987 10.0913 2.74731 10.1915 2.73854 10.2912C2.72977 10.3909 2.69509 10.4865 2.63794 10.5686L1.86828 11.6936C1.78537 11.815 1.74747 11.9615 1.76112 12.1078C1.77476 12.2542 1.83911 12.3912 1.94303 12.4951L2.76059 13.313C2.8646 13.4169 3.00164 13.4812 3.14802 13.4948C3.29441 13.5084 3.44095 13.4704 3.56231 13.3875L4.68731 12.618C4.7695 12.561 4.86514 12.5263 4.96479 12.5176C5.06444 12.5088 5.16465 12.5262 5.25553 12.568C5.42644 12.6495 5.60155 12.7218 5.78013 12.7848C5.87412 12.8193 5.95744 12.8779 6.0218 12.9546C6.08616 13.0313 6.12931 13.1236 6.14697 13.2221L6.39844 14.5623C6.42561 14.7068 6.50239 14.8372 6.6155 14.931C6.72861 15.0249 6.87095 15.0763 7.01794 15.0764H8.17456C8.25739 15.0759 8.33931 15.059 8.41556 15.0267C8.39583 14.9453 8.38534 14.8619 8.38431 14.7781V13.9437C8.38438 13.7557 8.43159 13.5707 8.52162 13.4057C8.61166 13.2407 8.74165 13.1009 8.89969 12.9991C9.31883 12.8094 9.75058 12.6489 10.1918 12.5187L9.71934 11.8278ZM7.596 10.0372C7.12578 10.0372 6.66612 9.8978 6.27515 9.63656C5.88418 9.37533 5.57945 9.00402 5.39951 8.5696C5.21956 8.13517 5.17248 7.65715 5.26421 7.19596C5.35595 6.73478 5.58238 6.31116 5.91488 5.97867C6.24737 5.64618 6.671 5.41975 7.13218 5.32802C7.59336 5.23629 8.07139 5.28338 8.50581 5.46333C8.94023 5.64328 9.31153 5.94802 9.57276 6.33899C9.83399 6.72997 9.97342 7.18963 9.97341 7.65985C9.97338 8.29036 9.7229 8.89504 9.27705 9.34088C8.8312 9.78671 8.22651 10.0372 7.596 10.0372Z" fill="#475467"/>
<path d="M19.3614 13.6072L18.3944 13.4259C18.3039 13.4096 18.2192 13.3698 18.1488 13.3105C18.0784 13.2512 18.0249 13.1745 17.9934 13.088C17.9493 12.9628 17.8987 12.8401 17.8416 12.7203C17.8028 12.637 17.7866 12.545 17.7944 12.4534C17.8023 12.3619 17.834 12.274 17.8864 12.1985L18.4417 11.3868C18.4867 11.321 18.5073 11.2415 18.4999 11.162C18.4925 11.0826 18.4576 11.0083 18.4012 10.9518L17.8112 10.3618C17.7548 10.3054 17.6804 10.2705 17.601 10.2631C17.5216 10.2557 17.4421 10.2763 17.3762 10.3214L16.5645 10.8766C16.4891 10.929 16.4011 10.9607 16.3096 10.9686C16.218 10.9764 16.126 10.9602 16.0427 10.9213C15.9229 10.8644 15.8002 10.8137 15.6751 10.7696C15.5886 10.7382 15.5118 10.6846 15.4525 10.6142C15.3932 10.5438 15.3534 10.4591 15.3371 10.3685L15.1557 9.40156C15.1409 9.32316 15.0993 9.25237 15.0379 9.20142C14.9765 9.15048 14.8993 9.12258 14.8195 9.12256H13.985C13.9053 9.12258 13.828 9.15048 13.7666 9.20142C13.7052 9.25237 13.6636 9.32316 13.6489 9.40156L13.4674 10.3685C13.4511 10.4591 13.4114 10.5438 13.3521 10.6142C13.2928 10.6845 13.216 10.7381 13.1295 10.7695C13.0044 10.8137 12.8817 10.8644 12.7619 10.9213C12.6786 10.9602 12.5865 10.9764 12.495 10.9686C12.4034 10.9607 12.3155 10.929 12.24 10.8766L11.4284 10.3214C11.3625 10.2763 11.283 10.2557 11.2036 10.2631C11.1241 10.2705 11.0498 10.3054 10.9934 10.3618L10.4033 10.9517C10.3469 11.0082 10.312 11.0825 10.3046 11.1619C10.2973 11.2414 10.3179 11.3209 10.3629 11.3867L10.9182 12.1983C10.9706 12.2738 11.0023 12.3617 11.0102 12.4533C11.018 12.5449 11.0017 12.6369 10.9629 12.7202C10.9059 12.84 10.8552 12.9627 10.8111 13.0878C10.7797 13.1744 10.7261 13.2511 10.6557 13.3104C10.5853 13.3697 10.5006 13.4095 10.41 13.4258L9.44309 13.6071C9.36468 13.6218 9.29388 13.6634 9.24292 13.7248C9.19197 13.7862 9.16408 13.8635 9.16406 13.9433V14.7777C9.16407 14.8574 9.19196 14.9347 9.24291 14.9961C9.29387 15.0575 9.36468 15.0991 9.44309 15.1138L10.41 15.2951C10.5006 15.3114 10.5853 15.3512 10.6557 15.4105C10.7261 15.4698 10.7796 15.5466 10.811 15.6331C10.8551 15.7582 10.9058 15.8809 10.9628 16.0007C11.0017 16.084 11.0179 16.176 11.0101 16.2676C11.0022 16.3592 10.9705 16.4471 10.9181 16.5226L10.3628 17.3342C10.3178 17.4001 10.2972 17.4796 10.3046 17.559C10.3119 17.6384 10.3468 17.7128 10.4033 17.7692L10.9933 18.3592C11.0497 18.4157 11.1241 18.4506 11.2035 18.458C11.283 18.4653 11.3625 18.4447 11.4283 18.3997L12.2399 17.8445C12.3154 17.7921 12.4033 17.7603 12.4949 17.7525C12.5865 17.7446 12.6785 17.7609 12.7618 17.7997C12.8816 17.8567 13.0043 17.9074 13.1295 17.9515C13.216 17.9829 13.2927 18.0365 13.352 18.1069C13.4113 18.1772 13.4511 18.262 13.4674 18.3525L13.6488 19.3195C13.6635 19.3979 13.7052 19.4687 13.7666 19.5196C13.8279 19.5705 13.9052 19.5984 13.985 19.5984H14.8193C14.8991 19.5984 14.9764 19.5706 15.0378 19.5196C15.0991 19.4687 15.1408 19.3979 15.1555 19.3195L15.3369 18.3525C15.3532 18.2619 15.393 18.1772 15.4523 18.1069C15.5116 18.0365 15.5884 17.9829 15.6748 17.9515C15.8 17.9074 15.9227 17.8567 16.0425 17.7997C16.1258 17.7609 16.2178 17.7446 16.3094 17.7525C16.401 17.7603 16.4889 17.7921 16.5644 17.8445L17.3762 18.3999C17.442 18.4449 17.5215 18.4655 17.601 18.4581C17.6804 18.4507 17.7547 18.4158 17.8112 18.3594L18.4012 17.7694C18.4576 17.713 18.4925 17.6386 18.4999 17.5592C18.5073 17.4798 18.4867 17.4003 18.4417 17.3344L17.8864 16.5227C17.834 16.4473 17.8023 16.3593 17.7944 16.2678C17.7866 16.1762 17.8029 16.0842 17.8417 16.0009C17.8987 15.8811 17.9493 15.7584 17.9934 15.6333C18.0249 15.5468 18.0784 15.4701 18.1488 15.4108C18.2192 15.3515 18.3039 15.3117 18.3944 15.2954L19.3613 15.1142C19.4398 15.0995 19.5106 15.0578 19.5615 14.9964C19.6125 14.935 19.6404 14.8578 19.6404 14.778V13.9436C19.6404 13.8638 19.6126 13.7865 19.5616 13.725C19.5107 13.6636 19.4398 13.6219 19.3614 13.6072ZM14.4023 16.302C14.0183 16.302 13.643 16.1882 13.3237 15.9748C13.0044 15.7615 12.7556 15.4583 12.6087 15.1036C12.4617 14.7488 12.4233 14.3585 12.4982 13.9819C12.5731 13.6053 12.758 13.2593 13.0295 12.9878C13.301 12.7163 13.647 12.5314 14.0236 12.4565C14.4001 12.3816 14.7905 12.4201 15.1452 12.567C15.5 12.7139 15.8032 12.9628 16.0165 13.282C16.2298 13.6013 16.3437 13.9766 16.3437 14.3606C16.3437 14.8755 16.1392 15.3693 15.7751 15.7334C15.411 16.0975 14.9172 16.302 14.4023 16.302Z" fill="#475467"/>
</g>
<defs>
<clipPath id="clip0_9872_21322">
<rect width="20" height="20" fill="white"/>
</clipPath>
</defs>
</svg>
