<svg width="21" height="20" viewBox="0 0 21 20" fill="none" xmlns="http://www.w3.org/2000/svg">
<path d="M7.37862 7.01924C7.43418 7.27484 7.51938 7.44029 7.61878 7.5434C7.85523 9.18934 9.33263 10.592 10.5192 10.5334C12.0287 10.4593 13.0987 8.83249 13.3388 7.5434C13.4382 7.44091 13.5339 7.22174 13.5913 6.96429C13.6555 6.66857 13.7247 6.22282 13.5469 5.98698C13.5364 5.97463 13.4685 5.91227 13.4567 5.90178C13.6265 5.28933 13.9994 4.19657 13.0709 3.21431C12.5677 2.68213 11.8688 2.4148 11.2373 2.20366C9.37276 1.58072 8.0565 2.45431 7.449 3.90701C7.40516 4.01012 7.12178 4.66269 7.46505 5.90178C7.43171 5.924 7.40146 5.9524 7.37615 5.98698C7.19772 6.2222 7.31379 6.72351 7.37862 7.01924Z" fill="#475467"/>
<path d="M17.0213 16.0714C16.9694 14.9385 16.9052 13.1431 15.9155 11.6744C15.9155 11.6744 15.6334 11.2898 14.9641 11.0342C14.9641 11.0342 13.5108 10.5915 12.8416 10.113L12.536 10.3223L12.5699 12.3091L10.7351 17.2074C10.695 17.3148 10.5925 17.3858 10.4782 17.3858C10.364 17.3858 10.2615 17.3148 10.2214 17.2074L8.38718 12.3091C8.38718 12.3091 8.42113 10.3285 8.42051 10.3223C8.42484 10.339 8.11429 10.113 8.11429 10.113C7.44629 10.5915 5.99235 11.0342 5.99235 11.0342C5.32311 11.2898 5.04096 11.6744 5.04096 11.6744C4.05192 13.1431 3.98647 14.9385 3.93461 16.0714C3.89881 16.8542 4.06303 17.1463 4.26924 17.2296C6.8289 18.2569 14.1257 18.2569 16.686 17.2296C16.8935 17.1469 17.0565 16.8542 17.0213 16.0714Z" fill="#475467"/>
<path d="M10.543 11.1663L10.4603 11.1681C10.1936 11.1681 9.9244 11.1163 9.66016 11.0249L10.3874 12.138L9.73486 12.7678L10.4066 16.8468C10.4121 16.882 10.4424 16.9073 10.4782 16.9073C10.5134 16.9073 10.5436 16.882 10.5498 16.8468L11.2215 12.7678L10.5683 12.138L11.2851 11.0416C11.0511 11.1101 10.8035 11.1558 10.543 11.1663Z" fill="#475467"/>
</svg>
