<svg width="20" height="20" viewBox="0 0 20 20" fill="none" xmlns="http://www.w3.org/2000/svg">
<path d="M9.97834 2C6.67667 2 4 4.67667 4 7.97834C4 11.4699 7.69622 14.7509 9.27558 15.9935C9.68786 16.3177 10.2677 16.3177 10.6805 15.9935C12.2605 14.7504 15.9561 11.4699 15.9561 7.97834C15.9567 4.6761 13.28 2 9.97834 2ZM9.97834 10.1884C8.70148 10.1884 7.66649 9.15342 7.66649 7.87656C7.66649 6.59969 8.70148 5.5647 9.97834 5.5647C11.2552 5.5647 12.2902 6.59969 12.2902 7.87656C12.2902 9.15342 11.2552 10.1884 9.97834 10.1884Z" fill="#475467"/>
<path d="M12.5807 15.7275C12.102 16.165 11.6617 16.5309 11.3169 16.8026C10.9361 17.101 10.4609 17.2663 9.97775 17.2663C9.49456 17.2663 9.01938 17.1016 8.63912 16.8026C8.29375 16.5309 7.85402 16.165 7.37484 15.7275C5.97617 15.9448 5.04297 16.3297 5.04297 16.7705C5.04297 17.4493 7.25247 17.9999 9.97775 17.9999C12.703 17.9999 14.9125 17.4499 14.9125 16.7705C14.9125 16.3297 13.9787 15.9443 12.5807 15.7275Z" fill="#475467"/>
</svg>
