<svg width="34" height="40" viewBox="0 0 34 40" fill="none" xmlns="http://www.w3.org/2000/svg">
<path d="M9.65871 38.6439L10.354 34.2405L8.80527 34.2048H1.41016L6.54938 1.71242C6.56468 1.61314 6.61525 1.52265 6.69187 1.45744C6.76849 1.39224 6.86606 1.35665 6.9668 1.35718H19.436C23.5756 1.35718 26.4323 2.21612 27.9238 3.91145C28.6231 4.70676 29.0684 5.53786 29.2837 6.45246C29.5097 7.41213 29.5137 8.5587 29.293 9.95712L29.2771 10.0592V10.9552L29.9763 11.3502C30.5101 11.6199 30.99 11.9847 31.3921 12.4266C31.9903 13.1065 32.3771 13.9708 32.5406 14.9954C32.7095 16.0492 32.6536 17.3031 32.3771 18.7227C32.0581 20.3558 31.5423 21.7781 30.8457 22.9419C30.2311 23.9844 29.4048 24.8874 28.4197 25.5929C27.4945 26.2477 26.3951 26.7448 25.1522 27.0629C23.9478 27.3757 22.5746 27.5334 21.0684 27.5334H20.098C19.4041 27.5334 18.7301 27.7826 18.201 28.2293C17.6727 28.6808 17.3222 29.3046 17.212 29.9896L17.1389 30.386L15.9106 38.1468L15.8548 38.4318C15.8401 38.522 15.8149 38.567 15.7777 38.5975C15.7416 38.6269 15.6966 38.6433 15.65 38.6439H9.65871Z" fill="#253B80"/>
<path d="M30.6388 10.1626C30.6015 10.3999 30.559 10.6424 30.5111 10.8916C28.8667 19.31 23.241 22.2182 16.0559 22.2182H12.3976C11.5189 22.2182 10.7784 22.8544 10.6415 23.7186L8.76846 35.5634L8.23806 38.921C8.21693 39.0541 8.225 39.1903 8.2617 39.3201C8.29841 39.4499 8.36289 39.5702 8.45069 39.6727C8.5385 39.7752 8.64755 39.8576 8.77033 39.9141C8.89312 39.9706 9.02672 39.9999 9.16195 39.9999H15.6505C16.4188 39.9999 17.0715 39.4432 17.1925 38.6877L17.2563 38.3589L18.478 30.6285L18.5564 30.2044C18.676 29.4462 19.3301 28.8895 20.0984 28.8895H21.0688C27.3553 28.8895 32.2765 26.3445 33.7148 18.9799C34.3157 15.9034 34.0046 13.3346 32.4148 11.5279C31.9108 10.969 31.309 10.5063 30.6388 10.1626Z" fill="#179BD7"/>
<path d="M28.9177 9.47865C28.3927 9.3272 27.8585 9.20899 27.3185 9.12474C26.2515 8.96122 25.1731 8.88277 24.0935 8.89012H14.3202C13.9483 8.88983 13.5885 9.02224 13.306 9.2634C13.0234 9.50456 12.8367 9.83856 12.7795 10.205L10.7004 23.3356L10.6406 23.7186C10.7054 23.3007 10.9181 22.9196 11.2402 22.6444C11.5623 22.3691 11.9725 22.218 12.3967 22.2182H16.055C23.2401 22.2182 28.8659 19.3087 30.5103 10.8916C30.5594 10.6425 30.6007 10.3999 30.6379 10.1626C30.204 9.93572 29.7517 9.74551 29.2859 9.59397C29.1638 9.55357 29.0411 9.51512 28.9177 9.47865Z" fill="#222D65"/>
<path d="M12.7802 10.2051C12.8368 9.83856 13.0234 9.5044 13.3061 9.26336C13.5888 9.02233 13.9489 8.8904 14.3209 8.89155H24.0942C25.252 8.89155 26.3328 8.96711 27.3191 9.12617C27.9866 9.23077 28.6449 9.38721 29.2879 9.59407C29.7731 9.75446 30.2237 9.94401 30.6398 10.1627C31.129 7.05174 30.6358 4.93357 28.9489 3.01555C27.0892 0.904001 23.7326 0 19.4375 0H6.96828C6.09091 0 5.3425 0.636247 5.2069 1.50181L0.0131734 34.3282C-0.0110182 34.4806 -0.0018141 34.6364 0.0401524 34.7849C0.0821189 34.9334 0.155852 35.0711 0.256279 35.1885C0.356707 35.3059 0.481445 35.4002 0.621915 35.465C0.762384 35.5297 0.91525 35.5633 1.07 35.5636H8.7682L10.7011 23.3357L12.7802 10.2051Z" fill="#253B80"/>
</svg>
