<svg width="91" height="24" viewBox="0 0 91 24" fill="none" xmlns="http://www.w3.org/2000/svg">
<g clip-path="url(#clip0_9032_25032)">
<path d="M34.0302 5.91309H29.0415C28.8764 5.91298 28.7166 5.97189 28.5911 6.0792C28.4655 6.18651 28.3823 6.33517 28.3566 6.49838L26.339 19.2967C26.3297 19.3561 26.3334 19.4168 26.3498 19.4747C26.3662 19.5325 26.395 19.586 26.4341 19.6317C26.4732 19.6773 26.5217 19.7139 26.5763 19.739C26.6309 19.7641 26.6903 19.777 26.7504 19.7769H29.132C29.2972 19.777 29.4571 19.718 29.5827 19.6106C29.7083 19.5031 29.7914 19.3543 29.8169 19.1909L30.3611 15.739C30.3866 15.5758 30.4696 15.4271 30.5951 15.3196C30.7205 15.2122 30.8802 15.1531 31.0453 15.153H32.6245C35.9107 15.153 37.8072 13.562 38.3025 10.4093C38.5257 9.03003 38.312 7.94629 37.6664 7.1873C36.9574 6.35388 35.6999 5.91309 34.0302 5.91309ZM34.6057 10.5874C34.3329 12.3783 32.9652 12.3783 31.6427 12.3783H30.8899L31.418 9.03368C31.4335 8.93583 31.4834 8.84671 31.5587 8.78236C31.6339 8.71801 31.7297 8.68265 31.8287 8.68265H32.1737C33.0746 8.68265 33.9244 8.68265 34.3635 9.19642C34.6254 9.50293 34.7056 9.95832 34.6057 10.5874ZM48.9421 10.5298H46.5532C46.4541 10.5298 46.3584 10.5651 46.2831 10.6295C46.2078 10.6938 46.158 10.7829 46.1425 10.8808L46.0367 11.5493L45.8697 11.307C45.3525 10.556 44.1993 10.305 43.0482 10.305C40.4084 10.305 38.1537 12.3053 37.7146 15.1114C37.4862 16.5111 37.8108 17.8496 38.6045 18.783C39.3325 19.6412 40.3741 19.9988 41.6134 19.9988C43.7405 19.9988 44.92 18.6304 44.92 18.6304L44.8135 19.2946C44.804 19.3539 44.8075 19.4147 44.8237 19.4726C44.8399 19.5305 44.8685 19.5841 44.9075 19.6299C44.9464 19.6757 44.9948 19.7125 45.0494 19.7378C45.1039 19.763 45.1633 19.7761 45.2234 19.7762H47.3752C47.5405 19.7763 47.7003 19.7173 47.8259 19.6098C47.9515 19.5024 48.0346 19.3535 48.0602 19.1902L49.3513 11.01C49.3608 10.9507 49.3573 10.8901 49.3411 10.8323C49.3249 10.7746 49.2964 10.721 49.2575 10.6753C49.2186 10.6297 49.1702 10.593 49.1158 10.5679C49.0613 10.5427 49.0021 10.5297 48.9421 10.5298ZM45.6122 15.1814C45.3817 16.5469 44.2985 17.4635 42.9169 17.4635C42.2232 17.4635 41.6688 17.2409 41.3129 16.8191C40.9598 16.4002 40.8256 15.804 40.938 15.1399C41.1531 13.7861 42.2546 12.8395 43.615 12.8395C44.2934 12.8395 44.8448 13.0651 45.2081 13.4905C45.5721 13.9204 45.7165 14.5203 45.6122 15.1814ZM61.6649 10.5298H59.2644C59.1511 10.5299 59.0397 10.5577 58.9396 10.6108C58.8396 10.6638 58.754 10.7405 58.6903 10.8341L55.3794 15.7135L53.9759 11.0246C53.9329 10.8815 53.8449 10.7562 53.7251 10.6671C53.6053 10.578 53.46 10.5298 53.3107 10.5298H50.9517C50.8855 10.5296 50.8202 10.5452 50.7612 10.5754C50.7023 10.6056 50.6514 10.6494 50.6128 10.7032C50.5742 10.7571 50.549 10.8193 50.5393 10.8849C50.5296 10.9504 50.5357 11.0173 50.5571 11.08L53.2013 18.8435L50.7153 22.3546C50.6712 22.4168 50.645 22.49 50.6396 22.5662C50.6342 22.6424 50.6499 22.7185 50.685 22.7864C50.72 22.8542 50.773 22.9111 50.8382 22.9507C50.9034 22.9904 50.9782 23.0114 51.0545 23.0114H53.4522C53.5641 23.0115 53.6745 22.9845 53.7737 22.9327C53.8729 22.8808 53.9581 22.8057 54.0219 22.7136L62.0063 11.1829C62.0496 11.1205 62.075 11.0475 62.0797 10.9717C62.0845 10.8959 62.0684 10.8203 62.0332 10.753C61.998 10.6857 61.9451 10.6293 61.8802 10.59C61.8153 10.5506 61.7408 10.5298 61.6649 10.5298Z" fill="#253B80"/>
<path d="M69.6143 5.91382H64.6249C64.4599 5.91389 64.3003 5.97287 64.1749 6.08017C64.0495 6.18746 63.9664 6.33602 63.9407 6.49911L61.9231 19.2975C61.9137 19.3568 61.9173 19.4174 61.9336 19.4752C61.9498 19.5329 61.9785 19.5865 62.0174 19.6321C62.0564 19.6778 62.1048 19.7144 62.1593 19.7395C62.2137 19.7647 62.273 19.7777 62.333 19.7777H64.8933C65.0089 19.7775 65.1205 19.7361 65.2082 19.6609C65.2959 19.5857 65.354 19.4817 65.3719 19.3675L65.9445 15.7397C65.97 15.5765 66.053 15.4278 66.1784 15.3203C66.3039 15.2129 66.4636 15.1538 66.6287 15.1537H68.2072C71.494 15.1537 73.3898 13.5628 73.8859 10.4101C74.1098 9.03076 73.8946 7.94702 73.2491 7.18803C72.5408 6.35461 71.284 5.91382 69.6143 5.91382ZM70.1898 10.5881C69.9177 12.379 68.55 12.379 67.2268 12.379H66.4748L67.0036 9.03441C67.0188 8.93655 67.0684 8.84736 67.1436 8.78297C67.2188 8.71858 67.3146 8.68325 67.4136 8.68338H67.7586C68.6587 8.68338 69.5092 8.68338 69.9484 9.19715C70.2102 9.50366 70.2897 9.95905 70.1898 10.5881ZM84.5255 10.5305H82.138C82.039 10.5302 81.9432 10.5655 81.8679 10.6299C81.7927 10.6943 81.7431 10.7836 81.7281 10.8815L81.6223 11.55L81.4545 11.3077C80.9373 10.5568 79.7848 10.3057 78.6338 10.3057C75.9939 10.3057 73.74 12.3061 73.3009 15.1121C73.0733 16.5119 73.3964 17.8503 74.19 18.7837C74.9195 19.6419 75.9597 19.9995 77.199 19.9995C79.326 19.9995 80.5055 18.6312 80.5055 18.6312L80.399 19.2953C80.3895 19.3548 80.393 19.4156 80.4093 19.4736C80.4257 19.5316 80.4544 19.5854 80.4935 19.6312C80.5326 19.677 80.5812 19.7138 80.636 19.7389C80.6907 19.7641 80.7502 19.7771 80.8104 19.777H82.9615C83.1267 19.7769 83.2863 19.7178 83.4118 19.6103C83.5372 19.5029 83.6202 19.3541 83.6458 19.1909L84.9376 11.0107C84.9467 10.9513 84.9429 10.8905 84.9264 10.8327C84.9099 10.7749 84.8811 10.7213 84.8419 10.6757C84.8028 10.6301 84.7542 10.5935 84.6996 10.5684C84.645 10.5434 84.5856 10.5304 84.5255 10.5305ZM81.1956 15.1822C80.9665 16.5476 79.8819 17.4642 78.5003 17.4642C77.8081 17.4642 77.2522 17.2417 76.8963 16.8198C76.5432 16.4009 76.4105 15.8047 76.5213 15.1406C76.738 13.7868 77.838 12.8403 79.1984 12.8403C79.8767 12.8403 80.4282 13.0658 80.7915 13.4912C81.1569 13.9211 81.3013 14.521 81.1956 15.1822ZM87.3418 6.26485L85.2943 19.2975C85.2849 19.3568 85.2885 19.4174 85.3048 19.4752C85.3211 19.5329 85.3497 19.5865 85.3886 19.6321C85.4276 19.6778 85.476 19.7144 85.5305 19.7395C85.585 19.7647 85.6442 19.7777 85.7042 19.7777H87.7627C88.1048 19.7777 88.3951 19.5296 88.4476 19.1917L90.4667 6.39402C90.4761 6.3347 90.4725 6.27405 90.4563 6.21624C90.44 6.15843 90.4114 6.10484 90.3724 6.05914C90.3335 6.01344 90.2851 5.97673 90.2306 5.95151C90.1761 5.9263 90.1168 5.91319 90.0568 5.91309H87.7518C87.6528 5.91344 87.5572 5.94903 87.4821 6.01348C87.407 6.07794 87.3572 6.16705 87.3418 6.26485Z" fill="#179BD7"/>
<path d="M5.62187 22.2644L6.00337 19.84L5.15357 19.8203H1.0957L3.91571 1.93094C3.92411 1.87628 3.95186 1.82646 3.9939 1.79056C4.03594 1.75465 4.08948 1.73506 4.14476 1.73535H10.9869C13.2584 1.73535 14.8259 2.20826 15.6444 3.14166C16.028 3.57954 16.2724 4.03712 16.3906 4.54068C16.5146 5.06905 16.5168 5.70032 16.3957 6.47025L16.3869 6.52644V7.01978L16.7706 7.23726C17.0635 7.38573 17.3268 7.58657 17.5475 7.82985C17.8757 8.20423 18.088 8.68006 18.1777 9.24419C18.2703 9.82437 18.2397 10.5148 18.088 11.2964C17.9129 12.1955 17.6299 12.9785 17.2477 13.6193C16.9104 14.1933 16.457 14.6905 15.9164 15.0789C15.4087 15.4394 14.8055 15.7131 14.1235 15.8882C13.4626 16.0604 12.7091 16.1473 11.8826 16.1473H11.3501C10.9694 16.1473 10.5996 16.2845 10.3092 16.5304C10.0193 16.779 9.82702 17.1224 9.76654 17.4996L9.72642 17.7178L9.05242 21.9907L9.02178 22.1476C9.01376 22.1973 8.9999 22.2221 8.97947 22.2389C8.95969 22.2551 8.935 22.2641 8.90945 22.2644H5.62187Z" fill="#253B80"/>
<path d="M17.136 6.58301C17.1155 6.71364 17.0922 6.84719 17.0659 6.98439C16.1636 11.6193 13.0766 13.2205 9.13403 13.2205H7.12661C6.64445 13.2205 6.23815 13.5708 6.16302 14.0466L5.13524 20.568L4.8442 22.4166C4.8326 22.4899 4.83703 22.5649 4.85717 22.6363C4.87732 22.7078 4.91269 22.774 4.96088 22.8305C5.00906 22.8869 5.06889 22.9323 5.13627 22.9634C5.20364 22.9945 5.27696 23.0106 5.35116 23.0106H8.91155C9.33316 23.0106 9.69132 22.7041 9.75769 22.2881L9.79271 22.1072L10.4631 17.851L10.5061 17.6175C10.5717 17.2 10.9306 16.8935 11.3522 16.8935H11.8847C15.3343 16.8935 18.0346 15.4923 18.8239 11.4376C19.1536 9.74374 18.9829 8.3294 18.1105 7.33469C17.834 7.02699 17.5037 6.77226 17.136 6.58301Z" fill="#179BD7"/>
<path d="M16.1892 6.2071C15.9011 6.12372 15.608 6.05863 15.3117 6.01225C14.7262 5.92222 14.1344 5.87903 13.5421 5.88307H8.17924C7.97515 5.88291 7.77773 5.95581 7.62268 6.08859C7.46763 6.22136 7.36517 6.40526 7.33382 6.60703L6.19298 13.8363L6.16016 14.0473C6.1957 13.8171 6.31239 13.6073 6.48913 13.4558C6.66588 13.3043 6.89099 13.221 7.12374 13.2211H9.13116C13.0738 13.2211 16.1608 11.6192 17.0631 6.98506C17.0901 6.84786 17.1127 6.71431 17.1331 6.58367C16.895 6.45875 16.6468 6.35403 16.3913 6.27059C16.3243 6.24835 16.2569 6.22718 16.1892 6.2071Z" fill="#222D65"/>
<path d="M7.33502 6.60695C7.3661 6.40513 7.46851 6.22115 7.62364 6.08844C7.77877 5.95573 7.97633 5.88309 8.18044 5.88373H13.5433C14.1786 5.88373 14.7716 5.92533 15.3129 6.0129C15.6791 6.07049 16.0403 6.15663 16.3932 6.27052C16.6594 6.35882 16.9067 6.46318 17.135 6.5836C17.4035 4.87078 17.1328 3.70457 16.2072 2.64856C15.1867 1.486 13.3449 0.988281 10.988 0.988281H4.14592C3.66449 0.988281 3.25381 1.33858 3.17941 1.81514L0.329494 19.8884C0.31622 19.9724 0.32127 20.0581 0.344298 20.1399C0.367326 20.2217 0.407785 20.2975 0.462892 20.3621C0.517999 20.4268 0.586446 20.4787 0.663524 20.5143C0.740603 20.55 0.824484 20.5685 0.909398 20.5686H5.13358L6.19418 13.8363L7.33502 6.60695Z" fill="#253B80"/>
</g>
<defs>
<clipPath id="clip0_9032_25032">
<rect width="90.1818" height="24" fill="white" transform="translate(0.302734)"/>
</clipPath>
</defs>
</svg>
