<svg width="121" height="23" viewBox="0 0 121 23" fill="none" xmlns="http://www.w3.org/2000/svg">
<g clip-path="url(#clip0_8334_6823)">
<path d="M0 0.00610352H22.6875V22.8601H0V0.00610352ZM24.5781 0.00610352H47.2656V22.8601H24.5781V0.00610352ZM49.1562 0.00610352H71.8438V22.8601H49.1562V0.00610352ZM73.7344 0.00610352H96.4219V22.8601H73.7344V0.00610352ZM98.3125 0.00610352H121V22.8601H98.3125V0.00610352Z" fill="#00B67A"/>
<path d="M11.3437 15.4088L14.7941 14.528L16.2357 19.0035L11.3437 15.4088ZM19.2843 9.62389H13.2107L11.3437 3.86279L9.47671 9.62389H3.40308L8.3187 13.1948L6.45171 18.9559L11.3673 15.385L14.3923 13.1948L19.2843 9.62389ZM35.9218 15.4088L39.3722 14.528L40.8138 19.0035L35.9218 15.4088ZM43.8625 9.62389H37.7888L35.9218 3.86279L34.0548 9.62389H27.9812L32.8968 13.1948L31.0298 18.9559L35.9455 15.385L38.9705 13.1948L43.8625 9.62389ZM60.5 15.4088L63.9503 14.528L65.3919 19.0035L60.5 15.4088ZM68.4406 9.62389H62.3669L60.5 3.86279L58.633 9.62389H52.5593L57.475 13.1948L55.608 18.9559L60.5236 15.385L63.5486 13.1948L68.4406 9.62389ZM85.0781 15.4088L88.5285 14.528L89.9701 19.0035L85.0781 15.4088ZM93.0187 9.62389H86.9451L85.0781 3.86279L83.2111 9.62389H77.1375L82.0531 13.1948L80.1861 18.9559L85.1017 15.385L88.1267 13.1948L93.0187 9.62389ZM109.656 15.4088L113.107 14.528L114.548 19.0035L109.656 15.4088ZM117.597 9.62389H111.523L109.656 3.86279L107.789 9.62389H101.716L106.631 13.1948L104.764 18.9559L109.68 15.385L112.705 13.1948L117.597 9.62389Z" fill="white"/>
</g>
<defs>
<clipPath id="clip0_8334_6823">
<rect width="121" height="22.8661" fill="white"/>
</clipPath>
</defs>
</svg>
