<svg width="56" height="56" viewBox="0 0 56 56" fill="none" xmlns="http://www.w3.org/2000/svg">
<circle cx="28" cy="28" r="28" fill="#66C61C"/>
<g clip-path="url(#clip0_8334_6901)">
<path d="M24.5109 18.6698L22.7289 13.9326C24.0504 14.0712 25.3742 13.6921 26.4219 12.8749C27.0001 12.1768 27.9205 11.8611 28.8055 12.0574C29.2717 12.1791 29.6468 12.525 29.8057 12.9799C29.8785 13.3951 30.1297 13.7576 30.493 13.9715C31.2655 14.2626 32.1263 14.2041 32.8522 13.8111C33.2051 13.6896 33.8661 13.4601 33.9526 13.5709C33.8576 15.4227 33.3377 17.2277 32.4332 18.8462C31.2374 19.2138 29.9948 19.4065 28.7438 19.4184L28.7423 19.418C27.3006 19.3997 25.8714 19.1469 24.5109 18.6698ZM40.2859 37.6891C39.9706 40.3639 38.0117 42.5537 35.3884 43.1639C30.8639 44.2787 26.1364 44.2787 21.6119 43.1639C18.9886 42.5537 17.0297 40.3639 16.7144 37.6891C15.8982 28.6308 22.2689 22.1407 23.9611 20.5879C25.4943 21.1086 27.1001 21.384 28.7191 21.4041H28.7391C30.2386 21.392 31.7281 21.1572 33.1587 20.7073C35.0102 22.4195 41.0822 28.79 40.2859 37.6891ZM28.9182 31.2189C28.8784 31.2189 28.8585 31.199 28.8186 31.199C27.3852 30.4823 27.5046 30.0841 27.6241 29.7258C27.7882 29.273 28.2176 28.9709 28.6991 28.9693H28.719C29.1946 28.9469 29.6329 29.2258 29.814 29.666C30.0212 30.1737 30.5969 30.4217 31.108 30.2235C31.6177 30.0239 31.869 29.449 31.6694 28.9394C31.6681 28.9361 31.6668 28.9327 31.6655 28.9294C31.3248 28.0569 30.5955 27.3939 29.6944 27.1377V26.3613C29.6929 25.8122 29.2481 25.3674 28.699 25.3659C28.1547 25.3605 27.709 25.7974 27.7036 26.3418C27.7036 26.3483 27.7036 26.3548 27.7036 26.3613V27.1576C26.7763 27.4616 26.0461 28.1844 25.7327 29.1086C24.9364 31.5175 27.2656 32.6523 28.0222 33.0106C28.062 33.0306 28.0819 33.0505 28.1217 33.0505C29.575 33.7672 29.9134 34.1056 29.7741 34.7028C29.6745 35.1209 29.1569 35.3001 28.7388 35.3399H28.5995C27.9977 35.3972 27.4192 35.0923 27.1263 34.5635C26.9109 34.0549 26.324 33.8171 25.8154 34.0325C25.3158 34.244 25.076 34.8153 25.2748 35.32C25.7089 36.327 26.6228 37.0461 27.7036 37.2312V37.6294C27.6983 38.1737 28.1352 38.6194 28.6796 38.6248C28.6861 38.6248 28.6926 38.6248 28.699 38.6248C29.2481 38.6232 29.6929 38.1785 29.6944 37.6294V37.1516C30.6777 36.9171 31.4511 36.159 31.7052 35.1806C32.2629 32.8514 30.1724 31.8361 28.9182 31.2189Z" fill="white"/>
</g>
<defs>
<clipPath id="clip0_8334_6901">
<rect width="32" height="32" fill="white" transform="translate(12 12)"/>
</clipPath>
</defs>
</svg>
