<svg width="122" height="121" viewBox="0 0 122 121" fill="none" xmlns="http://www.w3.org/2000/svg">
<ellipse cx="61.3651" cy="60.5" rx="60.6073" ry="60.5" fill="#7856FC"/>
<path d="M77.553 24.4162C77.481 23.3362 76.473 22.5442 75.393 22.6882C69.561 23.4802 65.241 20.5282 63.225 18.7282C62.505 18.0802 61.425 18.0802 60.777 18.7282C58.761 20.4562 54.441 23.4802 48.609 22.6882C47.529 22.5442 46.521 23.3362 46.449 24.4162C46.161 30.3202 46.593 46.8802 62.001 51.7762C77.409 46.8802 77.913 30.3202 77.553 24.4162ZM62.001 43.7842C57.105 43.7842 53.217 39.8242 53.217 35.0002C53.217 30.1762 57.105 26.2162 62.001 26.2162C66.897 26.2162 70.785 30.1042 70.785 35.0002C70.785 39.8962 66.897 43.7842 62.001 43.7842Z" fill="white"/>
<path d="M60.2728 32.7683C60.2728 32.1923 60.5608 31.7603 60.9208 31.4003C61.2088 31.1843 61.5688 31.0403 61.9288 31.0403C62.7208 31.0403 63.6568 31.6883 63.6568 32.7683V34.1363H60.2008V32.7683H60.2728ZM65.5288 34.7843C65.3848 34.5683 65.2408 34.4243 65.0248 34.2803C64.8808 34.2083 64.7368 34.1363 64.5928 34.1363C64.5928 33.9923 64.5928 32.7683 64.5928 32.7683C64.5928 31.5443 63.5848 30.1763 62.0008 30.1763C60.5608 30.1763 59.4088 31.3283 59.4088 32.7683V34.1363C59.2648 34.1363 59.1208 34.2083 58.9768 34.2803C58.7608 34.4243 58.5448 34.5683 58.4008 34.7843C58.2568 35.0003 58.2568 35.2163 58.2568 35.4323V38.4563C58.2568 39.2483 58.9048 39.7523 59.5528 39.7523H64.4488C64.7368 39.7523 64.9528 39.6803 65.1688 39.5363C65.3848 39.3923 65.5288 39.3203 65.6008 39.1043C65.7448 38.8883 65.8168 38.6723 65.8168 38.3843V35.3603C65.7448 35.2163 65.6728 35.0003 65.5288 34.7843ZM62.3608 37.0163L62.4328 37.5923C62.4328 37.8083 62.2888 37.9523 62.0728 37.9523H61.8568C61.6408 37.9523 61.4968 37.8083 61.4968 37.5923L61.5688 37.0163C61.3528 36.8723 61.2808 36.6563 61.2808 36.4403C61.2808 36.0803 61.5688 35.7923 61.9288 35.7923C62.2888 35.7923 62.5768 36.0803 62.5768 36.4403C62.6488 36.6563 62.5768 36.8723 62.3608 37.0163Z" fill="white"/>
<path d="M38.4601 62.5455V80H35.2982V65.6222H35.1959L31.1135 68.2301V65.3324L35.4516 62.5455H38.4601ZM49.3437 80.3324C47.9403 80.3324 46.7357 79.9773 45.73 79.267C44.73 78.5511 43.9601 77.5199 43.4204 76.1733C42.8863 74.821 42.6192 73.1932 42.6192 71.2898C42.6249 69.3864 42.8948 67.767 43.4289 66.4318C43.9687 65.0909 44.7385 64.0682 45.7385 63.3636C46.7442 62.6591 47.9459 62.3068 49.3437 62.3068C50.7414 62.3068 51.9431 62.6591 52.9488 63.3636C53.9545 64.0682 54.7243 65.0909 55.2584 66.4318C55.7982 67.7727 56.0681 69.392 56.0681 71.2898C56.0681 73.1989 55.7982 74.8295 55.2584 76.1818C54.7243 77.5284 53.9545 78.5568 52.9488 79.267C51.9488 79.9773 50.7471 80.3324 49.3437 80.3324ZM49.3437 77.6648C50.4346 77.6648 51.2954 77.1278 51.926 76.054C52.5624 74.9744 52.8806 73.3864 52.8806 71.2898C52.8806 69.9034 52.7357 68.7386 52.4459 67.7955C52.1562 66.8523 51.7471 66.142 51.2187 65.6648C50.6903 65.1818 50.0653 64.9403 49.3437 64.9403C48.2584 64.9403 47.4005 65.4801 46.7698 66.5597C46.1391 67.6335 45.8209 69.2102 45.8153 71.2898C45.8096 72.6818 45.9488 73.8523 46.2329 74.8011C46.5226 75.75 46.9317 76.4659 47.4601 76.9489C47.9885 77.4261 48.6164 77.6648 49.3437 77.6648ZM65.3515 80.3324C63.9481 80.3324 62.7435 79.9773 61.7378 79.267C60.7378 78.5511 59.968 77.5199 59.4282 76.1733C58.8941 74.821 58.627 73.1932 58.627 71.2898C58.6327 69.3864 58.9026 67.767 59.4367 66.4318C59.9765 65.0909 60.7464 64.0682 61.7464 63.3636C62.752 62.6591 63.9537 62.3068 65.3515 62.3068C66.7492 62.3068 67.9509 62.6591 68.9566 63.3636C69.9623 64.0682 70.7322 65.0909 71.2662 66.4318C71.806 67.7727 72.0759 69.392 72.0759 71.2898C72.0759 73.1989 71.806 74.8295 71.2662 76.1818C70.7322 77.5284 69.9623 78.5568 68.9566 79.267C67.9566 79.9773 66.7549 80.3324 65.3515 80.3324ZM65.3515 77.6648C66.4424 77.6648 67.3032 77.1278 67.9339 76.054C68.5702 74.9744 68.8884 73.3864 68.8884 71.2898C68.8884 69.9034 68.7435 68.7386 68.4537 67.7955C68.164 66.8523 67.7549 66.142 67.2265 65.6648C66.6981 65.1818 66.0731 64.9403 65.3515 64.9403C64.2662 64.9403 63.4083 65.4801 62.7776 66.5597C62.1469 67.6335 61.8287 69.2102 61.8231 71.2898C61.8174 72.6818 61.9566 73.8523 62.2407 74.8011C62.5305 75.75 62.9395 76.4659 63.468 76.9489C63.9964 77.4261 64.6242 77.6648 65.3515 77.6648ZM84.24 76.7273V75.8068C84.24 75.1307 84.382 74.5085 84.6661 73.9403C84.9559 73.3722 85.3763 72.9148 85.9275 72.5682C86.4786 72.2216 87.1462 72.0483 87.9303 72.0483C88.7371 72.0483 89.4133 72.2216 89.9587 72.5682C90.5042 72.9091 90.9161 73.3636 91.1945 73.9318C91.4786 74.5 91.6207 75.125 91.6207 75.8068V76.7273C91.6207 77.4034 91.4786 78.0256 91.1945 78.5938C90.9104 79.1619 90.4928 79.6193 89.9417 79.9659C89.3962 80.3125 88.7258 80.4858 87.9303 80.4858C87.1349 80.4858 86.4616 80.3125 85.9104 79.9659C85.3593 79.6193 84.9417 79.1619 84.6576 78.5938C84.3792 78.0256 84.24 77.4034 84.24 76.7273ZM86.4644 75.8068V76.7273C86.4644 77.1761 86.5724 77.5881 86.7883 77.9631C87.0042 78.3381 87.3849 78.5256 87.9303 78.5256C88.4814 78.5256 88.8593 78.3409 89.0638 77.9716C89.2741 77.5966 89.3792 77.1818 89.3792 76.7273V75.8068C89.3792 75.3523 89.2797 74.9375 89.0809 74.5625C88.882 74.1818 88.4985 73.9915 87.9303 73.9915C87.3962 73.9915 87.0184 74.1818 86.7968 74.5625C86.5752 74.9375 86.4644 75.3523 86.4644 75.8068ZM75.3678 66.7386V65.8182C75.3678 65.1364 75.5127 64.5114 75.8025 63.9432C76.0922 63.375 76.5127 62.9205 77.0638 62.5795C77.615 62.233 78.2826 62.0597 79.0667 62.0597C79.8678 62.0597 80.5411 62.233 81.0866 62.5795C81.6377 62.9205 82.0525 63.375 82.3309 63.9432C82.6093 64.5114 82.7485 65.1364 82.7485 65.8182V66.7386C82.7485 67.4205 82.6064 68.0455 82.3224 68.6136C82.0439 69.1761 81.6292 69.6278 81.078 69.9688C80.5269 70.3097 79.8564 70.4801 79.0667 70.4801C78.2655 70.4801 77.5894 70.3097 77.0383 69.9688C76.4928 69.6278 76.078 69.1733 75.7939 68.6051C75.5099 68.0369 75.3678 67.4148 75.3678 66.7386ZM77.6093 65.8182V66.7386C77.6093 67.1932 77.7144 67.608 77.9246 67.983C78.1405 68.3523 78.5212 68.5369 79.0667 68.5369C79.6121 68.5369 79.9871 68.3523 80.1917 67.983C80.4019 67.608 80.507 67.1932 80.507 66.7386V65.8182C80.507 65.3636 80.4076 64.9489 80.2087 64.5739C80.0099 64.1932 79.6292 64.0028 79.0667 64.0028C78.5269 64.0028 78.1491 64.1932 77.9332 64.5739C77.7172 64.9545 77.6093 65.3693 77.6093 65.8182ZM76.3394 80L88.3394 62.5455H90.4701L78.4701 80H76.3394Z" fill="white"/>
<path d="M44.6244 88.3636C44.5647 87.8598 44.3228 87.4688 43.8985 87.1903C43.4743 86.9119 42.9539 86.7727 42.3374 86.7727C41.8867 86.7727 41.4923 86.8456 41.1542 86.9915C40.8195 87.1373 40.5576 87.3378 40.3687 87.593C40.1831 87.8482 40.0903 88.1383 40.0903 88.4631C40.0903 88.7348 40.1549 88.9685 40.2842 89.1641C40.4168 89.3563 40.5858 89.517 40.7913 89.6463C40.9968 89.7723 41.2122 89.8767 41.4376 89.9595C41.663 90.0391 41.8701 90.1037 42.059 90.1534L43.0931 90.4318C43.3583 90.5014 43.6533 90.5975 43.9781 90.7202C44.3062 90.8428 44.6194 91.0102 44.9177 91.2223C45.2193 91.4311 45.4679 91.6996 45.6634 92.0277C45.859 92.3558 45.9568 92.7585 45.9568 93.2358C45.9568 93.786 45.8126 94.2831 45.5242 94.7273C45.2392 95.1714 44.8216 95.5244 44.2714 95.7862C43.7245 96.0481 43.06 96.179 42.2778 96.179C41.5486 96.179 40.9172 96.0613 40.3836 95.826C39.8533 95.5907 39.4357 95.2625 39.1308 94.8416C38.8292 94.4207 38.6585 93.9318 38.6187 93.375H39.8914C39.9246 93.7595 40.0538 94.0777 40.2792 94.3295C40.5079 94.5781 40.7963 94.7637 41.1443 94.8864C41.4956 95.0057 41.8734 95.0653 42.2778 95.0653C42.7484 95.0653 43.171 94.9891 43.5455 94.8366C43.9201 94.6809 44.2167 94.4654 44.4355 94.1903C44.6542 93.9119 44.7636 93.5871 44.7636 93.2159C44.7636 92.8778 44.6691 92.6027 44.4802 92.3906C44.2913 92.1785 44.0427 92.0062 43.7345 91.8736C43.4262 91.741 43.0931 91.625 42.7352 91.5256L41.4823 91.1676C40.6869 90.9389 40.0571 90.6125 39.5931 90.1882C39.1291 89.764 38.8971 89.2088 38.8971 88.5227C38.8971 87.9527 39.0512 87.4555 39.3595 87.0312C39.671 86.6037 40.0886 86.2723 40.6123 86.0369C41.1393 85.7983 41.7276 85.679 42.3772 85.679C43.0335 85.679 43.6168 85.7966 44.1272 86.032C44.6376 86.264 45.042 86.5821 45.3403 86.9865C45.6419 87.3909 45.801 87.8499 45.8176 88.3636H44.6244ZM51.0265 96.1591C50.2907 96.1591 49.656 95.9967 49.1224 95.6719C48.5921 95.3438 48.1828 94.8864 47.8944 94.2997C47.6094 93.7098 47.4669 93.0237 47.4669 92.2415C47.4669 91.4593 47.6094 90.7699 47.8944 90.1733C48.1828 89.5734 48.5838 89.1061 49.0976 88.7713C49.6146 88.4332 50.2178 88.2642 50.9072 88.2642C51.305 88.2642 51.6977 88.3305 52.0855 88.4631C52.4733 88.5956 52.8263 88.8111 53.1444 89.1094C53.4626 89.4044 53.7162 89.7955 53.9051 90.2827C54.094 90.7699 54.1885 91.3698 54.1885 92.0824V92.5795H48.3021V91.5653H52.9953C52.9953 91.1345 52.9091 90.75 52.7368 90.4119C52.5677 90.0739 52.3258 89.8071 52.0109 89.6115C51.6994 89.416 51.3315 89.3182 50.9072 89.3182C50.4399 89.3182 50.0355 89.4342 49.6942 89.6662C49.3561 89.8949 49.0959 90.1932 48.9136 90.5611C48.7313 90.929 48.6402 91.3234 48.6402 91.7443V92.4205C48.6402 92.9972 48.7396 93.486 48.9385 93.8871C49.1407 94.2848 49.4207 94.5881 49.7787 94.7969C50.1366 95.0024 50.5526 95.1051 51.0265 95.1051C51.3348 95.1051 51.6132 95.062 51.8618 94.9759C52.1137 94.8864 52.3308 94.7538 52.5131 94.5781C52.6953 94.3991 52.8362 94.1771 52.9356 93.9119L54.0692 94.2301C53.9498 94.6146 53.7493 94.9527 53.4676 95.2443C53.1859 95.5327 52.8379 95.758 52.4236 95.9205C52.0093 96.0795 51.5436 96.1591 51.0265 96.1591ZM59.0756 96.1591C58.3596 96.1591 57.7432 95.9901 57.2261 95.652C56.7091 95.3139 56.3113 94.8482 56.0329 94.255C55.7545 93.6617 55.6153 92.9839 55.6153 92.2216C55.6153 91.446 55.7578 90.7616 56.0429 90.1683C56.3312 89.5717 56.7323 89.1061 57.246 88.7713C57.7631 88.4332 58.3663 88.2642 59.0557 88.2642C59.5926 88.2642 60.0765 88.3636 60.5074 88.5625C60.9382 88.7614 61.2912 89.0398 61.5663 89.3977C61.8414 89.7557 62.0121 90.1733 62.0784 90.6506H60.9051C60.8156 90.3026 60.6167 89.9943 60.3085 89.7259C60.0036 89.4541 59.5926 89.3182 59.0756 89.3182C58.6182 89.3182 58.2171 89.4375 57.8724 89.6761C57.531 89.9115 57.2642 90.2446 57.072 90.6754C56.8831 91.103 56.7886 91.6051 56.7886 92.1818C56.7886 92.7718 56.8814 93.2855 57.067 93.723C57.2559 94.1605 57.5211 94.5002 57.8625 94.7422C58.2072 94.9841 58.6115 95.1051 59.0756 95.1051C59.3805 95.1051 59.6572 95.0521 59.9058 94.946C60.1544 94.84 60.3648 94.6875 60.5372 94.4886C60.7095 94.2898 60.8322 94.0511 60.9051 93.7727H62.0784C62.0121 94.2235 61.848 94.6295 61.5862 94.9908C61.3277 95.3487 60.9846 95.6338 60.5571 95.8459C60.1328 96.0547 59.639 96.1591 59.0756 96.1591ZM68.6061 92.8778V88.3636H69.7794V96H68.6061V94.7074H68.5265C68.3476 95.0952 68.0692 95.425 67.6913 95.6967C67.3135 95.9652 66.8362 96.0994 66.2595 96.0994C65.7822 96.0994 65.358 95.995 64.9868 95.7862C64.6156 95.5741 64.3239 95.2559 64.1118 94.8317C63.8997 94.4041 63.7936 93.8655 63.7936 93.2159V88.3636H64.9669V93.1364C64.9669 93.6932 65.1227 94.1373 65.4342 94.4688C65.7491 94.8002 66.1501 94.9659 66.6373 94.9659C66.929 94.9659 67.2256 94.8913 67.5273 94.7422C67.8322 94.593 68.0874 94.3643 68.2929 94.0561C68.5017 93.7479 68.6061 93.3551 68.6061 92.8778ZM71.9284 96V88.3636H73.0619V89.517H73.1414C73.2806 89.1392 73.5325 88.8326 73.8971 88.5973C74.2617 88.362 74.6727 88.2443 75.1301 88.2443C75.2162 88.2443 75.324 88.246 75.4532 88.2493C75.5825 88.2526 75.6803 88.2576 75.7465 88.2642V89.4574C75.7068 89.4474 75.6156 89.4325 75.4731 89.4126C75.3339 89.3894 75.1864 89.3778 75.0306 89.3778C74.6594 89.3778 74.328 89.4557 74.0363 89.6115C73.748 89.764 73.5193 89.9761 73.3502 90.2479C73.1845 90.5163 73.1017 90.8229 73.1017 91.1676V96H71.9284ZM80.1066 96.1591C79.3708 96.1591 78.7361 95.9967 78.2025 95.6719C77.6722 95.3438 77.2629 94.8864 76.9745 94.2997C76.6895 93.7098 76.547 93.0237 76.547 92.2415C76.547 91.4593 76.6895 90.7699 76.9745 90.1733C77.2629 89.5734 77.6639 89.1061 78.1776 88.7713C78.6947 88.4332 79.2979 88.2642 79.9873 88.2642C80.385 88.2642 80.7778 88.3305 81.1656 88.4631C81.5534 88.5956 81.9063 88.8111 82.2245 89.1094C82.5427 89.4044 82.7963 89.7955 82.9852 90.2827C83.1741 90.7699 83.2686 91.3698 83.2686 92.0824V92.5795H77.3822V91.5653H82.0754C82.0754 91.1345 81.9892 90.75 81.8169 90.4119C81.6478 90.0739 81.4059 89.8071 81.091 89.6115C80.7794 89.416 80.4115 89.3182 79.9873 89.3182C79.52 89.3182 79.1156 89.4342 78.7742 89.6662C78.4362 89.8949 78.176 90.1932 77.9937 90.5611C77.8114 90.929 77.7203 91.3234 77.7203 91.7443V92.4205C77.7203 92.9972 77.8197 93.486 78.0186 93.8871C78.2207 94.2848 78.5008 94.5881 78.8588 94.7969C79.2167 95.0024 79.6327 95.1051 80.1066 95.1051C80.4149 95.1051 80.6933 95.062 80.9419 94.9759C81.1937 94.8864 81.4108 94.7538 81.5931 94.5781C81.7754 94.3991 81.9163 94.1771 82.0157 93.9119L83.1492 94.2301C83.0299 94.6146 82.8294 94.9527 82.5477 95.2443C82.266 95.5327 81.9179 95.758 81.5036 95.9205C81.0893 96.0795 80.6237 96.1591 80.1066 96.1591Z" fill="#F2F4F7"/>
</svg>
