<svg width="193" height="193" viewBox="0 0 193 193" fill="none" xmlns="http://www.w3.org/2000/svg">
<path d="M36.8162 179.753C31.845 179.753 27.8096 175.718 27.8096 170.746V164.255H45.7937V170.746C45.7937 175.718 41.7874 179.753 36.8162 179.753Z" fill="#6634F3"/>
<path d="M156.184 179.753C151.213 179.753 147.177 175.718 147.177 170.746V164.255H165.161V170.746C165.19 175.718 161.155 179.753 156.184 179.753Z" fill="#6634F3"/>
<path d="M36.8162 180.426C31.4648 180.426 27.137 176.069 27.137 170.747V164.255C27.137 163.875 27.4586 163.553 27.8388 163.553H45.8229C46.203 163.553 46.5247 163.875 46.5247 164.255V170.747C46.4954 176.098 42.1383 180.426 36.8162 180.426ZM28.5114 164.957V170.747C28.5114 175.308 32.2251 179.051 36.8162 179.051C41.378 179.051 45.1211 175.338 45.1211 170.747V164.957H28.5114Z" fill="#010101"/>
<path d="M156.184 180.426C150.833 180.426 146.505 176.069 146.505 170.747V164.255C146.505 163.875 146.826 163.553 147.206 163.553C147.587 163.553 147.908 163.875 147.908 164.255V170.747C147.908 175.308 151.622 179.051 156.213 179.051C160.775 179.051 164.518 175.338 164.518 170.747V164.255C164.518 163.875 164.84 163.553 165.22 163.553C165.6 163.553 165.922 163.875 165.922 164.255V170.747C165.892 176.098 161.535 180.426 156.184 180.426Z" fill="#010101"/>
<path d="M133.024 21.7273V139.779C133.024 142.528 130.772 144.75 128.053 144.75H98.4593C95.7105 144.75 93.4589 142.528 93.4589 139.779V21.7273C93.4589 18.9785 95.7105 16.7268 98.4593 16.7268H128.053C130.772 16.7268 133.024 18.9785 133.024 21.7273Z" fill="#F05360"/>
<path d="M122.73 16.7268C122.643 18.3936 121.853 20.0312 120.42 20.85C118.695 21.8442 116.56 21.4933 114.572 21.2886C112.583 21.0547 110.302 21.1424 108.987 22.663C107.963 23.8912 107.934 25.6457 107.788 27.2541C107.641 28.8624 107.174 30.6754 105.741 31.3773C104.6 31.9329 103.226 31.6112 102.027 31.9914C100.419 32.4592 99.3658 34.0676 98.9856 35.7051C98.6055 37.3427 98.7517 39.0388 98.6932 40.7348C98.6347 42.3139 98.4008 43.9515 97.6697 45.3551C96.9387 46.788 95.652 47.987 94.0729 48.3086C93.8682 48.3671 93.6635 48.3964 93.4296 48.3964V21.7273C93.4296 18.9785 95.6812 16.7268 98.43 16.7268H122.73Z" fill="#EF4050"/>
<path d="M93.4588 57.4614C93.0786 57.4614 92.7862 57.169 92.757 56.7888C92.7277 56.4087 93.0494 56.087 93.4296 56.0578C93.7805 56.0285 94.1606 55.97 94.57 55.8823C96.5 55.3559 98.1668 53.8646 98.9271 52.0515C99.629 50.3847 99.6289 48.5132 99.5705 46.5832V46.2908C99.512 44.4193 99.4535 42.46 100.009 40.5885C100.565 38.7462 101.998 36.5823 104.366 36.0852C105.331 35.8805 106.296 35.9682 107.203 36.0852C108.197 36.2022 109.133 36.2899 109.952 35.9975C111.472 35.4418 112.379 33.6873 112.788 30.5291C113.168 27.6634 113.841 24.8853 116.268 23.7741C117.584 23.16 118.987 23.3062 120.362 23.4525C121.034 23.5109 121.648 23.5987 122.263 23.5694C124.573 23.4817 126.795 22.0196 127.76 19.9434C128.199 19.0076 128.374 17.9549 128.287 16.9021C128.257 16.522 128.55 16.1711 128.93 16.1418C129.31 16.1418 129.661 16.405 129.69 16.7852C129.778 18.0718 129.573 19.3585 129.047 20.5282C127.877 23.0723 125.187 24.8853 122.35 24.9731C121.648 25.0023 120.947 24.9146 120.274 24.8561C119.046 24.7391 117.905 24.5929 116.911 25.0608C115.098 25.9088 114.543 28.2775 114.221 30.7338C113.899 33.1025 113.168 36.3484 110.478 37.3426C109.337 37.752 108.226 37.635 107.115 37.5181C106.267 37.4303 105.448 37.3426 104.717 37.5181C102.933 37.8982 101.822 39.6528 101.383 41.0564C100.886 42.7232 100.945 44.5655 101.003 46.32V46.6125C101.062 48.7179 101.062 50.7356 100.243 52.6364C99.3073 54.8881 97.3188 56.6134 94.9502 57.2859C94.4238 57.4321 93.9852 57.4906 93.5173 57.5199C93.4588 57.4614 93.4588 57.4614 93.4588 57.4614Z" fill="#EF4050"/>
<path d="M133.024 66.7312V139.779C133.024 142.528 130.801 144.779 128.023 144.779H98.4593C95.7105 144.779 93.4589 142.557 93.4589 139.779V135.217C95.1842 136.474 97.3189 137.205 99.4828 137.176C102.729 137.147 105.916 135.363 107.671 132.644C110.507 128.199 109.805 121.561 114.016 118.373C116.502 116.473 120.04 116.414 122.409 114.367C124.427 112.583 125.07 109.659 124.953 106.998C124.836 104.308 124.076 101.676 123.725 99.0148C123.403 96.3538 123.608 93.4295 125.187 91.2656C126.824 89.0432 129.719 87.815 130.743 85.2417C131.737 82.7561 130.567 80.0073 130.158 77.3462C129.602 73.6032 130.714 69.6847 133.024 66.7312Z" fill="#EF4050"/>
<path d="M128.023 145.481H106.94C106.559 145.481 106.238 145.159 106.238 144.779C106.238 144.399 106.559 144.077 106.94 144.077H128.023C130.392 144.077 132.322 142.147 132.322 139.779V21.7272C132.322 19.3585 130.392 17.4285 128.023 17.4285H98.4592C96.0906 17.4285 94.1606 19.3585 94.1606 21.7272V74.8314C94.1606 75.2116 93.8389 75.5332 93.4588 75.5332C93.0786 75.5332 92.757 75.2116 92.757 74.8314V21.7272C92.757 18.5982 95.301 16.0249 98.4592 16.0249H128.023C131.152 16.0249 133.726 18.569 133.726 21.7272V139.779C133.726 142.937 131.181 145.481 128.023 145.481Z" fill="#C10007"/>
<path d="M126.006 33.5412V91.3827C126.006 93.4297 124.339 95.0965 122.263 95.0965H102.933C100.886 95.0965 99.2196 93.4297 99.2196 91.3827V33.5412C99.2196 31.4942 100.886 29.8274 102.933 29.8274H122.263C124.339 29.8274 126.006 31.5235 126.006 33.5412Z" fill="#F3EDED"/>
<path d="M126.006 49.449V91.4119C126.006 93.4588 124.339 95.1256 122.263 95.1256H102.933C100.886 95.1256 99.2196 93.4588 99.2196 91.4119V88.4876C101.003 89.4526 103.138 89.6866 105.097 89.0432C107.115 88.3999 108.811 86.85 109.659 84.8908C110.273 83.4579 110.419 81.8788 110.858 80.3582C111.267 78.8669 112.086 77.317 113.519 76.6737C115.274 75.8549 117.73 76.469 118.929 74.9484C119.865 73.8079 119.455 72.1411 118.929 70.7667C118.403 69.3923 117.847 67.8132 118.52 66.5266C119.309 65.0059 121.502 64.5673 122.146 62.959C122.76 61.4384 121.59 59.83 121.415 58.1925C121.122 55.97 122.614 53.9523 124.017 52.2563C124.719 51.379 125.479 50.4432 126.006 49.449Z" fill="#D8D6D6"/>
<path d="M125.83 121.239C125.83 128.287 120.128 134.018 113.08 134.018C107.875 134.018 103.401 130.918 101.413 126.444C100.682 124.865 100.302 123.111 100.302 121.268C100.302 114.221 106.004 108.519 113.08 108.519C116.765 108.519 120.099 110.069 122.409 112.613C124.543 114.864 125.83 117.906 125.83 121.239Z" fill="#F3EDED"/>
<path d="M125.83 121.239C125.83 128.287 120.128 134.018 113.08 134.018C107.875 134.018 103.401 130.918 101.413 126.444C102.29 127.38 103.226 128.257 104.337 128.754C105.858 129.456 107.875 129.398 108.987 128.14C109.016 128.111 109.074 128.053 109.103 127.994C110.244 128.667 111.589 129.047 113.051 129.047C117.379 129.047 120.859 125.538 120.859 121.239C120.859 119.806 120.479 118.461 119.806 117.321C120.303 117.174 120.83 117.058 121.268 116.794C122.233 116.239 122.672 115.069 122.613 113.958C122.584 113.49 122.497 113.022 122.38 112.554C124.543 114.864 125.83 117.906 125.83 121.239Z" fill="#D8D6D6"/>
<path d="M120.917 121.239C120.917 125.567 117.408 129.047 113.11 129.047C111.648 129.047 110.302 128.667 109.162 127.994C106.852 126.62 105.273 124.134 105.273 121.239C105.273 116.911 108.782 113.431 113.08 113.431C115.975 113.431 118.49 114.981 119.835 117.321C120.508 118.461 120.917 119.806 120.917 121.239Z" fill="#6695CE"/>
<path d="M120.917 121.239C120.917 125.567 117.408 129.047 113.11 129.047C111.648 129.047 110.302 128.667 109.162 127.994C110.098 126.854 110.273 125.041 111.589 124.339C113.256 123.461 115.625 125.07 117.028 123.842C118.666 122.467 116.94 119.309 118.52 117.905C118.9 117.584 119.338 117.438 119.835 117.321C120.508 118.461 120.917 119.806 120.917 121.239Z" fill="#4D86C5"/>
<path d="M119.221 49.3613H106.325C105.448 49.3613 104.717 48.6303 104.717 47.753V41.1442C104.717 40.2669 105.448 39.5359 106.325 39.5359H119.221C120.099 39.5359 120.83 40.2669 120.83 41.1442V47.753C120.83 48.6595 120.128 49.3613 119.221 49.3613Z" fill="#FCCEEE"/>
<path d="M119.514 59.4207H106.325C105.448 59.4207 104.717 58.6896 104.717 57.8124V57.2568C104.717 56.3795 105.448 55.6484 106.325 55.6484H119.514C120.391 55.6484 121.122 56.3795 121.122 57.2568V57.8124C121.122 58.7189 120.42 59.4207 119.514 59.4207Z" fill="#1D2956"/>
<path d="M119.514 68.3104H106.325C105.448 68.3104 104.717 67.5793 104.717 66.702V66.1464C104.717 65.2691 105.448 64.5381 106.325 64.5381H119.514C120.391 64.5381 121.122 65.2691 121.122 66.1464V66.702C121.122 67.5793 120.42 68.3104 119.514 68.3104Z" fill="#1D2956"/>
<path d="M93.2833 26.9032L84.7153 60.0056L63.7485 141.183C63.0759 143.844 60.3271 145.452 57.666 144.779L29.0377 137.381C26.3767 136.679 24.7683 133.96 25.4409 131.299L26.7568 126.298L48.8348 40.6764L54.9465 16.99C55.6483 14.3289 58.3679 12.7206 61.0289 13.4224L79.5686 18.1889L89.6865 20.7915C92.3768 21.4933 93.9851 24.2129 93.2833 26.9032Z" fill="#FCCEEE"/>
<path d="M79.6856 18.803C79.8026 20.002 79.4516 21.2594 78.5451 22.0489C77.4632 22.9847 75.8256 22.9847 74.422 22.5753C73.0476 22.1952 71.7609 21.4933 70.3865 21.1132C68.9829 20.733 67.3745 20.7623 66.3218 21.7273C65.2398 22.6923 65.0351 24.2714 64.7135 25.675C64.3918 27.0786 63.69 28.6285 62.2863 28.9794C61.3213 29.2133 60.2979 28.7455 59.3329 28.9502C57.8707 29.2426 57.0812 30.8802 56.935 32.3715C56.7888 33.8629 57.0812 35.3835 56.7888 36.8456C56.2624 39.3312 53.8938 41.2905 51.3497 41.2905C50.4724 41.2905 49.6536 41.0565 48.8933 40.6764L55.005 16.99C55.7068 14.3289 58.4263 12.7206 61.0874 13.4224L79.6271 18.1889C79.6271 18.3936 79.6563 18.5983 79.6856 18.803Z" fill="#FAA7E0"/>
<path d="M51.9053 47.2266C50.6771 47.2266 49.3905 46.905 48.1623 46.2616C47.8699 46.1154 47.5775 45.94 47.285 45.7645C46.9634 45.5598 46.8756 45.1212 47.0803 44.7995C47.285 44.4779 47.7237 44.3901 48.0453 44.5948C48.2793 44.741 48.5425 44.8872 48.8056 45.0335C50.5017 45.9107 52.3732 46.0862 53.7768 45.4429C55.5899 44.6533 56.6134 42.6648 57.1397 41.115C57.4029 40.3254 57.6368 39.5359 57.8415 38.7463C58.1632 37.5474 58.4849 36.3192 59.0112 35.1495C60.0932 32.7224 61.9647 31.0848 64.0117 30.7924C64.7428 30.6754 65.5031 30.7339 66.2049 30.7924C67.4331 30.8801 68.515 30.9386 69.1876 30.266C69.6847 29.7982 69.8309 29.0086 70.0064 28.1606C70.1818 27.2541 70.3865 26.2306 71.0884 25.441C72.1703 24.2421 74.1003 24.0082 76.2643 24.8269L77.317 25.2656C78.399 25.7335 79.4517 26.2013 80.4459 26.1429C82.4052 26.0551 83.7796 24.2421 84.2182 22.5753C84.4521 21.698 84.5399 20.733 84.4814 19.651C84.5106 19.3001 84.8031 18.9785 85.1832 18.9492H85.2124C85.5926 18.9492 85.885 19.2416 85.9143 19.6218C85.9728 20.85 85.885 21.9612 85.5926 22.9847C85.0078 25.1194 83.1655 27.4588 80.5337 27.5757C79.2178 27.6635 77.9603 27.1079 76.7614 26.5815C76.4397 26.4353 76.0888 26.2891 75.7671 26.1721C74.539 25.7042 72.9306 25.5288 72.1411 26.406C71.7024 26.9032 71.5562 27.6635 71.3808 28.453C71.2053 29.418 70.9714 30.5 70.1818 31.2603C69.0706 32.3715 67.5208 32.2545 66.1464 32.1668C65.4738 32.1083 64.8305 32.0791 64.2164 32.1668C62.6665 32.4007 61.1752 33.7166 60.2979 35.7051C59.8008 36.7871 59.5084 37.8983 59.1867 39.0972C58.9528 39.916 58.7481 40.7641 58.4556 41.5829C57.5491 44.1562 56.1162 45.9107 54.3325 46.7003C53.6306 47.0804 52.7826 47.2266 51.9053 47.2266Z" fill="#FAA7E0"/>
<path d="M83.1363 61.2922C83.6919 60.9121 84.2475 60.5027 84.7154 59.9763L63.7485 141.153C63.0467 143.814 60.3272 145.423 57.6661 144.75L29.0085 137.352C26.3475 136.65 24.7391 133.93 25.4117 131.269L26.7276 126.24C29.2132 129.076 33.1902 130.509 36.904 129.953C40.9102 129.31 44.507 126.386 45.8814 122.584C47.2266 118.9 46.8172 114.28 49.7122 111.648C52.2563 109.338 56.2332 109.63 59.1282 107.817C62.9882 105.39 63.7193 100.126 63.8363 95.5644C63.9825 91.0025 64.1579 85.8559 67.5501 82.7854C70.1234 80.4753 74.2173 79.8027 76.0011 76.82C78.0773 73.3401 75.9719 68.4566 78.1943 65.0645C79.3932 63.3392 81.411 62.4619 83.1363 61.2922Z" fill="#FAA7E0"/>
<path d="M58.9235 145.627C58.4556 145.627 57.9877 145.569 57.5491 145.452L36.67 140.042C36.2898 139.954 36.0851 139.574 36.1729 139.194C36.2606 138.814 36.6407 138.609 37.0209 138.697L57.9 144.107C60.1809 144.692 62.5495 143.288 63.1344 141.007L92.6107 26.6984C92.9032 25.5872 92.7277 24.4175 92.1429 23.4525C91.558 22.4582 90.6223 21.7564 89.5111 21.464L60.8827 14.0949C59.7715 13.8025 58.6018 13.9779 57.6368 14.5628C56.6426 15.1476 55.9407 16.0834 55.6483 17.1946L43.3957 64.6258C43.308 65.006 42.9279 65.2107 42.5477 65.1229C42.1676 65.0352 41.9629 64.655 42.0506 64.2749L54.3032 16.8437C54.6833 15.3816 55.6191 14.1241 56.935 13.3638C58.2509 12.6035 59.7715 12.3696 61.2336 12.7497L89.862 20.1188C91.3241 20.499 92.5815 21.4347 93.3418 22.7507C94.1021 24.0666 94.3361 25.5872 93.9559 27.0493L64.4503 141.358C63.7777 143.902 61.4383 145.627 58.9235 145.627Z" fill="#DD2590"/>
<path d="M83.5457 36.4947L79.0716 53.777L69.0707 92.494C68.5736 94.4824 66.5266 95.6521 64.5673 95.155L45.8522 90.3008C43.8637 89.8036 42.6648 87.7567 43.1911 85.7974L43.2789 85.505L57.6661 29.7982C58.1925 27.8097 60.2102 26.64 62.1695 27.1371L80.8846 31.9914C82.8731 32.4885 84.072 34.5355 83.5457 36.4947Z" fill="#F3EDED"/>
<path d="M79.0716 53.7769L69.0707 92.4938C68.5735 94.4823 66.5266 95.652 64.5673 95.1549L45.8522 90.3006C43.8637 89.8035 42.6648 87.7566 43.1911 85.7973L43.2789 85.5049C44.1561 86.6161 45.5013 87.3764 46.9049 87.6396C48.6595 87.9905 50.5895 87.4934 51.9639 86.3529C53.4845 85.1247 54.3325 83.3117 55.3267 81.6741C56.321 80.0366 57.6369 78.3697 59.5376 77.9311C61.5846 77.4632 63.924 78.5159 65.7078 77.4047C67.1699 76.5275 67.5501 74.5682 67.6085 72.8722C67.6378 71.1469 67.4916 69.3046 68.3981 67.8425C69.4801 66.1172 71.761 65.4153 72.8429 63.69C74.1881 61.5553 73.3401 58.5141 74.8314 56.4672C75.6795 55.3267 77.0539 54.8003 78.3405 54.157C78.5745 54.0693 78.8376 53.9523 79.0716 53.7769Z" fill="#D8D6D6"/>
<path d="M61.4676 121.444C59.7131 128.257 52.7241 132.38 45.9106 130.597C40.8224 129.281 37.2549 125.07 36.4946 120.186C36.2314 118.519 36.2899 116.765 36.7577 115.04C38.5123 108.226 45.5012 104.103 52.3147 105.887C56.8765 107.056 60.2394 110.566 61.4091 114.806C61.994 116.911 62.0525 119.192 61.4676 121.444Z" fill="#F3EDED"/>
<path d="M61.4677 121.444C59.7131 128.257 52.7242 132.381 45.9107 130.597C40.8225 129.281 37.2549 125.07 36.4946 120.186C36.6993 120.596 36.904 120.976 37.138 121.385C37.9275 122.614 39.0387 123.696 40.4131 124.163C41.4951 124.544 42.7525 124.456 43.7468 123.929C44.6533 124.807 45.823 125.479 47.1681 125.801C51.3498 126.883 55.6192 124.368 56.6719 120.186C56.9351 119.221 56.9643 118.227 56.8766 117.291C57.6661 116.911 58.6896 116.911 59.5377 116.59C60.3565 116.239 60.9998 115.595 61.4384 114.777C61.994 116.911 62.0525 119.192 61.4677 121.444Z" fill="#D8D6D6"/>
<path d="M56.6718 120.216C55.6191 124.397 51.3205 126.912 47.168 125.83C45.8521 125.508 44.6824 124.836 43.7467 123.959C41.729 122.058 40.7932 119.163 41.5243 116.326C42.6062 112.145 46.8756 109.63 51.0573 110.712C54.274 111.531 56.4964 114.25 56.8473 117.35C56.9643 118.256 56.935 119.251 56.6718 120.216Z" fill="#F05360"/>
<path d="M56.6719 120.216C55.6191 124.397 51.3205 126.912 47.1681 125.83C45.8522 125.509 44.6825 124.836 43.7467 123.959C44.0391 123.812 44.3023 123.608 44.507 123.403C45.2966 122.614 45.6767 121.385 46.6709 120.801C47.8699 120.128 49.3612 120.713 50.6187 121.239C51.9053 121.766 53.5137 122.175 54.5372 121.268C55.5606 120.362 55.4144 118.578 56.4379 117.672C56.5549 117.555 56.7303 117.467 56.8766 117.379C56.9643 118.256 56.935 119.251 56.6719 120.216Z" fill="#EF4050"/>
<path d="M73.0477 50.2093L60.5611 46.9926C59.7131 46.7587 59.1868 45.8814 59.4207 45.0334L61.0875 38.6293C61.3214 37.7812 62.1987 37.2549 63.0468 37.4888L75.5333 40.7055C76.3813 40.9394 76.9077 41.8167 76.6737 42.6647L75.0069 49.0688C74.773 49.9168 73.8957 50.414 73.0477 50.2093Z" fill="#6695CE"/>
<path d="M70.7959 60.0054L58.017 56.701C57.1689 56.4671 56.6426 55.5898 56.8765 54.7418L57.0227 54.2154C57.2567 53.3674 58.1339 52.841 58.982 53.075L71.7609 56.3794C72.6089 56.6133 73.1353 57.4906 72.9013 58.3386L72.7551 58.865C72.5504 59.713 71.6732 60.2394 70.7959 60.0054Z" fill="#1D2956"/>
<path d="M68.5735 68.6029L55.7945 65.2985C54.9465 65.0645 54.4201 64.1872 54.6541 63.3392L54.8003 62.8129C55.0342 61.9648 55.9115 61.4385 56.7595 61.6724L69.5385 64.9768C70.3865 65.2107 70.9129 66.088 70.6789 66.936L70.5327 67.4624C70.328 68.3104 69.4508 68.8368 68.5735 68.6029Z" fill="#1D2956"/>
<path d="M172.589 21.7273V139.779C172.589 142.528 170.337 144.75 167.588 144.75H138.024C135.275 144.75 133.024 142.528 133.024 139.779V21.7273C133.024 18.9785 135.275 16.7268 138.024 16.7268H167.588C170.366 16.7268 172.589 18.9785 172.589 21.7273Z" fill="#FAA7E0"/>
<path d="M159.196 19.885C157.558 20.1189 156.242 18.1304 154.605 18.3644C153.669 18.4814 153.026 19.3294 152.558 20.1482C152.09 20.967 151.71 21.8442 150.949 22.4291C149.721 23.3356 147.996 23.0139 146.534 22.5461C145.072 22.0782 143.522 21.4641 142.06 21.9612C141.036 22.3121 140.247 23.1601 139.808 24.1544C139.369 25.1486 139.282 26.2598 139.369 27.3418C139.457 28.4238 139.691 29.535 139.633 30.617C139.574 31.7282 139.136 32.8979 138.171 33.4242C136.825 34.2138 135.159 33.512 133.784 32.8101C133.55 32.6932 133.287 32.547 133.053 32.43V21.7273C133.053 18.9785 135.305 16.7268 138.054 16.7268H160.833C160.863 16.8438 160.921 17.0192 160.921 17.1362C161.097 18.3351 160.366 19.7095 159.196 19.885Z" fill="#DD2590"/>
<path d="M138.317 38.8046C137.761 38.8046 137.206 38.7461 136.708 38.6292C135.392 38.3075 134.106 37.6934 132.614 36.6407C132.293 36.4067 132.234 35.9974 132.439 35.6757C132.673 35.354 133.082 35.2955 133.404 35.5002C134.72 36.436 135.89 36.9916 137.03 37.2548C138.726 37.6642 140.978 37.2548 141.943 35.6757C142.586 34.623 142.586 33.2486 142.586 31.8157C142.586 31.494 142.586 31.1724 142.586 30.8507C142.615 29.6225 142.966 26.6398 145.306 25.7625C146.826 25.1777 148.347 25.821 149.692 26.3766L150.043 26.5228C151.154 26.9614 152.646 27.3416 153.464 26.5813C153.844 26.2304 154.02 25.6455 154.225 25.0022C154.283 24.7975 154.371 24.5636 154.429 24.3589C154.839 23.2769 155.774 22.1364 156.973 22.1364C157.734 22.1657 158.289 22.5751 158.786 22.926C158.991 23.0722 159.196 23.2477 159.43 23.3354C160.541 23.9202 161.974 23.1892 162.559 22.1364C163.144 21.0545 163.085 19.5631 162.412 18.1595C162.237 17.8378 162.032 17.4284 161.769 17.0775C161.535 16.7558 161.594 16.3464 161.915 16.1125C162.237 15.8786 162.646 15.9371 162.88 16.2587C163.202 16.6974 163.465 17.1652 163.641 17.5454C164.518 19.3584 164.547 21.3177 163.758 22.7798C162.763 24.5928 160.453 25.4116 158.786 24.5343C158.494 24.3881 158.231 24.1834 157.968 24.008C157.587 23.7155 157.266 23.4816 156.944 23.4816C156.505 23.3939 155.95 24.1542 155.716 24.7975C155.657 24.973 155.599 25.1777 155.54 25.3824C155.307 26.1134 155.043 26.9322 154.4 27.5463C153.669 28.2481 152.207 28.8622 149.487 27.7802L149.136 27.634C147.967 27.1369 146.768 26.6398 145.774 27.0199C144.165 27.6048 143.961 30.0904 143.961 30.8507V31.7864C143.961 33.3655 143.96 34.9739 143.112 36.3775C142.06 38.1321 140.13 38.8046 138.317 38.8046Z" fill="#DD2590"/>
<path d="M172.589 76.2935V139.779C172.589 142.528 170.366 144.779 167.588 144.779H138.024C135.275 144.779 133.024 142.557 133.024 139.779V132.176C134.808 134.164 137.264 135.597 139.896 136.094C143.727 136.825 146.826 133.053 148.405 129.895C149.721 127.263 150.423 124.368 151.417 121.59C152.412 118.812 153.786 116.063 156.067 114.162C158.903 111.852 162.968 111.004 164.84 107.846C168.232 102.115 161.213 94.3945 164.108 88.3998C165.015 86.4991 166.77 85.1832 168.202 83.6625C170.22 81.5863 171.712 79.0422 172.589 76.2935Z" fill="#DD2590"/>
<path d="M167.588 145.481H138.024C134.895 145.481 132.322 142.937 132.322 139.779V21.7272C132.322 18.5982 134.866 16.0249 138.024 16.0249H167.588C170.717 16.0249 173.291 18.569 173.291 21.7272V49.3613C173.291 49.7414 172.969 50.0631 172.589 50.0631C172.209 50.0631 171.887 49.7414 171.887 49.3613V21.7272C171.887 19.3585 169.957 17.4285 167.588 17.4285H138.024C135.656 17.4285 133.726 19.3585 133.726 21.7272V139.779C133.726 142.147 135.656 144.077 138.024 144.077H167.588C169.957 144.077 171.887 142.147 171.887 139.779C171.887 139.399 172.209 139.077 172.589 139.077C172.969 139.077 173.291 139.399 173.291 139.779C173.291 142.937 170.747 145.481 167.588 145.481Z" fill="#DD2590"/>
<path d="M165.571 33.4826V91.3241C165.571 93.4003 163.904 95.0379 161.828 95.0379H142.498C140.451 95.0379 138.785 93.4003 138.785 91.3241V33.4826C138.785 31.4064 140.451 29.7688 142.498 29.7688H161.828C163.904 29.7688 165.571 31.4356 165.571 33.4826Z" fill="#F3EDED"/>
<path d="M165.571 54.625V91.295C165.571 93.3712 163.904 95.0088 161.828 95.0088H142.498C140.451 95.0088 138.785 93.3712 138.785 91.295V89.1311C140.978 90.447 144.194 90.1545 145.92 88.1953C147.353 86.5577 147.703 84.3061 148.142 82.2006C148.61 80.1244 149.4 77.8435 151.271 76.7615C152.996 75.7673 155.19 76.0305 156.944 75.1239C159.517 73.7495 160.161 70.3574 160.102 67.4332C160.044 64.5089 159.634 61.3508 161.126 58.8651C162.178 57.1398 163.962 56.0286 165.483 54.7127C165.512 54.7127 165.571 54.6835 165.571 54.625Z" fill="#D8D6D6"/>
<path d="M165.395 121.239C165.395 128.287 159.693 134.018 152.646 134.018C146.592 134.018 141.504 129.807 140.217 124.134C139.984 123.198 139.867 122.233 139.867 121.239C139.867 114.192 145.569 108.49 152.646 108.49C157.003 108.49 160.833 110.653 163.144 114.016C164.547 116.063 165.395 118.549 165.395 121.239Z" fill="#F3EDED"/>
<path d="M165.395 121.239C165.395 128.286 159.693 134.018 152.645 134.018C146.592 134.018 141.504 129.807 140.217 124.134C141.358 125.859 142.557 127.526 144.311 128.55C146.007 129.515 148.347 129.661 149.897 128.579C150.745 128.901 151.68 129.076 152.645 129.076C156.973 129.076 160.453 125.567 160.453 121.268C160.453 119.894 160.102 118.607 159.488 117.496C159.517 117.408 159.576 117.321 159.605 117.262C160.161 116.473 161.272 116.268 162.061 115.654C162.588 115.274 162.939 114.689 163.114 114.045C164.547 116.063 165.395 118.549 165.395 121.239Z" fill="#D8D6D6"/>
<path d="M160.482 121.239C160.482 125.567 156.973 129.047 152.675 129.047C151.71 129.047 150.774 128.871 149.926 128.55C146.943 127.439 144.838 124.602 144.838 121.239C144.838 116.911 148.347 113.431 152.646 113.431C155.599 113.431 158.172 115.069 159.488 117.467C160.132 118.578 160.482 119.865 160.482 121.239Z" fill="#FCCEEE"/>
<path d="M160.482 121.239C160.482 125.567 156.973 129.047 152.675 129.047C151.71 129.047 150.774 128.872 149.926 128.55C150.16 128.374 150.394 128.17 150.598 127.907C151.3 127.059 151.563 125.947 152.031 124.953C152.47 123.959 153.23 122.965 154.283 122.76C155.804 122.526 157.5 123.93 158.757 123.082C159.634 122.497 159.634 121.239 159.459 120.216C159.313 119.28 159.079 118.227 159.488 117.438C160.132 118.578 160.482 119.865 160.482 121.239Z" fill="#FAA7E0"/>
<path d="M157.88 49.3613H146.856C145.452 49.3613 144.311 48.2208 144.311 46.8172V42.0507C144.311 40.647 145.452 39.5066 146.856 39.5066H157.88C159.284 39.5066 160.424 40.647 160.424 42.0507V46.8172C160.395 48.2501 159.254 49.3613 157.88 49.3613Z" fill="#F05360"/>
<path d="M159.079 59.4207H145.89C145.013 59.4207 144.282 58.6896 144.282 57.8124V57.2568C144.282 56.3795 145.013 55.6484 145.89 55.6484H159.079C159.956 55.6484 160.687 56.3795 160.687 57.2568V57.8124C160.687 58.7189 159.985 59.4207 159.079 59.4207Z" fill="#1D2956"/>
<path d="M159.079 68.3104H145.89C145.013 68.3104 144.282 67.5793 144.282 66.702V66.1464C144.282 65.2691 145.013 64.5381 145.89 64.5381H159.079C159.956 64.5381 160.687 65.2691 160.687 66.1464V66.702C160.687 67.5793 159.985 68.3104 159.079 68.3104Z" fill="#1D2956"/>
<path d="M185.426 154.517C185.426 157.207 184.344 159.634 182.56 161.389C180.777 163.173 178.35 164.255 175.659 164.255H17.3115C14.0364 164.255 11.1121 162.617 9.38682 160.132C8.24636 158.552 7.60303 156.622 7.60303 154.517C7.60303 151.827 8.685 149.4 10.4395 147.616C12.2233 145.861 14.6505 144.75 17.3408 144.75H175.718C181.069 144.779 185.426 149.136 185.426 154.517Z" fill="#7856FC"/>
<path d="M67.9302 144.779C68.0179 145.949 67.6962 147.119 66.7897 147.85C65.0352 149.253 62.5203 148.318 60.5026 147.382C58.5141 146.417 55.97 145.51 54.2447 146.885C52.7826 148.025 52.6949 150.218 51.5544 151.71C50.2093 153.464 47.6652 153.844 45.5305 153.26C43.425 152.675 41.612 151.359 39.7405 150.189C37.8982 148.99 35.8805 147.879 33.658 147.85C31.1432 147.82 28.7746 149.224 26.903 150.92C25.0315 152.616 23.4524 154.634 21.4932 156.242C18.1303 159.02 13.6855 160.395 9.32834 160.132C8.18789 158.552 7.54456 156.622 7.54456 154.517C7.54456 151.827 8.62653 149.4 10.3811 147.616C12.1649 145.861 14.592 144.75 17.2823 144.75H67.9302V144.779Z" fill="#9886FE"/>
<path d="M16.1711 164.225C15.1184 164.225 14.0364 164.138 12.9837 163.962C12.6035 163.904 12.3403 163.553 12.4281 163.173C12.4866 162.793 12.8375 162.529 13.2176 162.617C18.7737 163.553 24.5929 161.798 28.3652 158.026C28.7746 157.617 29.184 157.178 29.5934 156.739C31.0555 155.16 32.5761 153.523 34.74 152.938C36.7285 152.412 39.0387 152.879 41.5535 154.371C42.2553 154.78 42.9572 155.219 43.659 155.687C44.8287 156.447 45.9399 157.178 47.1681 157.675C48.8349 158.348 51.1743 158.611 52.7534 157.324C53.7184 156.535 54.274 155.307 54.8588 154.02C55.6191 152.324 56.4087 150.569 58.1632 149.75C60.1809 148.844 62.4619 149.663 64.2164 150.482L64.4503 150.599C66.0294 151.33 67.667 152.09 69.1876 151.768C71.0884 151.359 72.1411 149.487 72.492 147.996C72.6967 147.089 72.7552 146.037 72.6675 144.838C72.6382 144.458 72.9306 144.107 73.3108 144.077C73.7202 144.048 74.0419 144.341 74.0711 144.721C74.1881 146.066 74.1296 147.236 73.8664 148.318C73.2816 150.774 71.5855 152.645 69.5093 153.113C67.4916 153.552 65.5616 152.645 63.8655 151.856L63.6316 151.768C62.1402 151.066 60.2394 150.365 58.7481 151.037C57.4614 151.622 56.8181 153.084 56.1162 154.605C55.5022 156.008 54.8588 157.441 53.6306 158.435C51.5544 160.102 48.6594 159.81 46.6417 158.991C45.2966 158.435 44.0684 157.646 42.8694 156.856C42.1969 156.418 41.5243 155.979 40.8517 155.599C38.6293 154.312 36.6993 153.874 35.0617 154.312C33.2779 154.78 31.9913 156.184 30.5876 157.704C30.1782 158.143 29.7688 158.611 29.3302 159.02C25.9673 162.354 21.1131 164.225 16.1711 164.225Z" fill="#9886FE"/>
<path d="M185.426 154.517C185.426 157.207 184.344 159.634 182.59 161.389C180.806 163.173 178.379 164.255 175.718 164.255H62.4911C64.2164 163.728 65.854 163.114 67.3161 162.529C72.5797 160.336 77.8434 157.529 83.5456 157.324C90.8562 157.061 98.1961 161.067 105.185 158.874C109.688 157.47 113.402 153.523 118.139 153.347C124.076 153.084 129.369 158.786 135.159 157.529C140.1 156.447 142.966 150.657 147.937 149.604C151.768 148.815 155.511 151.125 158.903 153.084C162.325 155.073 166.565 156.798 170.015 154.956C172.852 153.435 174.109 149.867 173.642 146.739C173.554 146.095 173.408 145.423 173.174 144.838H175.659C181.069 144.779 185.426 149.136 185.426 154.517Z" fill="#9886FE"/>
<path d="M109.133 164.957H17.3115C11.5508 164.957 6.90125 160.278 6.90125 154.517C6.90125 151.739 7.98322 149.107 9.94246 147.148C11.9309 145.189 14.5628 144.107 17.3115 144.107H175.718C181.479 144.107 186.128 148.785 186.128 154.517C186.128 154.897 185.806 155.219 185.426 155.219C185.046 155.219 184.724 154.897 184.724 154.517C184.724 149.546 180.66 145.481 175.689 145.481H17.3115C14.9137 145.481 12.6328 146.417 10.9075 148.113C9.2114 149.809 8.27564 152.09 8.27564 154.488C8.27564 159.488 12.3403 163.553 17.3115 163.553H109.162C109.542 163.553 109.864 163.875 109.864 164.255C109.835 164.635 109.513 164.957 109.133 164.957Z" fill="#5922DF"/>
<path d="M167.822 108.899C166.448 108.899 165.19 109.571 164.284 110.653C163.377 111.735 162.822 113.198 162.822 114.835C162.822 111.56 160.599 108.899 157.821 108.899C159.196 108.899 160.453 108.226 161.36 107.174C162.266 106.092 162.822 104.63 162.822 102.992C162.822 104.63 163.377 106.092 164.284 107.174C165.161 108.256 166.448 108.899 167.822 108.899Z" fill="white"/>
<path d="M133.96 155.072C132.585 155.072 131.328 155.745 130.421 156.827C129.515 157.909 128.959 159.371 128.959 161.009C128.959 157.734 126.737 155.072 123.959 155.072C125.333 155.072 126.59 154.4 127.497 153.347C128.403 152.265 128.959 150.803 128.959 149.166C128.959 150.803 129.515 152.265 130.421 153.347C131.328 154.4 132.585 155.072 133.96 155.072Z" fill="white"/>
<path d="M58.865 48.3669C57.4907 48.3669 56.2332 49.0395 55.3267 50.1215C54.4202 51.2034 53.8646 52.6656 53.8646 54.3031C53.8646 51.028 51.6422 48.3669 48.8641 48.3669C50.2385 48.3669 51.496 47.6944 52.4025 46.6416C53.309 45.5597 53.8646 44.0975 53.8646 42.46C53.8646 44.0975 54.4202 45.5597 55.3267 46.6416C56.204 47.6944 57.4614 48.3669 58.865 48.3669Z" fill="white"/>
<path d="M110.273 110.536C108.899 110.536 107.641 111.209 106.735 112.291C105.828 113.373 105.273 114.835 105.273 116.473C105.273 113.197 103.05 110.536 100.272 110.536C101.647 110.536 102.904 109.864 103.811 108.811C104.717 107.729 105.273 106.267 105.273 104.629C105.273 106.267 105.828 107.729 106.735 108.811C107.641 109.864 108.899 110.536 110.273 110.536Z" fill="white"/>
<path d="M168.261 99.0148C167.53 99.0148 166.828 99.3657 166.36 99.9506C165.863 100.535 165.571 101.325 165.571 102.202C165.571 100.448 164.372 99.0148 162.88 99.0148C163.611 99.0148 164.284 98.6639 164.781 98.0791C165.249 97.4942 165.571 96.7047 165.571 95.8274C165.571 96.7047 165.863 97.4942 166.36 98.0791C166.857 98.6639 167.53 99.0148 168.261 99.0148Z" fill="white"/>
<path d="M38.717 96.0029C40.0036 96.3246 40.2668 99.6289 39.3018 103.401C38.3368 107.173 36.4946 109.922 35.2371 109.571C33.9505 109.22 33.6873 105.916 34.6523 102.173C35.6173 98.4592 37.4303 95.6812 38.717 96.0029Z" fill="white"/>
<path d="M40.2668 90.0081C40.8224 90.1543 41.0564 91.2071 40.7347 92.3475C40.4423 93.5172 39.7405 94.336 39.1849 94.1898C38.6293 94.0436 38.3953 92.9908 38.717 91.8504C39.0094 90.7099 39.7112 89.8619 40.2668 90.0081Z" fill="white"/>
<path d="M140.919 42.3138C140.247 42.3138 139.633 41.5243 139.282 40.1791C138.989 38.8339 138.668 36.9332 139.691 34.4768C140.218 33.2779 141.153 32.1374 142.323 31.5233C143.463 30.9093 144.604 30.7923 145.481 30.9385C147.294 31.2309 147.938 32.3421 147.645 32.8977C147.382 33.5118 146.534 33.8043 145.803 34.3306C145.423 34.5938 145.072 34.8862 144.809 35.2079C144.575 35.5296 144.341 35.8805 144.107 36.4361C143.61 37.5473 143.2 39.2433 142.703 40.3838C142.177 41.5243 141.592 42.2846 140.919 42.3138Z" fill="white"/>
<path d="M141.563 48.4547C141.007 48.5716 140.335 47.6944 140.159 46.4662C139.984 45.238 140.422 44.2145 140.978 44.1853C141.563 44.156 142.089 45.0625 142.235 46.203C142.381 47.3434 142.118 48.3377 141.563 48.4547Z" fill="white"/>
<path d="M95.5642 150.599C95.5642 151.944 92.757 152.997 89.2771 152.997C85.7973 152.997 82.99 151.915 82.99 150.599C82.99 149.254 85.7973 148.201 89.2771 148.201C92.757 148.172 95.5642 149.254 95.5642 150.599Z" fill="white"/>
<path d="M101.15 150.599C101.15 151.183 100.272 151.651 99.1903 151.651C98.1083 151.651 97.2311 151.183 97.2311 150.599C97.2311 150.014 98.1083 149.546 99.1903 149.546C100.272 149.546 101.15 150.014 101.15 150.599Z" fill="white"/>
</svg>
