<svg width="152" height="140" viewBox="0 0 152 140" fill="none" xmlns="http://www.w3.org/2000/svg">
<path fill-rule="evenodd" clip-rule="evenodd" d="M36.1129 52.0125C36.0276 48.4415 33.3047 45.4875 29.7515 45.1129C29.7515 45.1129 20.773 44.2043 14.0902 45.3731C9.46629 46.1821 5.81491 48.2175 3.98638 50.671C1.76755 53.6477 0.802095 56.9777 0.679103 60.6205C0.5554 64.2726 1.44549 68.352 2.096 72.5835C3.06927 78.9101 6.90052 89.9865 16.6041 133.45C17.1181 135.752 18.7398 137.648 20.9337 138.514C23.1277 139.38 25.6081 139.1 27.5554 137.769L34.8084 132.811C36.7962 131.451 37.9607 129.178 37.9031 126.771L36.1129 52.0125Z" fill="#BEB7EA"/>
<path fill-rule="evenodd" clip-rule="evenodd" d="M102.505 6.75559C100.476 6.42501 98.4025 6.98949 96.8206 8.30402C95.2388 9.61783 94.3032 11.5523 94.2563 13.6083C94.2563 13.6083 93.5276 45.0723 93.3321 50.9567C93.1828 55.4186 96.1246 59.6422 102.111 61.704C108.568 63.9278 119.45 63.8041 119.45 63.8041C122.83 63.7344 125.693 61.2937 126.298 57.968C130.317 35.8642 131.295 16.735 131.295 16.735C131.492 12.9052 128.615 9.6093 124.793 9.28653C110.846 8.1078 102.505 6.75559 102.505 6.75559Z" fill="#BEB7EA"/>
<path fill-rule="evenodd" clip-rule="evenodd" d="M20.0485 120.305C20.1537 122.885 21.6503 125.206 23.9573 126.367C26.2643 127.527 29.0191 127.346 31.1534 125.892L114.397 69.2094C116.439 67.8188 117.613 65.467 117.497 62.9994C116.082 32.8741 113.906 6.94549 113.906 6.94549C113.602 3.32184 110.613 0.511504 106.977 0.43259C78.5822 -0.188059 49.7508 0.0849424 49.7508 0.0849424C49.7423 0.0849424 49.733 0.0849424 49.7245 0.0849424C32.2887 0.314575 21.2294 12.3237 18.9871 26.2538C18.9309 26.6058 18.9011 26.9612 18.8975 27.3167C18.4041 79.9758 20.0485 120.305 20.0485 120.305Z" fill="#BEB7EA"/>
<path fill-rule="evenodd" clip-rule="evenodd" d="M90.8898 57.7982C70.7063 58.2702 47.5973 58.0634 47.5973 58.0634C40.6642 57.9979 35.3208 62.1363 31.7576 67.6859C28.1567 73.2938 26.5308 80.1586 26.1974 81.6992C21.0438 100.996 16.5137 130.836 16.5137 130.836C16.2108 132.833 16.7725 134.865 18.0579 136.424C19.3432 137.983 21.2315 138.92 23.2498 139.004C81.7131 141.412 129.192 138.582 129.192 138.582C132.418 138.39 135.109 136.046 135.741 132.877C145.011 86.4511 149.305 71.3792 151.038 62.0389C151.861 57.6055 150.926 54.3338 149.41 51.8668C147.227 48.3143 143.44 46.286 139.859 45.4421C136.72 44.702 133.964 44.8527 133.964 44.8527C133.94 44.8541 133.916 44.8556 133.892 44.857C131.105 45.0162 117.691 45.4392 111.237 45.0823C106.832 44.8385 102.823 46.5064 99.6685 48.8098C96.2219 51.3265 93.9213 54.5065 93.3824 55.2879C92.4411 56.5768 91.2858 57.5003 90.8898 57.7982Z" fill="#BEB7EA"/>
<path fill-rule="evenodd" clip-rule="evenodd" d="M29.0057 52.1832C29.0057 52.1832 12.9868 50.4926 9.68664 54.9203C6.38575 59.3473 8.1567 65.2232 9.12286 71.5022C10.089 77.7812 13.9132 88.768 23.5428 131.901L30.7958 126.942L29.0057 52.1832Z" fill="#5922DF"/>
<path fill-rule="evenodd" clip-rule="evenodd" d="M101.363 13.7727C101.363 13.7727 109.907 15.1633 124.194 16.3705C124.194 16.3705 123.234 35.0781 119.303 56.6963C119.303 56.6963 100.241 57.0894 100.437 51.1936C100.633 45.2978 101.363 13.7727 101.363 13.7727Z" fill="#FF9227"/>
<path fill-rule="evenodd" clip-rule="evenodd" d="M27.1523 120.016C27.1523 120.016 25.515 79.8409 26.0063 27.3836C27.7402 16.6108 36.334 7.37146 49.8184 7.19372C49.8184 7.19372 78.5374 6.92214 106.821 7.53995C106.821 7.53995 108.987 33.3477 110.395 63.3329L27.1523 120.016Z" fill="#FFBE32"/>
<path fill-rule="evenodd" clip-rule="evenodd" d="M26.0063 27.3835C26.0063 27.3835 28.0489 7.90596 49.8185 7.1936C49.8185 7.1936 40.924 10.2734 43.9739 24.9457C43.9739 24.9457 35.1753 20.4412 26.0063 27.3835Z" fill="#FF9227"/>
<path fill-rule="evenodd" clip-rule="evenodd" d="M58.5738 35.7626C59.9836 34.3834 61.163 33.7926 62.2415 33.681C63.3087 33.5701 64.2549 33.9256 65.1848 34.3436C66.6685 35.0105 68.1167 35.8231 69.7803 35.8138C71.2932 35.806 72.4506 35.2614 73.6308 34.6451C74.8081 34.0308 76.0117 33.3369 77.7798 33.2801C79.5877 33.221 81.958 33.8189 85.4416 35.715C85.5958 35.8117 87.4073 36.8667 90.4828 34.8292C90.8098 34.6124 90.8994 34.1709 90.6826 33.8438C90.4657 33.5168 90.0243 33.4272 89.6972 33.6433C87.4279 35.147 86.1809 34.5 86.1809 34.5C86.1703 34.4936 86.1603 34.4872 86.1497 34.4815C79.5244 30.8686 76.5015 31.657 74.0978 32.8101C72.6753 33.4926 71.5058 34.3827 69.7732 34.392C68.3165 34.3998 67.0667 33.6305 65.7678 33.0462C64.6104 32.5265 63.4231 32.129 62.0944 32.267C60.7777 32.4035 59.3011 33.0618 57.5799 34.746C57.2991 35.0204 57.2941 35.4712 57.5685 35.7513C57.843 36.0321 58.2937 36.0371 58.5738 35.7626Z" fill="white"/>
<path fill-rule="evenodd" clip-rule="evenodd" d="M39.9386 46.2318C41.2162 45.1014 42.3252 44.5817 43.3355 44.4495C44.8626 44.249 46.1309 44.9187 47.3224 45.5017C48.9931 46.3186 50.5415 46.9584 52.2257 46.0726C56.2745 43.944 58.8716 43.1286 60.9966 43.066C62.5514 43.0198 63.8417 43.3831 65.2672 43.89C66.7936 44.4332 68.4643 45.137 70.703 45.7384C72.6154 46.2524 73.883 45.6773 75.14 44.8156C76.3365 43.9952 77.5145 42.8563 79.5371 42.5577C81.5981 42.2534 84.4945 42.82 89.1035 45.2955C89.449 45.4811 89.8805 45.3517 90.0661 45.0062C90.2516 44.6599 90.1215 44.2291 89.776 44.0428C84.6075 41.2666 81.387 40.7896 79.129 41.1835C77.5657 41.4557 76.436 42.1432 75.4371 42.8527C74.0785 43.8182 73.0335 44.8924 71.072 44.3656C68.8773 43.7755 67.24 43.0824 65.7435 42.5506C64.146 41.9825 62.6971 41.593 60.9546 41.6449C58.6832 41.7117 55.892 42.5385 51.5646 44.8142C50.314 45.4718 49.1879 44.8313 47.9473 44.2241C46.5197 43.526 44.9799 42.7994 43.1499 43.0397C41.9214 43.2004 40.55 43.7919 38.9959 45.1675C38.7023 45.4278 38.6753 45.8771 38.9348 46.1707C39.195 46.465 39.645 46.492 39.9386 46.2318Z" fill="white"/>
<path fill-rule="evenodd" clip-rule="evenodd" d="M41.9861 56.104C44.3592 54.7361 45.8458 54.3657 46.9285 54.5093C47.9693 54.6472 48.5914 55.2643 49.2604 55.7463C49.8633 56.1814 50.4925 56.5369 51.3079 56.6229C52.0899 56.7061 53.0639 56.5419 54.3834 55.8644C59.6095 53.1827 62.336 52.1454 64.6963 52.2706C67.0601 52.3964 69.0302 53.6761 72.7405 55.4797C76.3137 57.2166 78.2794 56.4246 80.1585 55.2892C81.3685 54.5577 82.5273 53.6334 84.2051 53.3377C85.8744 53.0441 88.042 53.3924 91.2733 55.0873C91.6209 55.2693 92.0503 55.1357 92.233 54.788C92.415 54.4404 92.2814 54.0102 91.9337 53.8282C88.9193 52.2471 86.7183 51.763 84.9893 51.8284C83.2055 51.8966 81.8981 52.5429 80.7073 53.2702C79.4838 54.0174 78.4131 54.8804 76.9265 55.0319C75.9625 55.13 74.8293 54.9146 73.3619 54.2008C69.4119 52.2805 67.2884 50.9845 64.7716 50.8508C62.2521 50.7172 59.3123 51.7374 53.7343 54.5996C52.7525 55.103 52.0395 55.2707 51.4579 55.2096C50.5643 55.1143 50.0104 54.5115 49.3223 54.0266C48.7108 53.5958 48.0291 53.2204 47.1148 53.0995C45.8429 52.931 44.0642 53.2652 41.2759 54.8719C40.936 55.0681 40.8194 55.5032 41.015 55.843C41.2112 56.1829 41.6463 56.3002 41.9861 56.104Z" fill="white"/>
<path fill-rule="evenodd" clip-rule="evenodd" d="M23.543 131.901C23.543 131.901 28.0205 102.349 33.1143 83.3521C33.1143 83.3521 36.6121 65.0696 47.5343 65.1727C47.5343 65.1727 71.2625 65.3846 91.7048 64.8905C91.7048 64.8905 95.1088 65.0668 99.2059 59.3672C99.2059 59.3672 104.163 51.8114 110.845 52.1811C117.527 52.55 131.413 52.1192 134.298 51.9543C134.298 51.9543 145.779 51.4154 144.048 60.7422C142.318 70.0697 138.027 85.1216 128.77 131.485C128.77 131.485 81.6116 134.293 23.543 131.901Z" fill="#7856FC"/>
<path fill-rule="evenodd" clip-rule="evenodd" d="M34.5945 79.3366C34.5945 79.3366 80.0546 77.2166 140.583 77.3957C141.172 77.3972 141.651 76.9208 141.653 76.3322C141.655 75.7435 141.178 75.2644 140.59 75.2629C80.0006 75.0838 34.4956 77.2059 34.4956 77.2059C33.9077 77.2337 33.452 77.7327 33.4797 78.3207C33.5074 78.9086 34.0065 79.3636 34.5945 79.3366Z" fill="#5922DF"/>
<path fill-rule="evenodd" clip-rule="evenodd" d="M46.3027 102.985C46.3027 102.985 63.6901 103.468 81.2382 104.273C81.2382 104.273 80.4334 111.839 77.6963 120.372C77.6963 120.372 52.7424 120.855 41.9561 120.372C41.9561 120.372 43.1391 112.836 46.3027 102.985Z" fill="#FF9227"/>
<path fill-rule="evenodd" clip-rule="evenodd" d="M53.1284 109.254C53.1284 109.254 62.3841 109.254 70.7405 109.64C71.1322 109.658 71.4656 109.355 71.4834 108.963C71.5019 108.571 71.1983 108.238 70.8059 108.22C62.4189 107.833 53.1284 107.833 53.1284 107.833C52.736 107.833 52.4175 108.152 52.4175 108.543C52.4175 108.936 52.736 109.254 53.1284 109.254Z" fill="white"/>
<path fill-rule="evenodd" clip-rule="evenodd" d="M68.4421 114.659C68.4421 114.659 61.3832 114.787 51.5004 114.145C51.1087 114.12 50.7703 114.417 50.7447 114.809C50.7191 115.2 51.0163 115.538 51.408 115.564C61.3597 116.21 68.4677 116.081 68.4677 116.081C68.8601 116.074 69.1729 115.75 69.1658 115.357C69.1587 114.965 68.8345 114.652 68.4421 114.659Z" fill="white"/>
</svg>
