<svg width="179" height="176" viewBox="0 0 179 176" fill="none" xmlns="http://www.w3.org/2000/svg">
<g clip-path="url(#clip0_9118_15308)">
<path d="M93.9794 159.196C118.097 159.196 137.649 154.412 137.649 148.511C137.649 142.609 118.097 137.825 93.9794 137.825C69.8614 137.825 50.3098 142.609 50.3098 148.511C50.3098 154.412 69.8614 159.196 93.9794 159.196Z" fill="#F5F5F5"/>
<path d="M93.9794 34.7036C69.8615 34.7036 50.3098 54.2553 50.3098 78.3732C50.3098 102.491 74.4665 148.511 93.9794 148.511C113.492 148.511 137.649 102.491 137.649 78.3732C137.649 54.2553 118.097 34.7036 93.9794 34.7036Z" fill="#528BFF"/>
<path d="M93.9794 116.402C114.928 116.402 131.911 99.4192 131.911 78.4704C131.911 57.5215 114.928 40.5391 93.9794 40.5391C73.0305 40.5391 56.0481 57.5215 56.0481 78.4704C56.0481 99.4192 73.0305 116.402 93.9794 116.402Z" fill="#F2F2F2"/>
<path d="M127.146 78.4698C127.146 79.3402 127.113 80.2027 127.047 81.0561L123.079 83.6673L126.221 86.279C125.787 88.0776 125.207 89.8188 124.493 91.4897L120.146 94.1006L121.682 96.7135C120.444 98.5901 119.02 100.334 117.437 101.917L110.762 103.688L110.662 107.143C105.761 110.001 100.062 111.638 93.9803 111.638C87.8974 111.638 82.1972 110 77.2961 107.142L77.4444 103.908L70.5611 101.958C68.9616 100.363 67.5241 98.6057 66.2756 96.7133L67.6562 93.4979L63.465 91.4894C62.7511 89.8185 62.1705 88.0773 61.7365 86.2788L64.4306 83.6671L60.9112 81.0559C60.8453 80.2024 60.8118 79.3398 60.8118 78.4695C60.8118 77.5901 60.8461 76.7189 60.9134 75.8566L93.9807 45.3044C100.056 45.3044 105.75 46.9384 110.647 49.7905L111.276 52.9578L117.388 54.9747C117.927 55.5121 118.448 56.0679 118.95 56.6413C119.849 57.6696 120.687 58.7538 121.455 59.8883C122.633 61.6263 123.651 63.482 124.486 65.4343C124.817 66.2082 125.12 66.9975 125.392 67.8006C125.685 68.6614 125.942 69.5379 126.164 70.4288L123.665 73.2574L127.045 75.8688C127.112 76.7271 127.146 77.5944 127.146 78.4698Z" fill="#F42525"/>
<path d="M124.483 65.4355H93.9746C90.0511 63.9576 90.0511 62.2157 93.9746 60.2129H121.668C122.759 61.858 123.703 63.6026 124.483 65.4355Z" fill="white"/>
<path d="M117.428 55.0168H93.9748C90.8401 54.1898 90.8401 52.4479 93.9748 49.7942H110.645C113.129 51.2368 115.408 52.9962 117.428 55.0168Z" fill="white"/>
<path d="M127.047 75.8688H93.9748C90.8401 72.7694 90.8401 71.0275 93.9748 70.6462H126.213C126.627 72.3381 126.906 74.0829 127.047 75.8688Z" fill="white"/>
<path d="M127.046 81.0564C126.908 82.8421 126.63 84.5869 126.219 86.279H61.7388C61.3284 84.5869 61.0497 82.8423 60.9119 81.0564H127.046Z" fill="white"/>
<path d="M124.492 91.4895C123.709 93.3194 122.768 95.067 121.68 96.7121H66.2783C65.1905 95.067 64.249 93.3194 63.4661 91.4895H124.492Z" fill="white"/>
<path d="M117.437 101.917C115.419 103.938 113.144 105.697 110.66 107.14H77.2983C74.8145 105.697 72.5391 103.938 70.5215 101.917H117.437Z" fill="white"/>
<path d="M93.9746 45.3047V75.8574H60.9148C61.1373 73.0018 61.7213 70.2477 62.6215 67.6409L63.4715 66.3862L63.5841 65.178C67.2019 56.9175 74.0889 50.4145 82.6088 47.3053L83.6989 47.2462L84.2999 46.7395C87.3607 45.807 90.6092 45.3052 93.9746 45.3047Z" fill="#528BFF"/>
<path d="M86.1426 50.6285L86.1305 50.6351L85.7047 51.8596L86.7228 51.0912L86.726 51.0847L86.7294 51.0912L87.7535 51.8596L87.3248 50.6351L87.3124 50.6285H87.3154L88.3772 49.9103H87.0931H87.0902L86.6982 48.6794L86.3498 49.9103H85.0813L86.1368 50.6285H86.1426Z" fill="white"/>
<path d="M86.1426 57.0077L86.1305 57.0137L85.7047 58.2322L86.7228 57.4699L86.726 57.4636L86.7294 57.4699L87.7535 58.2322L87.3248 57.0137L87.3124 57.0077H87.3154L88.3772 56.2828H87.0931L87.0902 56.2891V56.2828L86.6982 55.052L86.3498 56.2828H85.0813L86.1368 57.0077H86.1426Z" fill="white"/>
<path d="M86.1426 63.38L86.1305 63.3926L85.7047 64.6106L86.7228 63.8425L86.726 63.8359L86.7294 63.8425L87.7535 64.6106L87.3248 63.3926L87.3124 63.38H87.3154L88.3772 62.6615H87.0931H87.0902L86.6982 61.4309L86.3498 62.6615H85.0813L86.1368 63.38H86.1426Z" fill="white"/>
<path d="M87.3124 69.7584H87.3154L88.3772 69.0338H87.0931L87.0902 69.0401V69.0338L86.6982 67.8032L86.3498 69.0338H85.0813L86.1368 69.7584H86.1426L86.1305 69.7647L85.7047 70.9829L86.7228 70.2209L86.726 70.2148L86.7294 70.2209L87.7535 70.9829L87.3248 69.7647L87.3124 69.7584Z" fill="white"/>
<path d="M80.3937 49.9103L80.002 48.6794L79.653 49.9103H78.3848L79.44 50.6285H79.4432L79.4342 50.6351L79.0021 51.8596L80.0265 51.0912L80.0297 51.0847L80.0326 51.0912L81.0572 51.8596L80.6281 50.6351L80.6127 50.6285H80.6191L81.6746 49.9103H80.3968H80.3937Z" fill="white"/>
<path d="M80.3905 56.2891L80.3937 56.2828L80.002 55.052L79.653 56.2828H78.3848L79.44 57.0077H79.4432L79.4342 57.0137L79.0021 58.2322L80.0265 57.4699L80.0297 57.4636L80.0326 57.4699L81.0572 58.2322L80.6281 57.0137L80.6127 57.0077H80.6191L81.6746 56.2828H80.3968L80.3905 56.2891Z" fill="white"/>
<path d="M80.3937 62.6615L80.002 61.4309L79.653 62.6615H78.3848L79.44 63.38H79.4432L79.4342 63.3926L79.0021 64.6106L80.0265 63.8425L80.0297 63.8359L80.0326 63.8425L81.0572 64.6106L80.6281 63.3926L80.6127 63.38H80.6191L81.6746 62.6615H80.3968H80.3937Z" fill="white"/>
<path d="M81.6746 69.0338H80.3968L80.3905 69.0401L80.3937 69.0338L80.002 67.8032L79.653 69.0338H78.3848L79.44 69.7584H79.4432L79.4342 69.7647L79.0021 70.9829L80.0265 70.2209L80.0297 70.2148L80.0326 70.2209L81.0572 70.9829L80.6281 69.7647L80.6127 69.7584H80.6191L81.6746 69.0338Z" fill="white"/>
<path d="M72.7469 57.0077L72.7313 57.0137L72.3053 58.2322L73.33 57.4699V57.4636L73.3329 57.4699L74.3607 58.2322L73.9286 57.0137L73.9164 57.0077H73.9196L74.9778 56.2828H73.6974L73.691 56.2891L73.6942 56.2828L73.2993 55.052L72.9533 56.2828H71.6821L72.7374 57.0077H72.7469Z" fill="white"/>
<path d="M72.7469 63.38L72.7313 63.3926L72.3053 64.6106L73.33 63.8425V63.8359L73.3329 63.8425L74.3607 64.6106L73.9286 63.3926L73.9164 63.38H73.9196L74.9778 62.6615H73.6974H73.6942L73.2993 61.4309L72.9533 62.6615H71.6821L72.7374 63.38H72.7469Z" fill="white"/>
<path d="M73.9164 69.7584H73.9196L74.9778 69.0338H73.6974L73.691 69.0401L73.6942 69.0338L73.2993 67.8032L72.9533 69.0338H71.6821L72.7374 69.7584H72.7469L72.7313 69.7647L72.3053 70.9829L73.33 70.2209V70.2148L73.3329 70.2209L74.3607 70.9829L73.9286 69.7647L73.9164 69.7584Z" fill="white"/>
<path d="M66.158 63.38L66.1459 63.3926L65.717 64.6106L66.7447 63.8425L67.7691 64.6106L67.3431 63.3926L67.3307 63.38H67.3341L68.3894 62.6615H67.1087L66.7139 61.4309L66.3679 62.6615H65.0967L66.1522 63.38H66.158Z" fill="white"/>
<path d="M67.3307 69.7584H67.3341L68.3894 69.0338H67.1087L66.7139 67.8032L66.3679 69.0338H65.0967L66.1522 69.7584H66.158L66.1459 69.7647L65.717 70.9829L66.7447 70.2209L67.7691 70.9829L67.3431 69.7647L67.3307 69.7584Z" fill="white"/>
<path d="M90.3368 53.0963V53.0902L89.9448 51.8594L89.5993 53.0902H88.3276L89.3831 53.8087H89.3924L89.3771 53.8211L88.9511 55.0393L89.9755 54.277L91.0001 55.0393L90.5743 53.8211L90.5622 53.8087H90.5649L91.6235 53.0902H90.3399L90.3368 53.0963Z" fill="white"/>
<path d="M90.3368 59.4689L89.9448 58.238L89.5993 59.4689H88.3276L89.3831 60.1874H89.3924L89.3771 60.1998L88.9511 61.4182L89.9755 60.6496L91.0001 61.4182L90.5743 60.1998L90.5622 60.1874H90.5649L91.6235 59.4689H90.3399H90.3368Z" fill="white"/>
<path d="M90.3368 65.8539V65.8475L89.9448 64.623L89.5993 65.8539L88.3276 65.8475L89.3831 66.5721H89.3924L89.3771 66.5787L88.9511 67.8032L89.9755 67.0346L91.0001 67.8032L90.5743 66.5787L90.5622 66.5721H90.5649L91.6235 65.8475L90.3399 65.8539H90.3368Z" fill="white"/>
<path d="M91.6235 72.2391H90.3399L90.3368 72.2452V72.2391L89.9448 71.0081L89.5993 72.2391H88.3276L89.3831 72.9574H89.3924L89.3771 72.9635L88.9511 74.1882L89.9755 73.4196L91.0001 74.1882L90.5743 72.9635L90.5622 72.9574H90.5649L91.6235 72.2391Z" fill="white"/>
<path d="M89.3924 47.4613L89.3771 47.4737L88.9511 48.6921L89.9755 47.9298L91.0001 48.6921L90.5743 47.4737L90.5622 47.4613H90.5649L91.6235 46.7428H90.3399L90.3368 46.7489V46.7428L89.9448 45.512L89.5993 46.7428H88.3276L89.3831 47.4613H89.3924Z" fill="white"/>
<path d="M83.7882 53.0963V53.0902L83.3965 51.8594L83.0505 53.0902H81.7793L82.8348 53.8087H82.8406L82.8285 53.8211L82.4025 55.0393L83.4274 54.277L84.4518 55.0393L84.0226 53.8211L84.0134 53.8087H84.0168L85.072 53.0902H83.7914L83.7882 53.0963Z" fill="white"/>
<path d="M83.7882 59.4689L83.3965 58.238L83.0505 59.4689H81.7793L82.8348 60.1874H82.8406L82.8285 60.1998L82.4025 61.4182L83.4274 60.6496L84.4518 61.4182L84.0226 60.1998L84.0134 60.1874H84.0168L85.072 59.4689H83.7914H83.7882Z" fill="white"/>
<path d="M83.7882 65.8539V65.8475L83.3965 64.623L83.0505 65.8539L81.7793 65.8475L82.8348 66.5721H82.8406L82.8285 66.5787L82.4025 67.8032L83.4274 67.0346L84.4518 67.8032L84.0226 66.5787L84.0134 66.5721H84.0168L85.072 65.8475L83.7914 65.8539H83.7882Z" fill="white"/>
<path d="M85.072 72.2391H83.7914L83.7882 72.2452V72.2391L83.3965 71.0081L83.0505 72.2391H81.7793L82.8348 72.9574H82.8406L82.8285 72.9635L82.4025 74.1882L83.4274 73.4196L84.4518 74.1882L84.0226 72.9635L84.0134 72.9574H84.0168L85.072 72.2391Z" fill="white"/>
<path d="M84.0225 47.4746L84.4506 48.6915L83.4272 47.929L82.4038 48.6915L82.8291 47.4746L82.8407 47.46H82.8349L82.609 47.3046C83.1661 47.1023 83.7292 46.9146 84.3011 46.7417H85.0724L84.0166 47.4602H84.0137L84.0225 47.4746Z" fill="white"/>
<path d="M76.9774 53.0963V53.0902L76.5889 51.8594L76.237 53.0902H74.9719L76.024 53.8087H76.0301L76.0209 53.8211L75.5922 55.0393L76.6134 54.277V54.2707L76.6166 54.277L77.6441 55.0393L77.2123 53.8211L77.1999 53.8087H77.2057L78.2615 53.0902H76.9837L76.9774 53.0963Z" fill="white"/>
<path d="M76.9774 59.4689L76.5889 58.238L76.237 59.4689H74.9719L76.024 60.1874H76.0301L76.0209 60.1998L75.5922 61.4182L76.6134 60.6496H76.6166L77.6441 61.4182L77.2123 60.1998L77.1999 60.1874H77.2057L78.2615 59.4689H76.9837H76.9774Z" fill="white"/>
<path d="M76.9774 65.8539V65.8475L76.5889 64.623L76.237 65.8539L74.9719 65.8475L76.024 66.5721H76.0301L76.0209 66.5787L75.5922 67.8032L76.6134 67.0346V67.0285L76.6166 67.0346L77.6441 67.8032L77.2123 66.5787L77.1999 66.5721H77.2057L78.2615 65.8475L76.9837 65.8539H76.9774Z" fill="white"/>
<path d="M78.2615 72.2391H76.9837L76.9774 72.2452V72.2391L76.5889 71.0081L76.237 72.2391H74.9719L76.024 72.9574H76.0301L76.0209 72.9635L75.5922 74.1882L76.6134 73.4196V73.4135L76.6166 73.4196L77.6441 74.1882L77.2123 72.9635L77.1999 72.9574H77.2057L78.2615 72.2391Z" fill="white"/>
<path d="M69.9229 58.238L69.5774 59.4689H68.3123L69.3614 60.1874H69.3675L69.3583 60.1998L68.9294 61.4182L69.954 60.6496H69.9601L70.9784 61.4182L70.5524 60.1998L70.5402 60.1874H70.5432L71.6018 59.4689H70.318L69.9229 58.238Z" fill="white"/>
<path d="M70.318 65.8475L69.9229 64.623L69.5774 65.8539L68.3123 65.8475L69.3614 66.5721H69.3675L69.3583 66.5787L68.9294 67.8032L69.954 67.0346V67.0285L69.9601 67.0346L70.9784 67.8032L70.5524 66.5787L70.5402 66.5721H70.5432L71.6018 65.8475L70.318 65.8539V65.8475Z" fill="white"/>
<path d="M71.6018 72.2391H70.318L69.9229 71.0081L69.5774 72.2391H68.3123L69.3614 72.9574H69.3675L69.3583 72.9635L68.9294 74.1882L69.954 73.4196V73.4135L69.9601 73.4196L70.9784 74.1882L70.5524 72.9635L70.5402 72.9574H70.5432L71.6018 72.2391Z" fill="white"/>
<path d="M64.0321 66.579L64.4603 67.8018L63.4369 67.0334L63.4339 67.0276L63.431 67.0334L62.6216 67.6406C62.909 66.8049 63.2314 65.9838 63.5835 65.1772L63.7975 65.8488V65.8547H63.8004L65.0818 65.8488L64.0231 66.5732L64.0321 66.579Z" fill="white"/>
<path d="M65.0813 72.2391H63.8004L63.7972 72.2452V72.2391L63.4055 71.0081L63.0537 72.2391H61.7883L62.8438 72.9574H62.8499L62.8375 72.9635L62.4088 74.1882L63.4301 73.4196L63.4332 73.4135L63.4364 73.4196L64.4608 74.1882L64.0321 72.9635L64.0197 72.9574H64.0226L65.0813 72.2391Z" fill="white"/>
</g>
<path d="M154.448 16.1259C154.394 16.1259 154.295 16.1071 154.244 16.0858C153.97 15.9686 153.135 15.6122 154.801 8.48165C154.835 8.33763 154.945 8.2236 155.089 8.18524C158.999 7.12932 164.799 5.50116 167.604 4.58368C163.411 4.77722 153.6 5.76828 153.491 5.77944C153.375 5.79199 153.267 5.75503 153.183 5.6811C152.649 5.20893 149.991 2.78673 150.075 1.45568C150.113 0.862506 150.938 0.812988 151.708 0.812988C155.211 0.812988 168.001 2.88821 169.639 3.84405C169.658 3.85346 169.676 3.86462 169.694 3.87543C169.716 3.89043 169.737 3.90752 169.757 3.92739C169.765 3.93541 169.773 3.94308 169.779 3.95041C169.779 3.9511 169.779 3.95111 169.78 3.95111C169.797 3.97238 169.813 3.99504 169.826 4.01876C169.827 4.0205 169.828 4.02259 169.829 4.02503C169.831 4.02747 169.832 4.03061 169.834 4.03375C169.855 4.06618 169.87 4.1021 169.88 4.14011C169.939 4.36678 169.818 4.56415 169.692 4.7277C168.406 6.39632 155.781 16.1259 154.448 16.1259ZM155.531 8.89942C154.933 11.5071 154.449 14.4702 154.599 15.2653C156.22 14.5769 164.888 8.05691 168.008 5.2846C166.201 5.9116 162.628 6.98217 155.531 8.89942ZM150.895 1.67223C151.066 2.42511 152.483 3.96401 153.586 4.96065C154.903 4.82848 162.641 4.05746 166.828 3.81685C162.825 2.9318 154.867 1.61888 151.708 1.61888C151.261 1.61853 151.021 1.64677 150.895 1.67223Z" fill="#9886FE"/>
<path d="M151.975 12.1619C151.834 12.1619 151.709 12.1445 151.606 12.1061C151.385 12.0242 151.281 11.8773 151.231 11.7678C150.946 11.136 152.059 7.9452 153.043 5.37968C153.122 5.17219 153.357 5.06897 153.563 5.14778C153.77 5.22729 153.874 5.46023 153.795 5.66772C152.916 7.95636 152.016 10.668 151.975 11.3658C152.345 11.3902 153.496 11.0157 154.553 10.5257C154.755 10.4323 154.995 10.5194 155.088 10.721C155.181 10.9233 155.094 11.1625 154.893 11.2559C154.391 11.4892 152.867 12.1619 151.975 12.1619Z" fill="#9886FE"/>
<path d="M24.6369 145.147C24.6125 145.147 24.556 145.142 24.5316 145.137C23.3571 144.916 19.1561 131.837 18.4607 129.318C17.8132 126.969 17.9195 126.727 18.1469 126.526C18.1713 126.504 18.1981 126.486 18.2264 126.471C18.2602 126.451 18.2972 126.435 18.3348 126.425C18.3348 126.424 18.3348 126.424 18.3348 126.424C18.3411 126.423 18.3481 126.421 18.3575 126.42C18.3763 126.415 18.3962 126.412 18.4157 126.41C18.4551 126.405 18.4966 126.402 18.5172 126.402C19.8057 126.402 35.096 132.968 36.0912 134.695C36.2471 134.965 36.1721 135.174 36.1139 135.275C35.4461 136.43 31.8909 136.971 31.1851 137.068C31.0686 137.082 30.9609 137.051 30.8744 136.979C27.4507 134.161 22.2994 130.003 19.7883 128.149C21.611 130.465 25.539 135.045 28.2105 138.095C28.3082 138.206 28.3371 138.362 28.2845 138.501C26.6343 142.911 25.4072 145.147 24.6369 145.147ZM19.0685 128.516C20.1266 132.552 23.7243 142.788 24.6909 144.258C25.2565 143.679 26.4973 140.945 27.4458 138.443C22.6032 132.912 20.2235 130.04 19.0685 128.516ZM20.8732 127.965C23.4481 129.879 27.5996 133.241 31.2489 136.245C32.7233 136.026 34.7616 135.529 35.3153 134.996C34.7978 134.451 32.1591 132.934 27.2313 130.677C24.7077 129.521 22.4623 128.576 20.8732 127.965Z" fill="#9886FE"/>
<path d="M29.1015 143.31C29.0496 143.31 28.9938 143.303 28.9338 143.289C28.1527 143.104 27.0033 141.305 26.6696 140.758C26.5538 140.568 26.6138 140.32 26.8031 140.204C26.9942 140.087 27.2415 140.148 27.3569 140.338C27.9706 141.344 28.7193 142.284 29.0468 142.474C29.3655 141.95 30.1348 139.146 30.6823 136.717C30.7304 136.501 30.9459 136.361 31.1638 136.413C31.3801 136.462 31.5171 136.678 31.4676 136.895C30.8643 139.575 30.0208 142.846 29.4325 143.215C29.3578 143.262 29.2462 143.31 29.1015 143.31Z" fill="#9886FE"/>
<path d="M4.62744 142.176C4.62674 142.176 4.61628 142.176 4.61558 142.176C3.87142 142.173 3.17294 141.88 2.64881 141.352C2.12573 140.823 1.83839 140.122 1.84257 139.378C1.84885 137.849 3.09831 136.605 4.62744 136.605C5.38346 136.609 6.08194 136.901 6.60502 137.43C7.12915 137.958 7.41614 138.659 7.4123 139.402C7.40603 140.931 6.15657 142.176 4.62744 142.176ZM4.63581 137.411C3.53979 137.411 2.65265 138.295 2.64777 139.381C2.64532 139.911 2.84898 140.409 3.22141 140.784C3.59349 141.16 4.09006 141.368 4.61872 141.37L4.62744 141.773V141.37C5.71474 141.37 6.60188 140.486 6.60677 139.398C6.60921 138.87 6.40521 138.372 6.03312 137.997C5.66104 137.621 5.16447 137.413 4.63581 137.411Z" fill="#9886FE"/>
<path d="M112.71 24.6122C112.709 24.6122 112.699 24.6122 112.698 24.6122C111.954 24.609 111.255 24.3165 110.732 23.7878C110.208 23.2598 109.921 22.5589 109.925 21.8155C109.931 20.286 111.18 19.0417 112.71 19.0417C113.466 19.0449 114.164 19.3375 114.688 19.8661C115.211 20.3948 115.499 21.095 115.495 21.8392C115.489 23.3683 114.239 24.6122 112.71 24.6122ZM112.719 19.8469C111.623 19.8469 110.736 20.7313 110.731 21.8182C110.728 22.3469 110.932 22.8449 111.304 23.2201C111.676 23.596 112.173 23.8038 112.702 23.8063L112.71 24.2091V23.8063C113.798 23.8063 114.685 22.9219 114.69 21.8357C114.692 21.3063 114.488 20.8084 114.116 20.4331C113.744 20.0569 113.247 19.8494 112.719 19.8469Z" fill="#9886FE"/>
<path d="M34.4683 40.1258C34.4676 40.1258 34.4571 40.1258 34.4565 40.1258C33.7123 40.1227 33.0138 39.8301 32.4897 39.3015C31.9666 38.7735 31.6793 38.0726 31.6824 37.3291C31.6894 35.7996 32.9395 34.5554 34.468 34.5554C36.0156 34.5624 37.2591 35.8181 37.2528 37.3528C37.2469 38.882 35.9974 40.1258 34.4683 40.1258ZM34.477 35.361C33.3821 35.361 32.4939 36.2453 32.4883 37.3323C32.4858 37.8609 32.6895 38.3589 33.0626 38.7341C33.4347 39.11 33.9313 39.3179 34.4599 39.3203L34.4687 39.7231V39.3203C35.556 39.3203 36.4431 38.436 36.448 37.3497C36.4522 36.2586 35.5682 35.3665 34.477 35.361Z" fill="#9886FE"/>
<path d="M116.1 176C116.099 176 116.089 176 116.088 176C115.344 175.997 114.645 175.704 114.121 175.176C113.598 174.647 113.311 173.947 113.315 173.203C113.321 171.673 114.571 170.43 116.1 170.43C116.856 170.433 117.554 170.725 118.077 171.254C118.602 171.782 118.889 172.483 118.885 173.226C118.878 174.756 117.629 176 116.1 176ZM116.109 171.235C115.013 171.235 114.125 172.119 114.121 173.205C114.118 173.735 114.322 174.233 114.694 174.608C115.066 174.984 115.563 175.192 116.091 175.194L116.1 175.597V175.194C117.188 175.194 118.075 174.31 118.08 173.223C118.082 172.694 117.878 172.196 117.506 171.821C117.133 171.445 116.637 171.237 116.109 171.235Z" fill="#9886FE"/>
<path d="M145.334 72.9445C145.334 72.9445 145.323 72.9445 145.322 72.9445C144.578 72.9413 143.879 72.6487 143.356 72.1201C142.833 71.5914 142.545 70.8912 142.549 70.147C142.556 68.6176 143.805 67.374 145.334 67.374C146.09 67.3772 146.789 67.6697 147.313 68.1984C147.836 68.7271 148.123 69.428 148.119 70.1714C148.113 71.7006 146.863 72.9445 145.334 72.9445ZM145.343 68.1796C144.247 68.1796 143.359 69.0639 143.355 70.1502C143.352 70.6795 143.556 71.1775 143.928 71.5527C144.3 71.9286 144.797 72.1365 145.326 72.1389L145.334 72.5417V72.1389C146.422 72.1389 147.309 71.2546 147.314 70.1683C147.316 69.6389 147.112 69.141 146.74 68.7658C146.368 68.3895 145.871 68.182 145.343 68.1796Z" fill="#9886FE"/>
<path d="M14.8708 168.607C15.5539 168.67 16.237 168.627 16.8993 168.488C17.6982 169.68 18.8385 171.052 19.2747 171.262C19.7169 171.475 19.3898 169.368 19.0547 167.635C19.6189 167.293 20.1361 166.867 20.5887 166.362C22.4899 166.92 25.4659 167.383 26.1724 167.173C26.8614 166.968 24.1135 164.825 22.1517 163.382C22.3183 162.685 22.3741 161.978 22.3211 161.281C24.6167 160.221 27.3082 158.709 27.7929 158.123C28.286 157.527 24.5205 157.923 21.4009 158.339C21.0382 157.718 20.5775 157.15 20.0217 156.661C20.5395 155.303 21.0637 152.721 20.9134 152.136C20.7697 151.578 18.8573 153.899 17.7313 155.331C17.3341 155.194 16.9317 155.095 16.5258 155.034C16.009 153.2 15.1403 151.004 14.6772 150.559C14.2044 150.105 13.7413 152.935 13.4463 155.271C12.9699 155.421 12.512 155.626 12.0772 155.877C11.0199 154.907 9.58629 153.84 9.11238 153.738C8.61476 153.631 9.50922 155.758 10.2621 157.391C9.97092 157.738 9.71008 158.12 9.48551 158.534C9.45412 158.592 9.43076 158.651 9.40112 158.71C7.20838 158.405 4.93125 158.243 4.31611 158.421C3.66296 158.609 6.15804 160.018 8.68067 161.317C8.64858 161.782 8.66532 162.246 8.72705 162.704C7.15223 163.887 4.86638 166.194 4.61496 166.92C4.38027 167.596 7.69972 166.623 10.0152 165.872C10.4413 166.446 10.9599 166.961 11.5691 167.388C11.424 169.298 11.7724 172.893 12.1985 173.589C12.5814 174.213 13.9847 170.88 14.8708 168.607Z" fill="white"/>
<path d="M12.3206 174.068C12.1334 174.073 11.9611 173.972 11.8558 173.8C11.3798 173.022 11.0485 169.549 11.1531 167.584C10.6778 167.227 10.2475 166.811 9.86982 166.342C7.37195 167.144 5.72949 167.55 4.98672 167.55C4.77121 167.55 4.46608 167.523 4.29695 167.285C4.19548 167.142 4.17351 166.965 4.23488 166.787C4.53548 165.921 6.83039 163.671 8.30059 162.523C8.26746 162.202 8.25595 161.878 8.26607 161.557C3.73935 159.212 3.77701 158.822 3.81084 158.477C3.83141 158.265 3.97857 158.099 4.20489 158.034C4.41342 157.974 4.74157 157.944 5.20781 157.944C6.15876 157.944 7.62303 158.066 9.17029 158.272C9.35128 157.946 9.55981 157.63 9.79171 157.332C8.31593 154.097 8.51331 153.787 8.65872 153.56C8.76648 153.392 8.99698 153.305 9.19679 153.345C9.7938 153.473 11.1981 154.555 12.1337 155.387C12.442 155.224 12.7583 155.085 13.0794 154.971C13.7064 150.11 14.1674 150.109 14.5751 150.109C14.6727 150.109 14.8181 150.137 14.9566 150.27C15.5285 150.818 16.3867 153.133 16.8431 154.68C17.0942 154.728 17.3436 154.788 17.5891 154.862C20.1357 151.648 20.5587 151.649 20.8137 151.649C21.0504 151.649 21.2433 151.801 21.3039 152.036C21.4874 152.749 20.9538 155.203 20.4921 156.546C20.9162 156.949 21.2907 157.405 21.6084 157.906C24.0724 157.582 25.8394 157.417 26.8618 157.417C27.5847 157.417 28.0349 157.483 28.1936 157.819C28.2787 158 28.2448 158.21 28.104 158.38C27.5641 159.031 24.954 160.491 22.7386 161.531C22.7591 162.092 22.7135 162.656 22.6008 163.213C26.8168 166.33 26.7318 166.816 26.6753 167.138C26.6407 167.34 26.495 167.497 26.2875 167.559C26.1327 167.605 25.9199 167.627 25.6385 167.627C24.5181 167.627 22.3226 167.262 20.7153 166.817C20.3495 167.197 19.9429 167.536 19.5014 167.828C20.1047 171.024 19.8711 171.307 19.7155 171.495C19.6196 171.613 19.4795 171.679 19.3323 171.679C19.2716 171.679 19.1544 171.651 19.1004 171.624C18.548 171.359 17.4286 169.961 16.7152 168.933C16.1921 169.022 15.6697 169.054 15.1379 169.029C13.1652 174.043 12.6753 174.068 12.3206 174.068ZM10.0156 165.468C10.1408 165.468 10.2618 165.527 10.3388 165.631C10.7517 166.187 11.2434 166.667 11.8007 167.058C11.9171 167.14 11.9817 167.277 11.9715 167.418C11.8401 169.145 12.1107 171.978 12.413 173.039C12.7 172.613 13.32 171.475 14.4963 168.46C14.5615 168.293 14.7167 168.191 14.9085 168.205C15.5466 168.264 16.1869 168.225 16.817 168.094C16.976 168.06 17.1427 168.127 17.2341 168.263C17.8736 169.216 18.6202 170.128 19.0844 170.593C19.0655 170.16 18.971 169.321 18.6596 167.71C18.6282 167.545 18.7022 167.377 18.8462 167.289C19.3849 166.963 19.8704 166.56 20.2899 166.092C20.3931 165.976 20.5549 165.93 20.7028 165.975C22.2375 166.426 24.5442 166.821 25.6392 166.821C25.6587 166.821 25.6769 166.82 25.6943 166.82C25.3585 166.436 24.4372 165.561 21.9142 163.705C21.7834 163.609 21.7231 163.444 21.7608 163.287C21.9173 162.634 21.9707 161.969 21.9205 161.311C21.9072 161.144 22 160.985 22.1527 160.915C24.062 160.033 26.1421 158.883 27.0585 158.224C27.0003 158.222 26.9351 158.222 26.8625 158.222C25.854 158.222 23.9838 158.4 21.4556 158.738C21.2903 158.76 21.1362 158.681 21.0543 158.542C20.7042 157.943 20.2676 157.412 19.7563 156.964C19.6298 156.853 19.5855 156.675 19.6461 156.518C20.0897 155.352 20.4524 153.579 20.5263 152.703C20.1731 153.037 19.4421 153.809 18.0483 155.58C17.942 155.715 17.762 155.767 17.5999 155.712C17.2323 155.584 16.8508 155.49 16.4662 155.432C16.3103 155.408 16.1823 155.295 16.1391 155.143C15.6648 153.459 15.0092 151.832 14.6082 151.145C14.4509 151.588 14.1803 152.676 13.8477 155.321C13.8281 155.477 13.7193 155.608 13.569 155.655C13.1293 155.794 12.6958 155.985 12.2798 156.226C12.1281 156.314 11.936 156.293 11.8063 156.174C10.9613 155.398 10.0212 154.688 9.45868 154.345C9.58457 154.778 9.89144 155.621 10.6293 157.222C10.6945 157.363 10.6726 157.53 10.5728 157.649C10.2928 157.983 10.0473 158.345 9.84123 158.726L9.76346 158.89C9.6857 159.044 9.52598 159.132 9.34744 159.108C7.75519 158.887 6.16922 158.749 5.20955 158.749C5.1262 158.749 5.05053 158.751 4.98358 158.752C5.46516 159.097 6.52701 159.754 8.86656 160.959C9.00988 161.032 9.09532 161.184 9.08451 161.344C9.05452 161.776 9.06881 162.215 9.12775 162.648C9.14728 162.793 9.08765 162.937 8.97117 163.024C7.54491 164.097 5.76296 165.899 5.17851 166.734C5.95197 166.667 7.60559 166.229 9.89249 165.487C9.93189 165.475 9.97374 165.468 10.0156 165.468Z" fill="#9886FE"/>
<path d="M18.3584 159.723C18.1728 159.723 18.0058 159.594 17.965 159.405C17.8447 158.841 17.603 158.44 17.2466 158.213C16.7142 157.874 16.0673 158.015 16.061 158.016C15.8424 158.062 15.6282 157.931 15.578 157.715C15.5278 157.499 15.66 157.284 15.8755 157.232C15.9131 157.223 16.8432 157.007 17.67 157.527C18.2199 157.874 18.584 158.449 18.7531 159.236C18.7995 159.453 18.661 159.667 18.4431 159.715C18.4152 159.72 18.3866 159.723 18.3584 159.723Z" fill="#9886FE"/>
<path d="M15.1205 160.649C14.9507 160.649 14.7924 160.54 14.7373 160.369C14.5413 159.763 14.2407 159.376 13.8453 159.219C13.205 158.968 12.471 159.361 12.464 159.364C12.2711 159.472 12.025 159.403 11.9158 159.208C11.8081 159.014 11.8781 158.768 12.0724 158.661C12.1156 158.636 13.1429 158.074 14.1406 158.47C14.7725 158.719 15.2311 159.275 15.5041 160.122C15.5725 160.334 15.456 160.561 15.2447 160.629C15.2028 160.642 15.1613 160.649 15.1205 160.649Z" fill="#9886FE"/>
<path d="M19.3613 163.965C19.3143 163.965 19.2654 163.956 19.218 163.939C19.0102 163.859 18.9056 163.628 18.9844 163.419C19.1873 162.885 19.1912 162.435 18.9962 162.082C18.6447 161.446 17.7503 161.26 17.7415 161.258C17.5236 161.215 17.382 161.003 17.4253 160.785C17.4678 160.567 17.6746 160.425 17.8957 160.467C17.9476 160.478 19.1608 160.722 19.6978 161.686C20.0155 162.257 20.0291 162.936 19.738 163.706C19.6769 163.866 19.5242 163.965 19.3613 163.965Z" fill="#9886FE"/>
<path d="M60.2687 27.7238C60.9519 27.787 61.635 27.7437 62.2972 27.6049C63.0961 28.7962 64.2364 30.1687 64.6727 30.3786C65.1149 30.5914 64.7878 28.4847 64.4526 26.7516C65.0169 26.4095 65.534 25.9834 65.9867 25.4788C67.8879 26.0367 70.8638 26.4995 71.5703 26.2896C72.2594 26.0849 69.5115 23.9416 67.5496 22.4986C67.7163 21.8019 67.7721 21.0944 67.7191 20.398C70.0147 19.3382 72.7061 17.8262 73.1908 17.24C73.6839 16.644 69.9184 17.0395 66.7988 17.4555C66.4361 16.8348 65.9751 16.2667 65.4196 15.7778C65.9375 14.4195 66.4616 11.8373 66.3113 11.2528C66.1676 10.6938 64.2556 13.0156 63.1293 14.4478C62.7321 14.3104 62.3296 14.2117 61.9237 14.1503C61.4069 12.3161 60.5383 10.1209 60.0752 9.67593C59.6023 9.22155 59.1392 12.051 58.8442 14.3875C58.3678 14.5374 57.91 14.7425 57.4751 14.9935C56.4178 14.023 54.9842 12.9556 54.5103 12.8541C54.0127 12.7474 54.9075 14.8739 55.6601 16.507C55.3689 16.8543 55.108 17.2358 54.8835 17.6497C54.8521 17.7076 54.8287 17.7676 54.7991 17.8262C52.6063 17.521 50.3292 17.3592 49.7141 17.5367C49.0609 17.7254 51.556 19.1346 54.0786 20.4332C54.0465 20.8984 54.0633 21.3622 54.125 21.8193C52.5502 23.0029 50.2643 25.3093 50.0126 26.0354C49.7779 26.7122 53.0973 25.7386 55.4128 24.9875C55.8389 25.5618 56.3575 26.0768 56.9667 26.504C56.8216 28.4133 57.17 32.0089 57.5961 32.7046C57.979 33.3298 59.3823 29.9964 60.2687 27.7238Z" fill="white"/>
<path d="M57.7176 33.1849C57.494 33.1755 57.358 33.089 57.2527 32.9168C56.7767 32.1395 56.4465 28.6663 56.5511 26.7012C56.0758 26.3448 55.6465 25.9288 55.2682 25.4591C52.7696 26.2608 51.1271 26.6674 50.3844 26.6674C50.1696 26.6674 49.8644 26.6399 49.6946 26.4013C49.5931 26.2591 49.5712 26.0826 49.6325 25.9048C49.9331 25.0378 52.2277 22.7879 53.6989 21.6399C53.6658 21.3181 53.654 20.9941 53.6644 20.6733C49.137 18.3288 49.1757 17.9386 49.2095 17.5934C49.2301 17.3817 49.3769 17.2157 49.6036 17.1505C49.8121 17.0905 50.1399 17.0609 50.6058 17.0609C51.5568 17.0609 53.0217 17.183 54.5683 17.389C54.7517 17.0595 54.9599 16.7439 55.1908 16.4489C53.715 13.2131 53.9124 12.9042 54.0578 12.6775C54.1655 12.5084 54.3929 12.4209 54.5958 12.4613C55.1929 12.5896 56.5971 13.6728 57.5324 14.5034C57.8424 14.3399 58.158 14.2007 58.4771 14.0874C59.1055 9.22555 59.5665 9.22485 59.9734 9.22485C60.0711 9.22485 60.2165 9.2531 60.3549 9.38596C60.9275 9.93729 61.7861 12.251 62.2415 13.7962C62.4933 13.8443 62.7419 13.9047 62.9874 13.9786C65.5317 10.7658 65.9564 10.7658 66.212 10.7658C66.4488 10.7658 66.6406 10.9175 66.7013 11.1536C66.8847 11.8657 66.3518 14.3193 65.8894 15.6622C66.3152 16.0674 66.6894 16.5228 67.0067 17.0222C69.4708 16.6982 71.2374 16.5336 72.2602 16.5336C72.9831 16.5336 73.4322 16.5996 73.5912 16.9357C73.6763 17.1167 73.6425 17.3259 73.5016 17.4968C72.9109 18.211 70.0465 19.7492 68.1362 20.6482C68.1568 21.21 68.1111 21.7731 67.9985 22.3293C72.2145 25.4469 72.1294 25.9323 72.0729 26.2549C72.0384 26.4561 71.8926 26.6137 71.6851 26.6758C71.5303 26.7214 71.3186 26.7441 71.0376 26.7441C69.9189 26.7441 67.7234 26.379 66.1137 25.933C65.7472 26.3145 65.3402 26.6538 64.8998 26.9446C65.5024 30.1403 65.2694 30.4234 65.1128 30.6121C65.0152 30.731 64.8792 30.7962 64.7296 30.7962C64.6689 30.7962 64.5518 30.768 64.4977 30.7411C63.9439 30.4744 62.8253 29.0781 62.1132 28.0497C61.589 28.1393 61.0614 28.1707 60.5359 28.1456C58.5632 33.1598 58.0733 33.1849 57.7176 33.1849ZM55.4132 24.5856C55.5384 24.5856 55.6594 24.6438 55.7365 24.7484C56.1504 25.3053 56.6421 25.7862 57.1983 26.1754C57.3148 26.2563 57.3793 26.3933 57.3692 26.5356C57.2377 28.2624 57.5083 31.0954 57.8096 32.1566C58.0966 31.7301 58.7174 30.5926 59.8936 27.5772C59.9581 27.4098 60.1164 27.309 60.3058 27.3223C60.9446 27.3819 61.5835 27.3429 62.2143 27.2107C62.3747 27.1793 62.54 27.2438 62.6314 27.3805C63.2702 28.3332 64.0168 29.2451 64.4817 29.71C64.4628 29.2772 64.3683 28.4385 64.0569 26.8275C64.0255 26.6622 64.0995 26.4937 64.2435 26.4066C64.7809 26.0809 65.2663 25.6781 65.6872 25.2091C65.7911 25.0933 65.9533 25.0486 66.1001 25.0919C67.6616 25.5505 70.0204 25.9313 71.0909 25.9375C70.7551 25.5529 69.8338 24.678 67.3108 22.8221C67.18 22.7262 67.1197 22.5616 67.1574 22.4043C67.314 21.7522 67.3673 21.0876 67.3171 20.4281C67.3045 20.2597 67.3973 20.1024 67.55 20.0316C69.4593 19.1504 71.5394 17.999 72.4558 17.3413C72.3969 17.3395 72.3324 17.3388 72.2598 17.3388C71.2513 17.3388 69.3812 17.5174 66.8523 17.8549C66.6887 17.8769 66.5335 17.7991 66.4509 17.6583C66.1025 17.0626 65.6659 16.5309 65.1536 16.0793C65.0271 15.9684 64.9838 15.7905 65.0435 15.6339C65.487 14.4689 65.849 12.695 65.9229 11.8193C65.5697 12.1537 64.8388 12.9255 63.4456 14.6962C63.341 14.8315 63.1593 14.8849 62.9972 14.8284C62.6296 14.7011 62.2492 14.6066 61.8635 14.5484C61.7076 14.5247 61.5796 14.4113 61.5364 14.2596C61.0628 12.5778 60.4065 10.9493 60.0055 10.2616C59.8482 10.7052 59.5783 11.7925 59.2439 14.4382C59.2244 14.5948 59.1149 14.7252 58.9646 14.7719C58.5287 14.9097 58.0952 15.1015 57.6768 15.3431C57.524 15.4303 57.3329 15.4101 57.2032 15.2905C56.3583 14.5149 55.4181 13.8042 54.8556 13.4614C54.9815 13.8949 55.2877 14.7367 56.0263 16.3391C56.0915 16.4806 56.0695 16.6473 55.9687 16.7669C55.6919 17.0951 55.4464 17.457 55.2378 17.8424L55.1583 18.0084C55.0813 18.1618 54.9209 18.2476 54.743 18.2256C53.1508 18.0038 51.5655 17.8661 50.6051 17.8661C50.5225 17.8661 50.4468 17.8678 50.3791 17.8692C50.8614 18.2145 51.9233 18.8714 54.2632 20.0759C54.4065 20.1492 54.4919 20.3008 54.4811 20.4613C54.4511 20.893 54.4654 21.332 54.5244 21.7655C54.5439 21.9102 54.4843 22.0542 54.3678 22.1414C52.9415 23.2137 51.1589 25.0159 50.5744 25.8514C51.3468 25.7837 53.0015 25.3465 55.2891 24.6044C55.3299 24.5918 55.3717 24.5856 55.4132 24.5856Z" fill="#9886FE"/>
<path d="M63.7563 18.8408C63.5708 18.8408 63.4037 18.7118 63.3629 18.5221C63.2426 17.9589 63.0009 17.5575 62.6446 17.3308C62.1121 16.9901 61.4638 17.1317 61.4582 17.1335C61.241 17.1805 61.0255 17.0484 60.9752 16.8322C60.925 16.6167 61.0572 16.4012 61.2727 16.3492C61.3114 16.3405 62.2418 16.125 63.0679 16.6449C63.6178 16.9912 63.9822 17.5662 64.1514 18.3536C64.1978 18.5709 64.0593 18.7846 63.8414 18.8321C63.8128 18.8373 63.7845 18.8408 63.7563 18.8408Z" fill="#9886FE"/>
<path d="M60.5182 19.7657C60.3484 19.7657 60.1901 19.6573 60.135 19.4864C59.939 18.88 59.6384 18.4929 59.243 18.3363C58.6027 18.0852 57.8687 18.4779 57.8617 18.481C57.6689 18.5888 57.4227 18.5198 57.3135 18.3252C57.2058 18.1309 57.2758 17.8854 57.4701 17.7777C57.5133 17.7533 58.5417 17.1922 59.5383 17.5873C60.1702 17.8359 60.6288 18.3921 60.9018 19.2392C60.9702 19.4508 60.8537 19.6782 60.642 19.7458C60.6009 19.7591 60.5594 19.7657 60.5182 19.7657Z" fill="#9886FE"/>
<path d="M64.7593 23.0808C64.7122 23.0808 64.6634 23.0721 64.616 23.055C64.4081 22.9755 64.3035 22.7436 64.3823 22.535C64.5853 22.0008 64.5891 21.551 64.3942 21.1984C64.0427 20.5627 63.1479 20.3772 63.1395 20.3747C62.9215 20.3315 62.78 20.1198 62.8232 19.9019C62.8657 19.6839 63.0718 19.5416 63.2936 19.5842C63.3456 19.5943 64.5588 19.8391 65.0958 20.8036C65.4135 21.3731 65.4271 22.0521 65.1359 22.8213C65.0749 22.9817 64.9214 23.0808 64.7593 23.0808Z" fill="#9886FE"/>
<path d="M165.175 159.408C165.858 159.471 166.541 159.427 167.203 159.289C168.002 160.48 169.142 161.853 169.578 162.062C170.02 162.275 169.693 160.169 169.358 158.435C169.922 158.093 170.44 157.667 170.892 157.163C172.793 157.721 175.769 158.183 176.476 157.973C177.165 157.768 174.417 155.625 172.455 154.182C172.622 153.486 172.678 152.779 172.625 152.082C174.92 151.022 177.612 149.51 178.096 148.924C178.589 148.327 174.824 148.723 171.704 149.139C171.342 148.519 170.881 147.951 170.325 147.462C170.843 146.103 171.367 143.521 171.217 142.937C171.073 142.378 169.161 144.699 168.035 146.132C167.638 145.994 167.235 145.896 166.829 145.834C166.312 144 165.444 141.805 164.981 141.36C164.508 140.905 164.045 143.735 163.75 146.072C163.273 146.222 162.816 146.427 162.381 146.678C161.323 145.707 159.89 144.64 159.416 144.538C158.918 144.432 159.813 146.558 160.566 148.191C160.274 148.538 160.014 148.92 159.789 149.334C159.758 149.392 159.734 149.452 159.705 149.51C157.512 149.205 155.235 149.043 154.62 149.221C153.966 149.41 156.462 150.819 158.984 152.117C158.952 152.583 158.969 153.046 159.031 153.504C157.456 154.687 155.17 156.994 154.918 157.72C154.683 158.396 158.003 157.423 160.318 156.672C160.744 157.246 161.263 157.761 161.872 158.188C161.727 160.097 162.076 163.693 162.502 164.389C162.885 165.013 164.288 161.68 165.175 159.408Z" fill="white"/>
<path d="M162.624 164.868C162.622 164.868 162.62 164.868 162.618 164.868C162.431 164.868 162.264 164.771 162.159 164.6C161.682 163.822 161.352 160.35 161.458 158.385C160.982 158.028 160.551 157.612 160.174 157.143C157.677 157.945 156.034 158.352 155.29 158.352C155.075 158.352 154.77 158.324 154.6 158.086C154.499 157.944 154.477 157.766 154.538 157.589C154.84 156.721 157.134 154.471 158.604 153.325C158.571 153.001 158.56 152.676 158.569 152.357C154.043 150.012 154.081 149.622 154.114 149.277C154.135 149.065 154.282 148.9 154.508 148.834C154.717 148.775 155.045 148.745 155.51 148.745C156.463 148.745 157.928 148.866 159.474 149.073C159.656 148.744 159.865 148.429 160.095 148.133C158.62 144.898 158.818 144.589 158.963 144.361C159.071 144.192 159.304 144.106 159.501 144.145C160.099 144.273 161.502 145.357 162.438 146.188C162.746 146.025 163.062 145.886 163.384 145.772C164.012 140.91 164.472 140.91 164.879 140.91C164.977 140.91 165.122 140.938 165.261 141.071C165.833 141.621 166.691 143.934 167.147 145.48C167.397 145.527 167.647 145.589 167.893 145.663C170.44 142.45 170.863 142.45 171.119 142.45C171.355 142.45 171.547 142.602 171.608 142.837C171.791 143.551 171.258 146.004 170.796 147.347C171.221 147.751 171.595 148.207 171.913 148.707C174.376 148.382 176.143 148.218 177.167 148.218C177.889 148.218 178.339 148.284 178.498 148.621C178.583 148.801 178.549 149.01 178.408 149.181C177.869 149.832 175.259 151.292 173.043 152.332C173.063 152.893 173.018 153.457 172.905 154.014C177.121 157.132 177.036 157.616 176.979 157.94C176.945 158.141 176.799 158.298 176.592 158.36C176.437 158.406 176.225 158.428 175.943 158.428C174.824 158.428 172.628 158.064 171.019 157.618C170.653 157.999 170.246 158.338 169.806 158.629C170.408 161.826 170.175 162.108 170.02 162.297C169.924 162.413 169.784 162.48 169.636 162.48C169.576 162.48 169.459 162.452 169.404 162.425C168.851 162.16 167.732 160.763 167.02 159.735C166.497 159.824 165.97 159.856 165.442 159.831C163.471 164.843 162.98 164.868 162.624 164.868ZM160.319 156.27C160.444 156.27 160.565 156.328 160.642 156.433C161.055 156.989 161.548 157.469 162.105 157.859C162.221 157.94 162.286 158.078 162.276 158.22C162.143 159.946 162.414 162.778 162.716 163.84C163.003 163.415 163.624 162.277 164.799 159.261C164.865 159.094 165.02 158.992 165.211 159.006C165.85 159.065 166.49 159.027 167.121 158.895C167.279 158.861 167.446 158.928 167.538 159.065C168.177 160.017 168.923 160.928 169.387 161.393C169.369 160.961 169.274 160.122 168.963 158.512C168.931 158.346 169.005 158.178 169.149 158.091C169.687 157.765 170.172 157.362 170.593 156.893C170.696 156.777 170.859 156.732 171.006 156.776C172.542 157.226 174.849 157.622 175.943 157.622C175.962 157.622 175.979 157.622 175.996 157.621C175.66 157.236 174.739 156.361 172.217 154.507C172.086 154.411 172.026 154.246 172.063 154.089C172.22 153.436 172.273 152.77 172.223 152.112C172.21 151.945 172.303 151.786 172.455 151.715C174.365 150.834 176.445 149.683 177.362 149.025C177.303 149.023 177.237 149.023 177.166 149.023C176.157 149.023 174.287 149.201 171.758 149.539C171.595 149.562 171.439 149.483 171.357 149.342C171.008 148.746 170.572 148.215 170.059 147.765C169.932 147.654 169.888 147.475 169.948 147.318C170.392 146.154 170.755 144.38 170.829 143.504C170.475 143.838 169.744 144.61 168.351 146.381C168.244 146.516 168.065 146.568 167.903 146.513C167.533 146.384 167.151 146.291 166.769 146.233C166.613 146.209 166.485 146.095 166.441 145.944C165.968 144.262 165.312 142.633 164.91 141.946C164.754 142.39 164.483 143.477 164.149 146.122C164.13 146.279 164.021 146.409 163.871 146.456C163.43 146.595 162.997 146.787 162.581 147.027C162.43 147.115 162.237 147.095 162.108 146.975C161.261 146.198 160.319 145.486 159.758 145.143C159.883 145.576 160.19 146.415 160.931 148.024C160.996 148.165 160.974 148.331 160.873 148.451C160.596 148.782 160.35 149.144 160.142 149.526L160.064 149.69C159.987 149.845 159.825 149.933 159.648 149.909C158.058 149.688 156.472 149.55 155.509 149.55C155.427 149.55 155.352 149.551 155.285 149.553C155.767 149.898 156.829 150.555 159.168 151.759C159.311 151.833 159.396 151.984 159.385 152.145C159.355 152.573 159.37 153.012 159.429 153.451C159.448 153.595 159.389 153.739 159.272 153.826C157.846 154.897 156.064 156.7 155.479 157.536C156.253 157.468 157.907 157.031 160.193 156.289C160.236 156.276 160.277 156.27 160.319 156.27Z" fill="#9886FE"/>
<path d="M168.662 150.524C168.477 150.524 168.31 150.395 168.269 150.205C168.148 149.639 167.904 149.237 167.545 149.01C167.01 148.674 166.373 148.814 166.366 148.816C166.146 148.864 165.932 148.734 165.881 148.518C165.829 148.303 165.963 148.085 166.179 148.033C166.218 148.024 167.148 147.809 167.974 148.329C168.524 148.675 168.888 149.249 169.057 150.037C169.103 150.254 168.965 150.468 168.747 150.515C168.719 150.521 168.69 150.524 168.662 150.524Z" fill="#9886FE"/>
<path d="M165.425 151.449C165.255 151.449 165.096 151.34 165.041 151.17C164.846 150.565 164.547 150.179 164.152 150.022C163.51 149.764 162.773 150.162 162.766 150.166C162.571 150.271 162.327 150.202 162.219 150.006C162.112 149.812 162.182 149.568 162.375 149.46C162.419 149.436 163.445 148.878 164.444 149.27C165.075 149.52 165.535 150.075 165.807 150.923C165.876 151.134 165.759 151.361 165.548 151.429C165.507 151.443 165.466 151.449 165.425 151.449Z" fill="#9886FE"/>
<path d="M169.665 154.765C169.617 154.765 169.569 154.756 169.522 154.739C169.314 154.66 169.209 154.428 169.288 154.219C169.492 153.684 169.496 153.233 169.299 152.879C168.948 152.249 168.055 152.06 168.047 152.059C167.828 152.016 167.686 151.805 167.727 151.587C167.77 151.367 167.991 151.227 168.199 151.267C168.251 151.277 169.465 151.523 170.003 152.487C170.32 153.058 170.334 153.737 170.042 154.505C169.981 154.666 169.827 154.765 169.665 154.765Z" fill="#9886FE"/>
<path d="M56.4602 53.1993C56.1607 53.1993 55.8772 53.1993 55.0842 50.0406C52.4064 49.5252 52.1717 49.2114 52.0939 49.1061C52.0182 49.0053 51.9862 48.8205 52.0207 48.7002C52.0688 48.5293 52.1804 48.1332 55.239 46.9001C56.3371 44.0371 56.7078 44.0371 56.9547 44.0371C57.082 44.0371 57.2574 44.1292 57.3338 44.2306C57.5297 44.4943 57.7076 45.1795 57.9771 46.2769C58.0622 46.6215 58.1644 47.0378 58.2233 47.2195C58.3831 47.291 58.7387 47.4186 59.0327 47.5239C60.6054 48.0871 61.0103 48.2793 61.0835 48.652C61.1111 48.7912 61.0396 48.9959 60.9339 49.0904C60.6145 49.3767 59.093 49.9416 58.2962 50.2255C57.0014 53.1707 56.7266 53.1857 56.4829 53.1983C56.477 53.1993 56.4682 53.1993 56.4602 53.1993ZM53.1153 48.7591C53.6496 48.9139 54.6305 49.1375 55.4873 49.2972C55.6421 49.3261 55.7666 49.4426 55.8043 49.596C56.0229 50.4825 56.3092 51.4934 56.5146 52.0646C56.8114 51.5321 57.2626 50.5825 57.6295 49.7421C57.6745 49.64 57.7592 49.5605 57.8645 49.5235C58.5961 49.2661 59.4229 48.9492 59.9342 48.7249C59.5746 48.5732 59.0805 48.3961 58.7621 48.2821C57.8659 47.9602 57.6968 47.8911 57.5821 47.7377C57.4813 47.6024 57.4192 47.3768 57.1957 46.4687C57.1106 46.1242 56.9802 45.5938 56.8654 45.2004C56.598 45.7078 56.2221 46.5796 55.9302 47.3506C55.8901 47.457 55.8074 47.5403 55.7028 47.5825C54.7532 47.9616 53.6747 48.4453 53.1153 48.7591Z" fill="#9886FE"/>
<path d="M144.998 159.533C144.699 159.533 144.415 159.533 143.622 156.374C140.944 155.859 140.71 155.545 140.632 155.439C140.556 155.339 140.524 155.154 140.559 155.034C140.607 154.863 140.719 154.466 143.778 153.233C144.876 150.371 145.246 150.371 145.493 150.371C145.621 150.371 145.796 150.462 145.872 150.564C146.068 150.828 146.246 151.513 146.515 152.608C146.601 152.953 146.703 153.371 146.762 153.553C146.922 153.624 147.279 153.753 147.574 153.859C149.144 154.422 149.548 154.613 149.621 154.986C149.649 155.126 149.577 155.33 149.471 155.425C149.152 155.71 147.631 156.275 146.835 156.559C145.539 159.506 145.264 159.52 145.02 159.532C145.014 159.533 145.005 159.533 144.998 159.533ZM141.653 155.092C142.187 155.247 143.168 155.471 144.025 155.631C144.18 155.66 144.304 155.776 144.342 155.929C144.561 156.817 144.847 157.827 145.052 158.399C145.349 157.866 145.802 156.916 146.168 156.076C146.213 155.973 146.298 155.894 146.403 155.857C147.135 155.6 147.961 155.283 148.472 155.058C148.114 154.907 147.622 154.731 147.304 154.617C146.404 154.294 146.235 154.224 146.12 154.069C146.021 153.935 145.957 153.709 145.734 152.8C145.65 152.457 145.519 151.927 145.404 151.534C145.137 152.042 144.761 152.913 144.469 153.684C144.429 153.79 144.346 153.874 144.242 153.916C143.291 154.295 142.213 154.779 141.653 155.092Z" fill="#9886FE"/>
<path d="M5.61924 106.294C5.61924 106.294 4.86356 100.558 10.3855 102.414C15.9075 104.27 14.1081 109.523 12.0029 107.725C9.89766 105.928 13.8476 99.8317 18.0734 102.546C22.2991 105.26 21.3538 110.528 18.3565 110.917C15.3593 111.306 20.1709 104.784 23.9468 108.812C27.7227 112.839 19.4787 120.182 16.1076 117.482C12.7362 114.783 15.3746 110.425 16.1833 113.081C16.992 115.737 14.8111 118.341 8.83163 118.238C2.85216 118.135 5.5739 108.936 7.66412 111.613C9.75434 114.291 6.28424 117.314 2.06649 114.159C-2.15195 111.004 2.65966 104.483 5.61924 106.294Z" fill="white"/>
<path d="M9.17203 118.644L8.82436 118.64C6.85933 118.607 5.47527 117.602 4.98358 115.871C3.95207 115.738 2.86651 115.261 1.82419 114.481C0.16429 113.24 -0.398193 111.356 0.281459 109.312C0.977501 107.218 2.83338 105.579 4.50618 105.579C4.73913 105.579 4.96405 105.61 5.1813 105.669C5.17642 104.864 5.30649 103.52 6.11133 102.601C7.02079 101.562 8.51714 101.359 10.5136 102.033C11.2752 102.288 11.9436 102.62 12.5054 103.022C14.1033 101.344 16.3752 100.978 18.2917 102.207C20.1176 103.38 21.2276 105.183 21.3252 107.093C22.3951 107.128 23.376 107.613 24.2416 108.537C25.4223 109.797 25.6403 111.489 24.8542 113.303C23.6623 116.054 20.4063 118.468 17.8865 118.468C17.0942 118.468 16.4114 118.242 15.8559 117.798C15.5965 117.59 15.3611 117.365 15.1533 117.128C13.8295 118.12 11.7745 118.644 9.17203 118.644ZM5.83898 115.9C6.18282 116.852 6.9908 117.803 8.83866 117.834L9.17238 117.838C12.1571 117.838 13.7936 117.142 14.6752 116.477C13.8396 115.113 13.9059 113.624 14.3753 112.7C14.649 112.16 15.0486 111.851 15.4713 111.851C15.7544 111.851 16.2737 111.996 16.5687 112.963C16.9739 114.295 16.6765 115.596 15.7537 116.589C15.9323 116.794 16.1345 116.987 16.3595 117.167C16.7685 117.496 17.2822 117.662 17.8865 117.662C20.0852 117.662 23.0542 115.43 24.1157 112.981C24.5749 111.92 24.8685 110.383 23.6533 109.087C22.9422 108.328 22.1531 107.928 21.3057 107.897C21.1184 109.732 19.9666 111.114 18.4092 111.316C17.3864 111.447 17.0374 110.909 17.0168 110.409C16.9736 109.324 18.5288 107.504 20.5225 107.15C20.4437 105.494 19.4666 103.919 17.8565 102.885C16.2751 101.868 14.4649 102.166 13.1293 103.536C14.4272 104.78 14.6682 106.309 14.3031 107.331C14.0464 108.05 13.4951 108.497 12.865 108.497C12.865 108.497 12.865 108.497 12.8643 108.497C12.4866 108.497 12.0988 108.336 11.7424 108.031C10.5756 107.035 10.9449 105.097 11.9904 103.642C11.5036 103.302 10.9219 103.018 10.2579 102.795C8.5956 102.236 7.40787 102.344 6.71775 103.131C5.76575 104.217 6.01683 106.222 6.01997 106.241C6.0395 106.395 5.96975 106.548 5.83968 106.632C5.70891 106.717 5.54222 106.718 5.41006 106.638C5.13562 106.469 4.83119 106.384 4.50688 106.384C3.1821 106.384 1.62995 107.811 1.0469 109.565C0.780127 110.366 0.369685 112.386 2.30786 113.835C3.14792 114.463 4.00786 114.87 4.82386 115.028C4.68159 113.687 5.02508 112.217 5.71345 111.363C6.0517 110.942 6.4468 110.721 6.85724 110.721C7.1411 110.721 7.56688 110.832 7.98221 111.364C8.72951 112.322 8.89864 113.402 8.44635 114.328C8.00383 115.236 7.01905 115.823 5.83898 115.9ZM15.4713 112.657C15.4155 112.657 15.2502 112.756 15.0936 113.065C14.7554 113.731 14.6978 114.855 15.2784 115.911C15.918 115.148 16.1028 114.2 15.7977 113.198C15.6606 112.749 15.5051 112.657 15.4713 112.657ZM6.85689 111.527C6.70102 111.527 6.51794 111.648 6.34079 111.869C5.8348 112.496 5.46376 113.835 5.6437 115.103C6.59884 115.082 7.39078 114.655 7.72206 113.976C8.03347 113.337 7.89677 112.566 7.34615 111.861C7.22723 111.709 7.0466 111.527 6.85689 111.527ZM20.4841 107.979C18.903 108.343 17.7976 109.792 17.8213 110.376C17.8244 110.445 17.8276 110.53 18.1139 110.53C18.1728 110.53 18.2366 110.526 18.305 110.517C19.4376 110.371 20.2881 109.354 20.4841 107.979ZM12.6107 104.156C11.7233 105.404 11.5534 106.812 12.2638 107.419C12.798 107.872 13.311 107.711 13.5436 107.06C13.8152 106.299 13.6154 105.143 12.6107 104.156Z" fill="#9886FE"/>
<path d="M151.545 45.3626C151.545 45.3626 150.789 39.6258 156.311 41.482C161.833 43.3383 160.034 48.591 157.929 46.7934C155.824 44.9961 159.774 38.8998 163.999 41.6142C168.225 44.3286 167.28 49.596 164.282 49.9848C161.285 50.3736 166.097 43.8519 169.873 47.8796C173.649 51.9073 165.405 59.2503 162.034 56.5505C158.662 53.8507 161.301 49.4931 162.109 52.149C162.918 54.8048 160.737 57.409 154.758 57.3058C148.778 57.2029 151.5 48.0034 153.59 50.6812C155.68 53.359 152.21 56.3814 147.992 53.2265C143.774 50.072 148.586 43.5506 151.545 45.3626Z" fill="white"/>
<path d="M155.098 57.7118L154.75 57.7087C152.785 57.6749 151.401 56.6702 150.909 54.9388C149.878 54.8059 148.792 54.3293 147.75 53.5495C146.09 52.3081 145.528 50.4233 146.207 48.3794C147 45.9966 149.324 44.2454 151.107 44.7371C151.103 43.9315 151.233 42.5869 152.037 41.669C152.948 40.6312 154.444 40.4276 156.439 41.1003C157.201 41.3559 157.869 41.6879 158.431 42.0892C160.03 40.4129 162.301 40.0461 164.217 41.2757C166.043 42.4488 167.153 44.2509 167.251 46.1612C168.321 46.1968 169.301 46.6812 170.167 47.6049C171.348 48.8645 171.566 50.5565 170.781 52.3691C169.588 55.1208 166.332 57.5354 163.811 57.5361C163.02 57.5361 162.337 57.3104 161.782 56.8658C161.522 56.6573 161.287 56.4331 161.079 56.1949C159.754 57.1887 157.7 57.7118 155.098 57.7118ZM151.765 54.9684C152.109 55.9204 152.917 56.8714 154.764 56.9028L155.098 56.9059C158.083 56.9059 159.719 56.2106 160.601 55.5456C159.765 54.1807 159.832 52.6924 160.301 51.7679C160.575 51.2281 160.975 50.9181 161.397 50.9181C161.681 50.9181 162.2 51.0628 162.495 52.0305C162.9 53.3623 162.603 54.6644 161.68 55.6572C161.858 55.8619 162.061 56.0554 162.286 56.2353C162.695 56.5635 163.208 56.7295 163.812 56.7295C166.012 56.7288 168.981 54.4977 170.042 52.0479C170.501 50.9868 170.794 49.4503 169.579 48.1545C168.868 47.396 168.079 46.9964 167.232 46.965C167.045 48.7996 165.893 50.1819 164.335 50.3839C163.314 50.5143 162.963 49.9772 162.943 49.4768C162.899 48.392 164.455 46.5724 166.448 46.2184C166.369 44.5616 165.392 42.9865 163.782 41.9529C162.201 40.9364 160.391 41.2338 159.055 42.6025C160.354 43.8478 160.594 45.3766 160.229 46.3983C159.972 47.1174 159.421 47.5641 158.79 47.5641C158.79 47.5641 158.79 47.5641 158.79 47.5641C158.412 47.5641 158.024 47.4037 157.668 47.0986C156.501 46.1026 156.87 44.1648 157.916 42.7096C157.429 42.3706 156.847 42.0857 156.183 41.8622C154.523 41.3046 153.335 41.4113 152.644 42.1991C151.691 43.2857 151.942 45.2891 151.945 45.3089C151.965 45.4631 151.895 45.6151 151.765 45.6992C151.635 45.7843 151.467 45.7863 151.335 45.7054C151.061 45.537 150.757 45.4523 150.433 45.4523C149.108 45.4523 147.555 46.8792 146.972 48.6336C146.706 49.4346 146.295 51.4548 148.233 52.9037C149.073 53.5321 149.933 53.9383 150.749 54.0963C150.607 52.7551 150.951 51.2846 151.639 50.4302C151.977 50.0111 152.372 49.7889 152.782 49.7889C153.067 49.7889 153.493 49.9005 153.908 50.4323C154.655 51.3906 154.824 52.4706 154.372 53.3964C153.93 54.3045 152.945 54.8914 151.765 54.9684ZM161.397 51.7243C161.341 51.7243 161.176 51.8241 161.019 52.1334C160.682 52.798 160.624 53.923 161.204 54.9796C161.844 54.2156 162.029 53.2678 161.723 52.2655C161.586 51.8164 161.431 51.7243 161.397 51.7243ZM152.782 50.5952C152.627 50.5952 152.444 50.7162 152.267 50.9366C151.761 51.5636 151.39 52.9026 151.569 54.1706C152.525 54.15 153.317 53.7228 153.648 53.0439C153.959 52.405 153.823 51.634 153.272 50.9285C153.153 50.7772 152.972 50.5952 152.782 50.5952ZM166.41 47.0473C164.828 47.4114 163.723 48.8606 163.747 49.4444C163.75 49.5138 163.753 49.5985 164.039 49.5985C164.098 49.5985 164.162 49.5947 164.23 49.5853C165.363 49.4381 166.214 48.4223 166.41 47.0473ZM158.537 43.224C157.649 44.4724 157.48 45.8805 158.19 46.4873C158.723 46.9413 159.237 46.7785 159.469 46.1284C159.741 45.3668 159.541 44.2112 158.537 43.224Z" fill="#9886FE"/>
<path d="M118.161 53.6177C117.989 53.6177 117.83 53.5075 117.777 53.3359C117.768 53.3101 117.578 52.6988 117.421 51.7029C117.386 51.4825 117.536 51.2764 117.756 51.2419C117.97 51.2073 118.181 51.3566 118.217 51.577C118.363 52.5084 118.543 53.0883 118.545 53.0946C118.612 53.3063 118.494 53.5329 118.281 53.5989C118.241 53.6114 118.201 53.6177 118.161 53.6177ZM117.648 50.4409C117.436 50.4409 117.258 50.2756 117.246 50.0608C117.228 49.765 117.219 49.4533 117.22 49.1318C117.22 48.8967 117.225 48.6558 117.236 48.4078C117.247 48.1861 117.421 47.997 117.657 48.0239C117.879 48.0333 118.051 48.222 118.041 48.4441C118.03 48.6791 118.026 48.9089 118.026 49.1325C118.025 49.4393 118.034 49.7337 118.05 50.0151C118.063 50.2369 117.893 50.4273 117.671 50.4398C117.663 50.4409 117.655 50.4409 117.648 50.4409ZM117.801 47.2264C117.78 47.2264 117.759 47.225 117.738 47.2215C117.518 47.187 117.368 46.9809 117.402 46.7605C117.489 46.2106 117.609 45.6655 117.76 45.1389C117.821 44.9259 118.04 44.7976 118.258 44.8628C118.472 44.9241 118.596 45.1466 118.534 45.3607C118.393 45.8556 118.28 46.3685 118.199 46.886C118.167 47.0848 117.996 47.2264 117.801 47.2264ZM118.691 44.1381C118.637 44.1381 118.582 44.127 118.53 44.1043C118.326 44.0161 118.233 43.7786 118.322 43.5749C118.544 43.0627 118.802 42.5658 119.09 42.0974C119.206 41.9077 119.454 41.8474 119.644 41.9653C119.834 42.0817 119.893 42.3293 119.776 42.519C119.509 42.9549 119.268 43.4184 119.06 43.8958C118.994 44.0475 118.845 44.1381 118.691 44.1381ZM137.392 43.002C137.335 43.002 137.278 42.9901 137.223 42.965C136.787 42.7645 136.326 42.3862 135.856 41.8401C135.711 41.6716 135.73 41.4178 135.898 41.272C136.068 41.128 136.321 41.1444 136.467 41.3146C136.855 41.7654 137.233 42.0831 137.56 42.2334C137.762 42.3262 137.85 42.5654 137.757 42.7677C137.69 42.9148 137.544 43.002 137.392 43.002ZM138.914 42.7966C138.778 42.7966 138.644 42.7272 138.569 42.6013C138.454 42.4109 138.516 42.163 138.707 42.0483C139.092 41.8171 139.423 41.4694 139.663 41.0429C139.772 40.8487 140.019 40.781 140.212 40.8902C140.406 40.9993 140.474 41.2459 140.365 41.4394C140.056 41.9862 139.626 42.436 139.122 42.7391C139.056 42.7778 138.985 42.7966 138.914 42.7966ZM120.365 41.3996C120.275 41.3996 120.185 41.3696 120.11 41.3083C119.938 41.1667 119.913 40.9135 120.054 40.7409C120.402 40.3169 120.786 39.9096 121.193 39.5302C121.356 39.3785 121.611 39.3886 121.763 39.5507C121.914 39.7136 121.905 39.9685 121.742 40.1202C121.361 40.4748 121.002 40.8556 120.677 41.2521C120.597 41.3491 120.482 41.3996 120.365 41.3996ZM135.223 40.6708C135.088 40.6708 134.956 40.6025 134.879 40.478C134.605 40.0302 134.342 39.541 134.095 39.0224C133.999 38.8219 134.084 38.582 134.285 38.4857C134.484 38.3899 134.725 38.4739 134.822 38.6761C135.057 39.1685 135.307 39.6334 135.567 40.0574C135.683 40.2471 135.623 40.4947 135.433 40.6112C135.368 40.652 135.294 40.6708 135.223 40.6708ZM140.473 40.1139C140.463 40.1139 140.454 40.1139 140.444 40.1132C140.222 40.0975 140.055 39.9047 140.071 39.6829C140.076 39.6041 140.079 39.5249 140.079 39.4454C140.08 39.0427 140.006 38.65 139.86 38.2779C139.779 38.0711 139.881 37.8375 140.088 37.7555C140.294 37.6746 140.528 37.7768 140.61 37.9836C140.794 38.4502 140.886 38.9419 140.885 39.4461C140.885 39.5438 140.882 39.6421 140.875 39.7394C140.859 39.9521 140.683 40.1139 140.473 40.1139ZM122.711 39.2076C122.586 39.2076 122.464 39.1501 122.385 39.0416C122.254 38.8613 122.294 38.6095 122.474 38.4791C122.906 38.1653 123.373 37.864 123.861 37.584C124.054 37.4738 124.3 37.5383 124.411 37.7325C124.522 37.9261 124.455 38.1723 124.263 38.2824C123.799 38.5485 123.356 38.8341 122.947 39.1305C122.876 39.1825 122.793 39.2076 122.711 39.2076ZM133.829 37.7688C133.666 37.7688 133.513 37.6691 133.452 37.5076C133.261 37.0016 133.088 36.4771 132.933 35.9492C132.907 35.8596 132.914 35.7675 132.947 35.6866C132.551 35.7204 132.144 35.7692 131.729 35.8313C131.513 35.869 131.304 35.7141 131.271 35.493C131.238 35.2737 131.389 35.0683 131.609 35.0352C132.17 34.9501 132.721 34.8905 133.244 34.8559C133.465 34.8416 133.658 35.0094 133.673 35.2312C133.68 35.3428 133.641 35.446 133.574 35.5237C133.635 35.5733 133.683 35.6416 133.707 35.7242C133.855 36.2323 134.023 36.7376 134.205 37.2244C134.284 37.433 134.179 37.6649 133.97 37.743C133.924 37.7611 133.876 37.7688 133.829 37.7688ZM125.497 37.6035C125.344 37.6035 125.198 37.5153 125.13 37.3674C125.038 37.1645 125.128 36.9259 125.33 36.8339C125.817 36.6128 126.33 36.406 126.854 36.2194C127.064 36.1424 127.295 36.255 127.368 36.4632C127.443 36.6731 127.334 36.9029 127.125 36.9775C126.621 37.1568 126.129 37.3552 125.664 37.5669C125.61 37.592 125.553 37.6035 125.497 37.6035ZM139.34 37.2105C139.24 37.2105 139.139 37.1735 139.061 37.0978C138.727 36.776 138.316 36.5022 137.839 36.2829C137.637 36.1901 137.549 35.9509 137.642 35.7487C137.734 35.5457 137.977 35.4575 138.176 35.5513C138.735 35.8076 139.22 36.1333 139.62 36.5172C139.78 36.6714 139.785 36.9263 139.631 37.0867C139.551 37.1686 139.446 37.2105 139.34 37.2105ZM128.523 36.5148C128.347 36.5148 128.184 36.3983 128.135 36.2205C128.075 36.0064 128.2 35.7839 128.414 35.7239C128.913 35.5837 129.434 35.455 129.978 35.3361C130.186 35.289 130.42 35.4219 130.468 35.6406C130.516 35.8578 130.391 36.0702 130.174 36.118C129.621 36.2383 129.116 36.3641 128.632 36.4994C128.595 36.5103 128.558 36.5148 128.523 36.5148ZM136.478 35.8306C136.452 35.8306 136.424 35.8282 136.397 35.8226C135.921 35.726 135.405 35.6636 134.862 35.6385C134.639 35.629 134.468 35.4404 134.478 35.2183C134.488 34.9954 134.678 34.8123 134.898 34.8343C135.483 34.8612 136.042 34.9278 136.558 35.0327C136.776 35.0777 136.917 35.2901 136.872 35.508C136.833 35.6991 136.666 35.8306 136.478 35.8306ZM132.929 34.6757C132.743 34.6757 132.576 34.5459 132.535 34.3562C132.421 33.8143 132.328 33.2689 132.258 32.7364C132.23 32.5153 132.384 32.3131 132.605 32.2841C132.819 32.2552 133.028 32.41 133.057 32.6311C133.124 33.1441 133.214 33.6689 133.324 34.1895C133.37 34.4075 133.23 34.6216 133.013 34.6669C132.985 34.6725 132.956 34.6757 132.929 34.6757ZM132.51 31.4831C132.297 31.4831 132.119 31.3164 132.108 31.1009C132.092 30.784 132.084 30.4652 132.085 30.1458C132.085 29.916 132.088 29.6862 132.097 29.455C132.106 29.2339 132.254 29.0665 132.516 29.0679C132.737 29.0766 132.911 29.2639 132.903 29.4864C132.894 29.7068 132.89 29.9268 132.89 30.1465C132.889 30.4527 132.897 30.7571 132.912 31.0598C132.924 31.2816 132.752 31.4713 132.531 31.4824C132.524 31.4831 132.517 31.4831 132.51 31.4831ZM132.637 28.2693C132.619 28.2693 132.601 28.2687 132.582 28.2655C132.362 28.2362 132.207 28.0333 132.237 27.8132C132.311 27.2602 132.413 26.7134 132.541 26.1896C132.593 25.9741 132.809 25.8402 133.027 25.8939C133.243 25.9458 133.375 26.1638 133.323 26.38C133.203 26.8766 133.106 27.3948 133.035 27.9203C133.008 28.1225 132.835 28.2693 132.637 28.2693ZM133.398 25.1473C133.352 25.1473 133.306 25.1396 133.26 25.1229C133.051 25.0458 132.944 24.8146 133.02 24.6061C133.212 24.0837 133.435 23.5725 133.683 23.0863C133.783 22.8883 134.027 22.8109 134.225 22.9109C134.422 23.0117 134.501 23.2548 134.4 23.4528C134.167 23.91 133.957 24.3912 133.777 24.8829C133.717 25.0465 133.563 25.1473 133.398 25.1473ZM134.859 22.285C134.781 22.285 134.702 22.2623 134.633 22.2156C134.449 22.0904 134.401 21.8404 134.525 21.6563C134.835 21.1991 135.177 20.7573 135.54 20.3426C135.686 20.1759 135.943 20.1602 136.109 20.3057C136.275 20.4528 136.292 20.707 136.146 20.8744C135.804 21.2639 135.483 21.6793 135.192 22.1078C135.114 22.2229 134.988 22.285 134.859 22.285ZM136.973 19.8677C136.863 19.8677 136.753 19.8227 136.673 19.7338C136.525 19.5685 136.538 19.3136 136.704 19.165C137.107 18.803 137.54 18.4554 137.994 18.1314C138.172 18.0024 138.425 18.0418 138.555 18.2242C138.685 18.4051 138.644 18.6569 138.463 18.786C138.034 19.0935 137.623 19.4224 137.242 19.7645C137.165 19.8338 137.069 19.8677 136.973 19.8677ZM139.583 17.9923C139.444 17.9923 139.308 17.9197 139.233 17.79C139.122 17.5972 139.189 17.351 139.382 17.2401C139.848 16.9726 140.34 16.7194 140.844 16.4872C141.044 16.3944 141.286 16.4816 141.379 16.6846C141.471 16.8868 141.383 17.1261 141.181 17.2188C140.699 17.4406 140.228 17.683 139.783 17.9386C139.72 17.9748 139.651 17.9923 139.583 17.9923ZM142.501 16.6413C142.337 16.6413 142.183 16.5406 142.123 16.3777C142.046 16.1692 142.152 15.938 142.362 15.8609C142.865 15.6743 143.389 15.5021 143.918 15.3479C144.132 15.2841 144.354 15.4093 144.417 15.6224C144.479 15.8354 144.356 16.0597 144.143 16.1217C143.632 16.2703 143.126 16.4363 142.64 16.6159C142.594 16.6337 142.547 16.6413 142.501 16.6413ZM145.588 15.735C145.404 15.735 145.238 15.6084 145.196 15.4219C145.146 15.2046 145.282 14.9891 145.498 14.9396C146.014 14.8224 146.547 14.7154 147.099 14.6202C147.319 14.5815 147.526 14.7297 147.564 14.949C147.602 15.1683 147.454 15.3769 147.236 15.4149C146.698 15.507 146.179 15.6109 145.678 15.7249C145.647 15.7319 145.618 15.735 145.588 15.735Z" fill="#9886FE"/>
<path d="M130.21 175.785C130.182 175.785 130.152 175.782 130.123 175.776C129.906 175.727 129.769 175.512 129.817 175.295C129.878 175.021 129.951 174.576 129.951 174.015L129.947 173.793C129.94 173.57 130.115 173.385 130.338 173.378C130.552 173.382 130.745 173.546 130.752 173.769L130.756 174.015C130.756 174.649 130.673 175.156 130.603 175.47C130.562 175.657 130.395 175.785 130.21 175.785ZM85.2787 174.095C84.9318 174.095 84.5785 174.083 84.2207 174.061C83.9989 174.048 83.8298 173.857 83.8431 173.635C83.8563 173.413 84.0467 173.239 84.2696 173.257C84.6228 173.279 84.968 173.29 85.3143 173.289C85.4928 173.289 85.6683 173.286 85.843 173.28C85.8475 173.28 85.8517 173.28 85.8555 173.28C86.0728 173.28 86.2513 173.452 86.2583 173.67C86.2646 173.893 86.0899 174.078 85.8681 174.085C85.6735 174.091 85.4761 174.09 85.2787 174.095ZM87.4554 173.957C87.2563 173.957 87.0833 173.81 87.0565 173.607C87.0283 173.386 87.1838 173.184 87.4042 173.155C87.9171 173.089 88.4371 172.996 88.95 172.88C89.168 172.828 89.3818 172.966 89.4316 173.183C89.4811 173.4 89.3451 173.616 89.1279 173.665C88.5905 173.787 88.0455 173.884 87.5081 173.954C87.4907 173.957 87.4725 173.957 87.4554 173.957ZM82.6438 173.891C82.6232 173.891 82.6037 173.889 82.5831 173.886C82.0908 173.812 81.5928 173.718 81.1025 173.607L80.9679 173.577C80.7517 173.526 80.6178 173.309 80.669 173.092C80.7192 172.876 80.9333 172.739 81.1537 172.793L81.2695 172.819C81.7518 172.928 82.2302 173.018 82.7028 173.09C82.9231 173.123 83.0741 173.328 83.041 173.548C83.0114 173.748 82.8398 173.891 82.6438 173.891ZM90.5897 173.246C90.4199 173.246 90.2616 173.138 90.2065 172.967C90.1381 172.755 90.2536 172.529 90.4652 172.46C90.9531 172.301 91.45 172.116 91.9417 171.91C92.1478 171.824 92.3832 171.92 92.469 172.125C92.5554 172.331 92.4588 172.567 92.2535 172.653C91.7412 172.867 91.2237 173.06 90.7139 173.226C90.6731 173.239 90.6305 173.246 90.5897 173.246ZM79.4987 173.199C79.4642 173.199 79.4293 173.195 79.3941 173.185C78.8529 173.04 78.3319 172.888 77.8308 172.73C77.6184 172.663 77.5013 172.436 77.5682 172.225C77.6352 172.012 77.8625 171.896 78.0732 171.962C78.5631 172.117 79.0729 172.266 79.6033 172.408C79.8182 172.466 79.9454 172.687 79.8872 172.902C79.8394 173.08 79.6766 173.199 79.4987 173.199ZM130.119 172.592C129.94 172.592 129.776 172.472 129.729 172.29C129.604 171.805 129.427 171.322 129.203 170.854C129.107 170.653 129.192 170.412 129.393 170.316C129.592 170.22 129.834 170.305 129.93 170.506C130.176 171.021 130.372 171.554 130.51 172.089C130.565 172.304 130.436 172.524 130.221 172.58C130.186 172.588 130.153 172.592 130.119 172.592ZM76.4276 172.227C76.3812 172.227 76.3331 172.219 76.2874 172.202C75.757 172.006 75.252 171.802 74.7722 171.593C74.5686 171.504 74.4754 171.267 74.5644 171.062C74.6533 170.859 74.8925 170.767 75.0948 170.855C75.5603 171.058 76.0513 171.255 76.5674 171.447C76.7759 171.524 76.8819 171.756 76.8049 171.965C76.7446 172.128 76.5911 172.227 76.4276 172.227ZM93.5601 172.01C93.4129 172.01 93.2714 171.929 93.2006 171.788C93.1008 171.59 93.18 171.348 93.3791 171.248C93.852 171.009 94.3161 170.756 94.7747 170.491C94.9651 170.378 95.212 170.445 95.3246 170.638C95.4362 170.83 95.3703 171.077 95.1775 171.188C94.7063 171.461 94.2279 171.722 93.7411 171.967C93.6828 171.996 93.6215 172.01 93.5601 172.01ZM73.4805 170.935C73.4178 170.935 73.3547 170.921 73.2947 170.889C72.7992 170.633 72.3183 170.358 71.867 170.076C71.6791 169.958 71.6215 169.709 71.7397 169.52C71.8576 169.332 72.1062 169.276 72.2952 169.393C72.7287 169.664 73.1897 169.927 73.6664 170.175C73.8638 170.277 73.9409 170.52 73.838 170.718C73.7661 170.856 73.626 170.935 73.4805 170.935ZM96.3512 170.403C96.2191 170.403 96.0887 170.337 96.0123 170.217C95.892 170.03 95.9471 169.781 96.1343 169.661C96.5828 169.374 97.0264 169.078 97.4661 168.776C97.6509 168.65 97.9013 168.697 98.0261 168.88C98.152 169.063 98.1057 169.314 97.9222 169.44C97.4745 169.747 97.0246 170.047 96.5682 170.339C96.5015 170.382 96.4262 170.403 96.3512 170.403ZM128.749 169.698C128.622 169.698 128.498 169.638 128.419 169.527C128.134 169.121 127.804 168.716 127.437 168.325C127.284 168.163 127.292 167.908 127.455 167.757C127.617 167.605 127.873 167.611 128.024 167.775C128.416 168.192 128.771 168.626 129.078 169.063C129.206 169.245 129.163 169.496 128.981 169.624C128.91 169.674 128.829 169.698 128.749 169.698ZM58.4647 169.607C58.4647 169.607 58.464 169.607 58.4633 169.607C57.934 169.605 57.3903 169.59 56.8324 169.559C56.6106 169.548 56.4397 169.358 56.4523 169.135C56.4648 168.914 56.634 168.738 56.8763 168.755C57.42 168.784 57.9493 168.799 58.4661 168.801C58.6879 168.802 58.8682 168.983 58.8675 169.206C58.8668 169.427 58.6869 169.607 58.4647 169.607ZM60.0744 169.567C59.8613 169.567 59.6835 169.4 59.6723 169.186C59.6605 168.964 59.8314 168.774 60.0531 168.762C60.5961 168.733 61.123 168.689 61.6335 168.631C61.8508 168.606 62.0544 168.764 62.0795 168.986C62.1047 169.207 61.946 169.407 61.7249 169.432C61.1987 169.491 60.6557 169.537 60.0957 169.566C60.0887 169.567 60.0814 169.567 60.0744 169.567ZM55.2489 169.434C55.2346 169.434 55.2213 169.434 55.208 169.432C54.6801 169.379 54.142 169.312 53.5914 169.232C53.371 169.2 53.2193 168.995 53.2507 168.775C53.2838 168.554 53.4906 168.406 53.7079 168.434C54.2459 168.513 54.7732 168.578 55.2883 168.631C55.51 168.653 55.6715 168.85 55.6485 169.071C55.6279 169.279 55.4525 169.434 55.2489 169.434ZM70.7609 169.216C70.6744 169.216 70.5879 169.189 70.514 169.132C70.061 168.781 69.6415 168.412 69.267 168.035C69.1097 167.877 69.1111 167.622 69.2687 167.465C69.4267 167.308 69.6816 167.31 69.8382 167.467C70.1883 167.819 70.5816 168.165 71.0081 168.495C71.1835 168.631 71.216 168.885 71.0796 169.061C71.0001 169.163 70.8812 169.216 70.7609 169.216ZM63.2708 169.2C63.0804 169.2 62.9105 169.064 62.875 168.869C62.8356 168.65 62.9803 168.441 63.2 168.401C63.7279 168.305 64.2472 168.192 64.7452 168.064C64.9582 168.008 65.1804 168.139 65.2354 168.355C65.2905 168.57 65.1608 168.789 64.9453 168.845C64.4292 168.977 63.8904 169.095 63.3437 169.194C63.3196 169.198 63.2952 169.2 63.2708 169.2ZM52.0612 168.971C52.0361 168.971 52.0117 168.968 51.9866 168.964C51.672 168.906 51.354 168.843 51.0339 168.775C50.8177 168.73 50.6036 168.683 50.3926 168.634C50.1764 168.585 50.0411 168.369 50.0906 168.151C50.1408 167.935 50.3542 167.8 50.5736 167.849C50.7797 167.896 50.9875 167.943 51.1992 167.987C51.5148 168.053 51.8262 168.115 52.1344 168.173C52.3531 168.213 52.4971 168.424 52.4563 168.642C52.42 168.836 52.2506 168.971 52.0612 168.971ZM99.0134 168.585C98.8882 168.585 98.764 168.526 98.6852 168.416C98.5562 168.235 98.598 167.983 98.7797 167.854C99.2181 167.542 99.6529 167.227 100.086 166.914C100.267 166.784 100.518 166.824 100.649 167.004C100.78 167.185 100.738 167.436 100.559 167.567C100.124 167.881 99.6867 168.196 99.247 168.51C99.1762 168.561 99.0946 168.585 99.0134 168.585ZM66.3894 168.395C66.2227 168.395 66.0661 168.29 66.0086 168.123C65.9364 167.914 66.048 167.684 66.2579 167.611C66.7646 167.436 67.2577 167.242 67.7229 167.034C67.9251 166.942 68.1633 167.034 68.2547 167.237C68.346 167.44 68.2547 167.679 68.0517 167.769C67.5656 167.987 67.0502 168.19 66.5208 168.372C66.4772 168.388 66.4326 168.395 66.3894 168.395ZM48.9238 168.244C48.8875 168.244 48.8506 168.24 48.8143 168.229C48.2794 168.078 47.7601 167.916 47.2573 167.745C47.0463 167.673 46.934 167.444 47.0055 167.234C47.078 167.023 47.3061 166.913 47.5167 166.982C48.007 167.149 48.512 167.307 49.0326 167.454C49.2474 167.515 49.3716 167.737 49.3112 167.951C49.2614 168.129 49.0999 168.244 48.9238 168.244ZM126.563 167.345C126.47 167.345 126.377 167.314 126.302 167.25C125.921 166.925 125.502 166.601 125.057 166.288C124.875 166.16 124.832 165.909 124.959 165.726C125.088 165.545 125.34 165.501 125.521 165.629C125.986 165.957 126.425 166.295 126.824 166.636C126.993 166.781 127.014 167.035 126.87 167.204C126.789 167.297 126.676 167.345 126.563 167.345ZM45.8809 167.203C45.8296 167.203 45.7787 167.194 45.7281 167.173C45.212 166.962 44.7148 166.741 44.2356 166.51C44.0351 166.414 43.9507 166.173 44.0477 165.973C44.1436 165.772 44.3877 165.687 44.585 165.785C45.0499 166.008 45.5329 166.223 46.0333 166.427C46.2387 166.511 46.3377 166.747 46.2537 166.953C46.1902 167.109 46.0399 167.203 45.8809 167.203ZM69.3228 167.076C69.1836 167.076 69.0473 167.004 68.9734 166.873C68.8625 166.68 68.9294 166.434 69.123 166.324C69.5854 166.059 70.0261 165.773 70.4334 165.472C70.6127 165.341 70.8652 165.378 70.9966 165.557C71.1288 165.736 71.0901 165.988 70.9115 166.12C70.4788 166.439 70.0115 166.743 69.5222 167.023C69.4598 167.059 69.3911 167.076 69.3228 167.076ZM68.5134 166.926C68.3875 166.926 68.2623 166.867 68.1846 166.755C67.84 166.267 67.5631 165.768 67.3616 165.269C67.2775 165.063 67.3773 164.829 67.5834 164.745C67.7888 164.659 68.0238 164.761 68.1071 164.967C68.2864 165.408 68.5336 165.853 68.8419 166.291C68.9702 166.473 68.927 166.724 68.7453 166.852C68.6745 166.903 68.5936 166.926 68.5134 166.926ZM101.633 166.704C101.507 166.704 101.383 166.645 101.304 166.534C101.176 166.353 101.219 166.102 101.4 165.973C101.843 165.659 102.286 165.349 102.731 165.048C102.915 164.925 103.165 164.972 103.29 165.156C103.415 165.34 103.366 165.59 103.182 165.715C102.743 166.013 102.304 166.32 101.866 166.63C101.795 166.68 101.714 166.704 101.633 166.704ZM42.9851 165.804C42.9175 165.804 42.8498 165.788 42.7871 165.752C42.3135 165.485 41.8438 165.197 41.3908 164.897C41.206 164.774 41.1547 164.524 41.2775 164.338C41.4016 164.153 41.6513 164.102 41.8361 164.225C42.2727 164.515 42.7267 164.792 43.1839 165.05C43.3774 165.16 43.4458 165.406 43.3366 165.599C43.262 165.73 43.125 165.804 42.9851 165.804ZM123.938 165.487C123.867 165.487 123.796 165.469 123.732 165.431C123.299 165.173 122.837 164.916 122.345 164.663C122.147 164.561 122.069 164.318 122.171 164.121C122.273 163.922 122.517 163.845 122.713 163.947C123.221 164.208 123.697 164.472 124.143 164.738C124.334 164.852 124.398 165.1 124.284 165.291C124.208 165.417 124.074 165.487 123.938 165.487ZM71.9015 165.16C71.7969 165.16 71.6923 165.119 71.6128 165.038C71.458 164.879 71.4611 164.624 71.6208 164.469C72.0048 164.094 72.343 163.703 72.6255 163.307C72.7552 163.125 73.0063 163.084 73.1873 163.212C73.3683 163.341 73.4108 163.593 73.2818 163.774C72.9711 164.21 72.6014 164.638 72.1826 165.046C72.1045 165.122 72.003 165.16 71.9015 165.16ZM104.307 164.905C104.173 164.905 104.042 164.838 103.965 164.715C103.847 164.527 103.904 164.278 104.093 164.161C104.558 163.871 105.027 163.594 105.501 163.333C105.694 163.226 105.94 163.296 106.048 163.492C106.155 163.687 106.085 163.931 105.889 164.039C105.428 164.292 104.972 164.562 104.52 164.844C104.453 164.886 104.379 164.905 104.307 164.905ZM40.3031 164.028C40.2166 164.028 40.1291 164.001 40.0562 163.943C39.6179 163.603 39.1949 163.25 38.7991 162.893C38.6338 162.744 38.6206 162.489 38.7702 162.324C38.9198 162.16 39.1736 162.145 39.3389 162.295C39.7197 162.638 40.127 162.978 40.5504 163.307C40.7258 163.443 40.7582 163.697 40.6212 163.872C40.5424 163.974 40.4227 164.028 40.3031 164.028ZM121.078 164.01C121.023 164.01 120.967 163.999 120.914 163.974C120.448 163.766 119.959 163.559 119.447 163.355C119.24 163.273 119.139 163.039 119.221 162.832C119.304 162.626 119.537 162.526 119.744 162.607C120.268 162.815 120.767 163.027 121.243 163.24C121.446 163.33 121.537 163.569 121.446 163.772C121.378 163.921 121.231 164.01 121.078 164.01ZM67.3577 163.963C67.1478 163.963 66.9707 163.8 66.9567 163.587C66.9487 163.473 66.9449 163.36 66.9449 163.248C66.9456 162.757 67.0237 162.285 67.1761 161.842C67.2486 161.632 67.4788 161.521 67.6883 161.592C67.8983 161.665 68.0102 161.894 67.9377 162.105C67.8142 162.463 67.7511 162.848 67.7504 163.249C67.7504 163.343 67.7542 163.437 67.7605 163.533C67.7755 163.755 67.6078 163.947 67.386 163.962C67.3766 163.963 67.3672 163.963 67.3577 163.963ZM107.132 163.363C106.979 163.363 106.834 163.276 106.766 163.128C106.674 162.926 106.763 162.687 106.965 162.594C107.475 162.361 107.988 162.152 108.489 161.974C108.699 161.9 108.928 162.01 109.003 162.22C109.077 162.43 108.967 162.66 108.758 162.734C108.278 162.903 107.787 163.103 107.3 163.326C107.246 163.351 107.189 163.363 107.132 163.363ZM118.087 162.819C118.044 162.819 117.999 162.812 117.955 162.797C117.446 162.621 116.937 162.47 116.447 162.351C116.231 162.298 116.099 162.08 116.151 161.865C116.204 161.649 116.425 161.518 116.638 161.569C117.153 161.694 117.685 161.851 118.218 162.036C118.428 162.108 118.54 162.337 118.467 162.548C118.41 162.714 118.254 162.819 118.087 162.819ZM73.7135 162.528C73.6685 162.528 73.6232 162.52 73.5782 162.504C73.3683 162.429 73.2595 162.199 73.3344 161.989C73.4589 161.641 73.5217 161.315 73.5217 161.02C73.5217 160.884 73.5074 160.754 73.4809 160.633C73.4314 160.416 73.5674 160.201 73.7846 160.152C74.0026 160.1 74.2181 160.239 74.2662 160.455C74.307 160.635 74.3276 160.824 74.3276 161.02C74.3276 161.408 74.2488 161.825 74.0932 162.26C74.0336 162.425 73.8784 162.528 73.7135 162.528ZM110.165 162.305C109.982 162.305 109.817 162.18 109.773 161.994C109.722 161.778 109.856 161.561 110.073 161.511C110.614 161.383 111.163 161.288 111.704 161.228C111.918 161.204 112.124 161.362 112.149 161.583C112.173 161.804 112.014 162.003 111.793 162.029C111.284 162.085 110.767 162.175 110.257 162.295C110.226 162.302 110.195 162.305 110.165 162.305ZM114.961 162.065C114.943 162.065 114.925 162.064 114.908 162.062C114.389 161.994 113.864 161.957 113.349 161.95C113.126 161.948 112.949 161.766 112.951 161.543C112.953 161.322 113.133 161.145 113.353 161.145C113.355 161.145 113.356 161.145 113.358 161.145C113.905 161.151 114.462 161.191 115.012 161.263C115.233 161.292 115.387 161.494 115.359 161.714C115.333 161.917 115.16 162.065 114.961 162.065ZM37.9172 161.875C37.8108 161.875 37.7048 161.833 37.626 161.75C37.2539 161.36 36.8888 160.946 36.5405 160.518C36.3996 160.346 36.4257 160.093 36.5987 159.952C36.7703 159.813 37.0241 159.835 37.165 160.01C37.5001 160.421 37.8509 160.819 38.208 161.194C38.3622 161.354 38.3559 161.609 38.1948 161.763C38.117 161.838 38.0169 161.875 37.9172 161.875ZM68.3931 161.014C68.2923 161.014 68.1908 160.976 68.1131 160.901C67.9534 160.746 67.9488 160.491 68.1037 160.331C68.5019 159.92 68.9873 159.584 69.5449 159.334C69.7461 159.242 69.9864 159.332 70.0774 159.536C70.1688 159.739 70.0781 159.977 69.8751 160.068C69.4103 160.277 69.0089 160.554 68.6825 160.891C68.603 160.973 68.4984 161.014 68.3931 161.014ZM72.8497 159.795C72.8026 159.795 72.7552 159.787 72.7081 159.77C72.4013 159.655 72.0205 159.613 71.5588 159.652C71.4754 159.659 71.3914 159.669 71.3087 159.679C71.0908 159.707 70.8864 159.552 70.8589 159.33C70.8313 159.109 70.9879 158.907 71.2083 158.88C71.3018 158.868 71.3956 158.859 71.4901 158.85C72.0902 158.801 72.5725 158.859 72.992 159.016C73.1998 159.094 73.3058 159.326 73.2274 159.534C73.166 159.696 73.0126 159.795 72.8497 159.795ZM35.8835 159.381C35.7562 159.381 35.6303 159.32 35.5522 159.207C35.2415 158.758 34.944 158.293 34.6696 157.825C34.5563 157.634 34.6208 157.386 34.8129 157.274C35.0009 157.161 35.2512 157.224 35.3635 157.417C35.6286 157.868 35.9149 158.316 36.2148 158.749C36.3413 158.932 36.2957 159.183 36.1126 159.309C36.0432 159.358 35.963 159.381 35.8835 159.381ZM34.2518 156.606C34.104 156.606 33.9606 156.524 33.8909 156.382C33.6524 155.9 33.4261 155.396 33.2175 154.886C33.1335 154.68 33.2325 154.445 33.4379 154.361C33.644 154.276 33.8794 154.375 33.9634 154.581C34.1646 155.074 34.3836 155.56 34.6131 156.025C34.7114 156.225 34.6295 156.466 34.4307 156.565C34.3732 156.593 34.3125 156.606 34.2518 156.606ZM33.031 153.625C32.8618 153.625 32.7046 153.518 32.6488 153.349C32.4702 152.811 32.3168 152.286 32.1846 151.777C32.1281 151.562 32.2568 151.342 32.4727 151.286C32.6906 151.225 32.9079 151.358 32.9637 151.574C33.0927 152.066 33.2412 152.575 33.4135 153.095C33.4836 153.306 33.3685 153.534 33.1579 153.605C33.116 153.618 33.0728 153.625 33.031 153.625ZM32.2167 150.505C32.028 150.505 31.8596 150.372 31.822 150.179C31.7104 149.602 31.6253 149.06 31.5615 148.561C31.5332 148.341 31.6887 148.138 31.9098 148.11C32.1239 148.08 32.3321 148.238 32.3607 148.459C32.4228 148.941 32.5047 149.467 32.6132 150.026C32.655 150.244 32.5124 150.456 32.2938 150.499C32.2687 150.503 32.2429 150.505 32.2167 150.505ZM31.8094 147.305C31.5977 147.305 31.4199 147.14 31.4073 146.927C31.378 146.443 31.3704 146.051 31.3704 145.771C31.3704 145.445 31.3805 145.266 31.3805 145.266C31.393 145.045 31.5883 144.887 31.8045 144.886C32.0263 144.899 32.1972 145.088 32.1846 145.31C32.1846 145.317 32.1759 145.479 32.1759 145.771C32.1759 146.04 32.1839 146.415 32.2115 146.878C32.2247 147.101 32.0556 147.291 31.8338 147.305C31.8251 147.305 31.8171 147.305 31.8094 147.305Z" fill="#9886FE"/>
<defs>
<clipPath id="clip0_9118_15308">
<rect width="124.492" height="124.492" fill="white" transform="translate(31.7332 34.7039)"/>
</clipPath>
</defs>
</svg>
