<svg width="193" height="127" viewBox="0 0 193 127" fill="none" xmlns="http://www.w3.org/2000/svg">
<path d="M30.5973 100.55C30.1145 100.084 29.1491 93.5504 28.2727 93.6016C27.3936 93.6548 26.6273 100.135 26.2175 100.563C25.3931 101.418 19.369 102.025 19.4169 102.855C19.4682 103.684 25.3841 104.077 26.2194 104.883C26.6861 105.335 27.6677 111.888 28.5448 111.837C29.4231 111.785 30.1733 105.323 30.6007 104.881C31.3969 104.054 37.4681 103.415 37.4194 102.582C37.3689 101.749 31.4002 101.331 30.5973 100.55Z" fill="#29AEFD"/>
<path d="M116.171 15.1671C115.633 14.6454 114.552 7.33964 113.572 7.39731C112.588 7.45876 111.733 14.7019 111.274 15.181C110.354 16.1377 103.619 16.8147 103.673 17.7443C103.727 18.6701 110.343 19.1085 111.276 20.0128C111.799 20.5175 112.895 27.8425 113.877 27.7852C114.858 27.7275 115.697 20.5036 116.176 20.0094C117.066 19.084 123.852 18.37 123.798 17.4386C123.742 16.5071 117.07 16.0401 116.171 15.1671Z" fill="#FAC515"/>
<path d="M121.645 68.0017C113.02 62.4209 99.3189 49.2291 88.1569 54.3029C81.0533 57.3472 78.5167 65.4645 69.3854 62.9279C62.281 60.3914 64.0723 56.2917 65.5948 49.6958C67.1165 41.5773 87.0886 40.3356 59.2367 35.0225C54.6428 34.1461 45.5507 33.0401 40.4761 33.5475L39.4493 41.618C35.388 50.7505 31.3309 60.8981 32.3456 71.046C33.3596 82.7153 41.9858 83.7309 51.1198 89.3116C61.2659 95.4002 67.8629 104.025 76.4872 111.637C83.5894 118.232 98.3053 122.291 93.2311 108.086C96.7828 111.637 105.407 114.681 109.973 110.622C113.525 107.07 111.496 102.504 108.453 98.4448C116.106 107.921 127.731 99.9904 124.152 90.3992C124.51 91.3483 127.474 92.23 128.399 92.5071C133.33 93.9821 141.794 90.4369 139.954 84.1907C138.418 78.9809 132.457 77.2435 128.605 73.5814C126.487 71.5673 124.148 69.5325 121.645 68.0017Z" fill="#FFA4AC"/>
<path d="M46.1165 33.0732C46.0234 31.6901 44.822 30.4111 43.4488 30.2287L21.728 27.3503C20.354 27.1671 18.8356 28.0819 18.352 29.3817L0.151177 78.3923C-0.330946 79.6921 0.378856 81.0103 1.7291 81.3217L36.8125 89.416C47.976 60.495 46.1165 33.0732 46.1165 33.0732Z" fill="#A089E4"/>
<path d="M141.585 40.4182C118.479 35.6897 89.7518 22.983 69.7217 42.4142C63.8193 48.2818 58.6784 56.0968 60.8395 65.0287C62.5531 70.4369 65.0776 74.2071 71.3637 71.36C77.6497 68.5129 79.7083 60.5784 86.562 58.1704C92.9778 56.3305 97.3885 58.8369 102.871 61.7191C113.204 66.5399 121.214 74.1947 131.17 80.0861C133.943 81.7794 137.524 84.0882 141.048 83.6393C144.067 83.2548 153.699 79.2813 156.021 77.4516" fill="#FFD6AE"/>
<path d="M170.534 31.6243C169.936 30.3736 168.362 29.68 167.035 30.081L143.46 37.2156C142.132 37.6175 141.16 39.074 141.298 40.4529C141.298 40.4529 143.755 65.0484 159.297 88.9581L191.414 80.9562C192.759 80.6218 193.369 79.3243 192.769 78.0751L170.534 31.6243Z" fill="#FAC515"/>
<path fill-rule="evenodd" clip-rule="evenodd" d="M108.729 63.5652C102.216 59.9404 95.6508 55.4852 87.8456 57.2543C81.0789 58.7877 76.3628 63.6448 72.7034 69.2485C72.0908 70.1883 73.5926 71.0549 74.2002 70.1238C77.6072 64.9053 81.6326 60.9066 87.7216 59.0829C95.0608 56.8837 101.762 61.6699 107.854 65.0614C108.832 65.6061 109.705 64.1084 108.729 63.5652Z" fill="#074785"/>
<path fill-rule="evenodd" clip-rule="evenodd" d="M125.369 90.084C120.208 87.6662 116.742 83.5107 112.89 79.4731C112.117 78.663 110.894 79.8897 111.665 80.6986C115.617 84.8417 119.202 89.1013 124.494 91.5816C125.499 92.0517 126.38 90.5578 125.369 90.084Z" fill="#074785"/>
<path fill-rule="evenodd" clip-rule="evenodd" d="M45.0795 39.3589C44.2679 53.2553 43.4247 67.2779 39.4531 80.6997C39.1364 81.771 40.7769 82.3289 41.0932 81.258C45.1093 67.6873 45.9891 53.5124 46.8101 39.4607C46.8753 38.3438 45.1455 38.2431 45.0795 39.3589Z" fill="#074785"/>
<path fill-rule="evenodd" clip-rule="evenodd" d="M152.108 77.156C145.997 66.5708 143.206 54.9803 143.156 43.0388C143.151 41.8178 141.085 41.8178 141.09 43.0388C141.14 55.3116 144.046 67.235 150.323 78.1124C150.946 79.1923 152.73 78.2345 152.108 77.156Z" fill="#074785"/>
<path fill-rule="evenodd" clip-rule="evenodd" d="M95.9025 109.151C91.8088 106.43 89.1378 102.936 86.0245 99.2336C83.1623 95.8286 80.2307 92.398 75.7623 91.2102C74.6812 90.9222 74.2236 92.5959 75.3024 92.882C79.9416 94.1154 83.0138 98.1782 85.8266 101.8C88.4969 105.236 91.3874 108.23 95.0288 110.647C95.9621 111.267 96.8283 109.765 95.9025 109.151Z" fill="#074785"/>
<path fill-rule="evenodd" clip-rule="evenodd" d="M109.422 99.6174C104.245 96.1902 101.362 91.0666 97.9464 86.0614C97.3199 85.1439 95.8181 86.0109 96.4503 86.9371C100.049 92.2095 103.099 97.5069 108.547 101.114C109.483 101.733 110.349 100.231 109.422 99.6174Z" fill="#074785"/>
<path fill-rule="evenodd" clip-rule="evenodd" d="M58.159 65.4331C58.2049 66.1452 58.3067 66.8587 58.4594 67.5674C58.7828 69.0684 59.6174 71.4953 61.7374 71.3015C67.0829 70.8141 66.2612 63.6825 65.7007 59.259C65.6453 58.8372 64.9113 58.2536 64.3063 58.0361C62.964 57.551 62.1626 57.2819 60.781 56.8578C60.2876 56.7066 59.1929 59.5892 59.0376 59.9869C58.3636 61.7243 58.0429 63.5732 58.159 65.4331Z" fill="white"/>
<path fill-rule="evenodd" clip-rule="evenodd" d="M89.3979 116.832C74.8463 115.83 67.8041 100.923 57.2509 93.031C56.3549 92.3604 55.4921 93.8671 56.3753 94.5275C67.3585 102.741 74.2044 117.519 89.3979 118.565C90.514 118.642 90.5065 116.908 89.3979 116.832Z" fill="#074785"/>
<path d="M127.835 7.8995C128.028 7.53047 128.3 7.06606 128.511 6.71022C129.195 5.55259 129.613 4.81904 129.589 4.3471C129.577 4.09718 129.398 3.82049 128.636 2.74919C128.267 2.23239 127.666 1.385 127.366 0.843317C127.915 1.08721 128.777 1.58403 129.304 1.88936C130.422 2.53358 130.805 2.74278 131.079 2.74278L131.105 2.74203C131.554 2.72205 132.194 2.27386 133.283 1.48414C133.633 1.23045 134.092 0.897975 134.455 0.665771C134.258 1.05026 133.971 1.53766 133.752 1.91085C133.077 3.05867 132.663 3.78468 132.686 4.24155C132.698 4.4975 132.881 4.77833 133.656 5.87074C134.017 6.37963 134.608 7.20968 134.904 7.74269C134.35 7.49767 133.474 6.99255 132.938 6.68308C131.777 6.01135 131.453 5.84172 131.191 5.84172L131.164 5.84285C130.701 5.86433 130.022 6.34118 128.954 7.11619C128.621 7.35895 128.184 7.67484 127.835 7.8995Z" fill="#F9D555"/>
<path d="M120.498 54.1129C120.69 53.7427 120.963 53.279 121.175 52.9228C121.858 51.7652 122.275 51.0316 122.252 50.5597C122.239 50.3098 122.06 50.0327 121.298 48.9622C120.931 48.4446 120.328 47.598 120.028 47.0563C120.577 47.2998 121.44 47.797 121.966 48.1031C123.083 48.7469 123.467 48.9558 123.741 48.9558L123.767 48.955C124.216 48.9354 124.855 48.4865 125.945 47.6971C126.296 47.4423 126.754 47.111 127.117 46.8799C126.919 47.2625 126.633 47.7506 126.414 48.1242C125.738 49.2713 125.325 49.9973 125.347 50.4545C125.36 50.7105 125.542 50.9917 126.318 52.0845C126.68 52.5926 127.271 53.4227 127.567 53.9553C127.011 53.7107 126.136 53.2052 125.601 52.8961C124.438 52.2258 124.114 52.0551 123.852 52.0551L123.827 52.0555C123.362 52.0773 122.684 52.5542 121.615 53.3292C121.283 53.5716 120.847 53.8878 120.498 54.1129Z" fill="white"/>
<path d="M52.5118 83.4481C52.7048 83.079 52.9796 82.615 53.1896 82.2584C53.8741 81.1012 54.2914 80.3672 54.2681 79.8957C54.2552 79.6446 54.0762 79.3691 53.314 78.2981C52.9461 77.781 52.3445 76.934 52.0452 76.3919C52.5929 76.6354 53.4542 77.133 53.9816 77.4372C55.0985 78.0825 55.4837 78.2906 55.7574 78.2906H55.7838C56.2327 78.2703 56.8709 77.8217 57.9607 77.0316C58.3105 76.7779 58.7689 76.4454 59.1315 76.2144C58.9359 76.597 58.6475 77.0851 58.4292 77.4583C57.7534 78.6061 57.341 79.3325 57.3625 79.7894C57.3745 80.0453 57.5581 80.3269 58.3354 81.4186C58.6954 81.9263 59.2853 82.7571 59.5812 83.2901C59.0263 83.0459 58.1518 82.54 57.6165 82.2309C56.4525 81.5603 56.1298 81.3903 55.8679 81.3903H55.8415C55.3782 81.4118 54.6997 81.8886 53.6303 82.6644C53.2978 82.9075 52.8609 83.2242 52.5118 83.4481Z" fill="white"/>
<path d="M65.8549 126.335C66.0479 125.966 66.3216 125.501 66.5315 125.146C67.2153 123.988 67.6326 123.254 67.6111 122.782C67.5968 122.532 67.4193 122.256 66.6563 121.185C66.2884 120.668 65.6868 119.82 65.3864 119.28C65.9352 119.523 66.7969 120.021 67.3246 120.325C68.4416 120.969 68.8249 121.178 69.0997 121.178L69.1253 121.178C69.5751 121.158 70.2132 120.71 71.3041 119.92C71.6539 119.666 72.1123 119.333 72.4742 119.102C72.2797 119.486 71.9913 119.973 71.7719 120.347C71.0968 121.494 70.6837 122.221 70.7052 122.677C70.718 122.933 70.9016 123.214 71.6781 124.307C72.0373 124.815 72.6287 125.645 72.9258 126.178C72.3702 125.933 71.4945 125.427 70.9577 125.119C69.7952 124.448 69.4729 124.278 69.2117 124.278H69.186C68.7209 124.3 68.0427 124.776 66.9748 125.553C66.6408 125.794 66.2047 126.111 65.8549 126.335Z" fill="#F9D555"/>
<path d="M167.323 73.9294C168.461 77.3691 171.887 78.5467 175.412 77.5172C177.217 76.9906 176.597 74.2909 174.786 74.8201C172.811 75.398 171.08 75.1756 170.194 73.3059C169.224 71.2519 170.497 69.6004 172.675 69.1662C174.523 68.7975 173.887 66.1023 172.05 66.4687C168.293 67.2185 166.175 70.4637 167.323 73.9294Z" fill="#074785"/>
<path d="M157.928 46.7103C159.17 50.1116 162.632 51.1942 166.13 50.0697C167.92 49.4945 167.222 46.8166 165.424 47.3945C163.464 48.0232 161.726 47.851 160.785 46.0077C159.751 43.9834 160.978 42.2996 163.143 41.8065C164.982 41.387 164.266 38.7133 162.436 39.1302C158.701 39.9821 156.678 43.2797 157.928 46.7103Z" fill="#074785"/>
<path d="M169.334 53.0778C168.567 53.2885 167.954 53.837 168.05 54.6633C168.127 55.3414 168.88 56.0471 169.649 55.8364C170.758 55.5318 172.688 55.0157 173.522 56.0177C174.703 57.435 172.907 59.0065 171.647 59.6183C169.958 60.4348 171.016 62.9913 172.718 62.1677C175.532 60.8039 177.596 58.1486 176.363 55.1552C175.252 52.4592 171.908 52.3733 169.334 53.0778Z" fill="#074785"/>
<path d="M33.5398 45.3837C34.803 41.9892 32.8666 38.9269 29.4733 37.5242C27.7347 36.8065 26.5281 39.2978 28.2734 40.0196C30.1766 40.806 31.3886 42.0612 30.9094 44.0742C30.3813 46.2846 28.3533 46.7746 26.383 45.752C24.712 44.8835 23.5208 47.3838 25.1847 48.2482C28.5825 50.0115 32.2676 48.8053 33.5398 45.3837Z" fill="#074785"/>
<path d="M23.8416 72.4968C25.0015 69.0661 22.9754 66.0558 19.544 64.7447C17.7885 64.0726 16.6584 66.5993 18.4218 67.2737C20.3435 68.0076 21.5931 69.2301 21.1724 71.2574C20.7125 73.4829 18.7026 74.0291 16.7048 73.0596C15.0081 72.2363 13.8946 74.7698 15.5826 75.5878C19.0287 77.2622 22.6708 75.9549 23.8416 72.4968Z" fill="#074785"/>
<path d="M18.9254 60.3928C19.6574 60.708 20.4769 60.6631 20.9213 59.9593C21.2832 59.3822 21.1381 58.3614 20.4068 58.0429C19.3502 57.5872 17.5231 56.7831 17.4975 55.4796C17.465 53.6352 19.8478 53.5323 21.2123 53.844C23.0409 54.2628 23.816 51.6076 21.9727 51.1846C18.9242 50.4888 15.653 51.2691 14.7427 54.3748C13.9217 57.1733 16.4778 59.3328 18.9254 60.3928Z" fill="#074785"/>
<path d="M142.389 19.7555C141.908 19.2888 140.941 12.7543 140.065 12.806C139.185 12.8606 138.421 19.3397 138.009 19.7679C137.187 20.6228 131.162 21.2297 131.21 22.0605C131.26 22.8891 137.176 23.2804 138.013 24.0897C138.479 24.5413 139.459 31.0923 140.337 31.0426C141.215 30.9906 141.967 24.5292 142.393 24.087C143.189 23.2589 149.261 22.6211 149.211 21.788C149.162 20.9553 143.192 20.5373 142.389 19.7555Z" fill="#29AEFD"/>
<path d="M48.99 113.944C48.5086 113.477 47.5425 106.944 46.6672 106.995C45.7874 107.05 45.0218 113.529 44.6113 113.957C43.7884 114.812 37.7635 115.418 37.8129 116.249C37.8608 117.078 43.779 117.47 44.6128 118.278C45.0806 118.73 46.061 125.282 46.9393 125.23C47.8176 125.179 48.5693 118.718 48.9945 118.275C49.7906 117.447 55.8633 116.809 55.8132 115.976C55.7634 115.143 49.7936 114.725 48.99 113.944Z" fill="#F9D555"/>
<path fill-rule="evenodd" clip-rule="evenodd" d="M29.8471 80.3934C28.7464 82.9442 32.6667 84.7581 33.8138 82.1089C34.9318 79.4276 30.9226 77.8146 29.8471 80.3934Z" fill="white"/>
<path fill-rule="evenodd" clip-rule="evenodd" d="M36.7495 47.8066C35.8867 56.2529 34.4708 64.5889 32.1914 72.6606C31.4352 75.2766 35.46 76.5443 36.247 73.825C38.5913 65.5219 40.0539 56.9484 40.9431 48.2646C41.2179 45.3997 37.013 45.0465 36.7495 47.8066Z" fill="white"/>
<path fill-rule="evenodd" clip-rule="evenodd" d="M37.2377 39.2474C36.9101 41.9999 41.0848 42.6328 41.4271 39.7778C41.7332 36.9012 37.5328 36.4745 37.2377 39.2474Z" fill="white"/>
<path fill-rule="evenodd" clip-rule="evenodd" d="M150.817 41.9473C150.604 39.1775 146.288 39.4029 146.51 42.2828C146.772 45.1741 151.071 44.7281 150.817 41.9473Z" fill="white"/>
<path fill-rule="evenodd" clip-rule="evenodd" d="M159.923 73.9902C156.743 66.1161 154.105 58.0824 152.354 49.8807C151.803 47.2145 147.65 47.971 148.224 50.7443C150.025 59.1805 152.732 67.446 155.999 75.541C157.093 78.2038 160.977 76.5531 159.923 73.9902Z" fill="white"/>
<path fill-rule="evenodd" clip-rule="evenodd" d="M163.485 81.7865C162.49 79.1998 158.503 80.5881 159.532 83.2732C160.604 85.9605 164.519 84.3765 163.485 81.7865Z" fill="white"/>
<path fill-rule="evenodd" clip-rule="evenodd" d="M105.325 35.7258C95.8027 32.6325 86.1248 35.0691 77.5465 39.6778C75.5938 40.7272 77.3297 43.6935 79.2804 42.6455C87.0788 38.4549 95.7548 36.2268 104.412 39.0385C106.526 39.726 107.423 36.407 105.325 35.7258Z" fill="white"/>
<path fill-rule="evenodd" clip-rule="evenodd" d="M111.772 36.845C109.557 36.845 109.557 40.2813 111.772 40.2813C113.989 40.2809 113.989 36.845 111.772 36.845Z" fill="white"/>
<path fill-rule="evenodd" clip-rule="evenodd" d="M72.9827 44.1753C70.7681 44.1753 70.7681 47.6112 72.9827 47.6112C75.1988 47.6108 75.1988 44.1753 72.9827 44.1753Z" fill="white"/>
</svg>
