<svg width="30" height="32" viewBox="0 0 30 32" fill="none" xmlns="http://www.w3.org/2000/svg">
<circle cx="15" cy="15.666" r="15" fill="#1570EF"/>
<path d="M9.31526 15.7127C9.35437 15.3791 9.3966 15.0463 9.42906 14.712C9.4361 14.64 9.42515 14.5548 9.39152 14.4914C8.36659 12.5542 9.43101 10.1931 11.6862 9.73399C12.4909 9.57014 13.255 9.70544 13.9726 10.1082C14.0332 10.1422 14.1196 10.1559 14.1888 10.1458C17.2523 9.69449 20.0721 11.7045 20.6723 14.6392C20.8206 15.3638 20.81 16.092 20.6673 16.8185C20.6536 16.8885 20.6653 16.9753 20.6954 17.0406C21.6601 19.139 20.1851 21.2839 18.2272 21.619C17.519 21.7402 16.8515 21.6225 16.2082 21.319C16.1515 21.2925 16.078 21.2776 16.0174 21.2874C13.6918 21.662 11.4203 20.6484 10.1892 18.6799C9.62223 17.7738 9.33873 16.7845 9.31526 15.7127ZM15.1649 19.6039C15.3745 19.5809 15.7065 19.5609 16.0322 19.5054C16.7298 19.3865 17.3594 19.1206 17.849 18.5864C18.5959 17.7711 18.5677 16.4466 17.7845 15.7197C17.4267 15.3873 16.9903 15.1883 16.5277 15.0596C15.8813 14.8797 15.2243 14.7374 14.5787 14.5552C14.3202 14.482 14.0606 14.3749 13.8353 14.2302C13.4732 13.9975 13.4693 13.6014 13.8005 13.3242C13.8889 13.2503 13.9906 13.1787 14.0985 13.1439C14.3011 13.079 14.5103 13.0164 14.7203 12.9984C15.4382 12.9366 16.0463 13.1177 16.3959 13.8208C16.4542 13.9377 16.5277 14.0495 16.6094 14.1516C16.8327 14.4304 17.1354 14.468 17.4576 14.3929C17.779 14.3178 17.9655 14.1031 18.0246 13.7782C18.0793 13.4771 17.9886 13.2072 17.8318 12.9589C17.5358 12.4901 17.1033 12.194 16.5875 12.0126C15.8758 11.7619 15.1422 11.7009 14.3969 11.7862C13.8009 11.8546 13.2304 12.0095 12.7228 12.3458C11.6995 13.0234 11.5606 14.439 12.4377 15.2614C12.7083 15.5152 13.022 15.7115 13.3739 15.8155C13.9699 15.9915 14.5756 16.1358 15.1782 16.2894C15.5508 16.3845 15.929 16.4654 16.252 16.6899C16.62 16.9456 16.6939 17.3715 16.4389 17.7398C16.3099 17.9264 16.1308 18.0484 15.9255 18.1367C15.5915 18.2802 15.2407 18.3162 14.8814 18.308C14.2291 18.2932 13.7403 18.0218 13.4533 17.42C13.3759 17.2577 13.2969 17.0942 13.2015 16.9421C12.9965 16.6152 12.6763 16.5073 12.2559 16.6085C11.9294 16.6871 11.7354 16.919 11.7053 17.2948C11.6955 17.4184 11.7112 17.5498 11.7421 17.6706C11.9083 18.319 12.3283 18.773 12.8902 19.1018C13.5534 19.4905 14.2917 19.5781 15.1649 19.6039Z" fill="white"/>
</svg>
