<svg width="56" height="56" viewBox="0 0 56 56" fill="none" xmlns="http://www.w3.org/2000/svg">
<circle cx="28" cy="28" r="28" fill="#FF9C66"/>
<path fill-rule="evenodd" clip-rule="evenodd" d="M28.3641 16.3133C26.09 16.2376 23.7924 16.858 21.8088 18.1821C19.5809 19.6708 18.0239 21.8692 17.3067 24.3268C17.1087 24.3026 16.8715 24.3133 16.5899 24.393C15.5385 24.6913 14.7478 25.5528 14.3922 26.3115C13.9311 27.3003 13.7366 28.6081 13.9417 29.9581C14.1455 31.3039 14.714 32.4132 15.4251 33.1019C16.1384 33.791 16.9437 34.015 17.7437 33.8468C18.9348 33.5926 19.5254 33.4024 19.3586 32.2927L18.5512 26.9135C18.714 24.0022 20.2212 21.2616 22.7421 19.5762C26.1163 17.3224 30.5401 17.4667 33.7586 19.9375C35.9976 21.6541 37.2975 24.2262 37.4475 26.9263L36.8829 30.6891C35.6235 34.1355 32.5014 36.5227 28.8886 36.8616H26.4829C25.8621 36.8616 25.3622 37.3615 25.3622 37.9816V38.5725C25.3622 39.193 25.8621 39.6929 26.4829 39.6929H29.5161C30.1366 39.6929 30.6344 39.193 30.6344 38.5725V38.2635C33.3586 37.5986 35.7366 35.9243 37.285 33.5894L38.2568 33.8472C39.0475 34.0523 39.8625 33.791 40.5753 33.1023C41.2865 32.4132 41.8546 31.3042 42.0587 29.9585C42.2646 28.6084 42.0644 27.3028 41.6086 26.3119C41.151 25.321 40.4694 24.6916 39.6825 24.4658C39.3529 24.3709 38.9953 24.3361 38.6884 24.3268C38.0399 22.1046 36.7048 20.0836 34.7805 18.6081C32.8886 17.1563 30.6383 16.388 28.3641 16.3133Z" fill="white"/>
<path fill-rule="evenodd" clip-rule="evenodd" d="M31.9144 25.9908C32.7162 25.9908 33.3662 26.6408 33.3679 27.4447C33.3662 28.2465 32.7162 28.8982 31.9144 28.8982C31.1105 28.8982 30.4588 28.2465 30.4588 27.4447C30.4588 26.6412 31.1109 25.9908 31.9144 25.9908ZM27.9998 25.9908C28.8033 25.9908 29.4533 26.6408 29.4533 27.4447C29.4533 28.2465 28.8033 28.8982 27.9998 28.8982C27.1955 28.8982 26.5455 28.2465 26.5455 27.4447C26.5455 26.6412 27.1955 25.9908 27.9998 25.9908ZM24.0865 25.9908C24.8883 25.9908 25.54 26.6408 25.54 27.4447C25.54 28.2465 24.8883 28.8982 24.0865 28.8982C23.283 28.8982 22.6326 28.2465 22.6326 27.4447C22.6326 26.6412 23.283 25.9908 24.0865 25.9908ZM27.9998 19.7466C23.7366 19.7466 20.3013 23.0689 20.3013 27.4447C20.3013 29.5464 21.0959 31.4038 22.3905 32.7667L21.9311 34.826C21.7797 35.5037 22.2497 35.9596 22.8588 35.6204L24.8698 34.4986C25.8255 34.9135 26.8826 35.1428 27.9998 35.1428C32.2643 35.1428 35.6975 31.8227 35.6975 27.4447C35.6975 23.0689 32.2643 19.7466 27.9998 19.7466Z" fill="white"/>
</svg>
