<svg width="166" height="32" viewBox="0 0 166 32" fill="none" xmlns="http://www.w3.org/2000/svg">
<path d="M15 1L18.3677 11.3647H29.2658L20.4491 17.7705L23.8168 28.1353L15 21.7295L6.18322 28.1353L9.55093 17.7705L0.734152 11.3647H11.6323L15 1Z" fill="#00B57A"/>
<path d="M48.3531 25V9.17449H42.2546V6.66634H57.1125V9.17449H51.014V25H48.3531ZM57.8818 25V11.2498H60.2499V14.5855L59.9189 14.1526C60.0886 13.7112 60.3093 13.308 60.5809 12.9431C60.8525 12.5696 61.1666 12.264 61.5231 12.0264C61.8711 11.7718 62.2573 11.5765 62.6817 11.4407C63.1145 11.2964 63.5559 11.2116 64.0058 11.1861C64.4556 11.1521 64.8885 11.1734 65.3044 11.2498V13.7452C64.8545 13.6263 64.3538 13.5924 63.8021 13.6433C63.2588 13.6942 62.7581 13.8682 62.2997 14.1653C61.8668 14.4454 61.5231 14.7849 61.2684 15.1839C61.0223 15.5828 60.8441 16.0284 60.7337 16.5207C60.6234 17.0045 60.5682 17.518 60.5682 18.0612V25H57.8818ZM72.9108 25.3692C71.9602 25.3692 71.1623 25.2164 70.5172 24.9109C69.8722 24.6053 69.3459 24.2064 68.9385 23.7141C68.5396 23.2133 68.234 22.6701 68.0218 22.0844C67.8096 21.4988 67.6653 20.9259 67.5889 20.3657C67.5125 19.8055 67.4744 19.3132 67.4744 18.8888V11.2498H70.1735V18.0103C70.1735 18.545 70.2159 19.0967 70.3008 19.6654C70.3942 20.2256 70.5639 20.7476 70.8101 21.2314C71.0647 21.7152 71.4169 22.1057 71.8668 22.4027C72.3251 22.6998 72.9193 22.8483 73.6492 22.8483C74.1245 22.8483 74.5744 22.772 74.9988 22.6192C75.4232 22.4579 75.7924 22.2033 76.1065 21.8553C76.429 21.5073 76.6794 21.0489 76.8576 20.4802C77.0444 19.9116 77.1377 19.2198 77.1377 18.405L78.7928 19.0288C78.7928 20.2765 78.5594 21.38 78.0926 22.3391C77.6258 23.2897 76.9552 24.0324 76.081 24.5671C75.2067 25.1019 74.15 25.3692 72.9108 25.3692ZM77.456 25V21.0277H77.1377V11.2498H79.8241V25H77.456ZM88.6531 25.3692C86.9811 25.3692 85.6188 25 84.5663 24.2616C83.5138 23.5231 82.8687 22.4834 82.6311 21.1423L85.3556 20.7221C85.5254 21.4351 85.9158 21.9996 86.527 22.4155C87.1466 22.8229 87.9147 23.0266 88.8314 23.0266C89.6632 23.0266 90.3125 22.8568 90.7793 22.5173C91.2547 22.1778 91.4923 21.711 91.4923 21.1168C91.4923 20.7688 91.4074 20.4887 91.2377 20.2765C91.0764 20.0559 90.7327 19.8479 90.2064 19.6527C89.6802 19.4575 88.8781 19.2156 87.8001 18.927C86.6203 18.6214 85.6824 18.2946 84.9864 17.9466C84.2989 17.5901 83.8066 17.1785 83.5095 16.7117C83.221 16.2363 83.0767 15.6634 83.0767 14.9929C83.0767 14.1611 83.2973 13.4354 83.7387 12.8158C84.1801 12.1961 84.7997 11.7166 85.5975 11.3771C86.4039 11.0376 87.346 10.8678 88.424 10.8678C89.4765 10.8678 90.4144 11.0333 91.2377 11.3643C92.061 11.6954 92.7273 12.1664 93.2366 12.7776C93.7458 13.3802 94.0514 14.0889 94.1532 14.9038L91.4287 15.4003C91.3353 14.7382 91.0255 14.2162 90.4992 13.8343C89.973 13.4523 89.2897 13.2444 88.4494 13.2104C87.6431 13.1765 86.9895 13.3123 86.4888 13.6179C85.988 13.9149 85.7376 14.3266 85.7376 14.8528C85.7376 15.1584 85.831 15.4173 86.0177 15.6295C86.2129 15.8417 86.5864 16.0454 87.1381 16.2406C87.6898 16.4358 88.5046 16.6692 89.5826 16.9408C90.7369 17.2379 91.6536 17.5689 92.3326 17.9339C93.0116 18.2904 93.4954 18.719 93.784 19.2198C94.0811 19.7121 94.2296 20.3105 94.2296 21.015C94.2296 22.373 93.7331 23.4382 92.74 24.2106C91.7554 24.983 90.3931 25.3692 88.6531 25.3692ZM104.915 25C104.049 25.1698 103.2 25.2419 102.369 25.2164C101.537 25.191 100.794 25.0297 100.141 24.7326C99.487 24.4356 98.9947 23.9687 98.6636 23.3321C98.3666 22.7635 98.2053 22.1863 98.1798 21.6006C98.1629 21.0065 98.1544 20.336 98.1544 19.589V7.43024H100.828V19.4617C100.828 20.0134 100.832 20.493 100.841 20.9004C100.858 21.3078 100.947 21.6516 101.108 21.9317C101.414 22.4579 101.898 22.7592 102.56 22.8356C103.23 22.9035 104.015 22.8738 104.915 22.7465V25ZM95.5189 13.3887V11.2498H104.915V13.3887H95.5189ZM114.269 25.382C112.953 25.382 111.85 25.0637 110.959 24.4271C110.067 23.782 109.393 22.912 108.934 21.8171C108.476 20.7221 108.247 19.4872 108.247 18.1121C108.247 16.7371 108.472 15.5021 108.922 14.4072C109.38 13.3123 110.05 12.4508 110.933 11.8227C111.824 11.1861 112.919 10.8678 114.218 10.8678C115.508 10.8678 116.62 11.1861 117.554 11.8227C118.496 12.4508 119.222 13.3123 119.731 14.4072C120.24 15.4937 120.495 16.7286 120.495 18.1121C120.495 19.4872 120.24 20.7264 119.731 21.8298C119.23 22.9247 118.513 23.7905 117.579 24.4271C116.654 25.0637 115.551 25.382 114.269 25.382ZM107.801 31.1112V11.2498H110.169V21.1423H110.475V31.1112H107.801ZM113.9 22.9757C114.748 22.9757 115.449 22.7592 116 22.3263C116.561 21.8935 116.977 21.312 117.248 20.5821C117.528 19.8437 117.668 19.0203 117.668 18.1121C117.668 17.2124 117.528 16.3976 117.248 15.6677C116.977 14.9377 116.556 14.3563 115.988 13.9234C115.419 13.4905 114.693 13.2741 113.811 13.2741C112.979 13.2741 112.291 13.4778 111.748 13.8852C111.213 14.2926 110.814 14.8613 110.551 15.5913C110.297 16.3212 110.169 17.1615 110.169 18.1121C110.169 19.0628 110.297 19.9031 110.551 20.633C110.806 21.363 111.209 21.9359 111.761 22.3518C112.312 22.7677 113.025 22.9757 113.9 22.9757ZM123.561 8.99624V6.41171H126.221V8.99624H123.561ZM123.561 25V11.2498H126.221V25H123.561ZM130.299 25V6.28439H132.96V25H130.299ZM142.755 25.382C141.38 25.382 140.187 25.0721 139.177 24.4525C138.167 23.8329 137.386 22.9799 136.834 21.8935C136.291 20.7985 136.02 19.5381 136.02 18.1121C136.02 16.6777 136.3 15.4173 136.86 14.3308C137.42 13.2359 138.205 12.3871 139.215 11.7845C140.225 11.1734 141.405 10.8678 142.755 10.8678C144.13 10.8678 145.322 11.1776 146.332 11.7972C147.342 12.4168 148.123 13.2699 148.675 14.3563C149.227 15.4427 149.503 16.6947 149.503 18.1121C149.503 19.5466 149.222 20.8113 148.662 21.9062C148.111 22.9926 147.33 23.8457 146.32 24.4653C145.31 25.0764 144.121 25.382 142.755 25.382ZM142.755 22.8738C144.07 22.8738 145.051 22.4324 145.696 21.5497C146.349 20.6585 146.676 19.5126 146.676 18.1121C146.676 16.6777 146.345 15.5319 145.683 14.6746C145.029 13.8088 144.053 13.376 142.755 13.376C141.864 13.376 141.129 13.5797 140.552 13.9871C139.975 14.386 139.546 14.942 139.266 15.6549C138.986 16.3594 138.846 17.1785 138.846 18.1121C138.846 19.5551 139.177 20.7094 139.839 21.5752C140.501 22.4409 141.473 22.8738 142.755 22.8738ZM160.169 25C159.303 25.1698 158.454 25.2419 157.622 25.2164C156.79 25.191 156.048 25.0297 155.394 24.7326C154.741 24.4356 154.248 23.9687 153.917 23.3321C153.62 22.7635 153.459 22.1863 153.433 21.6006C153.416 21.0065 153.408 20.336 153.408 19.589V7.43024H156.082V19.4617C156.082 20.0134 156.086 20.493 156.094 20.9004C156.111 21.3078 156.2 21.6516 156.362 21.9317C156.667 22.4579 157.151 22.7592 157.813 22.8356C158.484 22.9035 159.269 22.8738 160.169 22.7465V25ZM150.773 13.3887V11.2498H160.169V13.3887H150.773Z" fill="black"/>
</svg>
