<svg width="30" height="31" viewBox="0 0 30 31" fill="none" xmlns="http://www.w3.org/2000/svg">
<circle cx="15" cy="15.666" r="15" fill="white"/>
<path d="M10 19.8199C11.353 19.9388 12.5417 19.6251 13.6208 18.8123C12.4908 18.7071 11.7496 18.1384 11.3307 17.0913C11.6976 17.0913 12.0394 17.0913 12.3817 17.0913C12.3852 17.0741 12.3887 17.0572 12.3923 17.04C11.8329 16.8957 11.3702 16.6035 11.017 16.1521C10.6661 15.7035 10.4897 15.1926 10.485 14.6004C10.8249 14.7745 11.168 14.8836 11.5572 14.8985C10.5077 13.9789 10.1924 12.9142 10.8343 11.6121C12.1728 13.1735 13.8372 14.0517 15.904 14.1811C15.8089 13.7321 15.8293 13.3136 15.9556 12.9005C16.4852 11.1681 18.6807 10.5865 19.9969 11.8339C20.0939 11.9258 20.1753 11.9446 20.2919 11.905C20.5226 11.8268 20.7593 11.7646 20.9858 11.6766C21.2122 11.5886 21.4293 11.4764 21.6472 11.3766C21.6335 11.6899 21.2912 12.1495 20.6678 12.6846C20.6713 12.6979 20.6748 12.7108 20.6783 12.7241C21.1078 12.6056 21.5369 12.4871 22 12.3596C21.8416 12.5579 21.7106 12.7519 21.5498 12.9166C21.3288 13.143 21.0828 13.3453 20.8532 13.5639C20.8113 13.6038 20.7718 13.6738 20.7734 13.7286C20.8747 16.679 18.9283 19.9455 15.503 20.7328C13.6021 21.1698 11.7993 20.9124 10.1177 19.9017C10.0896 19.8844 10.0634 19.8637 10 19.8199Z" fill="black"/>
</svg>
