<svg width="53" height="16" viewBox="0 0 53 16" fill="none" xmlns="http://www.w3.org/2000/svg">
<path fill-rule="evenodd" clip-rule="evenodd" d="M15.353 15.5671L20.0104 0.334256H24.1661L19.5084 15.5671H15.353ZM13.4953 0.338415L9.75715 6.79564C8.80554 8.48683 8.24931 9.34103 7.98183 10.4098H7.92492C7.99112 9.05491 7.80061 7.39165 7.78264 6.45158L7.36989 0.338415H0.374622L0.302734 0.748138C2.09992 0.748138 3.16566 1.64365 3.4589 3.47537L4.82237 15.5671H9.12754L17.8325 0.338415H13.4953ZM45.8121 15.5671L45.6974 13.3016L40.5083 13.2974L39.447 15.5668H34.9355L43.116 0.363076H48.6537L50.0391 15.5668L45.8121 15.5671ZM45.3355 6.58172C45.2894 5.45594 45.2508 3.92787 45.328 3.00325H45.2666C45.0138 3.75941 43.9274 6.03027 43.4497 7.14713L41.9035 10.4861H45.547L45.3355 6.58172ZM28.5288 16C25.5949 16 23.6479 15.0769 22.2578 14.2538L24.2374 11.2551C25.4853 11.9473 26.465 12.7463 28.7193 12.7463C29.4442 12.7463 30.1427 12.5594 30.5393 11.8781C31.1174 10.8872 30.406 10.3542 28.7825 9.44265L27.981 8.92567C25.5745 7.2945 24.5337 5.74534 25.6665 3.04098C26.3913 1.31117 28.3033 0 31.4573 0C33.6325 0 35.6717 0.933241 36.86 1.84509L34.5841 4.49269C33.4247 3.56242 32.4635 3.09179 31.3636 3.09179C30.4865 3.09179 29.8204 3.42723 29.5903 3.87974C29.1575 4.73039 29.7302 5.31036 30.9949 6.0891L31.948 6.69046C34.8696 8.51832 35.5657 10.435 34.8334 12.2269C33.5741 15.3113 31.1084 16 28.5288 16ZM51.1758 2.69039H50.902V1.03901H51.5337C51.9357 1.03901 52.1409 1.17866 52.1409 1.51381C52.1409 1.81271 51.9555 1.93631 51.7063 1.96423L52.1726 2.69039H51.8632L51.4331 1.98444H51.1758V2.69039ZM51.481 1.75298C51.6865 1.75298 51.8671 1.73308 51.8671 1.4936C51.8671 1.29424 51.67 1.27017 51.5056 1.27017H51.1755V1.75298H51.481ZM51.4729 3.32859C50.6088 3.32859 49.9936 2.68652 49.9936 1.83677C49.9936 0.939184 50.6768 0.344952 51.4729 0.344952C52.2616 0.344952 52.9448 0.939184 52.9448 1.83677C52.9448 2.73406 52.2616 3.32859 51.4729 3.32859ZM51.4729 0.604334C50.8218 0.604334 50.3153 1.11062 50.3153 1.83677C50.3153 2.51479 50.7577 3.06921 51.4729 3.06921C52.1163 3.06921 52.6231 2.56679 52.6231 1.83677C52.6231 1.11062 52.1163 0.604334 51.4729 0.604334Z" fill="#1D5B99"/>
</svg>
