<svg width="32" height="32" viewBox="0 0 32 32" fill="none" xmlns="http://www.w3.org/2000/svg">
<g clip-path="url(#clip0_9198_15202)">
<path d="M27.3734 13.4283C27.4119 8.91674 23.5693 4.78079 18.8077 4.20887C18.713 4.19764 18.6099 4.18054 18.5007 4.16246C18.2649 4.1234 18.0212 4.08325 17.7752 4.08325C16.7993 4.08325 16.5384 4.76877 16.4698 5.17761C16.403 5.57513 16.4667 5.90894 16.6588 6.17021C16.982 6.60966 17.5506 6.68767 18.0074 6.75018C18.1412 6.76867 18.2675 6.78586 18.3733 6.80961C22.6513 7.76554 24.0918 9.26845 24.7958 13.5101C24.813 13.6138 24.8208 13.7415 24.829 13.8769C24.8597 14.384 24.9237 15.4389 26.0578 15.4389H26.0579C26.1523 15.4389 26.2538 15.4307 26.3595 15.4146C27.4155 15.2541 27.3825 14.2899 27.3666 13.8266C27.3621 13.6961 27.3578 13.5726 27.3688 13.4906C27.3718 13.4699 27.3733 13.4491 27.3734 13.4283Z" fill="#179BD7"/>
<path d="M17.4981 2.55284C17.6249 2.56199 17.7448 2.57073 17.8447 2.58604C24.8697 3.66638 28.1004 6.99478 28.9957 14.0747C29.0109 14.1951 29.0133 14.3419 29.0158 14.4973C29.0247 15.0504 29.0431 16.2011 30.2789 16.225L30.3172 16.2254C30.7048 16.2254 31.0131 16.1085 31.2336 15.8778C31.6183 15.4754 31.5915 14.8776 31.5698 14.3972C31.5645 14.2794 31.5595 14.1683 31.5608 14.0712C31.6501 6.83021 25.3823 0.264149 18.1478 0.0199752C18.1178 0.0189814 18.0891 0.0205714 18.0602 0.024646C18.046 0.0267329 18.0197 0.0293168 17.9746 0.0293168C17.9024 0.0293168 17.8137 0.0230559 17.7196 0.0166957C17.6058 0.0089441 17.4768 0 17.346 0C16.1939 0 15.9749 0.818882 15.9468 1.30703C15.8822 2.43518 16.9736 2.51458 17.4981 2.55284Z" fill="#179BD7"/>
<path d="M28.6568 23.2251C28.5075 23.111 28.353 22.9929 28.2084 22.8765C27.4414 22.2592 26.6254 21.6903 25.8362 21.14C25.6725 21.0259 25.5087 20.9117 25.3455 20.7973C24.3346 20.0872 23.4258 19.7422 22.5672 19.7422C21.4107 19.7422 20.4024 20.3812 19.5702 21.6412C19.2015 22.1998 18.7542 22.4714 18.203 22.4714C17.877 22.4714 17.5066 22.3784 17.1022 22.1948C13.8393 20.7152 11.5094 18.4466 10.177 15.452C9.53294 14.0046 9.74174 13.0585 10.8753 12.2885C11.5189 11.8517 12.717 11.0384 12.6322 9.48089C12.5361 7.71224 8.63366 2.3906 6.98944 1.78618C6.29329 1.53018 5.56186 1.5278 4.81155 1.78022C2.92136 2.41565 1.56494 3.53157 0.888569 5.00715C0.234954 6.43294 0.26447 8.10708 0.973936 9.84859C3.02492 14.8837 5.90849 19.2737 9.54487 22.8963C13.1042 26.4426 17.479 29.3474 22.5475 31.5299C23.0043 31.7265 23.4836 31.8337 23.8335 31.9119C23.9527 31.9387 24.0557 31.9616 24.1307 31.9822C24.1719 31.9934 24.2145 31.9995 24.2571 31.9998L24.2972 32C24.2972 32 24.2972 32 24.2974 32C26.6813 32 29.5437 29.8217 30.4228 27.3382C31.193 25.1636 29.7868 24.0887 28.6568 23.2251Z" fill="#179BD7"/>
<path d="M18.5526 8.30458C18.1444 8.31492 17.295 8.33598 16.997 9.20108C16.8576 9.60535 16.8743 9.95636 17.0467 10.2444C17.2997 10.6669 17.7845 10.7964 18.2254 10.8675C19.8245 11.1241 20.6458 12.0083 20.8101 13.6501C20.8864 14.4156 21.4019 14.9501 22.0637 14.9501C22.1126 14.9501 22.1627 14.9473 22.2125 14.9412C23.0085 14.8465 23.3944 14.2616 23.3595 13.2031C23.3722 12.0983 22.7941 10.844 21.8107 9.84495C20.824 8.84282 19.6345 8.27844 18.5526 8.30458Z" fill="#179BD7"/>
</g>
<defs>
<clipPath id="clip0_9198_15202">
<rect width="32" height="32" fill="white"/>
</clipPath>
</defs>
</svg>
