<svg width="32" height="32" viewBox="0 0 32 32" fill="none" xmlns="http://www.w3.org/2000/svg">
<g clip-path="url(#clip0_9198_15209)">
<path d="M13.1873 9.68726C5.95019 9.68726 6.58184e-05 14.6639 6.58184e-05 20.7814C6.58184e-05 23.2267 0.948566 25.7119 2.688 27.6381L0.231691 30.445C-0.00999668 30.7215 -0.0686217 31.1143 0.0843158 31.4493C0.236316 31.7844 0.569566 31.9996 0.937566 31.9996H14.1248C19.4682 31.9996 26.3744 27.3983 26.3744 20.7814C26.3744 14.6639 20.4243 9.68726 13.1873 9.68726ZM7.49988 22.4998C6.46625 22.4998 5.62494 21.6584 5.62494 20.6248C5.62494 19.5912 6.46632 18.7499 7.49988 18.7499C8.53344 18.7499 9.37481 19.5913 9.37481 20.6248C9.37488 21.6584 8.5335 22.4998 7.49988 22.4998ZM13.1873 22.4998C12.1536 22.4998 11.3123 21.6584 11.3123 20.6248C11.3123 19.5912 12.1537 18.7499 13.1873 18.7499C14.2208 18.7499 15.0622 19.5913 15.0622 20.6248C15.0622 21.6584 14.2209 22.4998 13.1873 22.4998ZM18.8746 22.4998C17.841 22.4998 16.9997 21.6584 16.9997 20.6248C16.9997 19.5912 17.8411 18.7499 18.8746 18.7499C19.9082 18.7499 20.7496 19.5913 20.7496 20.6248C20.7496 21.6584 19.9083 22.4998 18.8746 22.4998Z" fill="#F9B938"/>
<path d="M31.7731 19.0769L29.5659 16.5016C31.1414 14.7237 31.9993 12.5557 31.9993 10.3127C31.9993 4.62655 26.5319 0.000488281 19.8121 0.000488281C13.7355 0.000488281 8.57294 3.7873 7.66138 8.71611C9.35688 8.13999 11.2583 7.81249 13.1873 7.81249C21.3968 7.81249 28.1417 13.5465 28.2403 20.625H31.0618C31.8626 20.625 32.2927 19.6821 31.7731 19.0769Z" fill="#F9B938"/>
</g>
<defs>
<clipPath id="clip0_9198_15209">
<rect width="32" height="32" fill="white"/>
</clipPath>
</defs>
</svg>
