<svg width="150" height="50" viewBox="0 0 150 50" fill="none" xmlns="http://www.w3.org/2000/svg">
<path d="M55.2594 34.1057V34.9864H50.9696V34.1057H55.2594ZM52.3105 42.833V32.8273C52.3105 32.3576 52.4185 31.9618 52.6344 31.6398C52.8541 31.3179 53.1401 31.0735 53.4923 30.9069C53.8446 30.7402 54.2177 30.6569 54.6117 30.6569C54.8768 30.6569 55.0965 30.6796 55.2708 30.7251C55.4488 30.7667 55.5889 30.8084 55.6912 30.8501L55.3958 31.7364C55.32 31.7137 55.2272 31.6872 55.1173 31.6569C55.0075 31.6266 54.8692 31.6114 54.7026 31.6114C54.2632 31.6114 53.9242 31.7345 53.6855 31.9807C53.4469 32.2269 53.3276 32.5792 53.3276 33.0376L53.3219 42.833H52.3105ZM60.6305 43.0148C59.8767 43.0148 59.2101 42.8235 58.6305 42.441C58.0548 42.0584 57.604 41.53 57.2783 40.8557C56.9525 40.1777 56.7896 39.3955 56.7896 38.5091C56.7896 37.6152 56.9525 36.8292 57.2783 36.1512C57.604 35.4694 58.0548 34.9391 58.6305 34.5603C59.2101 34.1777 59.8767 33.9864 60.6305 33.9864C61.3843 33.9864 62.0491 34.1777 62.6248 34.5603C63.2006 34.9429 63.6514 35.4732 63.9771 36.1512C64.3067 36.8292 64.4714 37.6152 64.4714 38.5091C64.4714 39.3955 64.3086 40.1777 63.9828 40.8557C63.657 41.53 63.2044 42.0584 62.6248 42.441C62.0491 42.8235 61.3843 43.0148 60.6305 43.0148ZM60.6305 42.0887C61.2366 42.0887 61.7498 41.9258 62.1703 41.6001C62.5908 41.2743 62.9089 40.8406 63.1248 40.2989C63.3445 39.7573 63.4544 39.1607 63.4544 38.5091C63.4544 37.8576 63.3445 37.2591 63.1248 36.7137C62.9089 36.1682 62.5908 35.7307 62.1703 35.4012C61.7498 35.0716 61.2366 34.9069 60.6305 34.9069C60.0283 34.9069 59.515 35.0716 59.0908 35.4012C58.6703 35.7307 58.3502 36.1682 58.1305 36.7137C57.9146 37.2591 57.8067 37.8576 57.8067 38.5091C57.8067 39.1607 57.9146 39.7573 58.1305 40.2989C58.3502 40.8406 58.6703 41.2743 59.0908 41.6001C59.5112 41.9258 60.0245 42.0887 60.6305 42.0887ZM67.0116 42.833V34.1057H67.9946V35.4466H68.0684C68.2427 35.0072 68.5457 34.6531 68.9775 34.3841C69.4131 34.1114 69.9055 33.9751 70.4548 33.9751C70.5381 33.9751 70.6309 33.9769 70.7332 33.9807C70.8355 33.9845 70.9207 33.9883 70.9889 33.9921V35.0205C70.9434 35.0129 70.8639 35.0016 70.7502 34.9864C70.6366 34.9713 70.5135 34.9637 70.3809 34.9637C69.9264 34.9637 69.5211 35.0603 69.165 35.2535C68.8127 35.4429 68.5343 35.7061 68.3298 36.0432C68.1252 36.3804 68.023 36.7648 68.023 37.1966V42.833H67.0116ZM73.0347 42.833V34.1057H74.0177V35.4466H74.1086C74.2828 34.9959 74.5726 34.6417 74.9779 34.3841C75.387 34.1228 75.8775 33.9921 76.4495 33.9921C77.0518 33.9921 77.5461 34.1341 77.9325 34.4182C78.3226 34.6985 78.6143 35.0849 78.8075 35.5773H78.8813C79.0783 35.0925 79.3984 34.708 79.8415 34.4239C80.2885 34.136 80.8302 33.9921 81.4665 33.9921C82.2772 33.9921 82.9173 34.2478 83.387 34.7591C83.8567 35.2667 84.0915 36.0091 84.0915 36.9864V42.833H83.0802V36.9864C83.0802 36.297 82.904 35.78 82.5518 35.4353C82.1995 35.0906 81.7355 34.9182 81.1597 34.9182C80.4931 34.9182 79.9798 35.1228 79.62 35.5319C79.2601 35.941 79.0802 36.4599 79.0802 37.0887V42.833H78.0461V36.8955C78.0461 36.3046 77.8813 35.8273 77.5518 35.4637C77.2222 35.1001 76.7582 34.9182 76.1597 34.9182C75.7582 34.9182 75.3965 35.0167 75.0745 35.2137C74.7563 35.4107 74.5044 35.6853 74.3188 36.0376C74.137 36.386 74.0461 36.7876 74.0461 37.2421V42.833H73.0347ZM89.5266 43.0319C89.0001 43.0319 88.519 42.9296 88.0834 42.7251C87.6478 42.5167 87.3012 42.2175 87.0436 41.8273C86.7861 41.4334 86.6573 40.9561 86.6573 40.3955C86.6573 39.9637 86.7387 39.6001 86.9016 39.3046C87.0645 39.0091 87.2955 38.7667 87.5948 38.5773C87.894 38.3879 88.2482 38.2383 88.6573 38.1285C89.0664 38.0186 89.5171 37.9334 90.0096 37.8728C90.4982 37.8122 90.9111 37.7591 91.2482 37.7137C91.5891 37.6682 91.8486 37.5963 92.0266 37.4978C92.2046 37.3993 92.2936 37.2402 92.2936 37.0205V36.816C92.2936 36.2213 92.1156 35.7535 91.7596 35.4126C91.4073 35.0679 90.8997 34.8955 90.2368 34.8955C89.608 34.8955 89.0948 35.0338 88.6971 35.3103C88.3031 35.5868 88.0266 35.9126 87.8675 36.2876L86.9073 35.941C87.1043 35.4637 87.377 35.083 87.7255 34.7989C88.074 34.511 88.4641 34.3046 88.8959 34.1796C89.3277 34.0508 89.7652 33.9864 90.2084 33.9864C90.5418 33.9864 90.8883 34.03 91.2482 34.1171C91.6118 34.2042 91.949 34.3557 92.2596 34.5716C92.5702 34.7838 92.8221 35.0811 93.0152 35.4637C93.2084 35.8425 93.305 36.3235 93.305 36.9069V42.833H92.2936V41.4523H92.2311C92.1099 41.7099 91.93 41.9599 91.6914 42.2023C91.4527 42.4448 91.1535 42.6436 90.7936 42.7989C90.4338 42.9542 90.0115 43.0319 89.5266 43.0319ZM89.663 42.1057C90.2008 42.1057 90.6668 41.9864 91.0607 41.7478C91.4546 41.5091 91.7577 41.1929 91.9698 40.7989C92.1857 40.4012 92.2936 39.9637 92.2936 39.4864V38.2251C92.2179 38.297 92.091 38.3614 91.913 38.4182C91.7387 38.4751 91.5361 38.5262 91.305 38.5716C91.0777 38.6133 90.8505 38.6493 90.6232 38.6796C90.3959 38.7099 90.1914 38.7364 90.0096 38.7591C89.5171 38.8197 89.0967 38.9144 88.7482 39.0432C88.3997 39.172 88.1327 39.3501 87.9471 39.5773C87.7615 39.8008 87.6686 40.0887 87.6686 40.441C87.6686 40.9713 87.858 41.3823 88.2368 41.6739C88.6156 41.9618 89.091 42.1057 89.663 42.1057ZM99.7529 34.1057V34.9864H95.5881V34.1057H99.7529ZM96.8892 32.0148H97.9063V40.5546C97.9063 40.9182 97.9688 41.2042 98.0938 41.4126C98.2188 41.6171 98.3816 41.7629 98.5824 41.8501C98.7832 41.9334 98.9972 41.9751 99.2244 41.9751C99.357 41.9751 99.4707 41.9675 99.5654 41.9523C99.66 41.9334 99.7434 41.9144 99.8154 41.8955L100.031 42.8103C99.9328 42.8482 99.8116 42.8823 99.6676 42.9126C99.5237 42.9466 99.3457 42.9637 99.1335 42.9637C98.7623 42.9637 98.4044 42.8823 98.0597 42.7194C97.7188 42.5565 97.4385 42.3141 97.2188 41.9921C96.9991 41.6701 96.8892 41.2705 96.8892 40.7932V32.0148ZM102.381 42.833V34.1057H103.398V42.833H102.381ZM102.898 32.6057C102.69 32.6057 102.512 32.5357 102.364 32.3955C102.216 32.2516 102.142 32.0792 102.142 31.8785C102.142 31.6777 102.216 31.5073 102.364 31.3671C102.512 31.2232 102.69 31.1512 102.898 31.1512C103.106 31.1512 103.285 31.2232 103.432 31.3671C103.58 31.5073 103.654 31.6777 103.654 31.8785C103.654 32.0792 103.58 32.2516 103.432 32.3955C103.285 32.5357 103.106 32.6057 102.898 32.6057ZM109.785 43.0148C109.031 43.0148 108.364 42.8235 107.785 42.441C107.209 42.0584 106.758 41.53 106.433 40.8557C106.107 40.1777 105.944 39.3955 105.944 38.5091C105.944 37.6152 106.107 36.8292 106.433 36.1512C106.758 35.4694 107.209 34.9391 107.785 34.5603C108.364 34.1777 109.031 33.9864 109.785 33.9864C110.539 33.9864 111.203 34.1777 111.779 34.5603C112.355 34.9429 112.806 35.4732 113.131 36.1512C113.461 36.8292 113.626 37.6152 113.626 38.5091C113.626 39.3955 113.463 40.1777 113.137 40.8557C112.811 41.53 112.359 42.0584 111.779 42.441C111.203 42.8235 110.539 43.0148 109.785 43.0148ZM109.785 42.0887C110.391 42.0887 110.904 41.9258 111.325 41.6001C111.745 41.2743 112.063 40.8406 112.279 40.2989C112.499 39.7573 112.609 39.1607 112.609 38.5091C112.609 37.8576 112.499 37.2591 112.279 36.7137C112.063 36.1682 111.745 35.7307 111.325 35.4012C110.904 35.0716 110.391 34.9069 109.785 34.9069C109.183 34.9069 108.669 35.0716 108.245 35.4012C107.825 35.7307 107.505 36.1682 107.285 36.7137C107.069 37.2591 106.961 37.8576 106.961 38.5091C106.961 39.1607 107.069 39.7573 107.285 40.2989C107.505 40.8406 107.825 41.2743 108.245 41.6001C108.666 41.9258 109.179 42.0887 109.785 42.0887ZM117.177 37.3785V42.833H116.166V34.1057H117.149V35.4751H117.24C117.444 35.0281 117.763 34.6701 118.194 34.4012C118.63 34.1285 119.168 33.9921 119.808 33.9921C120.395 33.9921 120.91 34.1152 121.353 34.3614C121.8 34.6038 122.147 34.9618 122.393 35.4353C122.643 35.9088 122.768 36.4902 122.768 37.1796V42.833H121.757V37.2421C121.757 36.5262 121.556 35.9599 121.155 35.5432C120.757 35.1266 120.223 34.9182 119.552 34.9182C119.094 34.9182 118.687 35.0167 118.331 35.2137C117.975 35.4107 117.692 35.6947 117.484 36.066C117.28 36.4334 117.177 36.8709 117.177 37.3785Z" fill="black"/>
<path d="M61.319 9.39835C61.2509 8.71085 60.9583 8.17676 60.4412 7.79608C59.9242 7.41539 59.2225 7.22505 58.3361 7.22505C57.7338 7.22505 57.2253 7.31028 56.8105 7.48073C56.3958 7.64551 56.0776 7.87562 55.856 8.17108C55.6401 8.46653 55.5321 8.80176 55.5321 9.17676C55.5208 9.48926 55.5861 9.76199 55.7281 9.99494C55.8759 10.2279 56.0776 10.4296 56.3333 10.6001C56.5889 10.7648 56.8844 10.9097 57.2196 11.0347C57.5548 11.154 57.9128 11.2563 58.2935 11.3415L59.8617 11.7165C60.623 11.887 61.3219 12.1143 61.9583 12.3983C62.5946 12.6824 63.1458 13.0319 63.6117 13.4466C64.0776 13.8614 64.4384 14.3501 64.694 14.9126C64.9554 15.4751 65.0889 16.1199 65.0946 16.8472C65.0889 17.9154 64.8162 18.8415 64.2764 19.6256C63.7423 20.404 62.9696 21.0091 61.9583 21.441C60.9526 21.8671 59.7395 22.0802 58.319 22.0802C56.91 22.0802 55.6827 21.8643 54.6372 21.4324C53.5975 21.0006 52.785 20.3614 52.1997 19.5148C51.6202 18.6626 51.3162 17.6086 51.2878 16.3529H54.8588C54.8986 16.9381 55.0662 17.4268 55.3617 17.8188C55.6628 18.2052 56.0634 18.4978 56.5634 18.6966C57.069 18.8898 57.6401 18.9864 58.2764 18.9864C58.9014 18.9864 59.444 18.8955 59.9043 18.7137C60.3702 18.5319 60.731 18.279 60.9867 17.9552C61.2423 17.6313 61.3702 17.2591 61.3702 16.8387C61.3702 16.4466 61.2537 16.1171 61.0208 15.8501C60.7935 15.583 60.4583 15.3557 60.0151 15.1682C59.5776 14.9807 59.0406 14.8103 58.4043 14.6569L56.5037 14.1796C55.0321 13.8216 53.8702 13.262 53.0179 12.5006C52.1656 11.7393 51.7423 10.7137 51.748 9.42392C51.7423 8.3671 52.0236 7.4438 52.5918 6.65403C53.1656 5.86426 53.9526 5.24778 54.9526 4.8046C55.9526 4.36142 57.0889 4.13983 58.3617 4.13983C59.6571 4.13983 60.7878 4.36142 61.7537 4.8046C62.7253 5.24778 63.481 5.86426 64.0208 6.65403C64.5605 7.4438 64.8389 8.35858 64.856 9.39835H61.319ZM66.9121 7.42108V4.37846H81.2473V7.42108H75.9036V21.833H72.2558V7.42108H66.9121ZM83.6081 21.833V4.37846H95.3695V7.42108H87.2985V11.5802H94.7644V14.6228H87.2985V18.7904H95.4036V21.833H83.6081ZM101.312 21.833H97.3574L103.383 4.37846H108.139L114.156 21.833H110.201L105.829 8.3671H105.693L101.312 21.833ZM101.065 14.9722H110.406V17.8529H101.065V14.9722ZM122.444 21.833H116.257V4.37846H122.495C124.251 4.37846 125.762 4.72789 127.029 5.42676C128.296 6.11994 129.271 7.1171 129.953 8.41823C130.64 9.71937 130.984 11.2762 130.984 13.0887C130.984 14.9069 130.64 16.4694 129.953 17.7762C129.271 19.083 128.291 20.0858 127.012 20.7847C125.74 21.4836 124.217 21.833 122.444 21.833ZM119.947 18.6711H122.291C123.382 18.6711 124.299 18.4779 125.043 18.0915C125.793 17.6995 126.356 17.0944 126.731 16.2762C127.112 15.4523 127.302 14.3898 127.302 13.0887C127.302 11.7989 127.112 10.7449 126.731 9.92676C126.356 9.10858 125.796 8.5063 125.052 8.11994C124.308 7.73358 123.39 7.54039 122.299 7.54039H119.947V18.6711ZM131.64 4.37846H135.774L139.754 11.8955H139.924L143.904 4.37846H148.038L141.671 15.6626V21.833H138.007V15.6626L131.64 4.37846Z" fill="black"/>
<path d="M36.6838 13.2361L26.5215 2.82877C25.282 1.58981 23.547 0.846422 21.5642 0.846422H6.94018C3.22221 0.598617 0 3.81996 0 7.53687V42.2281C0 45.9449 2.97436 49.1663 6.94018 49.1663H31.7265C35.4445 49.1663 38.6667 46.1929 38.6667 42.2281V17.9442C38.6667 16.2097 37.9231 14.4751 36.6838 13.2361ZM11.8974 20.4223H19.3333C20.3249 20.4223 21.3162 21.1656 21.3162 22.4047C21.3162 23.6434 20.5726 24.3868 19.3333 24.3868H11.8974C10.906 24.3868 9.91452 23.6434 9.91452 22.4047C9.91452 21.1656 10.906 20.4223 11.8974 20.4223ZM26.7692 34.2988H11.8974C10.906 34.2988 9.91452 33.5554 9.91452 32.3164C9.91452 31.0774 10.6581 30.334 11.8974 30.334H26.7692C27.7607 30.334 28.7521 31.0774 28.7521 32.3164C28.7521 33.5554 27.7607 34.2988 26.7692 34.2988Z" fill="#7856FC"/>
</svg>
