<?xml version="1.0" encoding="UTF-8"?>
<svg id="Layer_1" data-name="Layer 1" xmlns="http://www.w3.org/2000/svg" viewBox="0 0 959.91 219.9">
  <defs>
    <style>
      .cls-1 {
        fill: #7856fc;
      }

      .cls-1, .cls-2 {
        stroke-width: 0px;
      }

      .cls-2 {
        fill: #231f20;
      }
    </style>
  </defs>
  <g>
    <path class="cls-1" d="m82.18,83.04h16.91c2.72,0,5.26-1.41,6.69-3.72l11.67-18.79c1.85-2.97,5.1-4.78,8.6-4.78h111.28l-25.13-47.48c-3.2-5.15-8.83-8.26-14.88-8.26h-49.17c-9.26.01-17.81,4.99-22.47,12.98l-43.51,70.06Z"/>
    <path class="cls-1" d="m161.42,136.86h-16.91c-2.72,0-5.26,1.41-6.69,3.72l-11.67,18.79c-1.85,2.97-5.1,4.78-8.6,4.78H6.26l25.13,47.48c3.2,5.15,8.83,8.26,14.88,8.26h49.17c9.26-.01,17.81-4.99,22.47-12.98l43.51-70.06Z"/>
    <path class="cls-1" d="m240.59,105.81l-15.91-30.12c-2.28-4.32-6.76-7.02-11.64-7.02h-54.33l39.81,74.76c2.81,5.28-1.01,11.65-6.99,11.65h-25.21l-39.43,64.82h48.18c6.06,0,11.69-3.13,14.89-8.27l49.73-79.92c4.88-7.86,5.23-17.72.91-25.9Z"/>
    <path class="cls-1" d="m30.57,151.23h54.33l-39.81-74.76c-2.81-5.28,1.01-11.65,6.99-11.65h25.21L116.72,0h-48.18c-6.06,0-11.69,3.13-14.89,8.27L3.92,88.19c-4.88,7.86-5.23,17.72-.91,25.9l15.91,30.12c2.28,4.32,6.76,7.02,11.64,7.02Z"/>
  </g>
  <g>
    <g>
      <path class="cls-2" d="m300.52,115.85h25.11c0,10.29,9.49,17.56,22.34,17.56,10.88,0,18.79-5.25,18.79-12.31-.2-20.78-65.25-.2-65.25-43.79.2-20.18,18.79-34.71,43.5-34.71,27.09,0,46.67,14.93,46.86,35.72h-26.1c-.2-8.47-8.9-14.33-20.76-14.33-9.29,0-16.61,4.84-16.61,11.5-.2,19.77,66.64,3.43,66.84,42.37,0,21.39-19.58,36.93-47.65,36.93s-47.06-16.34-47.06-38.94Z"/>
      <path class="cls-2" d="m413.83,70.04h-14.24v-23h15.62v-26.03h28.28v26.03h22.94v23h-22.94v43.79c0,8.68,5.14,14.53,13.45,14.53,2.77,0,7.12-.61,10.48-1.41l-.2,24.21c-5.93,2.02-13.84,3.23-20.17,3.23-20.17,0-33.22-15.54-33.22-37.53v-46.81Z"/>
      <path class="cls-2" d="m557.03,117.46l25.9,5.85c-5.34,17.96-26.1,31.07-50.03,31.07-32.63,0-55.76-23.2-55.76-56.5s23.14-54.88,55.76-54.88,54.58,22.6,54.58,55.29c0,2.62,0,6.86-.4,9.08l-79.29-.2c2.57,14.53,12.46,24.01,25.9,24.01,10.68,0,19.77-5.85,23.33-13.72Zm.4-28.45c-1.78-13.12-11.67-22.8-25.11-22.8s-22.15,9.08-24.72,22.8h49.83Z"/>
      <path class="cls-2" d="m682.18,47.04h29.66v103.31h-29.66v-14.33c-7.91,11.5-19.97,18.36-34.41,18.36-28.47,0-48.45-23-48.45-55.69s19.97-55.69,48.45-55.69c14.43,0,26.5,6.86,34.41,18.36v-14.33Zm-.2,51.66c0-16.75-11.07-29.06-26.5-29.06s-26.5,12.31-26.5,29.06,11.07,29.06,26.5,29.06,26.5-12.31,26.5-29.06Z"/>
      <path class="cls-2" d="m805.94,6.15h29.66v144.21h-29.27v-12.51c-7.91,10.29-19.58,16.55-33.81,16.55-28.08,0-48.05-23-48.05-55.69s19.97-55.69,48.05-55.69c13.84,0,25.51,6.05,33.42,16.55V6.15Zm-25.31,121c15.42,0,26.5-12.11,26.5-28.45s-11.07-28.45-26.5-28.45-26.5,12.11-26.5,28.45,11.27,28.45,26.5,28.45Z"/>
      <path class="cls-2" d="m860.25,170.93c3.36,1.21,8.5,2.22,12.06,2.22,12.66,0,17.6-9.28,22.15-21.79l-47.85-104.32h32.43l27.49,66.59,22.54-66.59h30.85l-39.15,106.94c-9.49,26.43-20.37,42.98-40.93,42.98-6.33,0-14.04-1.41-19.58-3.63v-22.4Z"/>
    </g>
    <g>
      <path class="cls-1" d="m306.97,191.86h16.98v3.95h-16.98v16.47h-4.65v-40.31h24.93v4.23h-20.28v15.67Z"/>
      <path class="cls-1" d="m362.6,170.53c12.44,0,21.29,8.98,21.29,21.61s-8.85,21.56-21.29,21.56-21.23-8.92-21.23-21.56,8.8-21.61,21.23-21.61Zm0,38.94c9.69,0,16.58-7.26,16.58-17.33s-6.89-17.38-16.58-17.38-16.58,7.26-16.58,17.38,6.95,17.27,16.58,17.33Z"/>
      <path class="cls-1" d="m405.64,196.49v15.78h-4.65v-40.31h17.42c8.35,0,14.29,5.15,14.29,12.41,0,5.49-4.03,10.18-9.75,11.44l10.08,16.47h-5.43l-9.36-15.78h-12.61Zm0-20.3v16.07h12.44c5.83,0,9.97-3.26,9.97-7.89,0-5.09-4.15-8.18-9.97-8.18h-12.44Z"/>
      <path class="cls-1" d="m469.56,212.27l-14.62-34.19v34.19h-4.65v-40.31h6.84l14.34,33.68,14.34-33.68h6.84v40.31h-4.65v-34.25l-14.68,34.25h-3.75Z"/>
      <path class="cls-1" d="m508,212.27l14.73-40.31h6.72l14.73,40.31h-4.99l-3.36-9.49h-19.61l-3.25,9.49h-4.99Zm9.64-13.21h16.98l-8.46-22.87-8.52,22.87Z"/>
      <path class="cls-1" d="m571.04,212.27h-4.65v-36.08h-13.22v-4.23h31.09v4.23h-13.22v36.08Z"/>
      <path class="cls-1" d="m599.17,212.27v-40.31h4.65v40.31h-4.65Z"/>
      <path class="cls-1" d="m642.19,170.53c12.44,0,21.29,8.98,21.29,21.61s-8.85,21.56-21.29,21.56-21.23-8.92-21.23-21.56,8.8-21.61,21.23-21.61Zm0,38.94c9.69,0,16.58-7.26,16.58-17.33s-6.89-17.38-16.58-17.38-16.58,7.26-16.58,17.38,6.95,17.27,16.58,17.33Z"/>
      <path class="cls-1" d="m680.58,212.27v-40.31h6.33l20.22,34.48v-34.48h4.71v40.31h-6.33l-20.28-34.48v34.48h-4.65Z"/>
    </g>
  </g>
</svg>