<svg width="20" height="22" viewBox="0 0 20 22" fill="none" xmlns="http://www.w3.org/2000/svg">
<path d="M12.186 1.75195V5.34795C12.186 5.83495 12.381 6.30295 12.726 6.64795C13.0729 6.99332 13.5425 7.18714 14.032 7.18695H18.157" stroke="#667085" stroke-width="2" stroke-linecap="round" stroke-linejoin="round"/>
<path d="M5.647 6.64605H8.912M5.647 10.9991H14.353M5.647 15.3521H14.353M18.25 7.56705V16.1351C18.2301 16.6955 18.0996 17.2464 17.8658 17.7562C17.6321 18.2659 17.2997 18.7243 16.888 19.1051C16.4759 19.4875 15.9925 19.7851 15.4654 19.9807C14.9383 20.1763 14.3778 20.2661 13.816 20.2451H6.226C5.66074 20.2709 5.09594 20.1849 4.56398 19.992C4.03201 19.7991 3.54335 19.5032 3.126 19.1211C2.71027 18.7393 2.37454 18.2788 2.13833 17.7661C1.90211 17.2535 1.77011 16.6991 1.75 16.1351V5.86105C1.76985 5.30063 1.90042 4.74967 2.13418 4.23993C2.36794 3.7302 2.70026 3.27177 3.112 2.89105C3.52408 2.50857 4.00748 2.21103 4.53458 2.01543C5.06169 1.81982 5.62217 1.72999 6.184 1.75105H11.898C12.7703 1.74797 13.6123 2.07072 14.259 2.65605L17.219 5.37805C17.5349 5.65013 17.7899 5.98565 17.9675 6.3628C18.1452 6.73994 18.2414 7.15026 18.25 7.56705Z" stroke="#667085" stroke-width="2" stroke-linecap="round" stroke-linejoin="round"/>
</svg>
