<svg width="28" height="28" viewBox="0 0 28 28" fill="none" xmlns="http://www.w3.org/2000/svg">
<path d="M9.19986 2.57227C7.48558 2.57227 6.11415 3.02941 4.97129 3.71512C4.51415 4.05798 4.057 4.51512 3.71415 4.97227C3.02843 6.11512 2.57129 7.48655 2.57129 9.20084V18.8008C2.57129 22.9151 5.08558 25.4294 9.19986 25.4294H17.7713V2.57227H9.19986ZM14.1141 14.5723L11.1427 17.5437C10.9141 17.658 10.7999 17.7723 10.5713 17.7723C10.3427 17.7723 10.1141 17.658 9.99986 17.5437C9.657 17.2008 9.657 16.6294 9.99986 16.2866L12.2856 14.0008L9.99986 11.7151C9.657 11.3723 9.657 10.8008 9.99986 10.458C10.3427 10.1151 10.9141 10.1151 11.257 10.458L14.2284 13.4294C14.457 13.7723 14.457 14.2294 14.1141 14.5723Z" fill="#7856FC"/>
<path d="M19.4858 2.57227V25.4294C20.8573 25.3151 22.1144 24.9723 23.0287 24.2866C23.4858 23.9437 23.943 23.4866 24.2858 23.0294C25.0858 21.8866 25.4287 20.5151 25.4287 18.8008V9.20084C25.4287 5.31512 23.2573 2.80084 19.4858 2.57227Z" fill="#7856FC"/>
</svg>
