<svg width="38" height="48" viewBox="0 0 38 48" fill="none" xmlns="http://www.w3.org/2000/svg">
<path d="M37.4321 10.368C37.4321 9.79202 37.2401 9.40802 36.8561 9.02402C36.4721 8.64002 35.8961 8.44802 35.3201 8.44802C24.5681 9.02402 20.7281 2.11202 20.7281 1.92002C20.3441 1.34402 19.7681 0.960022 19.0001 0.960022C18.2321 0.960022 17.6561 1.34402 17.2721 1.92002C17.2721 2.30402 13.4321 9.02402 2.68012 8.44802C2.10412 8.44802 1.52812 8.64002 1.14412 9.02402C0.760115 9.40802 0.568115 9.79202 0.568115 10.368V24.384C0.568115 35.136 7.67212 44.352 18.0401 47.04L18.6161 47.232H19.0001H19.3841L19.9601 47.04C30.3281 44.544 37.4321 35.328 37.4321 24.576V10.368ZM27.6401 30.336C27.4481 30.528 27.4481 30.528 27.2561 30.72C25.1441 28.416 22.2641 27.072 19.0001 27.072C15.7361 27.072 12.6641 28.416 10.7441 30.72C10.5521 30.72 10.5521 30.528 10.3601 30.336C9.01612 28.608 8.24812 26.304 8.24812 24C8.24812 18.048 13.0481 13.248 19.0001 13.248C24.9521 13.248 29.7521 18.048 29.7521 24C29.7521 26.496 28.9841 28.608 27.6401 30.336Z" fill="#9886FE"/>
<path d="M23.4162 22.656C23.4162 20.352 21.4962 18.24 19.0002 18.24C16.5042 18.24 14.5842 20.16 14.5842 22.656C14.5842 25.152 16.5042 27.072 19.0002 27.072C21.4962 27.072 23.4162 25.152 23.4162 22.656Z" fill="#9886FE"/>
</svg>
