<svg width="48" height="48" viewBox="0 0 48 48" fill="none" xmlns="http://www.w3.org/2000/svg">
<path d="M23.6252 2.40912C19.943 2.40912 16.9555 5.39883 16.9555 9.07883C16.9555 11.5428 18.2927 13.6937 20.2812 14.8503C21.687 14.5714 23.1521 14.4251 24.6584 14.4251C25.5841 14.4251 26.4961 14.48 27.3875 14.5897C29.143 13.3874 30.2972 11.3668 30.2972 9.08112C30.295 5.39883 27.3075 2.40912 23.6252 2.40912ZM24.375 12.3245V12.8983C24.375 13.312 24.039 13.648 23.6252 13.648C23.2115 13.648 22.8755 13.312 22.8755 12.8983V12.3863C22.2515 12.2491 21.7327 11.92 21.4127 11.504C21.1612 11.1748 21.2252 10.704 21.5544 10.4525C21.8835 10.2011 22.3544 10.2651 22.6058 10.592C22.7841 10.8251 23.1292 10.9531 23.5087 10.9531C23.8104 10.9531 24.0847 10.8708 24.2812 10.7223C24.3978 10.6354 24.4915 10.5257 24.4915 10.3908C24.4915 10.032 24.1007 9.82855 23.6252 9.82855C23.5864 9.82855 23.5475 9.82626 23.5087 9.8194C22.2058 9.71883 21.2595 8.78398 21.2595 7.76455C21.2595 6.92112 21.911 6.13483 22.8755 5.83312V5.2594C22.8755 4.84569 23.2115 4.50969 23.6252 4.50969C24.039 4.50969 24.375 4.84569 24.375 5.2594V5.7714C24.999 5.90855 25.5178 6.23769 25.8378 6.65369C26.0892 6.98283 26.0252 7.45369 25.6961 7.70512C25.367 7.95655 24.8961 7.89255 24.6447 7.5634C24.4664 7.33026 24.1212 7.20226 23.7418 7.20226C23.4424 7.20226 23.1681 7.28455 22.9715 7.4354C22.855 7.52226 22.7612 7.63198 22.7612 7.76455C22.7612 7.8994 22.855 8.00683 22.9715 8.09598C23.1681 8.24455 23.4424 8.32683 23.7418 8.32683C23.7807 8.32683 23.8172 8.32912 23.8538 8.33598C25.1635 8.43198 25.991 9.3554 25.991 10.3908C25.991 11.2365 25.3395 12.0228 24.375 12.3245ZM44.7087 22.5394L43.207 22.1051C42.6058 19.9703 41.4698 18.5805 39.8972 16.9028L41.8767 12.6194C42.0024 12.3451 41.9521 12.0205 41.7487 11.7988C41.5452 11.5748 41.2275 11.4971 40.9441 11.6L35.7098 13.4743C34.3955 12.6857 32.9555 12.032 31.4195 11.5428C31.0104 12.8365 30.2881 13.9908 29.3441 14.9188C30.5852 15.184 31.7784 15.5497 32.9075 16.0068C33.2915 16.1623 33.4767 16.5988 33.3212 16.9828C33.1658 17.3668 32.7292 17.552 32.3452 17.3965C30.903 16.8137 29.3532 16.3885 27.7258 16.1508L27.7212 16.1531C26.7361 15.9977 25.7212 15.9291 24.6858 15.9291C23.0584 15.9291 21.5544 16.1028 20.055 16.4343C19.4195 16.576 18.7978 16.7497 18.1921 16.9485C17.5864 17.1474 16.999 17.3737 16.4275 17.6251C16.0481 17.792 15.607 17.6205 15.4401 17.2411C15.2732 16.8617 15.4447 16.4205 15.8241 16.2537C16.6355 15.8948 17.4812 15.5863 18.3567 15.328C17.3692 14.4937 16.583 13.4308 16.0801 12.2217C11.0584 14.3588 7.32353 18.3108 6.07553 23.0263C5.67096 22.7977 5.33039 22.5348 5.04239 22.2491C5.70753 21.3303 6.37267 20.2514 6.70867 19.2457C7.14525 17.9337 7.03782 16.736 6.11439 15.9383C5.55439 15.4537 4.97839 15.3371 4.45267 15.4423C3.96353 15.5405 3.49496 15.8537 3.12239 16.3565C2.20125 17.5954 1.84239 20.1714 3.14296 22.2743C2.55325 23.0011 2.08467 23.4834 2.08467 23.4834C1.79667 23.7805 1.80582 24.256 2.10296 24.544C2.4001 24.832 2.87553 24.8228 3.16353 24.5257C3.16353 24.5257 3.5681 24.1051 4.10982 23.4468C4.5601 23.8651 5.10639 24.24 5.76239 24.5508C5.67096 25.1863 5.62296 25.8331 5.62296 26.4868C5.62296 31.568 8.4481 36.112 12.8824 39.0468V42.5783C12.8824 44.3314 14.3041 45.7531 16.0572 45.7531H17.4744C19.2275 45.7531 20.6492 44.3314 20.6492 42.5783V42.1165C21.9407 42.3474 23.2778 42.4708 24.6515 42.4708C26.2561 42.4708 27.8127 42.304 29.2984 41.9908V42.2674C29.2984 43.1085 29.6321 43.9177 30.2287 44.512C30.8252 45.1085 31.6321 45.4423 32.4732 45.4423H33.8904C34.7338 45.4423 35.5407 45.1085 36.135 44.512C36.7315 43.9154 37.0652 43.1085 37.0652 42.2674V38.6011C40.0527 36.4503 41.6252 34.1005 42.4984 30.784L44.535 30.3863C45.4561 30.2057 46.119 29.3988 46.119 28.4617V24.4251C46.1258 23.5474 45.5475 22.7817 44.7087 22.5394ZM4.14182 20.9303C3.67325 19.8583 3.70067 18.7063 4.00696 17.8628C4.24925 17.2 4.63782 16.64 5.13382 17.0674C5.4081 17.3051 5.47896 17.632 5.45382 17.9931C5.41725 18.512 5.19553 19.0857 4.90067 19.6617C4.68125 20.0937 4.41839 20.5234 4.14182 20.9303ZM37.8744 24.7497C37.047 24.7497 36.375 24.0777 36.375 23.2503C36.375 22.4228 37.047 21.7508 37.8744 21.7508C38.7018 21.7508 39.3738 22.4228 39.3738 23.2503C39.3761 24.0777 38.7041 24.7497 37.8744 24.7497Z" fill="#3CCB7F"/>
</svg>
