<svg width="48" height="48" viewBox="0 0 48 48" fill="none" xmlns="http://www.w3.org/2000/svg">
<g clip-path="url(#clip0_8334_10289)">
<path d="M38.2194 20.7363C39.355 25.6127 37.8931 30.73 34.3526 34.2705C30.8121 37.8114 25.6948 39.2733 20.8183 38.1381L38.2194 20.7363ZM19.4264 39.5293C20.9526 39.9948 22.5385 40.2341 24.1338 40.2402C29.2549 40.2236 34.0675 37.7895 37.1157 33.6742C40.1638 29.559 41.0895 24.2461 39.6129 19.3424L40.9802 17.9751C43.3065 24.5033 41.6662 31.7873 36.7659 36.688C31.8652 41.5886 24.5812 43.2294 18.053 40.9031L19.4264 39.5293ZM46.7476 28.35C45.8582 29.0481 45.5277 30.2445 45.9331 31.2999C46.2866 32.1806 46.2556 33.169 45.8476 34.0259C45.4388 34.8945 44.695 35.56 43.7868 35.8701C42.7196 36.2323 42.0084 37.2412 42.0254 38.3677C42.0451 39.3096 41.6843 40.2194 41.0252 40.8925C40.3661 41.5652 39.4639 41.9441 38.5219 41.9441H38.4074C37.2987 41.9456 36.3133 42.6516 35.9555 43.7009C35.647 44.6107 34.9815 45.356 34.1125 45.7655C33.253 46.1754 32.2611 46.2064 31.3778 45.851C30.3262 45.4502 29.1362 45.7799 28.4408 46.6644C27.8479 47.4146 26.9755 47.891 26.0241 47.9848C25.086 48.0737 24.1531 47.77 23.4468 47.1465C22.9835 46.7283 22.3808 46.498 21.7565 46.5006C21.277 46.5006 20.807 46.6337 20.3986 46.8848C19.5947 47.3934 18.6149 47.5447 17.6949 47.3019C16.7821 47.0709 16.0099 46.4632 15.5705 45.6305C15.3149 45.1533 14.9118 44.7714 14.4214 44.5419L16.731 42.225C24.0393 45.1745 32.4029 43.4714 37.9755 37.8984C43.5481 32.3258 45.2513 23.9621 42.3014 16.6539L44.6205 14.3348C44.8497 14.8256 45.2316 15.2283 45.7092 15.4832C46.5419 15.9237 47.1488 16.6959 47.3809 17.6087C47.6237 18.5306 47.4713 19.5122 46.9605 20.3173C46.3656 21.274 46.47 22.5078 47.2168 23.3511C47.843 24.0582 48.1493 24.9926 48.0635 25.9334C47.9712 26.8844 47.4963 27.7568 46.7476 28.35Z" fill="#EAAA08"/>
<path d="M9.94085 27.2614C8.80492 22.3846 10.2672 17.2672 13.8077 13.7264C17.3486 10.1859 22.4659 8.72361 27.3427 9.85953L9.94085 27.2614ZM28.7358 8.46572C23.021 6.74028 16.8203 8.29744 12.5995 12.5186C8.37839 16.7397 6.82122 22.9404 8.54704 28.6552L7.17553 30.0267C4.84583 23.497 6.48581 16.2096 11.388 11.307C16.2901 6.40487 23.5776 4.76489 30.1073 7.09421L28.7358 8.46572ZM1.41272 19.6476C2.3021 18.9496 2.63259 17.7531 2.22685 16.6978C1.87367 15.8167 1.90468 14.8286 2.31231 13.9718C2.72146 13.1032 3.46525 12.4377 4.37354 12.1276C5.44064 11.7653 6.15192 10.7565 6.1349 9.62962C6.11524 8.68806 6.47598 7.77788 7.13507 7.10518C7.79416 6.43247 8.6964 6.0532 9.63834 6.05358H9.75291C10.8616 6.05207 11.847 5.34609 12.2048 4.29638C12.5144 3.38658 13.1811 2.64203 14.0512 2.23364C14.9107 1.82374 15.9026 1.79273 16.7859 2.14818C17.8367 2.54901 19.0263 2.21965 19.7221 1.33556C20.315 0.585718 21.1874 0.108888 22.1388 0.0154877C23.0766 -0.0741307 24.0098 0.229513 24.7158 0.853439C25.5613 1.60707 26.8024 1.7137 27.764 1.11511C28.5683 0.606894 29.5476 0.456017 30.4676 0.698025C31.3808 0.929445 32.1526 1.53673 32.592 2.36939C32.8476 2.84698 33.2511 3.2289 33.7415 3.45843L31.4239 5.77754C24.1161 2.82505 15.7509 4.52742 10.1783 10.1012C4.60571 15.6753 2.90485 24.0404 5.85886 31.3479L3.53975 33.6629C3.31059 33.1721 2.92868 32.769 2.45109 32.5141C1.61843 32.0739 1.01114 31.3018 0.779345 30.389C0.536581 29.4667 0.68897 28.4854 1.19983 27.68C1.79464 26.7233 1.69028 25.4898 0.943456 24.6466C0.317261 23.9395 0.0105921 23.0047 0.0968074 22.0643C0.189073 21.1133 0.664013 20.2409 1.41272 19.6476Z" fill="#EAAA08"/>
<path d="M11.0364 42.2995C11.3155 42.4341 11.6456 42.4073 11.8993 42.2288C12.1527 42.0507 12.2899 41.7493 12.2578 41.4411C12.2257 41.133 12.029 40.8664 11.7443 40.7442L5.09854 37.7233C4.77448 37.5766 4.39331 37.6458 4.14148 37.8972C3.89001 38.1487 3.82044 38.5299 3.96715 38.8539L6.9896 45.5004C7.10985 45.7878 7.37682 45.9871 7.68651 46.0204C7.9962 46.0537 8.29947 45.916 8.47795 45.6608C8.65643 45.4055 8.68214 45.0735 8.54488 44.7941L8.03213 43.671L9.91185 41.7909L11.0364 42.2995ZM7.27661 42.0099L6.46399 40.2213L8.25182 41.0339L7.27661 42.0099Z" fill="#EAAA08"/>
<path d="M13.8077 39.96C14.1533 39.96 14.4652 39.7521 14.5976 39.4325C14.7303 39.1134 14.6573 38.7458 14.4127 38.5012L12.5995 36.688L13.2045 36.0838C14.2055 35.0821 14.2051 33.4587 13.2034 32.4578C12.2021 31.4569 10.5787 31.4572 9.57782 32.4586L8.97355 33.0628C8.65289 33.3835 8.4729 33.8183 8.4729 34.2717C8.4729 34.7251 8.65289 35.16 8.97355 35.4802L10.7765 37.2824L10.786 37.293L13.2034 39.7105C13.3637 39.8704 13.5812 39.96 13.8077 39.96ZM11.9952 34.8752L11.3902 35.4795L10.1821 34.2713L10.786 33.6671C11.0019 33.4512 11.3165 33.3665 11.6114 33.4455C11.9064 33.5245 12.137 33.7548 12.2161 34.0498C12.2951 34.3447 12.2112 34.6593 11.9952 34.8752Z" fill="#EAAA08"/>
<path d="M18.6418 35.1255C18.9874 35.1255 19.299 34.9175 19.4313 34.598C19.5633 34.2789 19.4903 33.9113 19.246 33.667L17.4336 31.8535L18.0375 31.2496C19.0093 30.2438 18.9953 28.6446 18.0065 27.6558C17.0177 26.667 15.4185 26.653 14.4127 27.6244L13.8076 28.2287C13.1406 28.8961 13.1406 29.9779 13.8076 30.6453L18.0375 34.8752C18.1978 35.0355 18.4152 35.1255 18.6418 35.1255ZM16.8293 30.0411L16.2251 30.6453L15.0169 29.4372L15.6212 28.8329C15.9562 28.5089 16.4894 28.5138 16.8188 28.8431C17.1485 29.1729 17.153 29.7061 16.8293 30.0411Z" fill="#EAAA08"/>
<path d="M26.7472 27.0205C26.7472 26.5486 26.3645 26.1659 25.8926 26.1659H23.0925C23.9176 25.0947 23.7686 23.567 22.7526 22.675C21.7365 21.7829 20.202 21.8336 19.2469 22.7903L18.6426 23.3946C17.9756 24.062 17.9756 25.1438 18.6426 25.8112L22.8728 30.0411C23.2094 30.3568 23.7357 30.3481 24.0617 30.0218C24.388 29.6955 24.396 29.1691 24.0802 28.8329L23.1224 27.8751H25.8926C26.3645 27.8751 26.7472 27.4924 26.7472 27.0205ZM21.6635 25.207L21.0593 25.812L19.8504 24.6031L20.4543 23.9988C20.6702 23.7829 20.9848 23.6982 21.2797 23.7772C21.5751 23.8563 21.8053 24.0865 21.8844 24.3815C21.9638 24.6764 21.8795 24.9911 21.6635 25.207Z" fill="#EAAA08"/>
<path d="M30.1225 23.9988C31.1212 22.9964 31.1212 21.3753 30.1225 20.3729L27.7062 17.9573C26.6917 16.9882 25.0944 16.9882 24.0803 17.9573C23.0794 18.9583 23.0794 20.5812 24.0803 21.5822L26.497 23.9988C26.9776 24.4798 27.6299 24.7498 28.3097 24.7498C28.9896 24.7498 29.6419 24.4798 30.1225 23.9988ZM25.2884 20.3729C25.0665 20.1585 24.9772 19.8408 25.0555 19.5421C25.1338 19.243 25.3671 19.0097 25.6658 18.9318C25.9645 18.8535 26.2822 18.9424 26.497 19.1647L28.9136 21.5814C29.1295 21.7969 29.2139 22.1119 29.1348 22.4069C29.0562 22.7018 28.8259 22.9321 28.531 23.0115C28.236 23.0906 27.921 23.0062 27.7051 22.7903L25.2884 20.3729Z" fill="#EAAA08"/>
<path d="M34.3525 19.4151C34.66 19.4147 34.9439 19.2491 35.0956 18.9814C35.2468 18.7136 35.243 18.385 35.0846 18.1215L31.4598 12.0781C31.2166 11.6735 30.6918 11.5423 30.2868 11.7854C29.8822 12.0286 29.7514 12.5534 29.9941 12.958L31.8565 16.0697L28.7459 14.2025C28.3413 13.9597 27.8161 14.0909 27.5733 14.4955C27.3305 14.9001 27.4617 15.425 27.8663 15.6677L33.9082 19.2937C34.0425 19.3739 34.196 19.4158 34.3525 19.4151Z" fill="#EAAA08"/>
<path d="M37.9782 15.7902C38.2021 15.7902 38.4168 15.7021 38.5764 15.5456L41.018 13.1531C41.355 12.8226 41.3606 12.2815 41.0301 11.9442C40.7 11.6069 40.1589 11.6016 39.8216 11.9317L37.9843 13.7317L36.7693 12.5171L37.9782 11.3089C38.2005 11.0941 38.2894 10.7765 38.2115 10.4778C38.1332 10.1791 37.8999 9.94575 37.6012 9.86747C37.3025 9.7892 36.9845 9.87844 36.7701 10.1004L35.5608 11.3089L34.3526 10.0996L36.165 8.28724C36.4887 7.95183 36.4842 7.41904 36.1544 7.0893C35.8251 6.75956 35.2919 6.75503 34.9565 7.07909L32.5402 9.49652C32.2063 9.83004 32.2063 10.3712 32.5402 10.7047L34.9565 13.1213L37.3743 15.5388C37.5343 15.6995 37.7517 15.7899 37.9782 15.7902Z" fill="#EAAA08"/>
<path d="M42.8117 10.955C43.0382 10.955 43.2556 10.865 43.4159 10.7047L44.0202 10.1004C45.3543 8.76599 45.3543 6.60229 44.0202 5.26747L42.8117 4.05894C41.4769 2.72449 39.3132 2.72449 37.9783 4.05894L37.3744 4.6632C37.0405 4.99672 37.0405 5.53783 37.3744 5.87135L42.2074 10.7047C42.3677 10.865 42.5852 10.955 42.8117 10.955ZM41.6035 5.26747L42.8117 6.47561C43.4791 7.14302 43.4791 8.22487 42.8117 8.89229L39.1869 5.26747C39.8633 4.62236 40.927 4.62236 41.6035 5.26747Z" fill="#EAAA08"/>
</g>
<defs>
<clipPath id="clip0_8334_10289">
<rect width="48" height="48" fill="white"/>
</clipPath>
</defs>
</svg>
