<svg width="48" height="48" viewBox="0 0 48 48" fill="none" xmlns="http://www.w3.org/2000/svg">
<path d="M13.997 35.0288C12.1763 32.7544 11.1667 29.9316 11.1667 26.955C11.1667 22.1925 14.7676 18.361 18.1163 14.7281C16.4795 14.011 16.0492 11.8631 17.3326 10.5769C17.7582 10.1513 18.332 9.87564 18.9695 9.83252L17.056 7.81877C16.2695 6.99189 15.9188 5.95314 16.7504 5.18814C17.6298 4.38002 19.442 4.46533 20.7423 4.75783C21.617 2.29408 24.5748 1.46252 26.4798 3.24846C26.9101 3.65533 27.2504 4.17096 27.4604 4.75783C28.7598 4.46533 30.572 4.38096 31.4523 5.18814C32.2838 5.95314 31.9332 6.99283 31.1467 7.81877L29.9007 9.13127H43.8423V9.12564C44.7273 9.12564 45.4445 9.84564 45.4445 10.7306H45.4417V20.5922H45.4445C45.4445 21.4772 44.7273 22.1972 43.8423 22.1972H35.8407C36.5766 23.6906 37.037 25.2722 37.037 26.9541C37.037 30.8044 35.342 34.3472 32.5295 36.766L36.3245 34.9903C37.6745 34.3603 39.362 34.4531 40.0923 35.4338C40.3098 35.7235 40.4195 36.061 40.3895 36.4303C40.3501 36.975 40.0098 37.5469 39.2598 38.0438C36.0226 40.1935 29.7376 44.7375 27.4707 45.3572C26.8538 45.5269 17.1413 45.3253 14.6485 45.3197C14.3879 45.7294 13.9285 45.9788 13.4232 45.976C12.4613 45.9675 11.4779 45.9788 10.5188 45.9516C9.85415 45.9385 9.30946 45.4622 9.15853 44.8406H2.59978C2.1854 44.8406 1.8479 44.506 1.8479 44.0916V36.825C1.8479 36.4106 2.1854 36.076 2.59978 36.076H9.28321C9.41634 35.4066 10.0117 34.9388 10.6998 34.9435C11.6645 34.9491 12.6451 34.9378 13.607 34.965C13.742 34.9678 13.8751 34.9885 13.997 35.0288ZM9.13696 43.3435C9.17165 41.4197 9.20353 39.4978 9.2354 37.5741H3.34884V43.3435H9.13696ZM10.742 36.7716L10.6117 44.46L13.3754 44.4816L13.5113 36.4585L10.7476 36.4369L10.742 36.7716ZM14.882 43.8272C17.2763 43.8403 26.596 43.9997 27.1379 43.8994C28.7935 43.3969 33.497 40.171 36.5298 38.0897C37.2901 37.5713 37.9435 37.1194 38.4329 36.796C38.7488 36.586 38.8876 36.4322 38.8951 36.3281L38.8895 36.331C38.8576 36.286 38.7938 36.2428 38.7057 36.2035C38.3017 36.0197 37.651 36.0197 36.9545 36.3469L30.9854 39.135C29.8801 39.6506 24.8063 39.1453 23.5285 39.0131C21.3676 38.7928 19.5395 38.3963 19.3745 38.0428C19.066 37.3838 19.8179 36.7219 20.8145 36.1003C21.5588 35.6325 22.5526 35.0822 23.626 34.5188C23.6476 34.5056 23.6682 34.4944 23.6898 34.4841C24.9123 33.931 25.2498 32.8547 24.5907 32.4403C24.1604 32.1694 23.3785 32.1694 22.2526 32.7056C20.836 33.3835 19.8104 34.5075 18.5823 34.8769C17.2829 35.265 16.1316 36.5006 14.987 37.4944C14.9513 39.6047 14.9166 41.7178 14.882 43.8272ZM27.6488 37.8291C32.3157 36.3094 35.5332 31.9453 35.5332 26.955C35.5332 25.2488 34.9782 23.6756 34.1457 22.1981H27.8316C27.3826 22.1981 26.9654 22.0144 26.6598 21.6853L22.6735 17.3991C22.052 16.7297 21.8607 15.7838 22.1448 14.9438H19.9501C16.652 18.5681 12.6685 22.4325 12.6685 26.956C12.6685 29.911 13.7926 32.6935 15.7801 34.801C16.532 34.1869 17.2838 33.7003 18.1557 33.4406C18.6132 33.3047 19.0941 32.9625 19.6388 32.5772C20.1966 32.1788 20.8163 31.74 21.6104 31.3603C23.2688 30.5681 24.5682 30.6591 25.3895 31.1747C26.1179 31.6341 26.4901 32.4347 26.4048 33.2822C26.3092 34.2281 25.6417 35.2406 24.3235 35.8444C23.2501 36.4106 22.2826 36.9422 21.6048 37.3669C21.5541 37.3988 21.5063 37.425 21.4585 37.4522C21.9845 37.4419 22.7607 37.4335 23.6804 37.5263C24.9676 37.6566 26.4076 37.7738 27.6488 37.8291ZM38.8951 36.3281C38.8951 36.3225 38.8951 36.3281 38.8923 36.331L38.8951 36.3281ZM41.821 13.1494C42.1773 12.945 42.6338 13.0669 42.8392 13.426C43.0463 13.7822 42.9216 14.2388 42.5654 14.4441L36.3066 18.0581C35.9476 18.2625 35.4938 18.1406 35.2867 17.7816C35.0823 17.4253 35.2042 16.9688 35.5632 16.7635L41.821 13.1494ZM39.6338 11.9616C39.6657 12.0038 39.6901 12.0516 39.7107 12.0994C39.9207 12.5091 39.9601 12.9656 39.8485 13.38C39.4632 14.8153 37.5151 15.256 36.5935 13.8713C36.0301 13.0238 36.3648 11.7741 37.2788 11.325C38.1535 10.8985 39.137 11.1666 39.6338 11.9616ZM38.3748 12.7669C38.1779 12.4266 37.6623 12.7247 37.8563 13.0641C38.0504 13.4044 38.5688 13.11 38.3748 12.7669ZM31.4626 12.8522C29.9504 12.8522 29.0579 15.7725 30.301 17.4713C31.4673 19.0631 33.2082 17.6888 33.2082 15.5072C33.2082 14.731 32.9851 14.0372 32.6213 13.5431C32.3101 13.1147 31.8985 12.8522 31.4626 12.8522ZM29.0945 12.6581C30.3704 10.9172 32.5548 10.9172 33.827 12.6581C34.9932 14.2472 34.9932 16.7663 33.827 18.3553C32.5538 20.0963 30.3695 20.0963 29.0945 18.3553C27.9301 16.7663 27.9301 14.2472 29.0945 12.6581ZM40.2291 18.2363C40.0135 17.9278 39.5326 18.2306 39.722 18.5606C39.8017 18.6985 39.9901 18.7491 40.1317 18.6694V18.6666C40.2826 18.5785 40.322 18.4031 40.2291 18.2363ZM40.4476 16.6735C41.8876 17.0588 42.3207 19.0097 40.937 19.9285C40.5273 20.1994 39.9723 20.2631 39.5176 20.1441C37.9923 19.7344 37.6895 17.6597 39.0873 16.8544C39.5176 16.6069 40.0032 16.5535 40.4476 16.6735ZM28.1992 10.6247C28.0107 10.6331 27.8242 10.5872 27.7604 10.6594L24.1595 14.64C23.867 14.9963 23.5088 15.2194 23.5107 15.735C23.5135 15.9638 23.5988 16.1944 23.7685 16.3781L27.7895 20.6935L43.8404 20.6963C43.8967 20.6963 43.9445 20.6485 43.9445 20.5922H43.9473V10.7316H43.9445C43.9445 10.6753 43.8967 10.6275 43.8404 10.6275V10.6247H28.1992ZM27.8373 9.13127L30.062 6.78752C30.2795 6.55877 30.392 6.38908 30.421 6.27471C30.3442 6.21377 30.211 6.16314 30.0329 6.12096C29.3176 5.95596 28.2207 6.04689 27.1445 6.39189C26.7029 6.53252 26.2332 6.23533 26.1742 5.77314C25.9482 3.99002 24.0029 3.16314 22.7485 4.33783C22.3707 4.69127 22.111 5.18533 22.0313 5.74596C21.9751 6.24846 21.5026 6.53533 21.0582 6.39189C19.982 6.04596 18.8842 5.95596 18.1698 6.12096C17.9917 6.16314 17.8585 6.21377 17.7816 6.27471C17.8079 6.38908 17.9223 6.55877 18.1407 6.78752L21.0263 9.82783H26.4985C26.7217 9.58033 26.8651 9.41064 27.1895 9.26439C27.391 9.17627 27.6085 9.13127 27.8373 9.13127ZM25.1429 11.3269H19.1401C18.2157 11.3269 17.7179 12.4594 18.3929 13.1316C18.5842 13.3256 18.8504 13.4428 19.1401 13.4428H23.2304L25.1429 11.3269Z" fill="#22CCEE"/>
<path fill-rule="evenodd" clip-rule="evenodd" d="M9.32805 37.5769C9.29617 39.4978 9.2643 41.4225 9.23242 43.3462L9.22961 43.4362H3.25586V37.4812H9.33086L9.32805 37.5769ZM27.2024 6.27467C28.0527 6.01405 29.1927 5.83124 30.0543 6.02998C30.1902 6.06186 30.3684 6.11248 30.4799 6.19967L30.5249 6.23717L30.5118 6.2953C30.4668 6.48374 30.2624 6.7153 30.1321 6.8503L27.8784 9.22311H27.839C27.629 9.22311 27.4218 9.26342 27.2305 9.35061C26.9249 9.48373 26.7871 9.6478 26.5687 9.8878L26.5424 9.91967H20.9887L18.073 6.8503C17.9427 6.71436 17.7384 6.48374 17.6934 6.2953L17.6802 6.23717L17.7252 6.19967C17.8368 6.11155 18.0149 6.06186 18.1509 6.02998C19.0415 5.8228 20.2321 6.02717 21.0899 6.30092C21.4968 6.43405 21.8924 6.15467 21.9402 5.73467C22.0171 5.17686 22.2749 4.6528 22.6874 4.26749C23.2902 3.70124 24.1227 3.53624 24.8849 3.8578C25.6687 4.1878 26.1627 4.92842 26.2696 5.76092C26.3202 6.16217 26.7318 6.4228 27.1171 6.29998L27.2024 6.27467ZM21.4171 37.364C21.4649 37.3406 21.5099 37.3134 21.5577 37.2844C21.9534 37.0369 22.363 36.8006 22.7718 36.5747C23.2715 36.2953 23.774 36.0244 24.2812 35.759L24.284 35.7562C25.2937 35.294 26.1946 34.4222 26.3118 33.269C26.3943 32.4562 26.0352 31.6903 25.3387 31.2515C24.2305 30.555 22.7474 30.9197 21.6505 31.4428C20.9409 31.7803 20.3296 32.1975 19.6921 32.6522C19.2505 32.9653 18.704 33.375 18.1827 33.5287C17.3005 33.7922 16.5487 34.2937 15.839 34.8703L15.7724 34.9265L15.7115 34.8628C13.6893 32.7178 12.5727 29.9044 12.5727 26.954C12.5727 24.5887 13.6546 22.4465 14.9962 20.5575C16.4362 18.5269 18.2062 16.7175 19.8805 14.8781L19.9068 14.849H22.2749L22.2355 14.9709C21.9562 15.7922 22.153 16.6987 22.7427 17.3334L26.729 21.6197C27.0159 21.9309 27.4068 22.1006 27.8315 22.1006H34.2018L34.228 22.1484C35.0652 23.639 35.6259 25.2309 35.6259 26.9531C35.6259 31.9434 32.4187 36.3712 27.6777 37.9181L27.6618 37.9237L27.643 37.9209C26.3193 37.8628 24.988 37.7512 23.6699 37.6153C22.9284 37.5412 22.2027 37.5272 21.4612 37.5412L21.0599 37.5469L21.4171 37.364ZM20.6334 29.82C20.9634 29.9662 21.3505 29.8172 21.4968 29.4881L22.0734 28.2075H24.2896L24.8662 29.4881C25.0152 29.8172 25.4005 29.9662 25.7296 29.82C26.0587 29.6737 26.2077 29.2856 26.0596 28.9565L23.7796 23.8781C23.5509 23.3681 22.8177 23.3597 22.5834 23.8781L20.3034 28.9565C20.1543 29.2856 20.3062 29.6737 20.6334 29.82ZM23.1815 25.7381L23.6999 26.894H22.663L23.1815 25.7381ZM28.9452 26.684L27.1143 28.7944C26.878 29.0653 26.9099 29.4825 27.1809 29.7169C27.4518 29.9531 27.869 29.9212 28.1034 29.6503L29.8124 27.6815L31.5215 29.6503C31.7549 29.9212 32.1721 29.9531 32.444 29.7169C32.7149 29.4834 32.7468 29.0662 32.5105 28.7944L30.6796 26.684L32.5105 24.5709C32.7468 24.3 32.7149 23.8828 32.444 23.6484C32.173 23.4122 31.7559 23.444 31.5215 23.715L29.8124 25.6837L28.1034 23.715C27.8699 23.444 27.4527 23.4122 27.1809 23.6484C26.9099 23.8819 26.878 24.299 27.1143 24.5709L28.9452 26.684ZM18.9215 29.2219V24.7997H20.3437C20.7074 24.7997 20.9999 24.5044 20.9999 24.1434C20.9999 23.7815 20.7074 23.4872 20.3437 23.4872H16.1877C15.8268 23.4872 15.5315 23.7825 15.5315 24.1434C15.5315 24.5044 15.8268 24.7997 16.1877 24.7997H17.6099V29.2219C17.6099 29.5856 17.9052 29.8781 18.2662 29.8781C18.629 29.8781 18.9215 29.5856 18.9215 29.2219Z" fill="#22CCEE"/>
</svg>
