<svg width="45" height="60" viewBox="0 0 45 60" fill="none" xmlns="http://www.w3.org/2000/svg">
<path fill-rule="evenodd" clip-rule="evenodd" d="M16.9625 16.012H14.0605C12.9565 16.012 12.0605 16.908 12.0605 18.012C12.0605 19.116 12.9565 20.012 14.0605 20.012H15.0545C12.0205 22.946 8.29055 26.432 5.35255 30.338C2.26855 34.44 0.0605469 38.998 0.0605469 43.844C0.0605469 47.936 1.03055 51.008 2.65655 53.324C6.31255 58.526 13.5805 59.976 22.0605 59.976C30.5405 59.976 37.8085 58.526 41.4625 53.324C43.0885 51.008 44.0605 47.936 44.0605 43.844C44.0605 38.996 41.8485 34.434 38.7625 30.33C35.8285 26.426 32.1005 22.944 29.0685 20.012H30.0605C31.1645 20.012 32.0605 19.116 32.0605 18.012C32.0605 16.908 31.1645 16.012 30.0605 16.012H27.1445L30.8665 8.73C31.8165 6.87 31.7305 4.65 30.6405 2.868C29.5505 1.086 27.6125 0 25.5225 0H18.5805C16.4925 0 14.5545 1.086 13.4625 2.868C12.3725 4.65 12.2885 6.872 13.2385 8.732L16.9625 16.012ZM20.0065 28H20.0005C16.6885 28 14.0005 30.688 14.0005 34C14.0005 37.312 16.6885 40 20.0005 40H24.0005C25.1045 40 26.0005 40.896 26.0005 42C26.0005 43.104 25.1045 44 24.0005 44H18.0005C16.8965 44 16.0005 44.896 16.0005 46C16.0005 47.104 16.8965 48 18.0005 48H20.0065V50C20.0065 51.104 20.9045 52 22.0065 52C23.1105 52 24.0065 51.104 24.0065 50V48C27.3165 47.996 30.0005 45.31 30.0005 42C30.0005 38.688 27.3125 36 24.0005 36H20.0005C18.8965 36 18.0005 35.104 18.0005 34C18.0005 32.896 18.8965 32 20.0005 32H26.0005C27.1045 32 28.0005 31.104 28.0005 30C28.0005 28.896 27.1045 28 26.0005 28H24.0065V26C24.0065 24.896 23.1105 24 22.0065 24C20.9045 24 20.0065 24.896 20.0065 26V28Z" fill="#EAAA08"/>
</svg>
