<svg width="57" height="57" viewBox="0 0 57 57" fill="none" xmlns="http://www.w3.org/2000/svg">
<path d="M22.4062 0.0625C16.4803 0.0625001 10.7971 2.41657 6.60683 6.60683C2.41657 10.7971 0.0625 16.4803 0.0625 22.4062C0.0625 28.3322 2.41657 34.0154 6.60683 38.2057C10.7971 42.3959 16.4803 44.75 22.4062 44.75C24.4679 44.7586 26.52 44.4713 28.5 43.8969V43.7344C28.5 39.694 30.105 35.819 32.962 32.962C35.819 30.105 39.694 28.5 43.7344 28.5H43.8969C44.4713 26.52 44.7586 24.4679 44.75 22.4062C44.7462 16.4815 42.391 10.8004 38.2015 6.61099C34.0121 2.42154 28.331 0.0662667 22.4062 0.0625ZM22.4062 20.375C23.842 20.3723 25.2324 20.8778 26.3311 21.802C27.4299 22.7261 28.1661 24.0093 28.4094 25.4243C28.6527 26.8393 28.3873 28.2947 27.6604 29.5328C26.9334 30.7709 25.7917 31.7118 24.4375 32.1888V33.2389C24.4375 33.7776 24.2235 34.2943 23.8426 34.6752C23.4616 35.0562 22.945 35.2702 22.4062 35.2702C21.8675 35.2702 21.3509 35.0562 20.9699 34.6752C20.589 34.2943 20.375 33.7776 20.375 33.2389V32.1888C19.191 31.7701 18.1652 30.9959 17.438 29.972C16.7108 28.9482 16.3177 27.7246 16.3125 26.4688C16.3125 25.93 16.5265 25.4134 16.9074 25.0324C17.2884 24.6515 17.805 24.4375 18.3438 24.4375C18.8825 24.4375 19.3991 24.6515 19.7801 25.0324C20.161 25.4134 20.375 25.93 20.375 26.4688C20.375 26.8705 20.4941 27.2632 20.7173 27.5973C20.9405 27.9313 21.2578 28.1916 21.6289 28.3454C22.0001 28.4991 22.4085 28.5393 22.8025 28.461C23.1966 28.3826 23.5585 28.1891 23.8426 27.9051C24.1266 27.621 24.3201 27.2591 24.3985 26.865C24.4768 26.471 24.4366 26.0626 24.2829 25.6914C24.1291 25.3203 23.8688 25.003 23.5348 24.7798C23.2007 24.5566 22.808 24.4375 22.4062 24.4375C20.9705 24.4402 19.5801 23.9347 18.4814 23.0105C17.3826 22.0864 16.6464 20.8032 16.4031 19.3882C16.1598 17.9732 16.4252 16.5178 17.1521 15.2797C17.8791 14.0416 19.0208 13.1007 20.375 12.6237V11.5736C20.375 11.0349 20.589 10.5182 20.9699 10.1373C21.3509 9.75635 21.8675 9.54234 22.4062 9.54234C22.945 9.54234 23.4616 9.75635 23.8426 10.1373C24.2235 10.5182 24.4375 11.0349 24.4375 11.5736V12.6237C25.6215 13.0424 26.6473 13.8166 27.3745 14.8405C28.1017 15.8643 28.4948 17.0879 28.5 18.3438C28.5 18.8825 28.286 19.3991 27.9051 19.7801C27.5241 20.161 27.0075 20.375 26.4688 20.375C25.93 20.375 25.4134 20.161 25.0324 19.7801C24.6515 19.3991 24.4375 18.8825 24.4375 18.3438C24.4375 17.942 24.3184 17.5493 24.0952 17.2152C23.872 16.8812 23.5547 16.6209 23.1836 16.4671C22.8124 16.3134 22.404 16.2732 22.01 16.3515C21.6159 16.4299 21.254 16.6234 20.9699 16.9074C20.6859 17.1915 20.4924 17.5534 20.414 17.9475C20.3357 18.3415 20.3759 18.7499 20.5296 19.1211C20.6834 19.4922 20.9437 19.8095 21.2777 20.0327C21.6118 20.2559 22.0045 20.375 22.4062 20.375Z" fill="#16B364"/>
<path d="M43.7344 30.5312C41.1231 30.5312 38.5704 31.3056 36.3991 32.7564C34.2279 34.2072 32.5356 36.2692 31.5363 38.6818C30.537 41.0943 30.2755 43.749 30.7849 46.3102C31.2944 48.8713 32.5519 51.2239 34.3984 53.0704C36.2449 54.9169 38.5974 56.1744 41.1586 56.6838C43.7197 57.1933 46.3744 56.9318 48.787 55.9325C51.1996 54.9332 53.2616 53.2409 54.7124 51.0696C56.1632 48.8984 56.9375 46.3457 56.9375 43.7344C56.9332 40.234 55.5408 36.8782 53.0656 34.4031C50.5905 31.928 47.2347 30.5356 43.7344 30.5312ZM49.233 42.4628L43.8156 47.8802C43.4347 48.261 42.9182 48.4749 42.3795 48.4749C41.8409 48.4749 41.3244 48.261 40.9434 47.8802L38.2358 45.1705C37.8658 44.7874 37.661 44.2743 37.6657 43.7417C37.6703 43.2091 37.8839 42.6996 38.2605 42.323C38.6371 41.9464 39.1466 41.7328 39.6792 41.7282C40.2118 41.7235 40.7249 41.9283 41.108 42.2983L42.3795 43.5698L46.3608 39.5886C46.5495 39.4 46.7735 39.2504 47.0201 39.1484C47.2666 39.0464 47.5308 38.9939 47.7976 38.994C48.0644 38.9941 48.3286 39.0468 48.575 39.149C48.8215 39.2512 49.0454 39.4009 49.234 39.5896C49.4226 39.7783 49.5722 40.0024 49.6742 40.2489C49.7762 40.4954 49.8286 40.7596 49.8285 41.0264C49.8284 41.2932 49.7758 41.5574 49.6736 41.8038C49.5714 42.0503 49.4217 42.2742 49.233 42.4628Z" fill="#16B364"/>
</svg>
