<svg width="59" height="59" viewBox="0 0 59 59" fill="none" xmlns="http://www.w3.org/2000/svg">
<path d="M31.8509 52.6972C35.5235 52.3564 38.9035 50.8677 41.6449 48.427C39.4882 53.1004 35.2005 56.8129 30.0144 58.2929C23.2615 60.2199 16.1432 58.0307 10.485 52.2865C10.3445 52.1438 10.153 52.0633 9.95273 52.0624H9.94986C9.75073 52.0624 9.55973 52.1415 9.41886 52.2823L5.17886 56.5195L4.88698 41.1567L20.25 41.4484L16.0127 45.6885C15.8676 45.8337 15.7884 46.0318 15.7931 46.237C15.7979 46.4422 15.8864 46.6364 16.038 46.7747C20.7819 51.0999 26.3979 53.2024 31.851 52.6973L31.8509 52.6972ZM16.4199 15.2828C20.4994 15.2828 23.8184 11.9624 23.8184 7.8808C23.8184 3.79917 20.4995 0.482422 16.4199 0.482422C12.3402 0.482422 9.02136 3.8013 9.02136 7.8808C9.02136 11.9603 12.3402 15.2828 16.4199 15.2828ZM43.4942 23.6945C47.5737 23.6945 50.8927 20.3757 50.8927 16.2962C50.8927 12.2167 47.5737 8.89767 43.4942 8.89767C39.4147 8.89767 36.0922 12.2165 36.0922 16.2962C36.0922 20.3758 39.4127 23.6945 43.4942 23.6945ZM58.9206 38.8078C57.9566 31.048 51.3247 25.1969 43.4942 25.1969C35.6637 25.1969 29.045 31.0349 28.0679 38.7769C27.9647 39.5838 28.1209 39.8329 28.1712 39.89C28.234 39.9613 28.3634 39.9973 28.5557 39.9973H58.4294C58.6209 39.9973 58.7499 39.9612 58.8129 39.8898C58.8627 39.8333 59.0181 39.5882 58.9206 38.8078ZM31.5199 28.6137C29.8294 21.7354 23.545 16.7853 16.4199 16.7853C8.60261 16.7853 1.97073 22.6218 0.993482 30.3615C0.890357 31.1684 1.04648 31.4175 1.09686 31.4747C1.15961 31.5459 1.28898 31.5819 1.48136 31.5819H29.1135C29.8042 30.502 30.6127 29.5072 31.5199 28.6137Z" fill="#088AB2"/>
</svg>
