<svg width="56" height="56" viewBox="0 0 56 56" fill="none" xmlns="http://www.w3.org/2000/svg">
<g clip-path="url(#clip0_9650_40438)">
<path d="M42.6021 9.56178C42.6021 8.24797 42.0894 7.01116 41.1601 6.08191L36.5202 1.442C35.6039 0.525547 34.3031 0 33.0085 0H32.7266V9.84375H42.6023L42.6021 9.56178Z" fill="#7856FC"/>
<path d="M29.9619 33.8556C30.2759 32.9023 30.8238 32.0147 31.5384 31.2954L42.6467 20.2318V13.125H31.1186C30.2118 13.125 29.5312 12.3912 29.5312 11.4844V0H4.92188C2.20784 0 0 2.20784 0 4.92188V51.0781C0 53.7922 2.20784 56 4.92188 56H37.6811C40.3951 56 42.6467 53.7922 42.6467 51.0781V38.8335L40.8438 40.5927C40.1133 41.3168 39.2578 41.8439 38.2932 42.166L33.0765 43.9076L32.2818 43.9509C30.968 43.9509 29.7247 43.3116 28.9525 42.2414C28.1867 41.176 27.9785 39.7949 28.395 38.5468L29.9619 33.8556ZM8.20312 29.5312H24.5561C25.4629 29.5312 26.1967 30.265 26.1967 31.1719C26.1967 32.0787 25.4629 32.8125 24.5561 32.8125H8.20312C7.2963 32.8125 6.5625 32.0787 6.5625 31.1719C6.5625 30.265 7.2963 29.5312 8.20312 29.5312ZM6.5625 24.6094C6.5625 23.7025 7.2963 22.9688 8.20312 22.9688H24.5561C25.4629 22.9688 26.1967 23.7025 26.1967 24.6094C26.1967 25.5162 25.4629 26.25 24.5561 26.25H8.20312C7.2963 26.25 6.5625 25.5162 6.5625 24.6094ZM6.5625 37.7344C6.5625 36.8275 7.2963 36.0938 8.20312 36.0938H24.5561C25.4629 36.0938 26.1967 36.8275 26.1967 37.7344C26.1967 38.6412 25.4629 39.375 24.5561 39.375H8.20312C7.2963 39.375 6.5625 38.6412 6.5625 37.7344ZM31.1186 45.9375C32.0254 45.9375 32.7592 46.6713 32.7592 47.5781C32.7592 48.485 32.0255 49.2188 31.1186 49.2188H21.2749C20.368 49.2188 19.6342 48.485 19.6342 47.5781C19.6342 46.6713 20.368 45.9375 21.2749 45.9375H31.1186ZM8.20312 19.6875C7.2963 19.6875 6.5625 18.9537 6.5625 18.0469C6.5625 17.14 7.2963 16.4062 8.20312 16.4062H31.1186C32.0254 16.4062 32.7592 17.14 32.7592 18.0469C32.7592 18.9537 32.0254 19.6875 31.1186 19.6875H8.20312Z" fill="#7856FC"/>
<path d="M32.9338 35.3066L31.5065 39.5888C31.2925 40.2303 31.9029 40.8405 32.5444 40.6262L36.824 39.1969L32.9338 35.3066Z" fill="#7856FC"/>
<path d="M45.6761 21.7988L34.8711 32.6039L39.531 37.2638C41.9731 34.8212 46.7249 30.0688 50.3355 26.4582L45.6761 21.7988Z" fill="#7856FC"/>
<path d="M55.0361 17.0933C54.4594 16.5133 53.6102 16.1816 52.7097 16.1816C51.8092 16.1816 50.9602 16.5133 50.3801 17.0949L47.9961 19.479L52.6552 24.1381C53.9604 22.8328 54.8625 21.9307 55.0395 21.7539C56.3211 20.4703 56.321 18.3797 55.0361 17.0933Z" fill="#7856FC"/>
<path d="M55.0391 21.7557L55.0393 21.7555C55.0434 21.7513 55.0453 21.7495 55.0487 21.7461C55.0453 21.7496 55.0434 21.7515 55.0391 21.7557Z" fill="#7856FC"/>
<path d="M55.0488 21.7453C55.0541 21.74 55.0602 21.7339 55.0634 21.7307C55.0601 21.734 55.0541 21.74 55.0488 21.7453Z" fill="#7856FC"/>
<path d="M55.0625 21.7307C55.0731 21.7201 55.0733 21.7199 55.0625 21.7307V21.7307Z" fill="#7856FC"/>
</g>
<defs>
<clipPath id="clip0_9650_40438">
<rect width="56" height="56" fill="white"/>
</clipPath>
</defs>
</svg>
