<svg width="43" height="56" viewBox="0 0 43 56" fill="none" xmlns="http://www.w3.org/2000/svg">
<path d="M29.9619 33.8556C30.2759 32.9023 30.8238 32.0147 31.5384 31.2954L42.6467 20.2318V13.125H31.1186C30.2118 13.125 29.5312 12.3912 29.5312 11.4844V0H4.92188C2.20784 0 0 2.20784 0 4.92188V51.0781C0 53.7922 2.20784 56 4.92188 56H37.6811C40.3951 56 42.6467 53.7922 42.6467 51.0781V38.8335L40.8438 40.5927C40.1133 41.3168 39.2578 41.8439 38.2932 42.166L33.0765 43.9076L32.2818 43.9509C30.968 43.9509 29.7247 43.3116 28.9525 42.2414C28.1867 41.176 27.9785 39.7949 28.395 38.5468L29.9619 33.8556ZM8.20312 29.5312H24.5561C25.4629 29.5312 26.1967 30.265 26.1967 31.1719C26.1967 32.0787 25.4629 32.8125 24.5561 32.8125H8.20312C7.2963 32.8125 6.5625 32.0787 6.5625 31.1719C6.5625 30.265 7.2963 29.5312 8.20312 29.5312ZM6.5625 24.6094C6.5625 23.7025 7.2963 22.9688 8.20312 22.9688H24.5561C25.4629 22.9688 26.1967 23.7025 26.1967 24.6094C26.1967 25.5162 25.4629 26.25 24.5561 26.25H8.20312C7.2963 26.25 6.5625 25.5162 6.5625 24.6094ZM6.5625 37.7344C6.5625 36.8275 7.2963 36.0938 8.20312 36.0938H24.5561C25.4629 36.0938 26.1967 36.8275 26.1967 37.7344C26.1967 38.6412 25.4629 39.375 24.5561 39.375H8.20312C7.2963 39.375 6.5625 38.6412 6.5625 37.7344ZM31.1186 45.9375C32.0254 45.9375 32.7592 46.6713 32.7592 47.5781C32.7592 48.485 32.0255 49.2188 31.1186 49.2188H21.2749C20.368 49.2188 19.6342 48.485 19.6342 47.5781C19.6342 46.6713 20.368 45.9375 21.2749 45.9375H31.1186ZM8.20312 19.6875C7.2963 19.6875 6.5625 18.9537 6.5625 18.0469C6.5625 17.14 7.2963 16.4062 8.20312 16.4062H31.1186C32.0254 16.4062 32.7592 17.14 32.7592 18.0469C32.7592 18.9537 32.0254 19.6875 31.1186 19.6875H8.20312Z" fill="#7856FC"/>
</svg>
